<?xml version="1.0" encoding="UTF-8"?>
<svg id="SVGRoot" width="64px" height="64px" version="1.1" viewBox="0 0 64 64" xmlns="http://www.w3.org/2000/svg">
 <g>
  <g transform="matrix(1.1086 0 0 .9286 -9.4134 1.5599)" display="none" fill="#59f" stroke="#000080" stroke-width="1.0942" aria-label="?">
   <path d="m47.417 37.376h5.7945v7.2503h-5.7945zm5.6233-4.196h-5.452v-4.3959q0-2.883 0.79925-4.7384t3.3683-4.3102l2.569-2.5405q1.627-1.5129 2.3407-2.8545 0.74216-1.3416 0.74216-2.7403 0-2.5405-1.8839-4.1104-1.8554-1.5699-4.9382-1.5699-2.255 0-4.824 0.99906-2.5405 0.99906-5.3093 2.9115v-5.3664q2.6832-1.627 5.4235-2.4263 2.7688-0.79925 5.7089-0.79925 5.2522 0 8.4206 2.7688 3.197 2.7688 3.197 7.3074 0 2.1694-1.0276 4.139-1.0276 1.941-3.5966 4.3959l-2.5119 2.4548q-1.3416 1.3416-1.9125 2.1123-0.54235 0.74216-0.7707 1.4558-0.17127 0.59944-0.2569 1.4558-0.08563 0.85634-0.08563 2.3407z" fill="#59f" stroke="#000080" stroke-width="1.0942"/>
  </g>
  <text transform="scale(1.3866 .72119)" x="-0.014201428" y="55.815056" fill="#00aad4" font-family="'Liberation Mono'" font-size="77.075px" font-weight="bold" letter-spacing="0px" stroke="#000000" stroke-width=".94195" word-spacing="0px" style="font-variant-caps:normal;font-variant-east-asian:normal;font-variant-ligatures:normal;font-variant-numeric:normal;line-height:1.25" xml:space="preserve"><tspan x="-0.014201428" y="55.815056" fill="#00aad4" font-family="'Liberation Mono'" font-size="77.075px" font-weight="bold" stroke="#000000" stroke-width=".94195" style="font-variant-caps:normal;font-variant-east-asian:normal;font-variant-ligatures:normal;font-variant-numeric:normal">M</tspan></text>
  <g fill="#f06" stroke="#000">
   <path d="m2 42.5v19l17-9.5z" stroke-width="1.3625px"/>
   <path d="m46 42.5v19l17-9.5z" stroke-width="1.412px"/>
   <path d="m23.981 42.5v19l17-9.5z" stroke-width="1.3866px"/>
  </g>
 </g>
</svg>
