/* XPM */
static const char * addtrack_audiooutput_xpm[] = {
"16 16 25 1",
" 	c None",
".	c #800000",
"+	c #FEFFFC",
"@	c #C20000",
"#	c #DBDDDA",
"$	c #656664",
"%	c #FDF7F6",
"&	c #545654",
"*	c #626361",
"=	c #767775",
"-	c #000100",
";	c #7B7C7A",
">	c #7C7D7A",
",	c #838481",
"'	c #D8D9D7",
")	c #CFD0CE",
"!	c #D6D8D5",
"~	c #FBFCF9",
"{	c #C0C1BE",
"]	c #E7E8E5",
"^	c #F3F4F1",
"/	c #B7B8B6",
"(	c #F8FEFF",
"_	c #B4B5B3",
":	c #B3B0AF",
"................",
".+@@@@@@@@@@@@@.",
"##+$$$$$$$$$$#@.",
"$$$$++#++++#$$+.",
"$++++++++++%#$#.",
"++++++&*&++%=$+.",
"##+&*&---;>,=++.",
".++'''---)!=~+#.",
".@++##{{'##=#++.",
".@#+%+#+]-;=+++.",
".@++++%^---+++@.",
".@++++^---/++(@.",
".@++++*--_%++%@.",
".@+++&-:_++++(@.",
".@@@#-#%++@@@@@.",
"....+#+........."};
