/* XPM */
static const char * addtrack_wavetrack_xpm[] = {
"16 16 17 1",
" 	c None",
".	c #800000",
"+	c #FEFFFC",
"@	c #FDF7F6",
"#	c #A29FA3",
"$	c #9FA19E",
"%	c #C20000",
"&	c #F9FBF8",
"*	c #C2C4C0",
"=	c #BAC5C6",
"-	c #7F817E",
";	c #FFFFFF",
">	c #F8FEFF",
",	c #000100",
"'	c #797D7C",
")	c #DBDDDA",
"!	c #DDE2E5",
".........+++@#$#",
".%%%%%%%+++@+++#",
".%++&&&&++*=#-++",
".;>>>++,>@@@@$@+",
">>+@@+,,+=**@$++",
"+,,+,,,,++@#@-@+",
"+,,+,,+,**+#+'-@",
"+,,+,++,+#@-+@'@",
"+,,+,++,+$+'@+'@",
"+,,+,,+,**@$@--@",
"+,,+,,,,@@+#+#@+",
"++++)),,+***+*++",
".+)+@!),+@@@+*@+",
".%+@+@)!;+**#'@$",
".%%%%%%%;+@@+@+#",
".........@@+++$$"};
