/* XPM */
static const char * addtrack_auxsend_xpm[] = {
"16 16 9 1",
" 	c None",
".	c #FFFFFF",
"+	c #F4F4F4",
"@	c #9FA19E",
"#	c #797D7C",
"$	c #DEDFDE",
"%	c #000000",
"&	c #C9CAC8",
"*	c #F1F1F1",
".+@..........@+.",
"+#$.+@....@..$#+",
"#%$+#$....$#.$%#",
"%&.#%$....$%#.&%",
"%$+%........%.$%",
"%$#%.$@..@$.%#$%",
"%$%$.#$..$#.$%$%",
"%$%$.#.%%.#.$%$%",
"%$%$.#$%%$#.$%$%",
"%$%$.#$.%$#.$%$%",
"%$#%.$@.%@$.%#$%",
"%$+%....%...%.$%",
"%&.#%$..%.$%#.&%",
"#%$+#$..%.$#.$##",
"+#$.*@..%.@..$%+",
"..@.....%....@+."};
