/* XPM */
static const char * edit_mastertrack_xpm[] = {
"16 16 19 1",
" 	c None",
".	c #13A913",
"+	c #000100",
"@	c #0AD700",
"#	c #F9FBF8",
"$	c #F8FEFF",
"%	c #FEFFFC",
"&	c #FDF7F6",
"*	c #ED9E9D",
"=	c #EA8B8B",
"-	c #5B6062",
";	c #D78080",
">	c #EC9594",
",	c #DA8A8A",
"'	c #797D7C",
")	c #747573",
"!	c #FF9797",
"~	c #1C1D1C",
"{	c #C2C4C0",
"................",
"++@@@@@@@@@@@@@.",
".++##$%#%$%%&%@.",
".@++&&&&&&&&$&@.",
".@&++$**%$$%$%@.",
".@%%++%=*%%%$&@.",
".@%%%+-;;==++++.",
".@%%%%>,;;;+'++.",
".@%&&%%*=;;++++.",
".@%$%$%)*=!++++.",
".@%%&%$%%~$++++.",
".@%%%%%%%%%{{{{.",
".@%%%%%%%%&&&&@.",
".@%%%%%%%%%%%%@.",
".@@@@@@@@@@@@@@.",
"................"};
