/* XPM */
static const char * initS_xpm[] = {
"16 16 4 1",
" 	c None",
".	c #C00000",
"+	c #FFFFFF",
"@	c #000000",
"................",
"................",
"..++++++++++++..",
"..+@@++++++@@+..",
"..+@@@++++@@@+..",
"..++@@@++@@@++..",
"..+++@@@@@@+++..",
"..++++@@@@++++..",
"..++++@@@@++++..",
"..+++@@@@@@+++..",
"..++@@@++@@@++..",
"..+@@@++++@@@+..",
"..+@@++++++@@+..",
"..++++++++++++..",
"................",
"................"};
