/* XPM */
static const char *pianoS_xpm[]={
"16 16 5 1",
"# c #000000",
"c c #00c000",
". c #00ff00",
"b c #dcdcdc",
"a c #ffffff",
"................",
"................",
"..#########aaa..",
"..#########aaa..",
"..abbbbbbbbaaa..",
"..#########aaa..",
"..#########aaa..",
"..abbbbbbbbaaa..",
"..#########aaa..",
"..#########aaa..",
"..abbbbbbbbaaa..",
"..aaaaaaaaaaaa..",
"..#########aaa..",
"..#########aaa..",
"...ccccccccc....",
"................"};
