/* XPM */
static const char * settings_midifileexport_xpm[] = {
"16 16 11 1",
" 	c None",
".	c #292929",
"+	c #000000",
"@	c #676767",
"#	c #C9C9C9",
"$	c #793C11",
"%	c #994C15",
"&	c #C2611B",
"*	c #4F270B",
"=	c #371B07",
"-	c #5F2F0D",
"                ",
"   .            ",
"   ++           ",
"   +@+          ",
"   +#+#         ",
"   +###         ",
"   +#   ++++++++",
"   +#  +$%&&%$++",
"   +# +$%&&%$+$+",
" +++#++++++++$$+",
"++++#+$$%&%$+%&+",
"++++#+*$$$$%+&$+",
" ####+&$$=$%+$+#",
"     +$$%&%-++##",
"     ++++++++## ",
"      ########  "};
