/* XPM */
static const char * solobutton_off_xpm[] = {
"22 22 121 2",
"  	c #000000",
". 	c #720000",
"+ 	c #7B0000",
"@ 	c #810000",
"# 	c #840000",
"$ 	c #870000",
"% 	c #8D0000",
"& 	c #930000",
"* 	c #980000",
"= 	c #9C0000",
"- 	c #9B0000",
"; 	c #970000",
"> 	c #900000",
", 	c #8C0000",
"' 	c #850000",
") 	c #800000",
"! 	c #760000",
"~ 	c #730000",
"{ 	c #710000",
"] 	c #770000",
"^ 	c #A10000",
"/ 	c #A90000",
"( 	c #AE0000",
"_ 	c #B10000",
": 	c #B60000",
"< 	c #B50000",
"[ 	c #B30000",
"} 	c #AC0000",
"| 	c #A70000",
"1 	c #9E0000",
"2 	c #8F0000",
"3 	c #890000",
"4 	c #7F0000",
"5 	c #7A0000",
"6 	c #7C0000",
"7 	c #8E0000",
"8 	c #A00000",
"9 	c #AD0000",
"0 	c #B80000",
"a 	c #C00000",
"b 	c #C60000",
"c 	c #C80000",
"d 	c #CB0000",
"e 	c #C70000",
"f 	c #BB0000",
"g 	c #B20000",
"h 	c #A30000",
"i 	c #960000",
"j 	c #860000",
"k 	c #920000",
"l 	c #BA0000",
"m 	c #C50000",
"n 	c #CE0000",
"o 	c #D40000",
"p 	c #D80000",
"q 	c #D70000",
"r 	c #DA0000",
"s 	c #D10000",
"t 	c #C90000",
"u 	c #C30000",
"v 	c #B40000",
"w 	c #A40000",
"x 	c #910000",
"y 	c #7D0000",
"z 	c #950000",
"A 	c #AB0000",
"B 	c #BD0000",
"C 	c #CC0000",
"D 	c #D60000",
"E 	c #DF0000",
"F 	c #E30000",
"G 	c #E10000",
"H 	c #DC0000",
"I 	c #D00000",
"J 	c #C20000",
"K 	c #BC0000",
"L 	c #A50000",
"M 	c #AF0000",
"N 	c #414141",
"O 	c #CD0000",
"P 	c #B90000",
"Q 	c #AA0000",
"R 	c #9A0000",
"S 	c #473E3E",
"T 	c #D10100",
"U 	c #A80000",
"V 	c #880000",
"W 	c #D20000",
"X 	c #E50000",
"Y 	c #E80000",
"Z 	c #E40200",
"` 	c #D50100",
" .	c #D50000",
"..	c #D90000",
"+.	c #DE0000",
"@.	c #E20000",
"#.	c #E40000",
"$.	c #E70000",
"%.	c #E90000",
"&.	c #DB0000",
"*.	c #CA0000",
"=.	c #BE0000",
"-.	c #E00000",
";.	c #E60000",
">.	c #7E0000",
",.	c #DD0000",
"'.	c #BF0000",
").	c #D30000",
"!.	c #990000",
"~.	c #B00000",
"{.	c #940000",
"].	c #7A0100",
"^.	c #A60000",
"/.	c #9D0000",
"(.	c #9D0101",
"_.	c #7B0200",
":.	c #8C0100",
"<.	c #9E0101",
"[.	c #8F0101",
"}.	c #7F0101",
"|.	c #720101",
"                                            ",
"  . + @ # $ % & & * = - ; > , ' ) + ! ~ {   ",
"  ] $ & - ^ / ( _ : < [ } | 1 * 2 3 # 4 5   ",
"  6 7 8 9 0 a b b c d e a f g / h - i 7 j   ",
"  6 k | l m n o p q r q s t u f v 9 w - x   ",
"  y z A B C D r E F F G H q I d J K g L z   ",
"  ) * M N N N N N N N N N N N N O m P Q i   ",
"  # R _ S N N N N N N N N N N N T t f U &   ",
"  V 8 : N N W p r E X Y X Z N N ` C f L %   ",
"  % L l N N  ...r +.@.#.$.%.N N q d 0 ^ 3   ",
"  > / K N N p p r &.+.@.#.Y N N p *.< - @   ",
"  > / =.N N H &.&.&.&.E -.;.N N ..t g R >.  ",
"  x U =.N N &.,.&.p ..r H E N N p t [ i 6   ",
"  2 U '.N N &.+...D  . ...,.N N q c _ i y   ",
"  % w f N N p &.D ).).). .r N N q t g i >.  ",
"  V 8 : N N ).D ).s I ).D H N N D e g ; >.  ",
"  # !.~.N N N N N N N N N N N N o e ~.; >.  ",
"  4 & / N N N N N N N N N N N N n J 9 {.y   ",
"  ].x h g l f '.=.a m t O ).).I c f ^.> +   ",
"  ].% /.Q M [ [ v 0 f '.u e b u l ~.(.$ !   ",
"  _.:.!.8 ^.L L ^.Q A ~.[ < v M U <.[.}.|.  ",
"                                            "};
