<?xml version="1.0" encoding="UTF-8"?>
<!-- Created with Inkscape (http://www.inkscape.org/) -->
<svg id="SVGRoot" width="64px" height="64px" version="1.1" viewBox="0 0 64 64" xmlns="http://www.w3.org/2000/svg" xmlns:cc="http://creativecommons.org/ns#" xmlns:dc="http://purl.org/dc/elements/1.1/" xmlns:rdf="http://www.w3.org/1999/02/22-rdf-syntax-ns#">
 <metadata>
  <rdf:RDF>
   <cc:Work rdf:about="">
    <dc:format>image/svg+xml</dc:format>
    <dc:type rdf:resource="http://purl.org/dc/dcmitype/StillImage"/>
    <dc:title/>
   </cc:Work>
  </rdf:RDF>
 </metadata>
 <path d="m49.084 50.079c-5.4879 1.497-8.5322 2.1861-13.965 1.9885-2.3966-0.08718-7.7828-0.13753-15.555-1.5466 0 0-5.7458-10.947-7.6628-19.238-0.83084-3.5936 4.6275-7.0895 5.8099-4.3872 2.2844 5.2208 1.3676 4.466 1.3676 4.466l-0.02184-8.4907-0.6531-4.4405c-0.56882-3.8676 6.9169-5.4415 7.5581-3.0329l2.4704 9.2796 1.1857-10.756c0.36527-3.3137 6.882-1.9852 7 0l0.63832 10.739c0.09704 0.07573 1.112-2.4342 2.4349-9.7404 0.7172-3.9609 6.576-0.73382 6.4697 1.3813-0.32822 6.5293-1.0769 8.26-1.0769 8.26l2.3813-5.0839c1.5496-3.3083 5.6883 0.4765 5.4419 3l-0.42808 4.2165z" fill="#e9c6af" stroke="#000" stroke-linecap="round" stroke-linejoin="round" stroke-width="2"/>
</svg>
