<?xml version="1.0" encoding="UTF-8"?>
<svg id="SVGRoot" width="64px" height="64px" version="1.1" viewBox="0 0 64 64" xmlns="http://www.w3.org/2000/svg" xmlns:cc="http://creativecommons.org/ns#" xmlns:dc="http://purl.org/dc/elements/1.1/" xmlns:rdf="http://www.w3.org/1999/02/22-rdf-syntax-ns#">
 <metadata>
  <rdf:RDF>
   <cc:Work rdf:about="">
    <dc:format>image/svg+xml</dc:format>
    <dc:type rdf:resource="http://purl.org/dc/dcmitype/StillImage"/>
    <dc:title/>
   </cc:Work>
  </rdf:RDF>
 </metadata>
 <path d="m56.963 18.697h5.5938v24.312h-5.5938z"/>
 <path d="m54.151 30.275q-0.73438-0.34375-1.4688-0.5-0.71875-0.17188-1.4531-0.17188-2.1562 0-3.3281 1.3906-1.1562 1.375-1.1562 3.9531v8.0625h-5.5938v-17.5h5.5938v2.875q1.0781-1.7188 2.4688-2.5 1.4062-0.79688 3.3594-0.79688 0.28125 0 0.60938 0.03125 0.32812 0.01563 0.95312 0.09375z"/>
 <path d="m31.948 20.541v4.9688h5.7656v4h-5.7656v7.4219q0 1.2188 0.48438 1.6562 0.48438 0.42188 1.9219 0.42188h2.875v4h-4.7969q-3.3125 0-4.7031-1.375-1.375-1.3906-1.375-4.7031v-7.4219h-2.7812v-4h2.7812v-4.9688z"/>
 <path d="m21.088 41.728q-1.6562 0.85938-3.4531 1.2969t-3.75 0.4375q-5.8281 0-9.2344-3.25-3.4062-3.2656-3.4062-8.8438 0-5.5938 3.4062-8.8438 3.4062-3.2656 9.2344-3.2656 1.9531 0 3.75 0.4375t3.4531 1.2969v4.8281q-1.6719-1.1406-3.2969-1.6719t-3.4219-0.53125q-3.2188 0-5.0625 2.0625-1.8438 2.0625-1.8438 5.6875 0 3.6094 1.8438 5.6719 1.8438 2.0625 5.0625 2.0625 1.7969 0 3.4219-0.53125t3.2969-1.6719z"/>
</svg>
