<?xml version="1.0" encoding="UTF-8"?>
<svg id="SVGRoot" width="64px" height="64px" version="1.1" viewBox="0 0 64 64" xmlns="http://www.w3.org/2000/svg">
 <g>
  <path d="m60.633 3.3255 0.04671 57.227-57.36 0.39649 0.084767-57.577z" fill="#fff6d5" stroke="#2ca05a" stroke-linecap="round" stroke-linejoin="round" stroke-width="6"/>
 </g>
 <g fill="#b3b3b3">
  <path d="m44.09 45.604 0.02566-3.4354 1.2882-0.26614c1.6099-0.33262 3.1934-0.77223 4.3728-1.214 0.49997-0.18726 0.93591-0.34047 0.96876-0.34047 0.03285 0 0.05973 1.4288 0.05973 3.175v3.175l-0.5127 0.32708c-0.64548 0.4118-1.6406 0.84555-2.71 1.1813-0.97086 0.30478-3.091 0.83297-3.3435 0.83297-0.16487 0-0.17317-0.1914-0.14894-3.4354z" style="paint-order:stroke fill markers"/>
  <path d="m28.198 50.02c-0.64453-0.04106-1.3806-0.08061-1.6357-0.08789l-0.46387-0.01324v-6.947l1.6357 0.07997c0.89966 0.04398 3.042 0.0737 4.7607 0.06603 2.7774-0.01239 3.8039-0.0574 6.7151-0.29442l0.7581-0.06172-0.05136 6.9104-0.48828 0.06796c-1.9078 0.26554-8.7711 0.43662-11.23 0.27996z" style="paint-order:stroke fill markers"/>
  <path d="m20.679 49.216c-3.0405-0.51929-5.9937-1.478-7.1637-2.3255l-0.40471-0.29317v-3.021c0-1.9442 0.03543-3.0429 0.09941-3.0824 0.05468-0.03379 0.54835 0.09821 1.0971 0.29334 1.7163 0.61034 4.2615 1.2126 6.8358 1.6175l0.75684 0.11903-0.0069 3.2825c-0.0038 1.8054-0.03673 3.3524-0.07324 3.4378-0.06029 0.14109-0.16486 0.13851-1.1406-0.02814z" style="paint-order:stroke fill markers"/>
  <path d="m27.71 38.878c-5.3041-0.31842-9.9671-1.158-12.689-2.2847-0.99253-0.41086-1.8356-0.91444-1.7853-1.0664 0.06112-0.18452 1.6666-0.98132 2.6423-1.3114 7.1341-2.4134 20.468-2.7515 29.432-0.7463 2.0495 0.45844 4.3095 1.2982 5.1015 1.8956 0.32807 0.24747 0.1967 0.37967-0.90829 0.914-2.5014 1.2096-6.4358 2.0333-11.979 2.5081-1.648 0.14114-7.9987 0.20004-9.8145 0.09103z" style="paint-order:stroke fill markers"/>
 </g>
 <g>
  <g fill="none" stroke="#4d4d4d" stroke-width="4.0765">
   <path d="m52.996 46.702c0 3.0376-9.402 5.5-21 5.5s-21-2.4624-21-5.5" stroke-linecap="round" stroke-linejoin="round" style="paint-order:stroke fill markers"/>
   <ellipse cx="31.918" cy="35.57" rx="21" ry="5.5" stroke-linecap="round" stroke-linejoin="round" style="paint-order:stroke fill markers"/>
   <g>
    <path d="m52.9 35.5v12"/>
    <path d="m11 36v11"/>
    <path d="m24 41v11"/>
    <path d="m42 41v10"/>
   </g>
  </g>
  <path d="m16.916 9.7082 12 14" fill="#803300" stroke="#784421" stroke-linecap="round" stroke-width="2.7176"/>
  <path d="m36.916 23.708 11-14" fill="#803300" stroke="#784421" stroke-linecap="round" stroke-width="2.7176"/>
 </g>
</svg>
