<?xml version="1.0" encoding="UTF-8"?>
<!DOCTYPE svg PUBLIC "-//W3C//DTD SVG 1.1//EN" "http://www.w3.org/Graphics/SVG/1.1/DTD/svg11.dtd">
<svg version="1.2" width="16mm" height="16mm" viewBox="0 0 1600 1600" preserveAspectRatio="xMidYMid" fill-rule="evenodd" stroke-width="28.222" stroke-linejoin="round" xmlns="http://www.w3.org/2000/svg" xmlns:ooo="http://xml.openoffice.org/svg/export" xmlns:xlink="http://www.w3.org/1999/xlink" xmlns:presentation="http://sun.com/xmlns/staroffice/presentation" xmlns:smil="http://www.w3.org/2001/SMIL20/" xmlns:anim="urn:oasis:names:tc:opendocument:xmlns:animation:1.0" xml:space="preserve">
 <defs class="ClipPathGroup">
  <clipPath id="presentation_clip_path" clipPathUnits="userSpaceOnUse">
   <rect x="0" y="0" width="1600" height="1600"/>
  </clipPath>
  <clipPath id="presentation_clip_path_shrink" clipPathUnits="userSpaceOnUse">
   <rect x="1" y="1" width="1597" height="1597"/>
  </clipPath>
 </defs>
 <defs class="TextShapeIndex">
  <g ooo:slide="id1" ooo:id-list="id3 id4 id5 id6 id7 id8 id9"/>
 </defs>
 <defs class="EmbeddedBulletChars">
  <g id="bullet-char-template-57356" transform="scale(0.00048828125,-0.00048828125)">
   <path d="M 580,1141 L 1163,571 580,0 -4,571 580,1141 Z"/>
  </g>
  <g id="bullet-char-template-57354" transform="scale(0.00048828125,-0.00048828125)">
   <path d="M 8,1128 L 1137,1128 1137,0 8,0 8,1128 Z"/>
  </g>
  <g id="bullet-char-template-10146" transform="scale(0.00048828125,-0.00048828125)">
   <path d="M 174,0 L 602,739 174,1481 1456,739 174,0 Z M 1358,739 L 309,1346 659,739 1358,739 Z"/>
  </g>
  <g id="bullet-char-template-10132" transform="scale(0.00048828125,-0.00048828125)">
   <path d="M 2015,739 L 1276,0 717,0 1260,543 174,543 174,936 1260,936 717,1481 1274,1481 2015,739 Z"/>
  </g>
  <g id="bullet-char-template-10007" transform="scale(0.00048828125,-0.00048828125)">
   <path d="M 0,-2 C -7,14 -16,27 -25,37 L 356,567 C 262,823 215,952 215,954 215,979 228,992 255,992 264,992 276,990 289,987 310,991 331,999 354,1012 L 381,999 492,748 772,1049 836,1024 860,1049 C 881,1039 901,1025 922,1006 886,937 835,863 770,784 769,783 710,716 594,584 L 774,223 C 774,196 753,168 711,139 L 727,119 C 717,90 699,76 672,76 641,76 570,178 457,381 L 164,-76 C 142,-110 111,-127 72,-127 30,-127 9,-110 8,-76 1,-67 -2,-52 -2,-32 -2,-23 -1,-13 0,-2 Z"/>
  </g>
  <g id="bullet-char-template-10004" transform="scale(0.00048828125,-0.00048828125)">
   <path d="M 285,-33 C 182,-33 111,30 74,156 52,228 41,333 41,471 41,549 55,616 82,672 116,743 169,778 240,778 293,778 328,747 346,684 L 369,508 C 377,444 397,411 428,410 L 1163,1116 C 1174,1127 1196,1133 1229,1133 1271,1133 1292,1118 1292,1087 L 1292,965 C 1292,929 1282,901 1262,881 L 442,47 C 390,-6 338,-33 285,-33 Z"/>
  </g>
  <g id="bullet-char-template-9679" transform="scale(0.00048828125,-0.00048828125)">
   <path d="M 813,0 C 632,0 489,54 383,161 276,268 223,411 223,592 223,773 276,916 383,1023 489,1130 632,1184 813,1184 992,1184 1136,1130 1245,1023 1353,916 1407,772 1407,592 1407,412 1353,268 1245,161 1136,54 992,0 813,0 Z"/>
  </g>
  <g id="bullet-char-template-8226" transform="scale(0.00048828125,-0.00048828125)">
   <path d="M 346,457 C 273,457 209,483 155,535 101,586 74,649 74,723 74,796 101,859 155,911 209,963 273,989 346,989 419,989 480,963 531,910 582,859 608,796 608,723 608,648 583,586 532,535 482,483 420,457 346,457 Z"/>
  </g>
  <g id="bullet-char-template-8211" transform="scale(0.00048828125,-0.00048828125)">
   <path d="M -4,459 L 1135,459 1135,606 -4,606 -4,459 Z"/>
  </g>
  <g id="bullet-char-template-61548" transform="scale(0.00048828125,-0.00048828125)">
   <path d="M 173,740 C 173,903 231,1043 346,1159 462,1274 601,1332 765,1332 928,1332 1067,1274 1183,1159 1299,1043 1357,903 1357,740 1357,577 1299,437 1183,322 1067,206 928,148 765,148 601,148 462,206 346,322 231,437 173,577 173,740 Z"/>
  </g>
 </defs>
 <defs class="TextEmbeddedBitmaps"/>
 <g>
  <g id="id2" class="Master_Slide">
   <g id="bg-id2" class="Background"/>
   <g id="bo-id2" class="BackgroundObjects"/>
  </g>
 </g>
 <g class="SlideGroup">
  <g>
   <g id="container-id1">
    <g id="id1" class="Slide" clip-path="url(#presentation_clip_path)">
     <g class="Page">
      <g class="com.sun.star.drawing.CustomShape">
       <g id="id3">
        <rect class="BoundingBox" stroke="none" fill="none" x="224" y="224" width="1156" height="1156"/>
        <path fill="rgb(114,159,207)" stroke="none" d="M 801,242 C 1118,242 1360,484 1360,801 1360,1118 1118,1360 801,1360 484,1360 242,1118 242,801 242,484 484,242 801,242 Z M 242,242 L 242,242 Z M 1361,1361 L 1361,1361 Z"/>
        <path fill="none" stroke="rgb(0,0,0)" stroke-width="35" stroke-linejoin="round" d="M 801,242 C 1118,242 1360,484 1360,801 1360,1118 1118,1360 801,1360 484,1360 242,1118 242,801 242,484 484,242 801,242 Z"/>
       </g>
      </g>
      <g class="com.sun.star.drawing.CustomShape">
       <g id="id4">
        <rect class="BoundingBox" stroke="none" fill="none" x="757" y="288" width="89" height="140"/>
        <path fill="rgb(0,0,0)" stroke="none" d="M 783,306 C 779,306 775,310 775,314 L 775,400 C 775,404 779,408 783,408 L 818,408 C 822,408 827,404 827,400 L 827,314 C 827,310 822,306 818,306 L 783,306 Z M 775,306 L 775,306 Z M 827,409 L 827,409 Z"/>
        <path fill="none" stroke="rgb(0,0,0)" stroke-width="35" stroke-linejoin="round" d="M 783,306 C 779,306 775,310 775,314 L 775,400 C 775,404 779,408 783,408 L 818,408 C 822,408 827,404 827,400 L 827,314 C 827,310 822,306 818,306 L 783,306 Z"/>
       </g>
      </g>
      <g class="com.sun.star.drawing.CustomShape">
       <g id="id5">
        <rect class="BoundingBox" stroke="none" fill="none" x="1177" y="744" width="140" height="93"/>
        <path fill="rgb(0,0,0)" stroke="none" d="M 1204,762 C 1199,762 1195,766 1195,771 L 1195,808 C 1195,813 1199,818 1204,818 L 1288,818 C 1293,818 1298,813 1298,808 L 1298,771 C 1298,766 1293,762 1288,762 L 1204,762 Z M 1195,762 L 1195,762 Z M 1298,818 L 1298,818 Z"/>
        <path fill="none" stroke="rgb(0,0,0)" stroke-width="35" stroke-linejoin="round" d="M 1204,762 C 1199,762 1195,766 1195,771 L 1195,808 C 1195,813 1199,818 1204,818 L 1288,818 C 1293,818 1298,813 1298,808 L 1298,771 C 1298,766 1293,762 1288,762 L 1204,762 Z"/>
       </g>
      </g>
      <g class="com.sun.star.drawing.CustomShape">
       <g id="id6">
        <rect class="BoundingBox" stroke="none" fill="none" x="757" y="1177" width="89" height="140"/>
        <path fill="rgb(0,0,0)" stroke="none" d="M 783,1195 C 779,1195 775,1199 775,1203 L 775,1289 C 775,1293 779,1297 783,1297 L 818,1297 C 822,1297 827,1293 827,1289 L 827,1203 C 827,1199 822,1195 818,1195 L 783,1195 Z M 775,1195 L 775,1195 Z M 827,1298 L 827,1298 Z"/>
        <path fill="none" stroke="rgb(0,0,0)" stroke-width="35" stroke-linejoin="round" d="M 783,1195 C 779,1195 775,1199 775,1203 L 775,1289 C 775,1293 779,1297 783,1297 L 818,1297 C 822,1297 827,1293 827,1289 L 827,1203 C 827,1199 822,1195 818,1195 L 783,1195 Z"/>
       </g>
      </g>
      <g class="com.sun.star.drawing.CustomShape">
       <g id="id7">
        <rect class="BoundingBox" stroke="none" fill="none" x="288" y="755" width="140" height="93"/>
        <path fill="rgb(0,0,0)" stroke="none" d="M 315,773 C 310,773 306,777 306,782 L 306,819 C 306,824 310,829 315,829 L 399,829 C 404,829 409,824 409,819 L 409,782 C 409,777 404,773 399,773 L 315,773 Z M 306,773 L 306,773 Z M 409,829 L 409,829 Z"/>
        <path fill="none" stroke="rgb(0,0,0)" stroke-width="35" stroke-linejoin="round" d="M 315,773 C 310,773 306,777 306,782 L 306,819 C 306,824 310,829 315,829 L 399,829 C 404,829 409,824 409,819 L 409,782 C 409,777 404,773 399,773 L 315,773 Z"/>
       </g>
      </g>
      <g class="com.sun.star.drawing.CustomShape">
       <g id="id8">
        <rect class="BoundingBox" stroke="none" fill="none" x="455" y="478" width="408" height="384"/>
        <path fill="rgb(0,0,0)" stroke="none" d="M 499,502 C 501,499 507,499 510,501 L 841,798 C 844,801 845,807 842,810 L 819,836 C 816,839 809,839 806,837 L 475,540 C 472,537 473,531 475,528 L 499,502 Z M 504,496 L 504,496 Z M 813,843 L 813,843 Z"/>
        <path fill="none" stroke="rgb(0,0,0)" stroke-width="35" stroke-linejoin="round" d="M 499,502 C 501,499 507,499 510,501 L 841,798 C 844,801 845,807 842,810 L 819,836 C 816,839 809,839 806,837 L 475,540 C 472,537 473,531 475,528 L 499,502 Z"/>
       </g>
      </g>
      <g class="com.sun.star.drawing.CustomShape">
       <g id="id9">
        <rect class="BoundingBox" stroke="none" fill="none" x="769" y="513" width="303" height="357"/>
        <path fill="rgb(0,0,0)" stroke="none" d="M 1022,536 C 1019,533 1013,534 1011,537 L 789,812 C 787,815 787,821 790,824 L 817,846 C 820,848 827,847 830,844 L 1051,570 C 1054,566 1052,560 1049,558 L 1022,536 Z M 1016,531 L 1016,531 Z M 824,851 L 824,851 Z"/>
        <path fill="none" stroke="rgb(0,0,0)" stroke-width="35" stroke-linejoin="round" d="M 1022,536 C 1019,533 1013,534 1011,537 L 789,812 C 787,815 787,821 790,824 L 817,846 C 820,848 827,847 830,844 L 1051,570 C 1054,566 1052,560 1049,558 L 1022,536 Z"/>
       </g>
      </g>
     </g>
    </g>
   </g>
  </g>
 </g>
</svg>