<?xml version="1.0" encoding="UTF-8"?>
<!DOCTYPE svg PUBLIC "-//W3C//DTD SVG 1.1//EN" "http://www.w3.org/Graphics/SVG/1.1/DTD/svg11.dtd">
<svg version="1.2" width="16mm" height="16mm" viewBox="0 0 1600 1600" preserveAspectRatio="xMidYMid" fill-rule="evenodd" stroke-width="28.222" stroke-linejoin="round" xmlns="http://www.w3.org/2000/svg" xmlns:ooo="http://xml.openoffice.org/svg/export" xmlns:xlink="http://www.w3.org/1999/xlink" xmlns:presentation="http://sun.com/xmlns/staroffice/presentation" xmlns:smil="http://www.w3.org/2001/SMIL20/" xmlns:anim="urn:oasis:names:tc:opendocument:xmlns:animation:1.0" xml:space="preserve">
 <defs class="ClipPathGroup">
  <clipPath id="presentation_clip_path" clipPathUnits="userSpaceOnUse">
   <rect x="0" y="0" width="1600" height="1600"/>
  </clipPath>
  <clipPath id="presentation_clip_path_shrink" clipPathUnits="userSpaceOnUse">
   <rect x="1" y="1" width="1597" height="1597"/>
  </clipPath>
 </defs>
 <defs class="TextShapeIndex">
  <g ooo:slide="id1" ooo:id-list="id3 id4"/>
 </defs>
 <defs class="EmbeddedBulletChars">
  <g id="bullet-char-template-57356" transform="scale(0.00048828125,-0.00048828125)">
   <path d="M 580,1141 L 1163,571 580,0 -4,571 580,1141 Z"/>
  </g>
  <g id="bullet-char-template-57354" transform="scale(0.00048828125,-0.00048828125)">
   <path d="M 8,1128 L 1137,1128 1137,0 8,0 8,1128 Z"/>
  </g>
  <g id="bullet-char-template-10146" transform="scale(0.00048828125,-0.00048828125)">
   <path d="M 174,0 L 602,739 174,1481 1456,739 174,0 Z M 1358,739 L 309,1346 659,739 1358,739 Z"/>
  </g>
  <g id="bullet-char-template-10132" transform="scale(0.00048828125,-0.00048828125)">
   <path d="M 2015,739 L 1276,0 717,0 1260,543 174,543 174,936 1260,936 717,1481 1274,1481 2015,739 Z"/>
  </g>
  <g id="bullet-char-template-10007" transform="scale(0.00048828125,-0.00048828125)">
   <path d="M 0,-2 C -7,14 -16,27 -25,37 L 356,567 C 262,823 215,952 215,954 215,979 228,992 255,992 264,992 276,990 289,987 310,991 331,999 354,1012 L 381,999 492,748 772,1049 836,1024 860,1049 C 881,1039 901,1025 922,1006 886,937 835,863 770,784 769,783 710,716 594,584 L 774,223 C 774,196 753,168 711,139 L 727,119 C 717,90 699,76 672,76 641,76 570,178 457,381 L 164,-76 C 142,-110 111,-127 72,-127 30,-127 9,-110 8,-76 1,-67 -2,-52 -2,-32 -2,-23 -1,-13 0,-2 Z"/>
  </g>
  <g id="bullet-char-template-10004" transform="scale(0.00048828125,-0.00048828125)">
   <path d="M 285,-33 C 182,-33 111,30 74,156 52,228 41,333 41,471 41,549 55,616 82,672 116,743 169,778 240,778 293,778 328,747 346,684 L 369,508 C 377,444 397,411 428,410 L 1163,1116 C 1174,1127 1196,1133 1229,1133 1271,1133 1292,1118 1292,1087 L 1292,965 C 1292,929 1282,901 1262,881 L 442,47 C 390,-6 338,-33 285,-33 Z"/>
  </g>
  <g id="bullet-char-template-9679" transform="scale(0.00048828125,-0.00048828125)">
   <path d="M 813,0 C 632,0 489,54 383,161 276,268 223,411 223,592 223,773 276,916 383,1023 489,1130 632,1184 813,1184 992,1184 1136,1130 1245,1023 1353,916 1407,772 1407,592 1407,412 1353,268 1245,161 1136,54 992,0 813,0 Z"/>
  </g>
  <g id="bullet-char-template-8226" transform="scale(0.00048828125,-0.00048828125)">
   <path d="M 346,457 C 273,457 209,483 155,535 101,586 74,649 74,723 74,796 101,859 155,911 209,963 273,989 346,989 419,989 480,963 531,910 582,859 608,796 608,723 608,648 583,586 532,535 482,483 420,457 346,457 Z"/>
  </g>
  <g id="bullet-char-template-8211" transform="scale(0.00048828125,-0.00048828125)">
   <path d="M -4,459 L 1135,459 1135,606 -4,606 -4,459 Z"/>
  </g>
  <g id="bullet-char-template-61548" transform="scale(0.00048828125,-0.00048828125)">
   <path d="M 173,740 C 173,903 231,1043 346,1159 462,1274 601,1332 765,1332 928,1332 1067,1274 1183,1159 1299,1043 1357,903 1357,740 1357,577 1299,437 1183,322 1067,206 928,148 765,148 601,148 462,206 346,322 231,437 173,577 173,740 Z"/>
  </g>
 </defs>
 <g>
  <g id="id2" class="Master_Slide">
   <g id="bg-id2" class="Background"/>
   <g id="bo-id2" class="BackgroundObjects"/>
  </g>
 </g>
 <g class="SlideGroup">
  <g>
   <g id="container-id1">
    <g id="id1" class="Slide" clip-path="url(#presentation_clip_path)">
     <g class="Page">
      <g class="com.sun.star.drawing.CustomShape">
       <g id="id3">
        <rect class="BoundingBox" stroke="none" fill="none" x="187" y="82" width="1156" height="651"/>
        <g>
         <defs>
          <linearGradient id="gradient1" x1="1037" y1="880" x2="491" y2="-66" gradientUnits="userSpaceOnUse">
           <stop offset="0" style="stop-color:rgb(241,13,12)"/>
           <stop offset="1" style="stop-color:rgb(255,109,109)"/>
          </linearGradient>
         </defs>
         <path style="fill:url(#gradient1)" d="M 978,530 L 968,520 957,511 945,503 934,496 922,489 910,482 897,477 884,472 871,467 858,464 845,461 831,459 818,458 804,457 790,457 777,458 763,460 750,462 737,465 723,469 710,474 698,479 685,485 673,491 661,499 650,507 639,515 628,524 618,534 608,544 599,555 590,566 582,578 574,590 567,603 560,615 554,629 549,642 544,656 540,670 537,685 534,699 532,714 205,670 209,638 215,606 222,574 231,543 242,512 253,482 267,452 281,424 297,396 314,369 332,343 352,318 373,294 394,271 417,250 441,229 465,210 491,193 517,177 544,162 572,149 600,137 629,127 658,118 688,112 717,106 747,103 778,100 808,100 838,101 868,104 898,109 928,115 957,123 986,132 1014,143 1042,155 1070,169 1096,185 1122,202 1147,220 1171,240 1195,260 1294,138 1324,620 879,652 978,530 Z"/>
        </g>
        <path fill="none" stroke="rgb(0,0,0)" stroke-width="35" stroke-linejoin="round" d="M 978,530 L 968,520 957,511 945,503 934,496 922,489 910,482 897,477 884,472 871,467 858,464 845,461 831,459 818,458 804,457 790,457 777,458 763,460 750,462 737,465 723,469 710,474 698,479 685,485 673,491 661,499 650,507 639,515 628,524 618,534 608,544 599,555 590,566 582,578 574,590 567,603 560,615 554,629 549,642 544,656 540,670 537,685 534,699 532,714 205,670 209,638 215,606 222,574 231,543 242,512 253,482 267,452 281,424 297,396 314,369 332,343 352,318 373,294 394,271 417,250 441,229 465,210 491,193 517,177 544,162 572,149 600,137 629,127 658,118 688,112 717,106 747,103 778,100 808,100 838,101 868,104 898,109 928,115 957,123 986,132 1014,143 1042,155 1070,169 1096,185 1122,202 1147,220 1171,240 1195,260 1294,138 1324,620 879,652 978,530 Z"/>
       </g>
      </g>
      <g class="com.sun.star.drawing.CustomShape">
       <g id="id4">
        <rect class="BoundingBox" stroke="none" fill="none" x="236" y="768" width="1156" height="651"/>
        <g>
         <defs>
          <linearGradient id="gradient2" x1="540" y1="620" x2="1086" y2="1566" gradientUnits="userSpaceOnUse">
           <stop offset="0" style="stop-color:rgb(241,13,12)"/>
           <stop offset="1" style="stop-color:rgb(255,109,109)"/>
          </linearGradient>
         </defs>
         <path style="fill:url(#gradient2)" d="M 600,970 L 610,980 621,989 633,997 644,1004 656,1011 668,1018 681,1023 694,1028 707,1033 720,1036 733,1039 747,1041 760,1042 774,1043 788,1043 801,1042 815,1040 828,1038 841,1035 855,1031 868,1026 880,1021 893,1015 905,1009 917,1001 928,993 939,985 950,976 960,966 970,956 979,945 988,934 996,922 1004,910 1011,897 1018,885 1024,871 1029,858 1034,844 1038,830 1041,815 1044,801 1046,786 1373,830 1369,862 1363,894 1356,926 1347,957 1336,988 1325,1018 1311,1048 1297,1076 1281,1104 1264,1131 1246,1157 1226,1182 1205,1206 1184,1229 1161,1250 1137,1271 1113,1290 1087,1307 1061,1323 1034,1338 1006,1351 978,1363 949,1373 920,1382 890,1388 861,1394 831,1397 800,1400 770,1400 740,1399 710,1396 680,1391 650,1385 621,1377 592,1368 564,1357 536,1345 508,1331 482,1315 456,1298 431,1280 407,1260 383,1240 284,1362 254,880 699,848 600,970 Z"/>
        </g>
        <path fill="none" stroke="rgb(0,0,0)" stroke-width="35" stroke-linejoin="round" d="M 600,970 L 610,980 621,989 633,997 644,1004 656,1011 668,1018 681,1023 694,1028 707,1033 720,1036 733,1039 747,1041 760,1042 774,1043 788,1043 801,1042 815,1040 828,1038 841,1035 855,1031 868,1026 880,1021 893,1015 905,1009 917,1001 928,993 939,985 950,976 960,966 970,956 979,945 988,934 996,922 1004,910 1011,897 1018,885 1024,871 1029,858 1034,844 1038,830 1041,815 1044,801 1046,786 1373,830 1369,862 1363,894 1356,926 1347,957 1336,988 1325,1018 1311,1048 1297,1076 1281,1104 1264,1131 1246,1157 1226,1182 1205,1206 1184,1229 1161,1250 1137,1271 1113,1290 1087,1307 1061,1323 1034,1338 1006,1351 978,1363 949,1373 920,1382 890,1388 861,1394 831,1397 800,1400 770,1400 740,1399 710,1396 680,1391 650,1385 621,1377 592,1368 564,1357 536,1345 508,1331 482,1315 456,1298 431,1280 407,1260 383,1240 284,1362 254,880 699,848 600,970 Z"/>
       </g>
      </g>
     </g>
    </g>
   </g>
  </g>
 </g>
</svg>