<?xml version="1.0" encoding="UTF-8"?>
<!-- Created with Inkscape (http://www.inkscape.org/) -->
<svg id="SVGRoot" width="64px" height="64px" version="1.1" viewBox="0 0 64 64" xmlns="http://www.w3.org/2000/svg" xmlns:cc="http://creativecommons.org/ns#" xmlns:dc="http://purl.org/dc/elements/1.1/" xmlns:rdf="http://www.w3.org/1999/02/22-rdf-syntax-ns#">
 <metadata>
  <rdf:RDF>
   <cc:Work rdf:about="">
    <dc:format>image/svg+xml</dc:format>
    <dc:type rdf:resource="http://purl.org/dc/dcmitype/StillImage"/>
    <dc:title/>
   </cc:Work>
  </rdf:RDF>
 </metadata>
 <path d="m51.834 59.392c-5.4879 1.497-8.5322 2.1861-13.965 1.9885-2.3966-0.08718-7.7828-0.13753-15.555-1.5466 0 0-12.731-16.041-16.225-23.801-2.0159-4.4759 4.7748-10.013 8.4974-4.9497 3.4416 4.6815 7.2426 9.591 7.2426 9.591l-0.02184-8.4907-3.2156-18.128c-1.0053-5.6673 6.4483-7.2157 7.5581-3.0329l5.0329 22.967 2.0607-25.381c0.37702-4.6437 6.9429-4.4093 7 0l0.32582 25.177c0.09704 0.07573 2.7471-13.337 4.4974-20.553 1.2245-5.0479 7.2314-2.1383 6.4697 1.3813-1.3829 6.3896-3.7019 19.26-3.7019 19.26l7.3813-13.646c2.5385-4.6931 7.23-0.47786 5.4419 3l-5.4281 12.779z" fill="#e9c6af" stroke="#000" stroke-linecap="round" stroke-linejoin="round" stroke-width="2"/>
</svg>
