<?xml version="1.0" encoding="UTF-8"?>
<!DOCTYPE svg PUBLIC "-//W3C//DTD SVG 1.1//EN" "http://www.w3.org/Graphics/SVG/1.1/DTD/svg11.dtd">
<svg version="1.2" width="16mm" height="16mm" viewBox="0 0 1600 1600" preserveAspectRatio="xMidYMid" fill-rule="evenodd" stroke-width="28.222" stroke-linejoin="round" xmlns="http://www.w3.org/2000/svg" xmlns:ooo="http://xml.openoffice.org/svg/export" xmlns:xlink="http://www.w3.org/1999/xlink" xmlns:presentation="http://sun.com/xmlns/staroffice/presentation" xmlns:smil="http://www.w3.org/2001/SMIL20/" xmlns:anim="urn:oasis:names:tc:opendocument:xmlns:animation:1.0" xml:space="preserve">
 <defs class="ClipPathGroup">
  <clipPath id="presentation_clip_path" clipPathUnits="userSpaceOnUse">
   <rect x="0" y="0" width="1600" height="1600"/>
  </clipPath>
 </defs>
 <defs class="TextShapeIndex">
  <g ooo:slide="id1" ooo:id-list="id3 id4 id5"/>
 </defs>
 <defs class="EmbeddedBulletChars">
  <g id="bullet-char-template(57356)" transform="scale(0.00048828125,-0.00048828125)">
   <path d="M 580,1141 L 1163,571 580,0 -4,571 580,1141 Z"/>
  </g>
  <g id="bullet-char-template(57354)" transform="scale(0.00048828125,-0.00048828125)">
   <path d="M 8,1128 L 1137,1128 1137,0 8,0 8,1128 Z"/>
  </g>
  <g id="bullet-char-template(10146)" transform="scale(0.00048828125,-0.00048828125)">
   <path d="M 174,0 L 602,739 174,1481 1456,739 174,0 Z M 1358,739 L 309,1346 659,739 1358,739 Z"/>
  </g>
  <g id="bullet-char-template(10132)" transform="scale(0.00048828125,-0.00048828125)">
   <path d="M 2015,739 L 1276,0 717,0 1260,543 174,543 174,936 1260,936 717,1481 1274,1481 2015,739 Z"/>
  </g>
  <g id="bullet-char-template(10007)" transform="scale(0.00048828125,-0.00048828125)">
   <path d="M 0,-2 C -7,14 -16,27 -25,37 L 356,567 C 262,823 215,952 215,954 215,979 228,992 255,992 264,992 276,990 289,987 310,991 331,999 354,1012 L 381,999 492,748 772,1049 836,1024 860,1049 C 881,1039 901,1025 922,1006 886,937 835,863 770,784 769,783 710,716 594,584 L 774,223 C 774,196 753,168 711,139 L 727,119 C 717,90 699,76 672,76 641,76 570,178 457,381 L 164,-76 C 142,-110 111,-127 72,-127 30,-127 9,-110 8,-76 1,-67 -2,-52 -2,-32 -2,-23 -1,-13 0,-2 Z"/>
  </g>
  <g id="bullet-char-template(10004)" transform="scale(0.00048828125,-0.00048828125)">
   <path d="M 285,-33 C 182,-33 111,30 74,156 52,228 41,333 41,471 41,549 55,616 82,672 116,743 169,778 240,778 293,778 328,747 346,684 L 369,508 C 377,444 397,411 428,410 L 1163,1116 C 1174,1127 1196,1133 1229,1133 1271,1133 1292,1118 1292,1087 L 1292,965 C 1292,929 1282,901 1262,881 L 442,47 C 390,-6 338,-33 285,-33 Z"/>
  </g>
  <g id="bullet-char-template(9679)" transform="scale(0.00048828125,-0.00048828125)">
   <path d="M 813,0 C 632,0 489,54 383,161 276,268 223,411 223,592 223,773 276,916 383,1023 489,1130 632,1184 813,1184 992,1184 1136,1130 1245,1023 1353,916 1407,772 1407,592 1407,412 1353,268 1245,161 1136,54 992,0 813,0 Z"/>
  </g>
  <g id="bullet-char-template(8226)" transform="scale(0.00048828125,-0.00048828125)">
   <path d="M 346,457 C 273,457 209,483 155,535 101,586 74,649 74,723 74,796 101,859 155,911 209,963 273,989 346,989 419,989 480,963 531,910 582,859 608,796 608,723 608,648 583,586 532,535 482,483 420,457 346,457 Z"/>
  </g>
  <g id="bullet-char-template(8211)" transform="scale(0.00048828125,-0.00048828125)">
   <path d="M -4,459 L 1135,459 1135,606 -4,606 -4,459 Z"/>
  </g>
 </defs>
 <defs class="TextEmbeddedBitmaps"/>
 <g>
  <g id="id2" class="Master_Slide">
   <g id="bg-id2" class="Background"/>
   <g id="bo-id2" class="BackgroundObjects"/>
  </g>
 </g>
 <g class="SlideGroup">
  <g>
   <g id="id1" class="Slide" clip-path="url(#presentation_clip_path)">
    <g class="Page">
     <g class="com.sun.star.drawing.CustomShape">
      <g id="id3">
       <rect class="BoundingBox" stroke="none" fill="none" x="383" y="683" width="338" height="748"/>
       <path fill="rgb(114,159,207)" stroke="none" d="M 494,701 C 447,701 401,747 401,794 L 401,1318 C 401,1364 447,1411 494,1411 L 608,1411 C 655,1411 702,1364 702,1318 L 702,794 C 702,747 655,701 608,701 L 494,701 Z M 401,701 L 401,701 Z M 702,1412 L 702,1412 Z"/>
       <path fill="none" stroke="rgb(0,0,0)" stroke-width="35" stroke-linejoin="round" d="M 494,701 C 447,701 401,747 401,794 L 401,1318 C 401,1364 447,1411 494,1411 L 608,1411 C 655,1411 702,1364 702,1318 L 702,794 C 702,747 655,701 608,701 L 494,701 Z"/>
      </g>
     </g>
     <g class="com.sun.star.drawing.CustomShape">
      <g id="id4">
       <rect class="BoundingBox" stroke="none" fill="none" x="83" y="183" width="1438" height="1226"/>
       <path fill="rgb(114,159,207)" stroke="none" d="M 1445,1028 L 1458,1000 1469,972 1479,944 1487,915 1493,886 1497,856 1500,827 1501,797 1500,767 1498,738 1493,708 1488,679 1480,650 1470,621 1459,593 1447,566 1432,539 1416,512 1399,486 1380,461 1360,437 1338,414 1315,392 1291,370 1265,350 1238,331 1210,313 1181,296 1152,281 1121,267 1089,254 1057,242 1024,232 991,223 957,216 923,210 888,206 853,203 818,201 784,201 749,203 714,206 679,210 645,216 611,223 578,232 545,242 513,254 481,267 450,281 421,296 392,313 364,331 337,350 311,370 287,392 264,414 242,437 222,461 203,486 186,512 170,539 155,566 143,593 132,621 122,650 114,679 109,708 104,738 102,767 101,797 102,827 105,856 109,886 115,915 123,944 133,972 144,1000 157,1028 297,977 287,956 278,934 270,911 264,889 259,866 256,843 254,820 253,797 254,773 256,750 259,727 264,704 270,681 277,659 286,637 296,615 307,594 319,574 333,553 348,534 364,515 381,497 399,479 418,463 438,447 459,432 481,418 503,405 526,393 551,381 575,371 600,362 626,354 652,347 679,342 706,337 733,334 760,331 787,330 815,330 842,331 869,334 896,337 923,342 950,347 976,354 1002,362 1027,371 1051,381 1076,393 1099,405 1121,418 1143,432 1164,447 1184,463 1203,479 1221,497 1238,515 1254,534 1269,553 1283,574 1295,594 1306,615 1316,637 1325,659 1332,681 1338,704 1343,727 1346,750 1348,773 1349,797 1348,820 1346,843 1343,866 1338,889 1332,911 1324,934 1315,956 1305,977 1445,1028 Z M 101,201 L 101,201 Z M 1502,1390 L 1502,1390 Z"/>
       <path fill="none" stroke="rgb(0,0,0)" stroke-width="35" stroke-linejoin="round" d="M 1445,1028 L 1458,1000 1469,972 1479,944 1487,915 1493,886 1497,856 1500,827 1501,797 1500,767 1498,738 1493,708 1488,679 1480,650 1470,621 1459,593 1447,566 1432,539 1416,512 1399,486 1380,461 1360,437 1338,414 1315,392 1291,370 1265,350 1238,331 1210,313 1181,296 1152,281 1121,267 1089,254 1057,242 1024,232 991,223 957,216 923,210 888,206 853,203 818,201 784,201 749,203 714,206 679,210 645,216 611,223 578,232 545,242 513,254 481,267 450,281 421,296 392,313 364,331 337,350 311,370 287,392 264,414 242,437 222,461 203,486 186,512 170,539 155,566 143,593 132,621 122,650 114,679 109,708 104,738 102,767 101,797 102,827 105,856 109,886 115,915 123,944 133,972 144,1000 157,1028 297,977 287,956 278,934 270,911 264,889 259,866 256,843 254,820 253,797 254,773 256,750 259,727 264,704 270,681 277,659 286,637 296,615 307,594 319,574 333,553 348,534 364,515 381,497 399,479 418,463 438,447 459,432 481,418 503,405 526,393 551,381 575,371 600,362 626,354 652,347 679,342 706,337 733,334 760,331 787,330 815,330 842,331 869,334 896,337 923,342 950,347 976,354 1002,362 1027,371 1051,381 1076,393 1099,405 1121,418 1143,432 1164,447 1184,463 1203,479 1221,497 1238,515 1254,534 1269,553 1283,574 1295,594 1306,615 1316,637 1325,659 1332,681 1338,704 1343,727 1346,750 1348,773 1349,797 1348,820 1346,843 1343,866 1338,889 1332,911 1324,934 1315,956 1305,977 1445,1028 Z"/>
      </g>
     </g>
     <g class="com.sun.star.drawing.CustomShape">
      <g id="id5">
       <rect class="BoundingBox" stroke="none" fill="none" x="883" y="683" width="338" height="748"/>
       <path fill="rgb(114,159,207)" stroke="none" d="M 994,701 C 947,701 901,747 901,794 L 901,1318 C 901,1364 947,1411 994,1411 L 1108,1411 C 1155,1411 1202,1364 1202,1318 L 1202,794 C 1202,747 1155,701 1108,701 L 994,701 Z M 901,701 L 901,701 Z M 1202,1412 L 1202,1412 Z"/>
       <path fill="none" stroke="rgb(0,0,0)" stroke-width="35" stroke-linejoin="round" d="M 994,701 C 947,701 901,747 901,794 L 901,1318 C 901,1364 947,1411 994,1411 L 1108,1411 C 1155,1411 1202,1364 1202,1318 L 1202,794 C 1202,747 1155,701 1108,701 L 994,701 Z"/>
      </g>
     </g>
    </g>
   </g>
  </g>
 </g>
</svg>