<?xml version="1.0" encoding="UTF-8"?>
<svg id="SVGRoot" width="64px" height="64px" version="1.1" viewBox="0 0 64 64" xmlns="http://www.w3.org/2000/svg">
 <g>
  <g transform="matrix(1.1086 0 0 .9286 -9.4134 1.5599)" display="none" fill="#59f" stroke="#000080" stroke-width="1.0942" aria-label="?">
   <path d="m47.417 37.376h5.7945v7.2503h-5.7945zm5.6233-4.196h-5.452v-4.3959q0-2.883 0.79925-4.7384t3.3683-4.3102l2.569-2.5405q1.627-1.5129 2.3407-2.8545 0.74216-1.3416 0.74216-2.7403 0-2.5405-1.8839-4.1104-1.8554-1.5699-4.9382-1.5699-2.255 0-4.824 0.99906-2.5405 0.99906-5.3093 2.9115v-5.3664q2.6832-1.627 5.4235-2.4263 2.7688-0.79925 5.7089-0.79925 5.2522 0 8.4206 2.7688 3.197 2.7688 3.197 7.3074 0 2.1694-1.0276 4.139-1.0276 1.941-3.5966 4.3959l-2.5119 2.4548q-1.3416 1.3416-1.9125 2.1123-0.54235 0.74216-0.7707 1.4558-0.17127 0.59944-0.2569 1.4558-0.08563 0.85634-0.08563 2.3407z" fill="#59f" stroke="#000080" stroke-width="1.0942"/>
  </g>
  <g aria-label="i">
   <path d="m37.91 20.132-6.0857 1.9127c-2.782 0.86939-4.8686 1.2171-8.52 1.6518-0.26082 0-0.69551 0.08694-1.3041 0.17388v3.1298l3.9122 0.26082c1.9996 0.17388 2.2604 0.95633 2.2604 6.0857v19.04c0 4.6947-0.43469 5.3902-3.1298 5.5641l-3.0429 0.17388v3.2167l11.215-0.26082c1.7388 0 5.9118 0.08694 11.737 0.26082v-3.2167l-3.0429-0.17388c-2.6951-0.17388-3.1298-0.86939-3.1298-5.5641v-31.733zm-4.8243-17.287c-3.7384 0-6.6073 2.782-6.6073 6.4335 0 3.6514 2.869 6.6073 6.5204 6.6073 3.5645 0 6.5204-2.9559 6.5204-6.5204 0-3.5645-2.869-6.5204-6.4335-6.5204z" fill="#06f" stroke="#000" stroke-linecap="round" stroke-linejoin="round" style="font-variant-caps:normal;font-variant-east-asian:normal;font-variant-ligatures:normal;font-variant-numeric:normal"/>
  </g>
 </g>
</svg>
