<?xml version="1.0" encoding="UTF-8"?>
<!DOCTYPE svg PUBLIC "-//W3C//DTD SVG 1.1//EN" "http://www.w3.org/Graphics/SVG/1.1/DTD/svg11.dtd">
<svg version="1.2" width="16mm" height="16mm" viewBox="0 0 1600 1600" preserveAspectRatio="xMidYMid" fill-rule="evenodd" stroke-width="28.222" stroke-linejoin="round" xmlns="http://www.w3.org/2000/svg" xmlns:ooo="http://xml.openoffice.org/svg/export" xmlns:xlink="http://www.w3.org/1999/xlink" xmlns:presentation="http://sun.com/xmlns/staroffice/presentation" xmlns:smil="http://www.w3.org/2001/SMIL20/" xmlns:anim="urn:oasis:names:tc:opendocument:xmlns:animation:1.0" xml:space="preserve">
 <defs class="ClipPathGroup">
  <clipPath id="presentation_clip_path" clipPathUnits="userSpaceOnUse">
   <rect x="0" y="0" width="1600" height="1600"/>
  </clipPath>
  <clipPath id="presentation_clip_path_shrink" clipPathUnits="userSpaceOnUse">
   <rect x="1" y="1" width="1597" height="1597"/>
  </clipPath>
 </defs>
 <defs class="TextShapeIndex">
  <g ooo:slide="id1" ooo:id-list="id3 id4"/>
 </defs>
 <defs class="EmbeddedBulletChars">
  <g id="bullet-char-template-57356" transform="scale(0.00048828125,-0.00048828125)">
   <path d="M 580,1141 L 1163,571 580,0 -4,571 580,1141 Z"/>
  </g>
  <g id="bullet-char-template-57354" transform="scale(0.00048828125,-0.00048828125)">
   <path d="M 8,1128 L 1137,1128 1137,0 8,0 8,1128 Z"/>
  </g>
  <g id="bullet-char-template-10146" transform="scale(0.00048828125,-0.00048828125)">
   <path d="M 174,0 L 602,739 174,1481 1456,739 174,0 Z M 1358,739 L 309,1346 659,739 1358,739 Z"/>
  </g>
  <g id="bullet-char-template-10132" transform="scale(0.00048828125,-0.00048828125)">
   <path d="M 2015,739 L 1276,0 717,0 1260,543 174,543 174,936 1260,936 717,1481 1274,1481 2015,739 Z"/>
  </g>
  <g id="bullet-char-template-10007" transform="scale(0.00048828125,-0.00048828125)">
   <path d="M 0,-2 C -7,14 -16,27 -25,37 L 356,567 C 262,823 215,952 215,954 215,979 228,992 255,992 264,992 276,990 289,987 310,991 331,999 354,1012 L 381,999 492,748 772,1049 836,1024 860,1049 C 881,1039 901,1025 922,1006 886,937 835,863 770,784 769,783 710,716 594,584 L 774,223 C 774,196 753,168 711,139 L 727,119 C 717,90 699,76 672,76 641,76 570,178 457,381 L 164,-76 C 142,-110 111,-127 72,-127 30,-127 9,-110 8,-76 1,-67 -2,-52 -2,-32 -2,-23 -1,-13 0,-2 Z"/>
  </g>
  <g id="bullet-char-template-10004" transform="scale(0.00048828125,-0.00048828125)">
   <path d="M 285,-33 C 182,-33 111,30 74,156 52,228 41,333 41,471 41,549 55,616 82,672 116,743 169,778 240,778 293,778 328,747 346,684 L 369,508 C 377,444 397,411 428,410 L 1163,1116 C 1174,1127 1196,1133 1229,1133 1271,1133 1292,1118 1292,1087 L 1292,965 C 1292,929 1282,901 1262,881 L 442,47 C 390,-6 338,-33 285,-33 Z"/>
  </g>
  <g id="bullet-char-template-9679" transform="scale(0.00048828125,-0.00048828125)">
   <path d="M 813,0 C 632,0 489,54 383,161 276,268 223,411 223,592 223,773 276,916 383,1023 489,1130 632,1184 813,1184 992,1184 1136,1130 1245,1023 1353,916 1407,772 1407,592 1407,412 1353,268 1245,161 1136,54 992,0 813,0 Z"/>
  </g>
  <g id="bullet-char-template-8226" transform="scale(0.00048828125,-0.00048828125)">
   <path d="M 346,457 C 273,457 209,483 155,535 101,586 74,649 74,723 74,796 101,859 155,911 209,963 273,989 346,989 419,989 480,963 531,910 582,859 608,796 608,723 608,648 583,586 532,535 482,483 420,457 346,457 Z"/>
  </g>
  <g id="bullet-char-template-8211" transform="scale(0.00048828125,-0.00048828125)">
   <path d="M -4,459 L 1135,459 1135,606 -4,606 -4,459 Z"/>
  </g>
  <g id="bullet-char-template-61548" transform="scale(0.00048828125,-0.00048828125)">
   <path d="M 173,740 C 173,903 231,1043 346,1159 462,1274 601,1332 765,1332 928,1332 1067,1274 1183,1159 1299,1043 1357,903 1357,740 1357,577 1299,437 1183,322 1067,206 928,148 765,148 601,148 462,206 346,322 231,437 173,577 173,740 Z"/>
  </g>
 </defs>
 <g>
  <g id="id2" class="Master_Slide">
   <g id="bg-id2" class="Background"/>
   <g id="bo-id2" class="BackgroundObjects"/>
  </g>
 </g>
 <g class="SlideGroup">
  <g>
   <g id="container-id1">
    <g id="id1" class="Slide" clip-path="url(#presentation_clip_path)">
     <g class="Page">
      <g class="Group">
       <g class="com.sun.star.drawing.ClosedBezierShape">
        <g id="id3">
         <rect class="BoundingBox" stroke="none" fill="none" x="70" y="71" width="1461" height="1462"/>
         <g>
          <defs>
           <linearGradient id="gradient1" x1="267" y1="11" x2="1333" y2="1591" gradientUnits="userSpaceOnUse">
            <stop offset="0" style="stop-color:rgb(180,199,220)"/>
            <stop offset="1" style="stop-color:rgb(121,140,164)"/>
           </linearGradient>
          </defs>
          <path style="fill:url(#gradient1)" d="M 710,115 L 890,115 892,115 894,116 897,116 898,117 900,117 902,118 904,120 906,122 907,123 909,124 910,126 911,129 912,130 914,132 914,134 914,137 939,313 967,321 994,332 1021,343 1046,357 1188,250 1191,249 1193,248 1195,247 1196,247 1199,246 1201,246 1203,246 1205,246 1208,246 1210,247 1212,247 1215,248 1216,249 1218,250 1220,251 1221,252 1349,380 1349,381 1350,382 1351,382 1351,383 1353,385 1353,388 1354,390 1355,392 1355,394 1355,398 1355,399 1355,401 1354,403 1354,405 1353,407 1353,409 1352,410 1351,413 1244,555 1258,580 1269,607 1280,634 1288,662 1464,687 1467,687 1469,687 1471,689 1472,690 1475,691 1477,692 1478,694 1479,695 1481,697 1483,699 1484,701 1484,703 1485,704 1485,707 1486,709 1486,711 1486,891 1486,893 1485,895 1485,898 1484,900 1484,902 1483,903 1481,905 1479,908 1478,909 1477,910 1475,911 1472,912 1471,913 1469,915 1467,916 1464,916 1288,941 1280,969 1269,996 1258,1022 1244,1049 1351,1191 1352,1192 1353,1194 1353,1195 1354,1197 1354,1200 1355,1202 1355,1203 1355,1205 1355,1208 1355,1210 1354,1212 1353,1214 1353,1217 1351,1219 1351,1220 1350,1221 1349,1222 1349,1224 1221,1350 1220,1351 1218,1353 1216,1354 1215,1355 1212,1355 1210,1356 1208,1356 1205,1358 1203,1358 1201,1356 1199,1356 1196,1356 1194,1355 1193,1354 1191,1353 1188,1352 1046,1245 1021,1259 994,1271 967,1281 939,1291 914,1465 914,1468 914,1470 912,1472 911,1475 910,1477 909,1478 907,1480 906,1481 904,1482 902,1484 900,1485 898,1486 897,1486 894,1487 892,1487 890,1487 710,1487 708,1487 706,1487 703,1486 701,1486 699,1485 698,1484 696,1482 693,1481 692,1480 691,1478 690,1477 689,1475 688,1472 686,1470 685,1468 685,1465 660,1291 632,1281 605,1271 579,1259 552,1245 410,1352 409,1353 407,1354 405,1355 402,1356 400,1356 398,1356 396,1358 393,1358 392,1356 390,1356 388,1355 385,1355 383,1354 382,1353 380,1351 377,1350 251,1224 250,1222 249,1221 249,1220 248,1219 247,1217 246,1214 245,1212 245,1210 245,1208 243,1205 245,1203 245,1202 245,1200 246,1197 246,1195 247,1194 248,1192 249,1191 356,1049 342,1022 330,996 320,969 310,941 136,916 133,916 131,915 129,913 126,912 124,911 123,910 121,909 120,908 119,905 117,903 116,902 115,900 115,898 114,895 114,893 114,891 114,711 114,709 114,707 115,704 115,703 116,701 117,699 119,697 120,695 121,694 123,692 124,691 126,690 129,689 131,687 133,687 136,687 310,662 320,634 330,607 342,580 356,555 249,413 248,410 247,409 246,407 246,405 245,403 245,401 245,399 243,398 245,394 245,392 245,390 246,388 247,385 248,383 249,382 250,381 251,380 377,252 380,251 382,250 383,249 385,248 388,247 390,247 392,246 393,246 396,246 398,246 400,246 402,247 405,247 407,248 409,249 410,250 552,357 579,343 605,332 632,321 660,313 685,137 685,134 686,132 688,130 689,129 690,126 691,124 692,123 693,122 696,120 698,118 699,117 701,117 703,116 706,116 708,115 710,115 Z M 1029,801 L 1029,816 1027,831 1025,846 1021,860 1017,875 1012,889 1005,902 998,916 990,928 982,940 972,952 962,963 951,973 939,983 927,991 914,999 901,1006 888,1013 874,1018 859,1022 845,1026 830,1028 815,1030 800,1030 785,1030 770,1028 755,1026 741,1022 726,1018 712,1013 699,1006 686,999 673,991 661,983 649,973 638,963 628,952 618,940 610,928 602,916 595,902 588,889 583,875 579,860 575,846 573,831 571,816 571,801 571,786 573,771 575,756 579,742 583,727 588,713 595,700 602,687 610,674 618,662 628,650 638,639 649,629 661,619 673,611 685,603 699,596 712,589 726,584 741,580 755,576 770,574 785,572 800,572 815,572 830,574 845,576 859,580 874,584 888,589 901,596 914,603 927,611 939,619 951,629 962,639 972,650 982,662 990,674 998,686 1005,700 1012,713 1017,727 1021,742 1025,756 1027,771 1029,786 1029,801 1029,801 Z"/>
         </g>
         <path fill="none" stroke="rgb(0,0,0)" stroke-width="88" stroke-linejoin="miter" stroke-linecap="round" d="M 710,115 L 890,115 892,115 894,116 897,116 898,117 900,117 902,118 904,120 906,122 907,123 909,124 910,126 911,129 912,130 914,132 914,134 914,137 939,313 967,321 994,332 1021,343 1046,357 1188,250 1191,249 1193,248 1195,247 1196,247 1199,246 1201,246 1203,246 1205,246 1208,246 1210,247 1212,247 1215,248 1216,249 1218,250 1220,251 1221,252 1349,380 1349,381 1350,382 1351,382 1351,383 1353,385 1353,388 1354,390 1355,392 1355,394 1355,398 1355,399 1355,401 1354,403 1354,405 1353,407 1353,409 1352,410 1351,413 1244,555 1258,580 1269,607 1280,634 1288,662 1464,687 1467,687 1469,687 1471,689 1472,690 1475,691 1477,692 1478,694 1479,695 1481,697 1483,699 1484,701 1484,703 1485,704 1485,707 1486,709 1486,711 1486,891 1486,893 1485,895 1485,898 1484,900 1484,902 1483,903 1481,905 1479,908 1478,909 1477,910 1475,911 1472,912 1471,913 1469,915 1467,916 1464,916 1288,941 1280,969 1269,996 1258,1022 1244,1049 1351,1191 1352,1192 1353,1194 1353,1195 1354,1197 1354,1200 1355,1202 1355,1203 1355,1205 1355,1208 1355,1210 1354,1212 1353,1214 1353,1217 1351,1219 1351,1220 1350,1221 1349,1222 1349,1224 1221,1350 1220,1351 1218,1353 1216,1354 1215,1355 1212,1355 1210,1356 1208,1356 1205,1358 1203,1358 1201,1356 1199,1356 1196,1356 1194,1355 1193,1354 1191,1353 1188,1352 1046,1245 1021,1259 994,1271 967,1281 939,1291 914,1465 914,1468 914,1470 912,1472 911,1475 910,1477 909,1478 907,1480 906,1481 904,1482 902,1484 900,1485 898,1486 897,1486 894,1487 892,1487 890,1487 710,1487 708,1487 706,1487 703,1486 701,1486 699,1485 698,1484 696,1482 693,1481 692,1480 691,1478 690,1477 689,1475 688,1472 686,1470 685,1468 685,1465 660,1291 632,1281 605,1271 579,1259 552,1245 410,1352 409,1353 407,1354 405,1355 402,1356 400,1356 398,1356 396,1358 393,1358 392,1356 390,1356 388,1355 385,1355 383,1354 382,1353 380,1351 377,1350 251,1224 250,1222 249,1221 249,1220 248,1219 247,1217 246,1214 245,1212 245,1210 245,1208 243,1205 245,1203 245,1202 245,1200 246,1197 246,1195 247,1194 248,1192 249,1191 356,1049 342,1022 330,996 320,969 310,941 136,916 133,916 131,915 129,913 126,912 124,911 123,910 121,909 120,908 119,905 117,903 116,902 115,900 115,898 114,895 114,893 114,891 114,711 114,709 114,707 115,704 115,703 116,701 117,699 119,697 120,695 121,694 123,692 124,691 126,690 129,689 131,687 133,687 136,687 310,662 320,634 330,607 342,580 356,555 249,413 248,410 247,409 246,407 246,405 245,403 245,401 245,399 243,398 245,394 245,392 245,390 246,388 247,385 248,383 249,382 250,381 251,380 377,252 380,251 382,250 383,249 385,248 388,247 390,247 392,246 393,246 396,246 398,246 400,246 402,247 405,247 407,248 409,249 410,250 552,357 579,343 605,332 632,321 660,313 685,137 685,134 686,132 688,130 689,129 690,126 691,124 692,123 693,122 696,120 698,118 699,117 701,117 703,116 706,116 708,115 710,115 Z"/>
         <path fill="none" stroke="rgb(0,0,0)" stroke-width="88" stroke-linejoin="miter" stroke-linecap="round" d="M 1029,801 C 1029,841 1018,881 998,916 978,950 949,979 914,999 880,1019 840,1030 800,1030 760,1030 720,1019 686,999 651,979 622,950 602,916 582,881 571,841 571,801 571,761 582,721 602,687 622,652 651,623 685,603 720,583 760,572 800,572 840,572 880,583 914,603 949,623 978,652 998,686 1018,721 1029,761 1029,801 L 1029,801 Z"/>
        </g>
       </g>
      </g>
      <g class="com.sun.star.drawing.CustomShape">
       <g id="id4">
        <rect class="BoundingBox" stroke="none" fill="none" x="532" y="24" width="1072" height="1072"/>
        <path fill="rgb(129,212,26)" stroke="none" d="M 936,51 L 1198,51 1198,428 1576,428 1576,690 1198,690 1198,1068 936,1068 936,690 559,690 559,428 936,428 936,51 936,51 Z"/>
        <path fill="none" stroke="rgb(0,0,0)" stroke-width="53" stroke-linejoin="round" d="M 936,51 L 1198,51 1198,428 1576,428 1576,690 1198,690 1198,1068 936,1068 936,690 559,690 559,428 936,428 936,51 936,51 Z"/>
       </g>
      </g>
     </g>
    </g>
   </g>
  </g>
 </g>
</svg>