<?xml version="1.0" encoding="UTF-8"?>
<!DOCTYPE svg PUBLIC "-//W3C//DTD SVG 1.1//EN" "http://www.w3.org/Graphics/SVG/1.1/DTD/svg11.dtd">
<svg version="1.2" width="16mm" height="16mm" viewBox="0 0 1600 1600" preserveAspectRatio="xMidYMid" fill-rule="evenodd" stroke-width="28.222" stroke-linejoin="round" xmlns="http://www.w3.org/2000/svg" xmlns:ooo="http://xml.openoffice.org/svg/export" xmlns:xlink="http://www.w3.org/1999/xlink" xmlns:presentation="http://sun.com/xmlns/staroffice/presentation" xmlns:smil="http://www.w3.org/2001/SMIL20/" xmlns:anim="urn:oasis:names:tc:opendocument:xmlns:animation:1.0" xml:space="preserve">
 <defs class="ClipPathGroup">
  <clipPath id="presentation_clip_path" clipPathUnits="userSpaceOnUse">
   <rect x="0" y="0" width="1600" height="1600"/>
  </clipPath>
  <clipPath id="presentation_clip_path_shrink" clipPathUnits="userSpaceOnUse">
   <rect x="1" y="1" width="1597" height="1597"/>
  </clipPath>
 </defs>
 <defs class="TextShapeIndex">
  <g ooo:slide="id1" ooo:id-list="id3"/>
 </defs>
 <defs class="EmbeddedBulletChars">
  <g id="bullet-char-template-57356" transform="scale(0.00048828125,-0.00048828125)">
   <path d="M 580,1141 L 1163,571 580,0 -4,571 580,1141 Z"/>
  </g>
  <g id="bullet-char-template-57354" transform="scale(0.00048828125,-0.00048828125)">
   <path d="M 8,1128 L 1137,1128 1137,0 8,0 8,1128 Z"/>
  </g>
  <g id="bullet-char-template-10146" transform="scale(0.00048828125,-0.00048828125)">
   <path d="M 174,0 L 602,739 174,1481 1456,739 174,0 Z M 1358,739 L 309,1346 659,739 1358,739 Z"/>
  </g>
  <g id="bullet-char-template-10132" transform="scale(0.00048828125,-0.00048828125)">
   <path d="M 2015,739 L 1276,0 717,0 1260,543 174,543 174,936 1260,936 717,1481 1274,1481 2015,739 Z"/>
  </g>
  <g id="bullet-char-template-10007" transform="scale(0.00048828125,-0.00048828125)">
   <path d="M 0,-2 C -7,14 -16,27 -25,37 L 356,567 C 262,823 215,952 215,954 215,979 228,992 255,992 264,992 276,990 289,987 310,991 331,999 354,1012 L 381,999 492,748 772,1049 836,1024 860,1049 C 881,1039 901,1025 922,1006 886,937 835,863 770,784 769,783 710,716 594,584 L 774,223 C 774,196 753,168 711,139 L 727,119 C 717,90 699,76 672,76 641,76 570,178 457,381 L 164,-76 C 142,-110 111,-127 72,-127 30,-127 9,-110 8,-76 1,-67 -2,-52 -2,-32 -2,-23 -1,-13 0,-2 Z"/>
  </g>
  <g id="bullet-char-template-10004" transform="scale(0.00048828125,-0.00048828125)">
   <path d="M 285,-33 C 182,-33 111,30 74,156 52,228 41,333 41,471 41,549 55,616 82,672 116,743 169,778 240,778 293,778 328,747 346,684 L 369,508 C 377,444 397,411 428,410 L 1163,1116 C 1174,1127 1196,1133 1229,1133 1271,1133 1292,1118 1292,1087 L 1292,965 C 1292,929 1282,901 1262,881 L 442,47 C 390,-6 338,-33 285,-33 Z"/>
  </g>
  <g id="bullet-char-template-9679" transform="scale(0.00048828125,-0.00048828125)">
   <path d="M 813,0 C 632,0 489,54 383,161 276,268 223,411 223,592 223,773 276,916 383,1023 489,1130 632,1184 813,1184 992,1184 1136,1130 1245,1023 1353,916 1407,772 1407,592 1407,412 1353,268 1245,161 1136,54 992,0 813,0 Z"/>
  </g>
  <g id="bullet-char-template-8226" transform="scale(0.00048828125,-0.00048828125)">
   <path d="M 346,457 C 273,457 209,483 155,535 101,586 74,649 74,723 74,796 101,859 155,911 209,963 273,989 346,989 419,989 480,963 531,910 582,859 608,796 608,723 608,648 583,586 532,535 482,483 420,457 346,457 Z"/>
  </g>
  <g id="bullet-char-template-8211" transform="scale(0.00048828125,-0.00048828125)">
   <path d="M -4,459 L 1135,459 1135,606 -4,606 -4,459 Z"/>
  </g>
  <g id="bullet-char-template-61548" transform="scale(0.00048828125,-0.00048828125)">
   <path d="M 173,740 C 173,903 231,1043 346,1159 462,1274 601,1332 765,1332 928,1332 1067,1274 1183,1159 1299,1043 1357,903 1357,740 1357,577 1299,437 1183,322 1067,206 928,148 765,148 601,148 462,206 346,322 231,437 173,577 173,740 Z"/>
  </g>
 </defs>
 <g>
  <g id="id2" class="Master_Slide">
   <g id="bg-id2" class="Background"/>
   <g id="bo-id2" class="BackgroundObjects"/>
  </g>
 </g>
 <g class="SlideGroup">
  <g>
   <g id="container-id1">
    <g id="id1" class="Slide" clip-path="url(#presentation_clip_path)">
     <g class="Page">
      <g class="Group">
       <g class="com.sun.star.drawing.ClosedBezierShape">
        <g id="id3">
         <rect class="BoundingBox" stroke="none" fill="none" x="70" y="70" width="1461" height="1462"/>
         <g>
          <defs>
           <linearGradient id="gradient1" x1="267" y1="10" x2="1333" y2="1590" gradientUnits="userSpaceOnUse">
            <stop offset="0" style="stop-color:rgb(180,199,220)"/>
            <stop offset="1" style="stop-color:rgb(121,140,164)"/>
           </linearGradient>
          </defs>
          <path style="fill:url(#gradient1)" d="M 710,114 L 890,114 892,114 894,115 897,115 898,116 900,116 902,117 904,119 906,121 907,122 909,123 910,125 911,128 912,129 914,131 914,133 914,136 939,312 967,320 994,331 1021,342 1046,356 1188,249 1191,248 1193,247 1195,246 1196,246 1199,245 1201,245 1203,245 1205,245 1208,245 1210,246 1212,246 1215,247 1216,248 1218,249 1220,250 1221,251 1349,379 1349,380 1350,381 1351,381 1351,382 1353,384 1353,387 1354,389 1355,391 1355,393 1355,397 1355,398 1355,400 1354,402 1354,404 1353,406 1353,408 1352,409 1351,412 1244,554 1258,579 1269,606 1280,633 1288,661 1464,686 1467,686 1469,686 1471,688 1472,689 1475,690 1477,691 1478,693 1479,694 1481,696 1483,698 1484,700 1484,702 1485,703 1485,706 1486,708 1486,710 1486,890 1486,892 1485,894 1485,897 1484,899 1484,901 1483,902 1481,904 1479,907 1478,908 1477,909 1475,910 1472,911 1471,912 1469,914 1467,915 1464,915 1288,940 1280,968 1269,995 1258,1021 1244,1048 1351,1190 1352,1191 1353,1193 1353,1194 1354,1196 1354,1199 1355,1201 1355,1202 1355,1204 1355,1207 1355,1209 1354,1211 1353,1213 1353,1216 1351,1218 1351,1219 1350,1220 1349,1221 1349,1223 1221,1349 1220,1350 1218,1352 1216,1353 1215,1354 1212,1354 1210,1355 1208,1355 1205,1357 1203,1357 1201,1355 1199,1355 1196,1355 1194,1354 1193,1353 1191,1352 1188,1351 1046,1244 1021,1258 994,1270 967,1280 939,1290 914,1464 914,1467 914,1469 912,1471 911,1474 910,1476 909,1477 907,1479 906,1480 904,1481 902,1483 900,1484 898,1485 897,1485 894,1486 892,1486 890,1486 710,1486 708,1486 706,1486 703,1485 701,1485 699,1484 698,1483 696,1481 693,1480 692,1479 691,1477 690,1476 689,1474 688,1471 686,1469 685,1467 685,1464 660,1290 632,1280 605,1270 579,1258 552,1244 410,1351 409,1352 407,1353 405,1354 402,1355 400,1355 398,1355 396,1357 393,1357 392,1355 390,1355 388,1354 385,1354 383,1353 382,1352 380,1350 377,1349 251,1223 250,1221 249,1220 249,1219 248,1218 247,1216 246,1213 245,1211 245,1209 245,1207 243,1204 245,1202 245,1201 245,1199 246,1196 246,1194 247,1193 248,1191 249,1190 356,1048 342,1021 330,995 320,968 310,940 136,915 133,915 131,914 129,912 126,911 124,910 123,909 121,908 120,907 119,904 117,902 116,901 115,899 115,897 114,894 114,892 114,890 114,710 114,708 114,706 115,703 115,702 116,700 117,698 119,696 120,694 121,693 123,691 124,690 126,689 129,688 131,686 133,686 136,686 310,661 320,633 330,606 342,579 356,554 249,412 248,409 247,408 246,406 246,404 245,402 245,400 245,398 243,397 245,393 245,391 245,389 246,387 247,384 248,382 249,381 250,380 251,379 377,251 380,250 382,249 383,248 385,247 388,246 390,246 392,245 393,245 396,245 398,245 400,245 402,246 405,246 407,247 409,248 410,249 552,356 579,342 605,331 632,320 660,312 685,136 685,133 686,131 688,129 689,128 690,125 691,123 692,122 693,121 696,119 698,117 699,116 701,116 703,115 706,115 708,114 710,114 Z M 1029,800 L 1029,815 1027,830 1025,845 1021,859 1017,874 1012,888 1005,901 998,914 990,927 982,939 972,951 962,962 951,972 939,982 927,990 914,998 901,1005 888,1012 874,1017 859,1021 845,1025 830,1027 815,1029 800,1029 785,1029 770,1027 755,1025 741,1021 726,1017 712,1012 699,1005 686,998 673,990 661,982 649,972 638,962 628,951 618,939 610,927 602,915 595,901 588,888 583,874 579,859 575,845 573,830 571,815 571,800 571,785 573,770 575,755 579,741 583,726 588,712 595,699 602,686 610,673 618,661 628,649 638,638 649,628 661,618 673,610 685,602 699,595 712,588 726,583 741,579 755,575 770,573 785,571 800,571 815,571 830,573 845,575 859,579 874,583 888,588 901,595 914,602 927,610 939,618 951,628 962,638 972,649 982,661 990,673 998,685 1005,699 1012,712 1017,726 1021,741 1025,755 1027,770 1029,785 1029,800 1029,800 Z"/>
         </g>
         <path fill="none" stroke="rgb(0,0,0)" stroke-width="88" stroke-linejoin="miter" stroke-linecap="round" d="M 710,114 L 890,114 892,114 894,115 897,115 898,116 900,116 902,117 904,119 906,121 907,122 909,123 910,125 911,128 912,129 914,131 914,133 914,136 939,312 967,320 994,331 1021,342 1046,356 1188,249 1191,248 1193,247 1195,246 1196,246 1199,245 1201,245 1203,245 1205,245 1208,245 1210,246 1212,246 1215,247 1216,248 1218,249 1220,250 1221,251 1349,379 1349,380 1350,381 1351,381 1351,382 1353,384 1353,387 1354,389 1355,391 1355,393 1355,397 1355,398 1355,400 1354,402 1354,404 1353,406 1353,408 1352,409 1351,412 1244,554 1258,579 1269,606 1280,633 1288,661 1464,686 1467,686 1469,686 1471,688 1472,689 1475,690 1477,691 1478,693 1479,694 1481,696 1483,698 1484,700 1484,702 1485,703 1485,706 1486,708 1486,710 1486,890 1486,892 1485,894 1485,897 1484,899 1484,901 1483,902 1481,904 1479,907 1478,908 1477,909 1475,910 1472,911 1471,912 1469,914 1467,915 1464,915 1288,940 1280,968 1269,995 1258,1021 1244,1048 1351,1190 1352,1191 1353,1193 1353,1194 1354,1196 1354,1199 1355,1201 1355,1202 1355,1204 1355,1207 1355,1209 1354,1211 1353,1213 1353,1216 1351,1218 1351,1219 1350,1220 1349,1221 1349,1223 1221,1349 1220,1350 1218,1352 1216,1353 1215,1354 1212,1354 1210,1355 1208,1355 1205,1357 1203,1357 1201,1355 1199,1355 1196,1355 1194,1354 1193,1353 1191,1352 1188,1351 1046,1244 1021,1258 994,1270 967,1280 939,1290 914,1464 914,1467 914,1469 912,1471 911,1474 910,1476 909,1477 907,1479 906,1480 904,1481 902,1483 900,1484 898,1485 897,1485 894,1486 892,1486 890,1486 710,1486 708,1486 706,1486 703,1485 701,1485 699,1484 698,1483 696,1481 693,1480 692,1479 691,1477 690,1476 689,1474 688,1471 686,1469 685,1467 685,1464 660,1290 632,1280 605,1270 579,1258 552,1244 410,1351 409,1352 407,1353 405,1354 402,1355 400,1355 398,1355 396,1357 393,1357 392,1355 390,1355 388,1354 385,1354 383,1353 382,1352 380,1350 377,1349 251,1223 250,1221 249,1220 249,1219 248,1218 247,1216 246,1213 245,1211 245,1209 245,1207 243,1204 245,1202 245,1201 245,1199 246,1196 246,1194 247,1193 248,1191 249,1190 356,1048 342,1021 330,995 320,968 310,940 136,915 133,915 131,914 129,912 126,911 124,910 123,909 121,908 120,907 119,904 117,902 116,901 115,899 115,897 114,894 114,892 114,890 114,710 114,708 114,706 115,703 115,702 116,700 117,698 119,696 120,694 121,693 123,691 124,690 126,689 129,688 131,686 133,686 136,686 310,661 320,633 330,606 342,579 356,554 249,412 248,409 247,408 246,406 246,404 245,402 245,400 245,398 243,397 245,393 245,391 245,389 246,387 247,384 248,382 249,381 250,380 251,379 377,251 380,250 382,249 383,248 385,247 388,246 390,246 392,245 393,245 396,245 398,245 400,245 402,246 405,246 407,247 409,248 410,249 552,356 579,342 605,331 632,320 660,312 685,136 685,133 686,131 688,129 689,128 690,125 691,123 692,122 693,121 696,119 698,117 699,116 701,116 703,115 706,115 708,114 710,114 Z"/>
         <path fill="none" stroke="rgb(0,0,0)" stroke-width="88" stroke-linejoin="miter" stroke-linecap="round" d="M 1029,800 C 1029,840 1018,880 998,914 978,949 949,978 914,998 880,1018 840,1029 800,1029 760,1029 720,1018 686,998 651,978 622,949 602,915 582,880 571,840 571,800 571,760 582,720 602,686 622,651 651,622 685,602 720,582 760,571 800,571 840,571 880,582 914,602 949,622 978,651 998,685 1018,720 1029,760 1029,800 L 1029,800 Z"/>
        </g>
       </g>
      </g>
     </g>
    </g>
   </g>
  </g>
 </g>
</svg>