<?xml version="1.0" encoding="UTF-8"?>
<svg id="SVGRoot" width="64px" height="64px" version="1.1" viewBox="0 0 64 64" xmlns="http://www.w3.org/2000/svg" xmlns:cc="http://creativecommons.org/ns#" xmlns:dc="http://purl.org/dc/elements/1.1/" xmlns:rdf="http://www.w3.org/1999/02/22-rdf-syntax-ns#">
 <defs>
  <clipPath id="presentation_clip_path">
   <rect width="1600" height="1600"/>
  </clipPath>
 </defs>
 <metadata>
  <rdf:RDF>
   <cc:Work rdf:about="">
    <dc:format>image/svg+xml</dc:format>
    <dc:type rdf:resource="http://purl.org/dc/dcmitype/StillImage"/>
    <dc:title/>
   </cc:Work>
  </rdf:RDF>
 </metadata>
 <g class="Slide" transform="matrix(.049968 0 0 .045795 -8.9936 -5.243)" clip-path="url(#presentation_clip_path)" fill="#f00" stroke-width=".82532">
  <g class="Page" fill="#f00" stroke-width=".82532">
   <g class="com.sun.star.drawing.PolyPolygonShape" fill="#f00" stroke-width=".82532">
    <g fill="#f00" stroke-width=".82532">
     <path d="m200 550v500h300c100 133.33 200 266.67 300 400v-1300c-100 133.33-200 266.67-300 400z"/>
     <g stroke="#000" stroke-linejoin="round" stroke-width="43.673">
      <path d="m200 550v500h300c100 133.33 200 266.67 300 400v-1300c-100 133.33-200 266.67-300 400z"/>
      <path d="m1035.3 267.35h403.98c-33.665 269.32-67.33 538.64-100.99 807.95h-201.99c-33.665-269.32-67.33-538.64-100.99-807.95z"/>
      <circle cx="1237.3" cy="1293.7" r="133.67" stroke-linecap="square" style="paint-order:markers fill stroke"/>
     </g>
    </g>
   </g>
  </g>
 </g>
</svg>
