<?xml version="1.0" encoding="UTF-8"?>
<svg id="SVGRoot" width="64px" height="64px" shape-rendering="crispEdges" version="1.1" viewBox="0 0 64 64" xmlns="http://www.w3.org/2000/svg" xmlns:cc="http://creativecommons.org/ns#" xmlns:dc="http://purl.org/dc/elements/1.1/" xmlns:rdf="http://www.w3.org/1999/02/22-rdf-syntax-ns#">
 <metadata>
  <rdf:RDF>
   <cc:Work rdf:about="">
    <dc:format>image/svg+xml</dc:format>
    <dc:type rdf:resource="http://purl.org/dc/dcmitype/StillImage"/>
    <dc:title/>
   </cc:Work>
  </rdf:RDF>
 </metadata>
 <circle cx="32" cy="32" r="26.686" fill="none" stroke="#a00" stroke-dashoffset="37.795" stroke-linecap="round" stroke-linejoin="round" stroke-width="7" style="paint-order:fill markers stroke"/>
 <path d="m31.622 12.017h2.178l0.20028 0.17525v0.97634q0.67592 1.3519 5.007 2.9291 6.0085 1.7525 6.0085 5.2074 0 3.6551-3.0543 6.0585h-0.10014l-0.75106-0.80111q1.5271-1.2267 1.5271-3.3297 0-1.7525-5.708-3.5299-2.3032-1.0515-2.9291-1.7024v26.687q0 3.8304-5.6079 4.957h-1.427q-6.0585 0-6.0585-4.2059 0-3.2796 5.3075-3.8555h0.57581q2.4034 0 4.6315 1.6023v-30.993z" fill="#009acf"/>
 <path d="m13 13 40 38" fill="#800000" stroke="#a00" stroke-width="7"/>
</svg>
