<?xml version="1.0" encoding="UTF-8"?>
<svg width="16mm" height="16mm" fill-rule="evenodd" stroke-linejoin="round" stroke-width="28.222" preserveAspectRatio="xMidYMid" version="1.2" viewBox="0 0 1600 1600" xml:space="preserve" xmlns="http://www.w3.org/2000/svg" xmlns:cc="http://creativecommons.org/ns#" xmlns:dc="http://purl.org/dc/elements/1.1/" xmlns:ooo="http://xml.openoffice.org/svg/export" xmlns:rdf="http://www.w3.org/1999/02/22-rdf-syntax-ns#"><rect class="BoundingBox" x="82" y="82" width="1438" height="1438" fill="none"/><metadata><rdf:RDF><cc:Work rdf:about=""><dc:format>image/svg+xml</dc:format><dc:type rdf:resource="http://purl.org/dc/dcmitype/StillImage"/><dc:title/></cc:Work></rdf:RDF></metadata>
 
 <defs class="TextShapeIndex">
  
 </defs>
 <defs class="EmbeddedBulletChars">
  
  
  
  
  
  
  
  
  
 </defs>
 
 
 
<rect class="BoundingBox" x="680" y="33" width="238" height="1538" fill="none"/><path d="m731 51c-17 0-33 16-33 33v1434c0 16 16 33 33 33h134c16 0 33-17 33-33v-1434c0-17-17-33-33-33z" fill="#ff0"/><path d="m731 51c-17 0-33 16-33 33v1434c0 16 16 33 33 33h134c16 0 33-17 33-33v-1434c0-17-17-33-33-33z" fill="none" stroke="#000" stroke-linejoin="round" stroke-width="35"/><rect class="BoundingBox" x="392" y="773" width="813" height="448" fill="none"/><path d="m478 791c-34 0-68 34-68 68v274c0 34 34 69 68 69h639c34 0 69-35 69-69v-274c0-34-35-68-69-68z" fill="#ff0"/><g fill="none"><path d="m478 791c-34 0-68 34-68 68v274c0 34 34 69 68 69h639c34 0 69-35 69-69v-274c0-34-35-68-69-68z" stroke="#000" stroke-linejoin="round" stroke-width="35"/><rect class="BoundingBox" x="280" y="283" width="237" height="37"/><path d="m298 301h200" stroke="#000" stroke-linejoin="round" stroke-width="35"/><rect class="BoundingBox" x="280" y="583" width="237" height="37"/><path d="m298 601h200" stroke="#000" stroke-linejoin="round" stroke-width="35"/><rect class="BoundingBox" x="384" y="987" width="829" height="29"/><path d="m398 1001h800" stroke="#000" stroke-linejoin="round" stroke-width="28"/><rect class="BoundingBox" x="280" y="1383" width="237" height="37"/><path d="m298 1401h200" stroke="#000" stroke-linejoin="round" stroke-width="35"/></g></svg>
