<?xml version="1.0" encoding="UTF-8"?>
<svg id="SVGRoot" width="64px" height="64px" version="1.1" viewBox="0 0 64 64" xmlns="http://www.w3.org/2000/svg">
 <rect x="2.5" y="2.5" width="57.5" height="57.5" fill="#fff6d5" style="paint-order:stroke fill markers"/>
 <g fill="#333" stroke="#333" stroke-width="1px">
  <path d="m5 17.5h55"/>
  <path d="m5 25h55"/>
  <path d="m5 47.5h55"/>
  <path d="m5 40h55"/>
  <path d="m5 32.5h55"/>
 </g>
 <g>
  <path d="m25.245 8.6792 23.921 7.2536 0.10322 0.10826-0.26236 31.932q-0.03131 3.8102-6.6978 4.2069l-1.8726-0.17881q-7.3863-0.70529-7.3532-4.7367l8.08e-4 -0.09835q0.02545-3.0973 6.1678-3.052l1.353 0.05544q2.9823 0.28475 5.7794 1.9787l0.20904-25.442-18.969-5.9689-0.21429 26.081q-0.02767 3.3677-5.2406 4.2476l-2.325-0.02519-0.90161-0.0861q-7.4903-0.71522-7.459-4.5254l0.0014-0.17207q0.02464-2.999 5.9267-3.2719l1.4919 0.04408q3.0863 0.29469 5.8469 2.2066l0.24945-30.358z" fill="#333" stroke-width="1.5234"/>
 </g>
 <g>
  <path d="m60.633 3.3255 0.04671 57.227-57.36 0.39649 0.084767-57.577z" fill="none" stroke="#2ca05a" stroke-linecap="round" stroke-linejoin="round" stroke-width="6"/>
 </g>
</svg>
