<?xml version="1.0" encoding="UTF-8"?>
<svg id="SVGRoot" width="64px" height="64px" version="1.1" viewBox="0 0 64 64" xmlns="http://www.w3.org/2000/svg">
 <g>
  <rect x="5.3291e-15" y="5.3291e-15" width="64" height="64" fill="#fff" style="paint-order:stroke fill markers"/>
 </g>
 <g transform="matrix(1.0909 0 0 .99716 -3.2915 2.3363)" stroke="#000" stroke-width="1px">
  <path d="m5 17.5h55"/>
  <path d="m5 25h55"/>
  <path d="m5 47.5h55"/>
  <path d="m5 40h55"/>
  <path d="m5 32.5h55"/>
 </g>
 <g>
  <path d="m25.04 8.2499 23.486 7.69 0.10134 0.11477-0.25759 33.853q-0.03074 4.0394-6.5761 4.46l-1.8385-0.18957q-7.252-0.74772-7.2195-5.0217l7.94e-4 -0.10427q0.02498-3.2837 6.0556-3.2357l1.3284 0.05877q2.928 0.30188 5.6743 2.0978l0.20524-26.973-18.624-6.328-0.2104 27.651q-0.02716 3.5703-5.1453 4.5032l-2.2827-0.02671-0.88522-0.09127q-7.3541-0.75826-7.3234-4.7977l0.0014-0.18242q0.02419-3.1794 5.8189-3.4687l1.4648 0.04674q3.0302 0.31243 5.7406 2.3393l0.24489-32.185z"/>
 </g>
 <g>
  <path d="m62.944 1 0.05048 61.845-61.989 0.42849 0.091608-62.224z" fill="none" stroke="#000" stroke-linecap="round" stroke-width="3.2421"/>
 </g>
</svg>
