<?xml version="1.0" encoding="UTF-8"?>
<svg id="SVGRoot" width="64px" height="64px" version="1.1" viewBox="0 0 64 64" xmlns="http://www.w3.org/2000/svg">
 <path d="m31.741 2.5794a29.421 29.421 0 0 0-5.0639 0.48603l-0.01676 0.038308-0.01916 0.92179c-0.017 0.76637 0.08336 1.4002 0.60096 3.7781 0.34212 1.5718 0.58069 2.8978 0.53152 2.9449-0.10562 0.1013-8.2176 3.4625-8.344 3.4573-0.04754-2e-3 -0.83631-1.1668-1.7502-2.5906-1.3508-2.1045-1.7937-2.8739-2.8683-3.4932a29.421 29.421 0 0 0-7.0894 7.2594c0.40632 0.63132 1.1919 1.2381 3.6034 2.7869 1.3706 0.88035 2.5003 1.6067 2.5116 1.6137 0.01637 0.01005-3.4274 8.3924-3.486 8.4852-0.0087 0.01386-1.3784-0.26932-3.0431-0.62969-2.3432-0.50726-3.2452-0.74803-4.3192-0.51955a29.421 29.421 0 0 0-0.40942 4.8819 29.421 29.421 0 0 0 0.5004 5.3967h0.55068c0.64385-3.5e-5 1.5808-0.15142 3.6321-0.59378 1.5196-0.32771 2.8382-0.59614 2.933-0.59617 0.12429-3.4e-5 0.61394 1.063 1.755 3.8188 0.86979 2.1007 1.6556 3.9933 1.7454 4.2067l0.16281 0.38787-2.6337 1.7023c-1.8962 1.2245-2.7191 1.7086-3.316 2.5666a29.421 29.421 0 0 0 7.2905 7.2618c0.12461-0.10039 0.22287-0.20765 0.37111-0.35914 0.30699-0.31371 1.2496-1.6435 2.095-2.9545 0.84538-1.3111 1.5952-2.4433 1.664-2.5164 0.09764-0.1037 1.0346 0.2432 4.2737 1.585 2.2819 0.94525 4.1746 1.7468 4.2067 1.7789s-0.22111 1.3402-0.56265 2.909c-0.52434 2.4085-0.61888 3.0002-0.60096 3.8021l0.01201 0.53392a29.421 29.421 0 0 0 5.3415 0.49082 29.421 29.421 0 0 0 4.8891-0.40942c0.2265-1.0691-0.0061-1.9635-0.498-4.257-0.35593-1.6595-0.62638-3.0368-0.60096-3.0623 0.02542-0.02542 1.9171-0.82351 4.2043-1.7741 3.2561-1.3533 4.1864-1.701 4.2857-1.597 0.06978 0.07308 0.81872 1.2053 1.664 2.5164 1.4849 2.3031 2.0005 2.9778 2.6217 3.4262 0.0028 2e-3 0.04173 0.01681 0.04549 0.01916a29.421 29.421 0 0 0 7.2714-7.1014c-0.60508-1.0369-1.3627-1.4817-3.4022-2.8013-1.4015-0.90675-2.5718-1.7099-2.6002-1.7837-0.02834-0.07385 0.71713-1.9914 1.6568-4.2618 1.2872-3.11 1.7523-4.1277 1.8891-4.1277 0.09987 0 1.4328 0.26841 2.9593 0.59617 2.0277 0.43538 3.0025 0.59378 3.6225 0.59378h0.84996l0.06943-0.03353a29.421 29.421 0 0 0 0.49322-5.3631 29.421 29.421 0 0 0-0.39026-4.7837c-1.2874-0.39716-2.094-0.15-4.7334 0.42139-1.6647 0.36037-3.0329 0.64355-3.0407 0.62969-0.12726-0.22591-3.4118-8.3026-3.4118-8.3895 0-0.06729 1.1473-0.86618 2.5499-1.7741 2.2578-1.4616 2.9973-1.8638 3.6321-3.0838a29.421 29.421 0 0 0-7.0104-7.02c-1.2624 0.64633-1.644 1.3689-3.091 3.6201-0.9142 1.4223-1.6958 2.587-1.7382 2.5882-0.11514 0.0033-8.2527-3.3655-8.3512-3.4573-0.04661-0.04346 0.20335-1.4416 0.55547-3.1054 0.55282-2.612 0.79425-3.3779 0.38308-4.676a29.421 29.421 0 0 0-4.7741-0.39026 29.421 29.421 0 0 0-0.25858 0zm0.05747 23.126c1.0053 0.0017 2.0244 0.2377 2.9832 0.71828 1.5221 0.76294 2.7986 2.3381 3.316 4.0942 0.29653 1.0064 0.25231 2.5866-0.10295 3.6824-0.68908 2.1254-2.5196 3.8319-4.6473 4.3336-0.81796 0.19281-2.3096 0.19697-3.0934 0.0072-0.90128-0.21823-2.1318-0.88612-2.8324-1.5347-1.3599-1.259-2.0865-2.8872-2.095-4.6951-0.0088-1.8977 0.60253-3.4 1.9226-4.7215 1.2386-1.2399 2.8737-1.8871 4.5491-1.8843z" fill="#2a7fff" stop-color="#000000" stroke="#000" stroke-linecap="round" stroke-linejoin="round" stroke-width="3" style="paint-order:stroke fill markers"/>
</svg>
