<?xml version="1.0" encoding="UTF-8" standalone="no"?>
<svg
   xmlns:ooo="http://xml.openoffice.org/svg/export"
   xmlns:dc="http://purl.org/dc/elements/1.1/"
   xmlns:cc="http://creativecommons.org/ns#"
   xmlns:rdf="http://www.w3.org/1999/02/22-rdf-syntax-ns#"
   xmlns:svg="http://www.w3.org/2000/svg"
   xmlns="http://www.w3.org/2000/svg"
   xmlns:sodipodi="http://sodipodi.sourceforge.net/DTD/sodipodi-0.dtd"
   xmlns:inkscape="http://www.inkscape.org/namespaces/inkscape"
   version="1.2"
   width="16mm"
   height="16mm"
   viewBox="0 0 1600 1600"
   preserveAspectRatio="xMidYMid"
   fill-rule="evenodd"
   stroke-width="28.222"
   stroke-linejoin="round"
   xml:space="preserve"
   id="svg72"
   sodipodi:docname="solo_proxy_spotlight_on_alone.svg"
   inkscape:version="1.0.1 (1.0.1+r75)"><metadata
   id="metadata76"><rdf:RDF><cc:Work
       rdf:about=""><dc:format>image/svg+xml</dc:format><dc:type
         rdf:resource="http://purl.org/dc/dcmitype/StillImage" /></cc:Work></rdf:RDF></metadata><sodipodi:namedview
   pagecolor="#ffffff"
   bordercolor="#666666"
   borderopacity="1"
   objecttolerance="10"
   gridtolerance="10"
   guidetolerance="10"
   inkscape:pageopacity="0"
   inkscape:pageshadow="2"
   inkscape:window-width="640"
   inkscape:window-height="480"
   id="namedview74"
   showgrid="true"
   inkscape:zoom="9.0387213"
   inkscape:cx="30.23622"
   inkscape:cy="30.23622"
   inkscape:current-layer="svg72"><inkscape:grid
     type="xygrid"
     id="grid901" /></sodipodi:namedview>
 <defs
   class="ClipPathGroup"
   id="defs5">
  <clipPath
   id="presentation_clip_path"
   clipPathUnits="userSpaceOnUse">
   <rect
   x="0"
   y="0"
   width="1600"
   height="1600"
   id="rect2" />
  </clipPath>
 </defs>
 <defs
   class="TextShapeIndex"
   id="defs9">
  <g
   ooo:slide="id1"
   ooo:id-list="id3 id4"
   id="g7" />
 </defs>
 <defs
   class="EmbeddedBulletChars"
   id="defs38">
  <g
   id="bullet-char-template(57356)"
   transform="scale(0.00048828125,-0.00048828125)">
   <path
   d="M 580,1141 L 1163,571 580,0 -4,571 580,1141 Z"
   id="path11" />
  </g>
  <g
   id="bullet-char-template(57354)"
   transform="scale(0.00048828125,-0.00048828125)">
   <path
   d="M 8,1128 L 1137,1128 1137,0 8,0 8,1128 Z"
   id="path14" />
  </g>
  <g
   id="bullet-char-template(10146)"
   transform="scale(0.00048828125,-0.00048828125)">
   <path
   d="M 174,0 L 602,739 174,1481 1456,739 174,0 Z M 1358,739 L 309,1346 659,739 1358,739 Z"
   id="path17" />
  </g>
  <g
   id="bullet-char-template(10132)"
   transform="scale(0.00048828125,-0.00048828125)">
   <path
   d="M 2015,739 L 1276,0 717,0 1260,543 174,543 174,936 1260,936 717,1481 1274,1481 2015,739 Z"
   id="path20" />
  </g>
  <g
   id="bullet-char-template(10007)"
   transform="scale(0.00048828125,-0.00048828125)">
   <path
   d="M 0,-2 C -7,14 -16,27 -25,37 L 356,567 C 262,823 215,952 215,954 215,979 228,992 255,992 264,992 276,990 289,987 310,991 331,999 354,1012 L 381,999 492,748 772,1049 836,1024 860,1049 C 881,1039 901,1025 922,1006 886,937 835,863 770,784 769,783 710,716 594,584 L 774,223 C 774,196 753,168 711,139 L 727,119 C 717,90 699,76 672,76 641,76 570,178 457,381 L 164,-76 C 142,-110 111,-127 72,-127 30,-127 9,-110 8,-76 1,-67 -2,-52 -2,-32 -2,-23 -1,-13 0,-2 Z"
   id="path23" />
  </g>
  <g
   id="bullet-char-template(10004)"
   transform="scale(0.00048828125,-0.00048828125)">
   <path
   d="M 285,-33 C 182,-33 111,30 74,156 52,228 41,333 41,471 41,549 55,616 82,672 116,743 169,778 240,778 293,778 328,747 346,684 L 369,508 C 377,444 397,411 428,410 L 1163,1116 C 1174,1127 1196,1133 1229,1133 1271,1133 1292,1118 1292,1087 L 1292,965 C 1292,929 1282,901 1262,881 L 442,47 C 390,-6 338,-33 285,-33 Z"
   id="path26" />
  </g>
  <g
   id="bullet-char-template(9679)"
   transform="scale(0.00048828125,-0.00048828125)">
   <path
   d="M 813,0 C 632,0 489,54 383,161 276,268 223,411 223,592 223,773 276,916 383,1023 489,1130 632,1184 813,1184 992,1184 1136,1130 1245,1023 1353,916 1407,772 1407,592 1407,412 1353,268 1245,161 1136,54 992,0 813,0 Z"
   id="path29" />
  </g>
  <g
   id="bullet-char-template(8226)"
   transform="scale(0.00048828125,-0.00048828125)">
   <path
   d="M 346,457 C 273,457 209,483 155,535 101,586 74,649 74,723 74,796 101,859 155,911 209,963 273,989 346,989 419,989 480,963 531,910 582,859 608,796 608,723 608,648 583,586 532,535 482,483 420,457 346,457 Z"
   id="path32" />
  </g>
  <g
   id="bullet-char-template(8211)"
   transform="scale(0.00048828125,-0.00048828125)">
   <path
   d="M -4,459 L 1135,459 1135,606 -4,606 -4,459 Z"
   id="path35" />
  </g>
 </defs>
 <defs
   class="TextEmbeddedBitmaps"
   id="defs40" />
 <g
   id="g45">
  <g
   id="id2"
   class="Master_Slide">
   <g
   id="bg-id2"
   class="Background" />
   <g
   id="bo-id2"
   class="BackgroundObjects" />
  </g>
 </g>
 <g
   class="SlideGroup"
   id="g70"
   transform="translate(0,-52.916665)">
  <g
   id="g68">
   <g
   id="id1"
   class="Slide"
   clip-path="url(#presentation_clip_path)">
    <g
   class="Page"
   id="g65">
     <g
   class="com.sun.star.drawing.PolyPolygonShape"
   id="g54">
      <g
   id="id3">
       <rect
   class="BoundingBox"
   stroke="none"
   fill="none"
   x="182"
   y="82"
   width="1610"
   height="1337"
   id="rect47" />
       <path
   fill="#ff9900"
   fill-opacity="0.8"
   stroke="#ffffff"
   stroke-opacity="0.8"
   d="M 200,1300 1400,1400 1600,100 H 1500 Z M 500,1100 Z M 1773,416 Z"
   id="path49" />
       <path
   fill="none"
   stroke="#000000"
   stroke-width="35"
   stroke-linejoin="round"
   d="M 200,1300 1400,1400 1600,100 H 1500 Z"
   id="path51" />
      </g>
     </g>
     <g
   class="com.sun.star.drawing.ClosedBezierShape"
   id="g63">
      <g
   id="id4">
       <rect
   class="BoundingBox"
   stroke="none"
   fill="none"
   x="182"
   y="1132"
   width="1237"
   height="437"
   id="rect56" />
       <path
   fill="#ffcc00"
   stroke="none"
   d="m 799,1150 c 341,0 600,86 600,199 0,113 -259,200 -600,200 -340,0 -599,-87 -599,-200 0,-113 259,-199 599,-199 z m -599,0 z m 1200,400 z"
   id="path58" />
       <path
   fill="none"
   stroke="#000000"
   stroke-width="35"
   stroke-linejoin="round"
   d="m 799,1150 c 341,0 600,86 600,199 0,113 -259,200 -600,200 -340,0 -599,-87 -599,-200 0,-113 259,-199 599,-199 z"
   id="path60" />
      </g>
     </g>
    </g>
   </g>
  </g>
 </g>
</svg>
