<?xml version="1.0" encoding="UTF-8"?>
<!DOCTYPE svg PUBLIC "-//W3C//DTD SVG 1.1//EN" "http://www.w3.org/Graphics/SVG/1.1/DTD/svg11.dtd">
<svg version="1.2" width="16mm" height="16mm" viewBox="0 0 1600 1600" preserveAspectRatio="xMidYMid" fill-rule="evenodd" stroke-width="28.222" stroke-linejoin="round" xmlns="http://www.w3.org/2000/svg" xmlns:ooo="http://xml.openoffice.org/svg/export" xmlns:xlink="http://www.w3.org/1999/xlink" xmlns:presentation="http://sun.com/xmlns/staroffice/presentation" xmlns:smil="http://www.w3.org/2001/SMIL20/" xmlns:anim="urn:oasis:names:tc:opendocument:xmlns:animation:1.0" xml:space="preserve">
 <defs class="ClipPathGroup">
  <clipPath id="presentation_clip_path" clipPathUnits="userSpaceOnUse">
   <rect x="0" y="0" width="1600" height="1600"/>
  </clipPath>
  <clipPath id="presentation_clip_path_shrink" clipPathUnits="userSpaceOnUse">
   <rect x="1" y="1" width="1597" height="1597"/>
  </clipPath>
 </defs>
 <defs class="TextShapeIndex">
  <g ooo:slide="id1" ooo:id-list="id3 id4 id5 id6 id7 id8 id9 id10 id11"/>
 </defs>
 <defs class="EmbeddedBulletChars">
  <g id="bullet-char-template-57356" transform="scale(0.00048828125,-0.00048828125)">
   <path d="M 580,1141 L 1163,571 580,0 -4,571 580,1141 Z"/>
  </g>
  <g id="bullet-char-template-57354" transform="scale(0.00048828125,-0.00048828125)">
   <path d="M 8,1128 L 1137,1128 1137,0 8,0 8,1128 Z"/>
  </g>
  <g id="bullet-char-template-10146" transform="scale(0.00048828125,-0.00048828125)">
   <path d="M 174,0 L 602,739 174,1481 1456,739 174,0 Z M 1358,739 L 309,1346 659,739 1358,739 Z"/>
  </g>
  <g id="bullet-char-template-10132" transform="scale(0.00048828125,-0.00048828125)">
   <path d="M 2015,739 L 1276,0 717,0 1260,543 174,543 174,936 1260,936 717,1481 1274,1481 2015,739 Z"/>
  </g>
  <g id="bullet-char-template-10007" transform="scale(0.00048828125,-0.00048828125)">
   <path d="M 0,-2 C -7,14 -16,27 -25,37 L 356,567 C 262,823 215,952 215,954 215,979 228,992 255,992 264,992 276,990 289,987 310,991 331,999 354,1012 L 381,999 492,748 772,1049 836,1024 860,1049 C 881,1039 901,1025 922,1006 886,937 835,863 770,784 769,783 710,716 594,584 L 774,223 C 774,196 753,168 711,139 L 727,119 C 717,90 699,76 672,76 641,76 570,178 457,381 L 164,-76 C 142,-110 111,-127 72,-127 30,-127 9,-110 8,-76 1,-67 -2,-52 -2,-32 -2,-23 -1,-13 0,-2 Z"/>
  </g>
  <g id="bullet-char-template-10004" transform="scale(0.00048828125,-0.00048828125)">
   <path d="M 285,-33 C 182,-33 111,30 74,156 52,228 41,333 41,471 41,549 55,616 82,672 116,743 169,778 240,778 293,778 328,747 346,684 L 369,508 C 377,444 397,411 428,410 L 1163,1116 C 1174,1127 1196,1133 1229,1133 1271,1133 1292,1118 1292,1087 L 1292,965 C 1292,929 1282,901 1262,881 L 442,47 C 390,-6 338,-33 285,-33 Z"/>
  </g>
  <g id="bullet-char-template-9679" transform="scale(0.00048828125,-0.00048828125)">
   <path d="M 813,0 C 632,0 489,54 383,161 276,268 223,411 223,592 223,773 276,916 383,1023 489,1130 632,1184 813,1184 992,1184 1136,1130 1245,1023 1353,916 1407,772 1407,592 1407,412 1353,268 1245,161 1136,54 992,0 813,0 Z"/>
  </g>
  <g id="bullet-char-template-8226" transform="scale(0.00048828125,-0.00048828125)">
   <path d="M 346,457 C 273,457 209,483 155,535 101,586 74,649 74,723 74,796 101,859 155,911 209,963 273,989 346,989 419,989 480,963 531,910 582,859 608,796 608,723 608,648 583,586 532,535 482,483 420,457 346,457 Z"/>
  </g>
  <g id="bullet-char-template-8211" transform="scale(0.00048828125,-0.00048828125)">
   <path d="M -4,459 L 1135,459 1135,606 -4,606 -4,459 Z"/>
  </g>
  <g id="bullet-char-template-61548" transform="scale(0.00048828125,-0.00048828125)">
   <path d="M 173,740 C 173,903 231,1043 346,1159 462,1274 601,1332 765,1332 928,1332 1067,1274 1183,1159 1299,1043 1357,903 1357,740 1357,577 1299,437 1183,322 1067,206 928,148 765,148 601,148 462,206 346,322 231,437 173,577 173,740 Z"/>
  </g>
 </defs>
 <g>
  <g id="id2" class="Master_Slide">
   <g id="bg-id2" class="Background"/>
   <g id="bo-id2" class="BackgroundObjects"/>
  </g>
 </g>
 <g class="SlideGroup">
  <g>
   <g id="container-id1">
    <g id="id1" class="Slide" clip-path="url(#presentation_clip_path)">
     <g class="Page">
      <g class="com.sun.star.drawing.CustomShape">
       <g id="id3">
        <rect class="BoundingBox" stroke="none" fill="none" x="415" y="9" width="1151" height="1151"/>
        <path fill="rgb(114,159,207)" stroke="none" d="M 1524,584 C 1524,678 1499,770 1452,851 1406,932 1338,1000 1257,1046 1176,1093 1084,1118 990,1118 896,1118 804,1093 723,1046 642,1000 574,932 528,851 481,770 456,678 456,584 456,490 481,398 528,317 574,236 642,168 723,122 804,75 896,50 990,50 1084,50 1176,75 1257,122 1338,168 1406,236 1452,317 1499,398 1524,490 1524,584 L 1524,584 Z"/>
        <path fill="none" stroke="rgb(0,0,0)" stroke-width="81" stroke-linejoin="round" d="M 1524,584 C 1524,678 1499,770 1452,851 1406,932 1338,1000 1257,1046 1176,1093 1084,1118 990,1118 896,1118 804,1093 723,1046 642,1000 574,932 528,851 481,770 456,678 456,584 456,490 481,398 528,317 574,236 642,168 723,122 804,75 896,50 990,50 1084,50 1176,75 1257,122 1338,168 1406,236 1452,317 1499,398 1524,490 1524,584 L 1524,584 Z"/>
       </g>
      </g>
      <g class="com.sun.star.drawing.CustomShape">
       <g id="id4">
        <rect class="BoundingBox" stroke="none" fill="none" x="949" y="93" width="86" height="135"/>
        <path fill="rgb(0,0,0)" stroke="none" d="M 975,111 L 975,111 C 974,111 972,111 971,112 970,113 969,114 968,115 967,116 967,118 967,119 L 967,200 967,201 C 967,202 967,204 968,205 969,206 970,207 971,208 972,209 974,209 975,209 L 1007,209 1008,209 C 1009,209 1011,209 1012,208 1013,207 1014,206 1015,205 1016,204 1016,202 1016,201 L 1016,119 1016,119 1016,119 C 1016,118 1016,116 1015,115 1014,114 1013,113 1012,112 1011,111 1009,111 1008,111 L 975,111 Z"/>
        <path fill="none" stroke="rgb(0,0,0)" stroke-width="35" stroke-linejoin="round" d="M 975,111 L 975,111 C 974,111 972,111 971,112 970,113 969,114 968,115 967,116 967,118 967,119 L 967,200 967,201 C 967,202 967,204 968,205 969,206 970,207 971,208 972,209 974,209 975,209 L 1007,209 1008,209 C 1009,209 1011,209 1012,208 1013,207 1014,206 1015,205 1016,204 1016,202 1016,201 L 1016,119 1016,119 1016,119 C 1016,118 1016,116 1015,115 1014,114 1013,113 1012,112 1011,111 1009,111 1008,111 L 975,111 Z"/>
       </g>
      </g>
      <g class="com.sun.star.drawing.CustomShape">
       <g id="id5">
        <rect class="BoundingBox" stroke="none" fill="none" x="1348" y="529" width="136" height="91"/>
        <path fill="rgb(0,0,0)" stroke="none" d="M 1375,547 L 1375,547 C 1373,547 1372,547 1371,548 1369,549 1368,550 1367,551 1366,553 1366,554 1366,556 L 1366,592 1366,592 C 1366,594 1366,595 1367,597 1368,598 1369,599 1371,600 1372,601 1373,601 1375,601 L 1456,601 1456,601 C 1458,601 1459,601 1461,600 1462,599 1463,598 1464,597 1465,595 1465,594 1465,592 L 1465,556 1465,556 1465,556 C 1465,554 1465,553 1464,551 1463,550 1462,549 1461,548 1459,547 1458,547 1456,547 L 1375,547 Z"/>
        <path fill="none" stroke="rgb(0,0,0)" stroke-width="35" stroke-linejoin="round" d="M 1375,547 L 1375,547 C 1373,547 1372,547 1371,548 1369,549 1368,550 1367,551 1366,553 1366,554 1366,556 L 1366,592 1366,592 C 1366,594 1366,595 1367,597 1368,598 1369,599 1371,600 1372,601 1373,601 1375,601 L 1456,601 1456,601 C 1458,601 1459,601 1461,600 1462,599 1463,598 1464,597 1465,595 1465,594 1465,592 L 1465,556 1465,556 1465,556 C 1465,554 1465,553 1464,551 1463,550 1462,549 1461,548 1459,547 1458,547 1456,547 L 1375,547 Z"/>
       </g>
      </g>
      <g class="com.sun.star.drawing.CustomShape">
       <g id="id6">
        <rect class="BoundingBox" stroke="none" fill="none" x="949" y="942" width="86" height="136"/>
        <path fill="rgb(0,0,0)" stroke="none" d="M 975,960 L 975,960 C 974,960 972,960 971,961 970,962 969,963 968,964 967,965 967,967 967,968 L 967,1050 967,1051 C 967,1052 967,1054 968,1055 969,1056 970,1057 971,1058 972,1059 974,1059 975,1059 L 1007,1059 1008,1059 C 1009,1059 1011,1059 1012,1058 1013,1057 1014,1056 1015,1055 1016,1054 1016,1052 1016,1051 L 1016,968 1016,968 1016,968 C 1016,967 1016,965 1015,964 1014,963 1013,962 1012,961 1011,960 1009,960 1008,960 L 975,960 Z"/>
        <path fill="none" stroke="rgb(0,0,0)" stroke-width="35" stroke-linejoin="round" d="M 975,960 L 975,960 C 974,960 972,960 971,961 970,962 969,963 968,964 967,965 967,967 967,968 L 967,1050 967,1051 C 967,1052 967,1054 968,1055 969,1056 970,1057 971,1058 972,1059 974,1059 975,1059 L 1007,1059 1008,1059 C 1009,1059 1011,1059 1012,1058 1013,1057 1014,1056 1015,1055 1016,1054 1016,1052 1016,1051 L 1016,968 1016,968 1016,968 C 1016,967 1016,965 1015,964 1014,963 1013,962 1012,961 1011,960 1009,960 1008,960 L 975,960 Z"/>
       </g>
      </g>
      <g class="com.sun.star.drawing.CustomShape">
       <g id="id7">
        <rect class="BoundingBox" stroke="none" fill="none" x="499" y="541" width="135" height="90"/>
        <path fill="rgb(0,0,0)" stroke="none" d="M 525,559 L 526,559 C 524,559 523,559 521,560 520,561 519,562 518,563 517,565 517,566 517,568 L 517,603 517,603 C 517,605 517,606 518,608 519,609 520,610 521,611 523,612 524,612 526,612 L 606,612 606,612 C 608,612 609,612 611,611 612,610 613,609 614,608 615,606 615,605 615,603 L 615,567 615,568 615,568 C 615,566 615,565 614,563 613,562 612,561 611,560 609,559 608,559 606,559 L 525,559 Z"/>
        <path fill="none" stroke="rgb(0,0,0)" stroke-width="35" stroke-linejoin="round" d="M 525,559 L 526,559 C 524,559 523,559 521,560 520,561 519,562 518,563 517,565 517,566 517,568 L 517,603 517,603 C 517,605 517,606 518,608 519,609 520,610 521,611 523,612 524,612 526,612 L 606,612 606,612 C 608,612 609,612 611,611 612,610 613,609 614,608 615,606 615,605 615,603 L 615,567 615,568 615,568 C 615,566 615,565 614,563 613,562 612,561 611,560 609,559 608,559 606,559 L 525,559 Z"/>
       </g>
      </g>
      <g class="com.sun.star.drawing.CustomShape">
       <g id="id8">
        <rect class="BoundingBox" stroke="none" fill="none" x="651" y="280" width="399" height="353"/>
        <path fill="rgb(0,0,0)" stroke="none" d="M 694,301 L 693,301 C 694,300 696,299 697,299 698,298 700,298 701,299 703,299 704,299 705,300 L 1028,574 1028,574 C 1029,575 1030,577 1031,578 1031,579 1031,581 1031,582 1031,584 1030,585 1029,586 L 1007,610 1007,611 C 1006,612 1004,613 1003,613 1002,614 1000,614 999,613 997,613 996,613 995,612 L 672,337 672,338 672,338 C 671,337 670,335 669,334 669,333 669,331 669,330 669,328 670,327 671,326 L 694,301 Z"/>
        <path fill="none" stroke="rgb(0,0,0)" stroke-width="35" stroke-linejoin="round" d="M 694,301 L 693,301 C 694,300 696,299 697,299 698,298 700,298 701,299 703,299 704,299 705,300 L 1028,574 1028,574 C 1029,575 1030,577 1031,578 1031,579 1031,581 1031,582 1031,584 1030,585 1029,586 L 1007,610 1007,611 C 1006,612 1004,613 1003,613 1002,614 1000,614 999,613 997,613 996,613 995,612 L 672,337 672,338 672,338 C 671,337 670,335 669,334 669,333 669,331 669,330 669,328 670,327 671,326 L 694,301 Z"/>
       </g>
      </g>
      <g class="com.sun.star.drawing.CustomShape">
       <g id="id9">
        <rect class="BoundingBox" stroke="none" fill="none" x="956" y="313" width="293" height="336"/>
        <path fill="rgb(0,0,0)" stroke="none" d="M 1202,333 L 1202,333 C 1201,332 1200,332 1198,332 1197,331 1195,331 1194,332 1193,332 1191,333 1190,334 L 976,596 976,596 C 975,597 974,599 974,600 974,601 974,603 974,604 975,606 976,607 977,608 L 1002,628 1002,628 C 1003,629 1005,630 1006,630 1007,630 1009,630 1010,629 1012,629 1013,628 1014,627 L 1229,365 1229,365 1229,365 C 1229,364 1230,363 1230,361 1231,360 1230,358 1230,357 1229,356 1228,355 1227,354 L 1202,333 Z"/>
        <path fill="none" stroke="rgb(0,0,0)" stroke-width="35" stroke-linejoin="round" d="M 1202,333 L 1202,333 C 1201,332 1200,332 1198,332 1197,331 1195,331 1194,332 1193,332 1191,333 1190,334 L 976,596 976,596 C 975,597 974,599 974,600 974,601 974,603 974,604 975,606 976,607 977,608 L 1002,628 1002,628 C 1003,629 1005,630 1006,630 1007,630 1009,630 1010,629 1012,629 1013,628 1014,627 L 1229,365 1229,365 1229,365 C 1229,364 1230,363 1230,361 1231,360 1230,358 1230,357 1229,356 1228,355 1227,354 L 1202,333 Z"/>
       </g>
      </g>
      <g class="com.sun.star.drawing.ClosedBezierShape">
       <g id="id10">
        <rect class="BoundingBox" stroke="none" fill="none" x="32" y="782" width="806" height="800"/>
        <path fill="rgb(114,159,207)" stroke="none" d="M 111,1387 C -4,1210 49,974 228,860 350,783 499,782 619,846 674,876 722,920 758,976 789,1025 808,1078 815,1131 822,1180 819,1229 806,1276 784,1365 728,1446 644,1501 644,1501 643,1502 642,1502 640,1504 637,1505 635,1507 543,1563 435,1576 337,1550 247,1527 165,1471 111,1387 Z M 360,1127 C 330,1080 267,1066 220,1096 173,1126 159,1189 189,1236 220,1283 283,1296 330,1266 377,1236 391,1174 360,1127 Z"/>
        <path fill="none" stroke="rgb(0,0,0)" stroke-width="35" stroke-linejoin="miter" d="M 111,1387 C -4,1210 49,974 228,860 350,783 499,782 619,846 674,876 722,920 758,976 789,1025 808,1078 815,1131 822,1180 819,1229 806,1276 784,1365 728,1446 644,1501 644,1501 643,1502 642,1502 640,1504 637,1505 635,1507 543,1563 435,1576 337,1550 247,1527 165,1471 111,1387 Z"/>
        <path fill="none" stroke="rgb(0,0,0)" stroke-width="35" stroke-linejoin="miter" d="M 360,1127 C 330,1080 267,1066 220,1096 173,1126 159,1189 189,1236 220,1283 283,1296 330,1266 377,1236 391,1174 360,1127 Z"/>
       </g>
      </g>
      <g class="com.sun.star.drawing.ClosedBezierShape">
       <g id="id11">
        <rect class="BoundingBox" stroke="none" fill="none" x="686" y="1018" width="933" height="330"/>
        <path fill="rgb(89,131,176)" stroke="none" d="M 752,1041 L 756,1036 1018,1036 C 1018,1036 1080,1114 1093,1130 1104,1118 1138,1083 1138,1083 1138,1083 1167,1117 1178,1129 1190,1115 1244,1056 1244,1056 1244,1056 1265,1079 1272,1088 1281,1082 1301,1069 1301,1069 1301,1069 1336,1105 1347,1116 1358,1103 1399,1059 1399,1059 L 1487,1059 1600,1180 1487,1329 757,1329 734,1296 C 688,1217 695,1112 752,1041 Z"/>
        <path fill="none" stroke="rgb(0,0,0)" stroke-width="35" stroke-linejoin="round" d="M 752,1041 L 756,1036 1018,1036 C 1018,1036 1080,1114 1093,1130 1104,1118 1138,1083 1138,1083 1138,1083 1167,1117 1178,1129 1190,1115 1244,1056 1244,1056 1244,1056 1265,1079 1272,1088 1281,1082 1301,1069 1301,1069 L 1347,1116 C 1358,1103 1399,1059 1399,1059 L 1487,1059 1600,1180 1487,1329 757,1329 734,1296 C 688,1217 695,1112 752,1041 Z"/>
       </g>
      </g>
     </g>
    </g>
   </g>
  </g>
 </g>
</svg>