<?xml version="1.0" encoding="UTF-8"?>
<!DOCTYPE svg PUBLIC "-//W3C//DTD SVG 1.1//EN" "http://www.w3.org/Graphics/SVG/1.1/DTD/svg11.dtd">
<svg version="1.2" width="16mm" height="16mm" viewBox="0 0 1600 1600" preserveAspectRatio="xMidYMid" fill-rule="evenodd" stroke-width="28.222" stroke-linejoin="round" xmlns="http://www.w3.org/2000/svg" xmlns:ooo="http://xml.openoffice.org/svg/export" xmlns:xlink="http://www.w3.org/1999/xlink" xmlns:presentation="http://sun.com/xmlns/staroffice/presentation" xmlns:smil="http://www.w3.org/2001/SMIL20/" xmlns:anim="urn:oasis:names:tc:opendocument:xmlns:animation:1.0" xml:space="preserve">
 <defs class="ClipPathGroup">
  <clipPath id="presentation_clip_path" clipPathUnits="userSpaceOnUse">
   <rect x="0" y="0" width="1600" height="1600"/>
  </clipPath>
 </defs>
 <defs class="TextShapeIndex">
  <g ooo:slide="id1" ooo:id-list="id3 id4"/>
 </defs>
 <defs class="EmbeddedBulletChars">
  <g id="bullet-char-template(57356)" transform="scale(0.00048828125,-0.00048828125)">
   <path d="M 580,1141 L 1163,571 580,0 -4,571 580,1141 Z"/>
  </g>
  <g id="bullet-char-template(57354)" transform="scale(0.00048828125,-0.00048828125)">
   <path d="M 8,1128 L 1137,1128 1137,0 8,0 8,1128 Z"/>
  </g>
  <g id="bullet-char-template(10146)" transform="scale(0.00048828125,-0.00048828125)">
   <path d="M 174,0 L 602,739 174,1481 1456,739 174,0 Z M 1358,739 L 309,1346 659,739 1358,739 Z"/>
  </g>
  <g id="bullet-char-template(10132)" transform="scale(0.00048828125,-0.00048828125)">
   <path d="M 2015,739 L 1276,0 717,0 1260,543 174,543 174,936 1260,936 717,1481 1274,1481 2015,739 Z"/>
  </g>
  <g id="bullet-char-template(10007)" transform="scale(0.00048828125,-0.00048828125)">
   <path d="M 0,-2 C -7,14 -16,27 -25,37 L 356,567 C 262,823 215,952 215,954 215,979 228,992 255,992 264,992 276,990 289,987 310,991 331,999 354,1012 L 381,999 492,748 772,1049 836,1024 860,1049 C 881,1039 901,1025 922,1006 886,937 835,863 770,784 769,783 710,716 594,584 L 774,223 C 774,196 753,168 711,139 L 727,119 C 717,90 699,76 672,76 641,76 570,178 457,381 L 164,-76 C 142,-110 111,-127 72,-127 30,-127 9,-110 8,-76 1,-67 -2,-52 -2,-32 -2,-23 -1,-13 0,-2 Z"/>
  </g>
  <g id="bullet-char-template(10004)" transform="scale(0.00048828125,-0.00048828125)">
   <path d="M 285,-33 C 182,-33 111,30 74,156 52,228 41,333 41,471 41,549 55,616 82,672 116,743 169,778 240,778 293,778 328,747 346,684 L 369,508 C 377,444 397,411 428,410 L 1163,1116 C 1174,1127 1196,1133 1229,1133 1271,1133 1292,1118 1292,1087 L 1292,965 C 1292,929 1282,901 1262,881 L 442,47 C 390,-6 338,-33 285,-33 Z"/>
  </g>
  <g id="bullet-char-template(9679)" transform="scale(0.00048828125,-0.00048828125)">
   <path d="M 813,0 C 632,0 489,54 383,161 276,268 223,411 223,592 223,773 276,916 383,1023 489,1130 632,1184 813,1184 992,1184 1136,1130 1245,1023 1353,916 1407,772 1407,592 1407,412 1353,268 1245,161 1136,54 992,0 813,0 Z"/>
  </g>
  <g id="bullet-char-template(8226)" transform="scale(0.00048828125,-0.00048828125)">
   <path d="M 346,457 C 273,457 209,483 155,535 101,586 74,649 74,723 74,796 101,859 155,911 209,963 273,989 346,989 419,989 480,963 531,910 582,859 608,796 608,723 608,648 583,586 532,535 482,483 420,457 346,457 Z"/>
  </g>
  <g id="bullet-char-template(8211)" transform="scale(0.00048828125,-0.00048828125)">
   <path d="M -4,459 L 1135,459 1135,606 -4,606 -4,459 Z"/>
  </g>
 </defs>
 <defs class="TextEmbeddedBitmaps"/>
 <g>
  <g id="id2" class="Master_Slide">
   <g id="bg-id2" class="Background"/>
   <g id="bo-id2" class="BackgroundObjects"/>
  </g>
 </g>
 <g class="SlideGroup">
  <g>
   <g id="id1" class="Slide" clip-path="url(#presentation_clip_path)">
    <g class="Page">
     <g class="com.sun.star.drawing.CustomShape">
      <g id="id3">
       <rect class="BoundingBox" stroke="none" fill="none" x="83" y="656" width="748" height="288"/>
       <path fill="rgb(204,0,0)" stroke="none" d="M 101,884 C 101,905 121,925 142,925 L 770,925 C 791,925 812,905 812,884 L 812,716 C 812,695 791,674 770,674 L 142,674 C 121,674 101,695 101,716 L 101,884 Z M 101,925 L 101,925 Z M 812,674 L 812,674 Z"/>
       <path fill="none" stroke="rgb(0,0,0)" stroke-width="35" stroke-linejoin="round" d="M 101,884 C 101,905 121,925 142,925 L 770,925 C 791,925 812,905 812,884 L 812,716 C 812,695 791,674 770,674 L 142,674 C 121,674 101,695 101,716 L 101,884 Z"/>
      </g>
     </g>
     <g class="com.sun.star.drawing.CustomShape">
      <g id="id4">
       <rect class="BoundingBox" stroke="none" fill="none" x="82" y="81" width="1438" height="1438"/>
       <path fill="rgb(204,0,0)" stroke="none" d="M 331,281 L 358,258 385,237 414,217 444,198 475,181 506,165 538,151 571,139 604,128 638,119 673,112 707,106 742,102 777,100 812,100 847,102 882,105 917,110 952,116 986,125 1019,135 1052,147 1085,160 1117,175 1147,192 1177,210 1207,229 1235,251 1262,273 1288,297 1312,322 1335,348 1357,375 1378,404 1397,433 1415,464 1431,495 1445,527 1458,559 1470,593 1479,626 1487,661 1493,695 1497,730 1500,765 1501,800 1500,835 1497,870 1493,905 1487,939 1479,974 1470,1007 1458,1041 1445,1073 1431,1105 1415,1136 1397,1167 1378,1196 1357,1225 1335,1252 1312,1278 1288,1303 1262,1327 1235,1349 1207,1371 1177,1390 1147,1408 1117,1425 1085,1440 1052,1453 1019,1465 986,1475 952,1484 917,1490 882,1495 847,1498 812,1500 777,1500 742,1498 707,1494 673,1488 638,1481 604,1472 571,1461 538,1449 506,1435 475,1419 444,1402 414,1383 385,1363 358,1342 331,1319 520,1110 536,1124 553,1136 570,1148 588,1160 606,1170 625,1179 644,1187 664,1195 684,1201 704,1207 724,1211 745,1214 766,1217 787,1218 808,1218 829,1217 850,1215 870,1212 891,1208 911,1203 931,1197 951,1190 970,1182 989,1173 1008,1163 1026,1152 1043,1141 1060,1128 1076,1115 1092,1101 1106,1086 1120,1070 1133,1054 1146,1037 1157,1019 1168,1001 1177,982 1186,963 1194,944 1200,924 1206,904 1211,883 1214,863 1217,842 1218,821 1219,800 1218,779 1217,758 1214,737 1211,717 1206,696 1200,676 1194,656 1186,637 1177,618 1168,599 1157,581 1146,563 1133,546 1120,530 1106,514 1092,499 1076,485 1060,472 1043,459 1026,448 1008,437 989,427 970,418 951,410 931,403 911,397 891,392 870,388 850,385 829,383 808,382 787,382 766,383 745,386 724,389 704,393 684,399 664,405 644,413 625,421 606,430 588,440 570,452 553,464 536,476 520,490 331,281 Z M 1501,1500 L 1501,1500 Z M 100,99 L 100,99 Z"/>
       <path fill="none" stroke="rgb(0,0,0)" stroke-width="35" stroke-linejoin="round" d="M 331,281 L 358,258 385,237 414,217 444,198 475,181 506,165 538,151 571,139 604,128 638,119 673,112 707,106 742,102 777,100 812,100 847,102 882,105 917,110 952,116 986,125 1019,135 1052,147 1085,160 1117,175 1147,192 1177,210 1207,229 1235,251 1262,273 1288,297 1312,322 1335,348 1357,375 1378,404 1397,433 1415,464 1431,495 1445,527 1458,559 1470,593 1479,626 1487,661 1493,695 1497,730 1500,765 1501,800 1500,835 1497,870 1493,905 1487,939 1479,974 1470,1007 1458,1041 1445,1073 1431,1105 1415,1136 1397,1167 1378,1196 1357,1225 1335,1252 1312,1278 1288,1303 1262,1327 1235,1349 1207,1371 1177,1390 1147,1408 1117,1425 1085,1440 1052,1453 1019,1465 986,1475 952,1484 917,1490 882,1495 847,1498 812,1500 777,1500 742,1498 707,1494 673,1488 638,1481 604,1472 571,1461 538,1449 506,1435 475,1419 444,1402 414,1383 385,1363 358,1342 331,1319 520,1110 536,1124 553,1136 570,1148 588,1160 606,1170 625,1179 644,1187 664,1195 684,1201 704,1207 724,1211 745,1214 766,1217 787,1218 808,1218 829,1217 850,1215 870,1212 891,1208 911,1203 931,1197 951,1190 970,1182 989,1173 1008,1163 1026,1152 1043,1141 1060,1128 1076,1115 1092,1101 1106,1086 1120,1070 1133,1054 1146,1037 1157,1019 1168,1001 1177,982 1186,963 1194,944 1200,924 1206,904 1211,883 1214,863 1217,842 1218,821 1219,800 1218,779 1217,758 1214,737 1211,717 1206,696 1200,676 1194,656 1186,637 1177,618 1168,599 1157,581 1146,563 1133,546 1120,530 1106,514 1092,499 1076,485 1060,472 1043,459 1026,448 1008,437 989,427 970,418 951,410 931,403 911,397 891,392 870,388 850,385 829,383 808,382 787,382 766,383 745,386 724,389 704,393 684,399 664,405 644,413 625,421 606,430 588,440 570,452 553,464 536,476 520,490 331,281 Z"/>
      </g>
     </g>
    </g>
   </g>
  </g>
 </g>
</svg>