<?xml version="1.0" encoding="UTF-8"?>
<svg id="SVGRoot" width="64px" height="64px" version="1.1" viewBox="0 0 64 64" xmlns="http://www.w3.org/2000/svg">
 <rect x="3" y="1.9821" width="58" height="59.036" fill="#fffaeb" style="paint-order:stroke fill markers"/>
 <path d="m62 1.9501 0.048939 59.958-60.098 0.41542 0.088813-60.326z" fill="none" stroke="#000" stroke-linecap="round" stroke-width="3.1432"/>
 <g stroke="#000">
  <g transform="matrix(.79032 0 0 .79032 3.0484 -10.081)">
   <rect x="39" y="25" width="28" height="5" rx="1.5556" ry="2.5" fill="#ccc" stop-color="#000000" stroke-linecap="round" stroke-linejoin="round" stroke-width=".98601"/>
   <rect x="5" y="22" width="35" height="11" rx="1.4" ry="1.8333" fill="#333" stop-color="#000000" stroke-linecap="round" stroke-linejoin="round" stroke-width=".8775"/>
   <path d="m61 25v5" fill="none" stroke-width="1.291px"/>
  </g>
  <g transform="matrix(.79032 0 0 .79032 3.1774 31.29)">
   <rect x="39" y="25" width="28" height="5" rx="1.5556" ry="2.5" fill="#ccc" stop-color="#000000" stroke-linecap="round" stroke-linejoin="round" stroke-width=".98601"/>
   <rect x="5" y="22" width="35" height="11" rx="1.4" ry="1.8333" fill="#333" stop-color="#000000" stroke-linecap="round" stroke-linejoin="round" stroke-width=".8775"/>
   <path d="m61 25v5" fill="none" stroke-width="1.291px"/>
  </g>
  <g transform="matrix(.79032 0 0 .79032 3.1774 17.5)">
   <rect x="39" y="25" width="28" height="5" rx="1.5556" ry="2.5" fill="#ccc" stop-color="#000000" stroke-linecap="round" stroke-linejoin="round" stroke-width=".98601"/>
   <rect x="5" y="22" width="35" height="11" rx="1.4" ry="1.8333" fill="#333" stop-color="#000000" stroke-linecap="round" stroke-linejoin="round" stroke-width=".8775"/>
   <path d="m61 25v5" fill="none" stroke-width="1.291px"/>
  </g>
  <g transform="matrix(.79032 0 0 .79032 3.1774 3.7097)">
   <rect x="39" y="25" width="28" height="5" rx="1.5556" ry="2.5" fill="#ccc" stop-color="#000000" stroke-linecap="round" stroke-linejoin="round" stroke-width=".98601"/>
   <rect x="5" y="22" width="35" height="11" rx="1.4" ry="1.8333" fill="#333" stop-color="#000000" stroke-linecap="round" stroke-linejoin="round" stroke-width=".8775"/>
   <path d="m61 25v5" fill="none" stroke-width="1.291px"/>
  </g>
 </g>
</svg>
