<?xml version="1.0" encoding="UTF-8"?>
<!DOCTYPE svg PUBLIC "-//W3C//DTD SVG 1.1//EN" "http://www.w3.org/Graphics/SVG/1.1/DTD/svg11.dtd">
<svg version="1.2" width="16mm" height="16mm" viewBox="0 0 1600 1600" preserveAspectRatio="xMidYMid" fill-rule="evenodd" stroke-width="28.222" stroke-linejoin="round" xmlns="http://www.w3.org/2000/svg" xmlns:ooo="http://xml.openoffice.org/svg/export" xmlns:xlink="http://www.w3.org/1999/xlink" xmlns:presentation="http://sun.com/xmlns/staroffice/presentation" xmlns:smil="http://www.w3.org/2001/SMIL20/" xmlns:anim="urn:oasis:names:tc:opendocument:xmlns:animation:1.0" xml:space="preserve">
 <defs class="ClipPathGroup">
  <clipPath id="presentation_clip_path" clipPathUnits="userSpaceOnUse">
   <rect x="0" y="0" width="1600" height="1600"/>
  </clipPath>
  <clipPath id="presentation_clip_path_shrink" clipPathUnits="userSpaceOnUse">
   <rect x="1" y="1" width="1597" height="1597"/>
  </clipPath>
 </defs>
 <defs class="TextShapeIndex">
  <g ooo:slide="id1" ooo:id-list="id3 id4 id5"/>
 </defs>
 <defs class="EmbeddedBulletChars">
  <g id="bullet-char-template-57356" transform="scale(0.00048828125,-0.00048828125)">
   <path d="M 580,1141 L 1163,571 580,0 -4,571 580,1141 Z"/>
  </g>
  <g id="bullet-char-template-57354" transform="scale(0.00048828125,-0.00048828125)">
   <path d="M 8,1128 L 1137,1128 1137,0 8,0 8,1128 Z"/>
  </g>
  <g id="bullet-char-template-10146" transform="scale(0.00048828125,-0.00048828125)">
   <path d="M 174,0 L 602,739 174,1481 1456,739 174,0 Z M 1358,739 L 309,1346 659,739 1358,739 Z"/>
  </g>
  <g id="bullet-char-template-10132" transform="scale(0.00048828125,-0.00048828125)">
   <path d="M 2015,739 L 1276,0 717,0 1260,543 174,543 174,936 1260,936 717,1481 1274,1481 2015,739 Z"/>
  </g>
  <g id="bullet-char-template-10007" transform="scale(0.00048828125,-0.00048828125)">
   <path d="M 0,-2 C -7,14 -16,27 -25,37 L 356,567 C 262,823 215,952 215,954 215,979 228,992 255,992 264,992 276,990 289,987 310,991 331,999 354,1012 L 381,999 492,748 772,1049 836,1024 860,1049 C 881,1039 901,1025 922,1006 886,937 835,863 770,784 769,783 710,716 594,584 L 774,223 C 774,196 753,168 711,139 L 727,119 C 717,90 699,76 672,76 641,76 570,178 457,381 L 164,-76 C 142,-110 111,-127 72,-127 30,-127 9,-110 8,-76 1,-67 -2,-52 -2,-32 -2,-23 -1,-13 0,-2 Z"/>
  </g>
  <g id="bullet-char-template-10004" transform="scale(0.00048828125,-0.00048828125)">
   <path d="M 285,-33 C 182,-33 111,30 74,156 52,228 41,333 41,471 41,549 55,616 82,672 116,743 169,778 240,778 293,778 328,747 346,684 L 369,508 C 377,444 397,411 428,410 L 1163,1116 C 1174,1127 1196,1133 1229,1133 1271,1133 1292,1118 1292,1087 L 1292,965 C 1292,929 1282,901 1262,881 L 442,47 C 390,-6 338,-33 285,-33 Z"/>
  </g>
  <g id="bullet-char-template-9679" transform="scale(0.00048828125,-0.00048828125)">
   <path d="M 813,0 C 632,0 489,54 383,161 276,268 223,411 223,592 223,773 276,916 383,1023 489,1130 632,1184 813,1184 992,1184 1136,1130 1245,1023 1353,916 1407,772 1407,592 1407,412 1353,268 1245,161 1136,54 992,0 813,0 Z"/>
  </g>
  <g id="bullet-char-template-8226" transform="scale(0.00048828125,-0.00048828125)">
   <path d="M 346,457 C 273,457 209,483 155,535 101,586 74,649 74,723 74,796 101,859 155,911 209,963 273,989 346,989 419,989 480,963 531,910 582,859 608,796 608,723 608,648 583,586 532,535 482,483 420,457 346,457 Z"/>
  </g>
  <g id="bullet-char-template-8211" transform="scale(0.00048828125,-0.00048828125)">
   <path d="M -4,459 L 1135,459 1135,606 -4,606 -4,459 Z"/>
  </g>
  <g id="bullet-char-template-61548" transform="scale(0.00048828125,-0.00048828125)">
   <path d="M 173,740 C 173,903 231,1043 346,1159 462,1274 601,1332 765,1332 928,1332 1067,1274 1183,1159 1299,1043 1357,903 1357,740 1357,577 1299,437 1183,322 1067,206 928,148 765,148 601,148 462,206 346,322 231,437 173,577 173,740 Z"/>
  </g>
 </defs>
 <g>
  <g id="id2" class="Master_Slide">
   <g id="bg-id2" class="Background"/>
   <g id="bo-id2" class="BackgroundObjects"/>
  </g>
 </g>
 <g class="SlideGroup">
  <g>
   <g id="container-id1">
    <g id="id1" class="Slide" clip-path="url(#presentation_clip_path)">
     <g class="Page">
      <g class="com.sun.star.drawing.CustomShape">
       <g id="id3">
        <rect class="BoundingBox" stroke="none" fill="none" x="146" y="146" width="1308" height="1308"/>
        <g>
         <defs>
          <linearGradient id="gradient1" x1="365" y1="47" x2="1234" y2="1552" gradientUnits="userSpaceOnUse">
           <stop offset="0" style="stop-color:rgb(239,41,41)"/>
           <stop offset="1" style="stop-color:rgb(164,0,0)"/>
          </linearGradient>
         </defs>
         <path style="fill:url(#gradient1)" d="M 802,1435 L 164,164 1435,164 802,1435 Z"/>
        </g>
        <path fill="none" stroke="rgb(0,0,0)" stroke-width="35" stroke-linejoin="round" d="M 802,1435 L 164,164 1435,164 802,1435 Z"/>
       </g>
      </g>
      <g class="com.sun.star.drawing.ClosedBezierShape">
       <g id="id4">
        <rect class="BoundingBox" stroke="none" fill="none" x="7" y="338" width="806" height="800"/>
        <g>
         <defs>
          <linearGradient id="gradient2" x1="148" y1="285" x2="670" y2="1189" gradientUnits="userSpaceOnUse">
           <stop offset="0" style="stop-color:rgb(255,212,40)"/>
           <stop offset="1" style="stop-color:rgb(174,122,2)"/>
          </linearGradient>
         </defs>
         <path style="fill:url(#gradient2)" d="M 86,943 L 66,909 51,874 39,838 31,802 26,765 25,728 28,692 34,656 44,620 57,586 73,553 93,521 116,491 142,464 171,438 203,416 226,402 250,390 274,380 298,372 323,365 348,361 374,357 399,356 424,356 449,358 474,361 499,366 524,373 547,381 571,390 594,402 614,414 634,427 652,441 670,457 687,474 703,492 719,511 733,532 744,550 754,569 763,588 771,608 777,627 783,647 787,667 790,687 792,705 794,723 794,742 793,760 792,778 789,796 786,814 781,832 771,865 758,897 742,927 723,957 701,985 677,1011 649,1035 619,1057 619,1057 619,1057 618,1057 618,1057 618,1057 618,1057 618,1058 617,1058 617,1058 617,1058 617,1058 616,1058 616,1058 615,1059 613,1060 611,1061 611,1062 610,1062 610,1063 592,1073 575,1082 556,1090 538,1097 520,1103 501,1108 482,1112 463,1115 425,1118 387,1118 349,1114 312,1106 278,1096 246,1082 215,1066 185,1047 157,1025 131,1000 107,973 86,943 Z M 335,683 L 329,674 323,667 315,660 307,654 299,649 290,644 281,641 272,638 262,637 252,636 243,636 233,637 223,639 214,642 204,647 195,652 187,658 179,664 172,672 166,680 161,688 157,697 153,706 151,715 149,725 148,735 149,744 150,754 152,764 155,773 159,783 164,792 170,800 177,808 185,814 193,820 201,825 210,830 219,833 229,836 238,837 248,838 258,837 268,836 277,834 287,831 296,827 305,822 314,816 321,809 328,802 334,794 339,786 344,777 347,768 349,759 351,749 352,739 351,730 350,720 348,710 345,701 341,692 335,683 Z"/>
        </g>
        <path fill="none" stroke="rgb(0,0,0)" stroke-width="35" stroke-linejoin="miter" d="M 86,943 C -29,766 24,530 203,416 325,339 474,338 594,402 649,432 697,476 733,532 764,581 783,634 790,687 797,736 794,785 781,832 759,921 703,1002 619,1057 619,1057 618,1058 617,1058 615,1060 612,1061 610,1063 518,1119 410,1132 312,1106 222,1083 140,1027 86,943 Z"/>
        <path fill="none" stroke="rgb(0,0,0)" stroke-width="35" stroke-linejoin="miter" d="M 335,683 C 305,636 242,622 195,652 148,682 134,745 164,792 195,839 258,852 305,822 352,792 366,730 335,683 Z"/>
       </g>
      </g>
      <g class="com.sun.star.drawing.ClosedBezierShape">
       <g id="id5">
        <rect class="BoundingBox" stroke="none" fill="none" x="661" y="574" width="933" height="330"/>
        <g>
         <defs>
          <linearGradient id="gradient3" x1="951" y1="434" x2="1303" y2="1043" gradientUnits="userSpaceOnUse">
           <stop offset="0" style="stop-color:rgb(255,212,40)"/>
           <stop offset="1" style="stop-color:rgb(174,122,2)"/>
          </linearGradient>
         </defs>
         <path style="fill:url(#gradient3)" d="M 727,597 L 731,592 993,592 1068,686 1113,639 1153,685 1219,612 1230,625 1239,635 1247,644 1276,625 1322,672 1374,615 1462,615 1575,736 1462,885 732,885 709,852 701,837 694,821 689,805 684,789 681,772 680,755 679,739 680,722 681,705 684,688 688,672 694,656 700,640 708,625 717,611 727,597 Z"/>
        </g>
        <path fill="none" stroke="rgb(0,0,0)" stroke-width="35" stroke-linejoin="round" d="M 727,597 L 731,592 993,592 C 993,592 1055,670 1068,686 1079,674 1113,639 1113,639 1113,639 1142,673 1153,685 1165,671 1219,612 1219,612 1219,612 1240,635 1247,644 1256,638 1276,625 1276,625 L 1322,672 C 1333,659 1374,615 1374,615 L 1462,615 1575,736 1462,885 732,885 709,852 C 663,773 670,668 727,597 Z"/>
       </g>
      </g>
     </g>
    </g>
   </g>
  </g>
 </g>
</svg>