<?xml version="1.0" encoding="UTF-8"?>
<svg id="SVGRoot" width="64px" height="64px" shape-rendering="crispEdges" version="1.1" viewBox="0 0 64 64" xmlns="http://www.w3.org/2000/svg" xmlns:cc="http://creativecommons.org/ns#" xmlns:dc="http://purl.org/dc/elements/1.1/" xmlns:rdf="http://www.w3.org/1999/02/22-rdf-syntax-ns#">
 <metadata>
  <rdf:RDF>
   <cc:Work rdf:about="">
    <dc:format>image/svg+xml</dc:format>
    <dc:type rdf:resource="http://purl.org/dc/dcmitype/StillImage"/>
    <dc:title/>
   </cc:Work>
  </rdf:RDF>
 </metadata>
 <g fill="#989888" fill-opacity=".99908">
  <ellipse cx="23.636" cy="22.531" rx="19.296" ry="19.121" display="none" stroke="#fff" stroke-dashoffset="37.795" stroke-linecap="round" stroke-linejoin="bevel" stroke-width="5.94" style="paint-order:fill markers stroke"/>
  <path d="m34.115 33.934 24.742 26.105" display="none" stroke="#fff" stroke-width="10.493"/>
  <path d="m34.353 39.988 20.762 21.782 5.7695-5.5391-20.57-21.185" color="#000000" color-rendering="auto" dominant-baseline="auto" image-rendering="auto" shape-rendering="auto" solid-color="#000000" stop-color="#000000" stroke="#000" style="font-feature-settings:normal;font-variant-alternates:normal;font-variant-caps:normal;font-variant-east-asian:normal;font-variant-ligatures:normal;font-variant-numeric:normal;font-variant-position:normal;font-variation-settings:normal;inline-size:0;isolation:auto;mix-blend-mode:normal;shape-margin:0;shape-padding:0;text-decoration-color:#000000;text-decoration-line:none;text-decoration-style:solid;text-indent:0;text-orientation:mixed;text-transform:none;white-space:normal"/>
 </g>
 <circle cx="23.724" cy="22.39" r="15.494" fill="#d5f6ff" fill-rule="evenodd" style="paint-order:fill markers stroke"/>
 <path d="m40.314 35.045c2.5024-3.3445 4.0306-7.4601 4.1603-11.914 0.04026-0.19733 0.06054-0.39821 0.06055-0.59961 1.47e-4 -0.20538-0.0208-0.41023-0.0625-0.61133-0.33315-11.22-9.538-20.289-20.836-20.289-11.507 0-20.9 9.3932-20.9 20.9 0 11.507 9.3932 20.9 20.9 20.9 4.0249 0 7.7844-1.151 10.972-3.1401m-10.972-32.661c8.2646 4e-7 14.898 6.6358 14.898 14.9s-6.6339 14.9-14.898 14.9c-8.2646 0-14.9-6.6358-14.9-14.9 3e-7 -8.2646 6.6358-14.9 14.9-14.9z" color="#000000" color-rendering="auto" dominant-baseline="auto" fill="#989888" fill-opacity=".99908" fill-rule="evenodd" image-rendering="auto" shape-rendering="auto" solid-color="#000000" stop-color="#000000" stroke="#000" stroke-dashoffset="37.795" stroke-linecap="round" stroke-linejoin="bevel" style="font-feature-settings:normal;font-variant-alternates:normal;font-variant-caps:normal;font-variant-east-asian:normal;font-variant-ligatures:normal;font-variant-numeric:normal;font-variant-position:normal;font-variation-settings:normal;inline-size:0;isolation:auto;mix-blend-mode:normal;paint-order:fill markers stroke;shape-margin:0;shape-padding:0;text-decoration-color:#000000;text-decoration-line:none;text-decoration-style:solid;text-indent:0;text-orientation:mixed;text-transform:none;white-space:normal"/>
</svg>
