/* XPM */
static const char * buttondown_xpm[] = {
"16 18 6 1",
" 	c None",
".	c #F0F0F0",
"+	c #000000",
"@	c #F8FCF8",
"#	c #484C48",
"$	c #D8DCD8",
"...............+",
".@@@@@@@@@@@@@#+",
".@$$$$$$$$$$$$#+",
".@$$$$$$$$$$$$#+",
".@$$$$$$$$$$$$#+",
".@$$$$$$$$$$$$#+",
".@$$$$$$$$$$$$#+",
".@$$+++++++$$$#+",
".@$$$+++++$$$$#+",
".@$$$$+++$$$$$#+",
".@$$$$$+$$$$$$#+",
".@$$$$$$$$$$$$#+",
".@$$$$$$$$$$$$#+",
".@$$$$$$$$$$$$#+",
".@$$$$$$$$$$$$#+",
".@$$$$$$$$$$$$#+",
".##############+",
"++++++++++++++++"};
