/* XPM */
static const char *listS_xpm[]={
"16 16 7 1",
"# c #000000",
"e c #008000",
". c #00ff00",
"b c #dbdbdb",
"a c #dcdcdc",
"d c #fafafa",
"c c #fbfbfb",
"................",
"..############..",
"..#aaaaaaaabb#..",
"..#c#c#c#c#db#e.",
"..#cc#c#c#c#b#e.",
"..#cccccccccb#e.",
"..#c#a#a#a#ab#e.",
"..#cc#a#a#a#b#e.",
"..#cccccccccb#e.",
"..#c#a#a#a#ab#e.",
"..#cc#a#a#a#b#e.",
"..#cccccccccb#e.",
"..#cccccccccb#e.",
"..############e.",
"....eeeeeeeeeee.",
"................"};
