/* XPM */
static const char * lock_xpm[] = {
"15 15 68 1",
" 	c None",
".	c #747474",
"+	c #838383",
"@	c #727272",
"#	c #808080",
"$	c #929292",
"%	c #7F7F7F",
"&	c #7A7A7A",
"*	c #6A6A6A",
"=	c #8C8C8C",
"-	c #F3F3F3",
";	c #DEDEDE",
">	c #2F2F2F",
",	c #2C2C2C",
"'	c #191919",
")	c #242424",
"!	c #3A3A3A",
"~	c #6D6D6D",
"{	c #CBCBCB",
"]	c #212121",
"^	c #B6B6B6",
"/	c #D1D1D1",
"(	c #C6C6C6",
"_	c #1D1D1D",
":	c #787878",
"<	c #C1C1C1",
"[	c #757575",
"}	c #1F1F1F",
"|	c #404040",
"1	c #BDBDBD",
"2	c #878787",
"3	c #CFCFCF",
"4	c #282828",
"5	c #1C1C1C",
"6	c #DCDCDC",
"7	c #7C7C7C",
"8	c #B5B5B5",
"9	c #262626",
"0	c #202020",
"a	c #232323",
"b	c #A3A3A3",
"c	c #2D2D2D",
"d	c #C4C4C4",
"e	c #1E1E1E",
"f	c #D8D8D8",
"g	c #272727",
"h	c #292929",
"i	c #E3E3E3",
"j	c #D4D4D4",
"k	c #B8B8B8",
"l	c #EBEBEB",
"m	c #444444",
"n	c #323232",
"o	c #3B3B3B",
"p	c #414141",
"q	c #383838",
"r	c #434343",
"s	c #EFEFEF",
"t	c #ABABAB",
"u	c #E7E7E7",
"v	c #A0A0A0",
"w	c #353535",
"x	c #363636",
"y	c #373737",
"z	c #C3C3C3",
"A	c #969696",
"B	c #1B1B1B",
"C	c #8F8F8F",
".+@#$.@%&+%%@+*",
"=--;;>,')!;;--$",
"~{;;]!^;/(_;{/:",
"=<;)[^}_)/+|1<2",
"&3/41);;;56}(/%",
"73;)89;;;06_(/+",
"2(5abc;;;]d)e/%",
"7f5)90g]g0ahe3+",
"+;ai<(j(<<k6]l@",
"@;9bmncopqr1)-%",
"+i4stui({(b;}l:",
"2;}v|w>x|yp(g-+",
".jn6z6uk<u<8]u#",
"Aie9B4]a455>eiC",
"@%@%=22@@%&+#=~"};
