/* XPM */
static const char *mono_xpm[] = {
"15 9 2 1",
"  c #303030",
". c none",
/* pixels */
".....     .....",
"....       ....",
"...   ...   ...",
"...  .....  ...",
"...  .....  ...",
"...  .....  ...",
"...   ...   ...",
"....       ....",
".....     ....."
};
