/* XPM */
static const char* punchout1_xpm[]={
"12 12 3 1",
"a c #c0c0c0",
"# c #000000",
". c None",
"............",
"............",
"......######",
"....########",
"....##......",
"....##......",
"....##......",
"....##......",
"######......",
"####........",
"............",
"............"};
