/* XPM */
static const char * score_xpm[] = {
"22 22 145 2",
"  	c None",
". 	c #535353",
"+ 	c #4A4A4A",
"@ 	c #424242",
"# 	c #3A3A3A",
"$ 	c #313131",
"% 	c #292929",
"& 	c #212121",
"* 	c #181818",
"= 	c #101010",
"- 	c #080808",
"; 	c #000000",
"> 	c #4C4C4C",
", 	c #DEDEDE",
"' 	c #D6D6D6",
") 	c #C6C6C6",
"! 	c #B4B4B4",
"~ 	c #989898",
"{ 	c #464646",
"] 	c #FFFFFF",
"^ 	c #ECECEC",
"/ 	c #E1E1E1",
"( 	c #141414",
"_ 	c #C9C9C9",
": 	c #3F3F3F",
"< 	c #393939",
"[ 	c #3E3E3E",
"} 	c #E0E0E0",
"| 	c #333333",
"1 	c #2C2C2C",
"2 	c #FDFDFD",
"3 	c #F0EEEC",
"4 	c #CFCBC4",
"5 	c #B8B1A9",
"6 	c #857F7A",
"7 	c #262626",
"8 	c #FEFDFC",
"9 	c #FDFAF7",
"0 	c #E4E0DB",
"a 	c #D0C8C1",
"b 	c #A09B97",
"c 	c #1F1F1F",
"d 	c #FEFDFB",
"e 	c #FCF8F5",
"f 	c #FBF3EE",
"g 	c #F9F0E8",
"h 	c #EADFD5",
"i 	c #BBB2AB",
"j 	c #191919",
"k 	c #FEFCFB",
"l 	c #FAF4EE",
"m 	c #F9EFE7",
"n 	c #F7EBE1",
"o 	c #F5E6D9",
"p 	c #C6B8AC",
"q 	c #131313",
"r 	c #FFFEFE",
"s 	c #FDFCFA",
"t 	c #FBF7F3",
"u 	c #FAF3ED",
"v 	c #F8EEE6",
"w 	c #F6EADF",
"x 	c #F3E1D2",
"y 	c #D2C0B1",
"z 	c #0C0C0C",
"A 	c #FEFEFE",
"B 	c #FDFBFA",
"C 	c #FCF7F3",
"D 	c #FAF2EC",
"E 	c #F7EADF",
"F 	c #F5E6D8",
"G 	c #F4E1D2",
"H 	c #F2DDCB",
"I 	c #D0BCAB",
"J 	c #060606",
"K 	c #FDFBF9",
"L 	c #FBF6F2",
"M 	c #FAF3EC",
"N 	c #F8EDE4",
"O 	c #F7EADE",
"P 	c #F5E5D8",
"Q 	c #F3E1D1",
"R 	c #F0D8C3",
"S 	c #CFB8A5",
"T 	c #FEFEFD",
"U 	c #FDFAF8",
"V 	c #FBF6F1",
"W 	c #FAF2EB",
"X 	c #F8EEE4",
"Y 	c #F6E8DD",
"Z 	c #F5E5D7",
"` 	c #F3E0D0",
" .	c #F1DCC9",
"..	c #EFD8C3",
"+.	c #EED3BC",
"@.	c #CEB49F",
"#.	c #FCF6F1",
"$.	c #F6E9DD",
"%.	c #F4E4D6",
"&.	c #EFD8C2",
"*.	c #ECCEB5",
"=.	c #CCB099",
"-.	c #020202",
";.	c #FBF5F0",
">.	c #F9F0EA",
",.	c #F7ECE2",
"'.	c #F6E8DC",
").	c #F2DFCE",
"!.	c #F1DBC8",
"~.	c #EFD6C1",
"{.	c #EED2BB",
"].	c #ECCEB4",
"^.	c #EAC9AD",
"/.	c #CBAC93",
"(.	c #F9F0E9",
"_.	c #F4E3D5",
":.	c #F2E0CF",
"<.	c #F1DAC7",
"[.	c #EFD7C1",
"}.	c #EED2BA",
"|.	c #E9C5A6",
"1.	c #C9A88D",
"2.	c #F6E8DB",
"3.	c #F4E3D4",
"4.	c #F2DECE",
"5.	c #F1DBC7",
"6.	c #EFD6C0",
"7.	c #ECCDB3",
"8.	c #EAC9AC",
"9.	c #E8C5A6",
"0.	c #E7C2A2",
"a.	c #C8A487",
"b.	c #D8D0CA",
"c.	c #D7CCC4",
"d.	c #D6C8BE",
"e.	c #D4C4B8",
"f.	c #D2C0B2",
"g.	c #D1BDAC",
"h.	c #CFB8A6",
"i.	c #CEB5A0",
"j.	c #CDB09A",
"k.	c #CBAD94",
"l.	c #C9A88E",
"m.	c #C8A488",
"n.	c #C7A081",
"                                            ",
"      . + @ # $ % & * = - ; ;               ",
"      > , , , , , , ' ) ! ; ~ ;             ",
"      { , ] ] ] ] ] ] ^ / ( _ ~ ;           ",
"      : , ] ] ] ] ] ] ] ^ % ] _ ~ ;         ",
"      < , ] ] ] ] ] ] ] ] [ } ] _ ~ ;       ",
"      | , ] ] ] ] ] ] ] ] . [ % ( ; ;       ",
"      1 , ] ] ] ] ] ] ] ] 2 3 4 5 6 ;       ",
"      7 , ] ] ] ] ] ] ] ] 8 9 0 a b ;       ",
"      c , ] ] ] ] ] ] ] d e f g h i ;       ",
"      j , ] ] ] ] ] ] k e l m n o p ;       ",
"      q , ] ] ] ] r s t u v w o x y ;       ",
"      z , ] ] ] A B C D v E F G H I ;       ",
"      J , ] ] A K L M N O P Q H R S ;       ",
"      J , ] ] A K L M N O P Q H R S ;       ",
"      ; , ] T U V W X Y Z `  ...+.@.;       ",
"      ; , r 9 #.W N $.%.`  .&.+.*.=.;       ",
"      -., 9 ;.>.,.'.%.).!.~.{.].^./.;       ",
"      ; , ;.(.,.'._.:.<.[.}.].^.|.1.;       ",
"      ; , g n 2.3.4.5.6.}.7.8.9.0.a.;       ",
"      ; b.b.c.d.e.f.g.h.i.j.k.l.m.n.;       ",
"      ; ; ; ; ; ; ; ; ; ; ; ; ; ; ; ;       "};
