/* XPM */
static char *clock_xpm[]={
"18 18 3 1",
". c None",
"# c #000000",
"a c #0000c0",
"...####a#####.....",
"..####.aaa.###....",
".####..aaa..###...",
".###...aaa...###..",
".#.....aaa....##..",
"##.....aaa.....##.",
"##.....aaa.....##.",
"###....aaaaaaaaa#.",
"###....aaaaaaaaa#.",
"##.....aaaaaaaaa#.",
"##............#.#.",
".##...........##..",
".##..........###..",
"..##........####..",
"...####...####....",
"....#########.....",
"......######......",
".................."};
