/* XPM */
static const char * addtrack_drumtrack_xpm[] = {
"16 16 83 1",
" 	c None",
".	c #707070",
"+	c #7C7C7C",
"@	c #8E8E8E",
"#	c #A0A0A0",
"$	c #BABABA",
"%	c #CFCFCF",
"&	c #E4E4E4",
"*	c #EDEDED",
"=	c #F1F1F1",
"-	c #F4F4F4",
";	c #000100",
">	c #F0F0F0",
",	c #E8E8E8",
"'	c #E0E0E0",
")	c #D1D1D1",
"!	c #C0C0C0",
"~	c #9B9B9B",
"{	c #9E9E9E",
"]	c #A9A9A9",
"^	c #BEBEBE",
"/	c #CDCDCD",
"(	c #9FA19E",
"_	c #E1E1E1",
":	c #D2D2D2",
"<	c #C2C2C2",
"[	c #B3B3B3",
"}	c #CECECE",
"|	c #D6D6D6",
"1	c #E7E7E7",
"2	c #EBEBEB",
"3	c #A29FA3",
"4	c #D0D0D0",
"5	c #BFBFBF",
"6	c #D9D9D9",
"7	c #DDDDDD",
"8	c #E5E5E5",
"9	c #E9E9E9",
"0	c #E6E6E6",
"a	c #B7B7B7",
"b	c #EFEFEF",
"c	c #EEEEEE",
"d	c #DBDBDB",
"e	c #ABABAB",
"f	c #F5F5F5",
"g	c #2F312E",
"h	c #B9B9B9",
"i	c #F8F8F8",
"j	c #878A8A",
"k	c #ABAFB0",
"l	c #C1C1C1",
"m	c #AEAEAE",
"n	c #959595",
"o	c #DDE2E5",
"p	c #C5C5C5",
"q	c #BDBDBD",
"r	c #909090",
"s	c #C4C4C4",
"t	c #BBBBBB",
"u	c #A8A8A8",
"v	c #6D706F",
"w	c #C3C3C3",
"x	c #B8B8B8",
"y	c #AAAAAA",
"z	c #939393",
"A	c #6D6F6C",
"B	c #989898",
"C	c #D3D8DA",
"D	c #C2C4C0",
"E	c #7F817E",
"F	c #868885",
"G	c #A6A6A6",
"H	c #ADADAD",
"I	c #B6B6B6",
"J	c #C9C9C9",
"K	c #D8D8D8",
"L	c #DCDCDC",
"M	c #A3A3A3",
"N	c #AFAFAF",
"O	c #BCBCBC",
"P	c #C8C8C8",
"Q	c #D7D7D7",
"R	c #C7C7C7",
".+@#$%&*=-;>,')!",
"~{]^/',*=;;(*_:<",
"[^}|_122;;3(,;45",
"6781290;;((1;;(a",
">bc*9&;;33d;;((e",
"f-gg;;;gg/;;((h{",
"i;jk;;jj;;;33lmn",
"gjkoook;;;((pqer",
"ggjkokj;;g3sltu@",
"gvggggg;;g3w!xyz",
"gvjookjAg;;;;;eB",
"gvkoooCv;;D3DE;{",
"8gjookFgg;EDD;;G",
")|gggggg|;;;;;;H",
"I^J4KL7d|;(EE;t[",
"BMNOP:Q6Q:;;;sRw"};
