/* XPM */
static const char * editpasteclone2track_xpm[] = {
"22 22 123 2",
"  	c None",
". 	c #161616",
"+ 	c #3A3616",
"@ 	c #6F681E",
"# 	c #625607",
"$ 	c #575006",
"% 	c #020202",
"& 	c #060A06",
"* 	c #262206",
"= 	c #807529",
"- 	c #FEFEFD",
"; 	c #CAC682",
"> 	c #A69E62",
", 	c #362E16",
"' 	c #EAEAEA",
") 	c #EEEEEE",
"! 	c #574D0A",
"~ 	c #FFFFFF",
"{ 	c #F6F6DE",
"] 	c #EEEECA",
"^ 	c #CECA96",
"/ 	c #9E964A",
"( 	c #4A462E",
"_ 	c #C5C5C5",
": 	c #C9C9C9",
"< 	c #CCCCCC",
"[ 	c #D4D4D4",
"} 	c #DBDBDB",
"| 	c #3A3636",
"1 	c #D6D6D6",
"2 	c #A6A6A6",
"3 	c #989898",
"4 	c #D6D29E",
"5 	c #CAC686",
"6 	c #B6B26A",
"7 	c #AAA65A",
"8 	c #7E721E",
"9 	c #818181",
"0 	c #888885",
"a 	c #8C8C8C",
"b 	c #262626",
"c 	c #DADADA",
"d 	c #A2A2A2",
"e 	c #A9A9A9",
"f 	c #B2B6B6",
"g 	c #3E3A32",
"h 	c #2E2E26",
"i 	c #26261A",
"j 	c #22221A",
"k 	c #222216",
"l 	c #161612",
"m 	c #626266",
"n 	c #727272",
"o 	c #6E6E6E",
"p 	c #7A7A7A",
"q 	c #222222",
"r 	c #D5D5D5",
"s 	c #999999",
"t 	c #9E9E9E",
"u 	c #AAAAAA",
"v 	c #BEBEBE",
"w 	c #9A9A9A",
"x 	c #828282",
"y 	c #6C6C6C",
"z 	c #5E5E5E",
"A 	c #656565",
"B 	c #5B5B5B",
"C 	c #2E2E2E",
"D 	c #302113",
"E 	c #432E1A",
"F 	c #372617",
"G 	c #2C1F14",
"H 	c #201711",
"I 	c #15110D",
"J 	c #1B1B1B",
"K 	c #7E7E7E",
"L 	c #1E1E1E",
"M 	c #3A2816",
"N 	c #313131",
"O 	c #898989",
"P 	c #121212",
"Q 	c #3C3B3C",
"R 	c #676767",
"S 	c #382615",
"T 	c #C6C6C6",
"U 	c #474646",
"V 	c #342414",
"W 	c #362515",
"X 	c #5C5B5B",
"Y 	c #FEFCFB",
"Z 	c #A4A4A4",
"` 	c #747474",
" .	c #FDFBF9",
"..	c #FCF7F3",
"+.	c #FAF4EE",
"@.	c #F0EAE6",
"#.	c #C1BAB3",
"$.	c #2B1D12",
"%.	c #5A5552",
"&.	c #7E7873",
"*.	c #9F958D",
"=.	c #7D746E",
"-.	c #D8D0C8",
";.	c #241910",
">.	c #FCF8F5",
",.	c #FBF5F0",
"'.	c #F9F1EA",
").	c #F8EEE5",
"!.	c #F7EADF",
"~.	c #F5E7DA",
"{.	c #D6CABF",
"].	c #241911",
"^.	c #5B5959",
"/.	c #C4C0BD",
"(.	c #807C79",
"_.	c #5A5653",
":.	c #C0B5AC",
"<.	c #998778",
"[.	c #7B6F65",
"}.	c #7A6D62",
"|.	c #D3C3B4",
"1.	c #FBFD35",
"2.	c #A0A0A0",
"              . + @ # $                     ",
"  % % % % % & * = - ; > , % % % % % %       ",
"% ' ) ) ) ) ) ! ~ { ] ^ / ( _ : < [ } |     ",
"% 1 2 2 2 3 = ~ 4 5 6 7 / 8 ( 9 0 9 a b     ",
"% c d e f 2 g h i i j i j k l m n o p q     ",
"% r s t u v u w x y z A B A z B A y w C     ",
"D E E F G H I J K E E E F G H I J J y L     ",
"M ~ ~ ~ ~ ~ ~ N K E ~ ~ ~ ~ ~ ~ N O P L     ",
"M ~ ~ ~ ~ ~ ~ Q R E ~ ~ ~ ~ ~ ~ Q ~ : P     ",
"S ~ x : x T ~ U x E ~ x : x T ~ U : ~ O P   ",
"V ~ ~ ~ ~ ~ ~ U U Q N % ~ ~ ~ ~ U U Q N P   ",
"W ~ x X : x : Y T Z ` % X : x : Y T Z ` P   ",
"W ~ ~ ~ ~ ~  ...+.@.#.% ~ ~ ~  ...+.@.#.P   ",
"$.~ X x T x %.&.*.=.-.% x T x %.&.*.=.-.P   ",
";.~ ~ Y >.,.'.).!.~.{.% Y >.,.'.).!.~.{.P   ",
"].~ ^./.(._.:.<.[.}.|.% /.(._.:.<.[.}.|.P   ",
"% % % % % % % % % % % % % % % % % % % % %   ",
"% 1.1.1.2.2.1.1.1.1.1.2.2.1.1.1.1.1.2.2.P   ",
"% 1.1.1.2.2.1.1.1.1.1.2.2.1.1.1.1.1.2.2.P   ",
"% 1.1.1.2.2.1.1.1.1.1.2.2.1.1.1.1.1.2.2.%   ",
"% % % % % % % % % % % % % % % % % % % % %   ",
"                                            "};
