/* XPM */
static const char * filenewS_xpm[] = {
"16 16 10 1",
" 	c None",
".	c #000000",
"+	c #303030",
"@	c #DCDCDC",
"#	c #C3C3C3",
"$	c #FFFFFF",
"%	c #585858",
"&	c #A0A0A0",
"*	c #FFFFC0",
"=	c #400000",
"  ..+...+..     ",
"  +@@@@@#+#.    ",
"  .@$$$$$%$@.   ",
"  .@$$$$$%@$#.  ",
"  .@$$$$$%%%+.  ",
"  .@$$$$$$@#&.  ",
"  .@$$$$$$*$@.  ",
"  .@$$$$$$$$$.  ",
"  .@$$$$*$*$*.  ",
"  .@$$$$$$$*$.  ",
"  .@$$*$*$*$*.  ",
"  .@$$$$$*$*$.  ",
"  +@*$*$*$*$*.  ",
"  .@$$$*$*$**.  ",
"  .@*$*$*$***.  ",
"  ......=..+..  "};
