/* XPM */
static const char* flag_xpm[] = {
"22 22 3 1",
".	c None",
"+	c #000000",
"@	c #00FF00",
"......................",
"......................",
"......................",
"......................",
"........++............",
"........+@++..........",
"........+@@@+.........",
"........+@@@@+........",
"........+@@@@@+.......",
"........+@@@@+........",
"........+@@@+.........",
"........+@++..........",
"........++............",
"........+.............",
"........+.............",
"........+.............",
"........+.............",
"........+.............",
"........+.............",
"......................",
"......................",
"......................"};
