/* XPM */
static const char *muse_icon_xpm[] = {
/* columns rows colors chars-per-pixel */
"32 32 172 2",
"   c black",
".  c gray15",
"X  c #292727",
"o  c #2A2827",
"O  c #2C2A29",
"+  c #342C29",
"@  c #392F2B",
"#  c #333029",
"$  c #3B322A",
"%  c #3E382A",
"&  c #343434",
"*  c #3B3834",
"=  c gray23",
"-  c #42332D",
";  c #49362E",
":  c #413A35",
">  c #433D3B",
",  c #4A3730",
"<  c #4A3930",
"1  c #493F3B",
"2  c #523B32",
"3  c #5D3E33",
"4  c #4B4139",
"5  c #51452D",
"6  c #54492E",
"7  c #55443B",
"8  c #544A37",
"9  c #5C4335",
"0  c #5A463A",
"q  c #5D4E33",
"w  c #634235",
"e  c #644A39",
"r  c #6D4536",
"t  c #694B3A",
"y  c #635435",
"u  c #6E573D",
"i  c #6E5B36",
"p  c #724837",
"a  c #734939",
"s  c #784A38",
"d  c #70573C",
"f  c #795E3F",
"g  c #7C6334",
"h  c #78653E",
"j  c gray26",
"k  c #434343",
"l  c #444444",
"z  c gray27",
"x  c #4B4B4B",
"c  c #5C4E42",
"v  c #535353",
"b  c #5A5A57",
"n  c #5B5B5B",
"m  c #675142",
"M  c #695D47",
"N  c #716445",
"B  c #7B6542",
"V  c #7F6E46",
"C  c #646463",
"Z  c #87513C",
"A  c #806634",
"S  c #846936",
"D  c #896D39",
"F  c #8C713C",
"G  c #91743E",
"H  c #915A43",
"J  c #836740",
"K  c #826A42",
"L  c #836F49",
"P  c #8B6B45",
"I  c #846850",
"U  c #896F52",
"Y  c #8B7245",
"T  c #966045",
"R  c #9C6044",
"E  c #9B644A",
"W  c #917640",
"Q  c #957942",
"!  c #967C4A",
"~  c #997D44",
"^  c #836F64",
"/  c #A86144",
"(  c #A37A5C",
")  c #AC7258",
"_  c #BA704C",
"`  c #BA7B59",
"'  c #C2734B",
"]  c #C7784E",
"[  c #D27E50",
"{  c #9C8147",
"}  c #9C8249",
"|  c #978357",
" . c #9E8652",
".. c #9C855C",
"X. c #9C9072",
"o. c #A1854B",
"O. c #A38A4E",
"+. c #A48B51",
"@. c #A38E5B",
"#. c #A88E52",
"$. c #A7905C",
"%. c #AB935B",
"&. c #AF9561",
"*. c #AB986A",
"=. c #B49D61",
"-. c #B8A266",
";. c #BBA569",
":. c #BDA86D",
">. c #B5A272",
",. c #BEAA71",
"<. c #CF8458",
"1. c #DA8653",
"2. c #DD8C58",
"3. c #C1AC71",
"4. c #C1AD78",
"5. c #C8B47D",
"6. c #CAB87F",
"7. c #E18E57",
"8. c #E59258",
"9. c #E9965B",
"0. c #EE9F62",
"q. c #ECA66E",
"w. c #F1A362",
"e. c #F5AA66",
"r. c #FAB46D",
"t. c #F2B178",
"y. c #F7B97F",
"u. c #989282",
"i. c #B9A887",
"p. c #C09C88",
"a. c #C3A680",
"s. c #C7B482",
"d. c #CABC91",
"f. c #D4A185",
"g. c #DDA789",
"h. c #DAA987",
"j. c #D6BE92",
"k. c #C9B0A2",
"l. c #D4BEA6",
"z. c #ECB385",
"x. c #F0B98D",
"c. c #FABF83",
"v. c #D9CA9B",
"b. c #D3C8A5",
"n. c #D8C8AF",
"m. c #DFD2A9",
"M. c #FCCD98",
"N. c #E8C6B3",
"B. c #E1D5AD",
"V. c #E0D1B8",
"C. c #E5D9B2",
"Z. c #E6DBBA",
"A. c #F5C8A2",
"S. c #F3D4B7",
"D. c #ECE0BD",
"F. c #EFE6C6",
"G. c #EEE5CA",
"H. c #F0E6C5",
"J. c #F1E8C6",
"K. c #F3ECD2",
"L. c #FAE8D2",
"P. c #FDEDDA",
"I. c #F6F0D9",
"U. c #F8F2D9",
"Y. c #FBF4E3",
"T. c #FDF5EA",
"R. c #FCF8E7",
"E. c #FDFAEC",
"W. c #F9F7F2",
"Q. c #FDFCF3",
"!. c #FFFFFB",
"~. c None",
/* pixels */
"~.~.~.~.~.~.~.~.~.~.~.~.~.~.~.~.~.~.~.~.~.~.~.~.!.R.H.~.~.~.~.~.",
"~.~.~.~.~.w.e.0.8.~.~.~.~.~.~.~.~.~.~.~.~.~.~.L.E.C.O.~.~.~.~.~.",
"~.~.~.T.' w.c.w.9.8.8.~.~.~.~.~.~.~.~.~.~.c.Y.E.B.P 2 ~.~.~.~.~.",
"~.~.d.Q.W.N.g.] [ 1.7.0.~.~.~.~.~.~.~.~.P.E.R.v.Y r ; ~.~.~.~.~.",
"~.~.v.F.C.B.Z.G.l.` ' 2.t.w.~.~.~.~.x.T.Q.I.s.W 3 r ; + ~.~.~.~.",
"~.~.=.#.Y D G } -.m.l.) <.q.M.r.0.S.E.R.C.@.L ~.r s ; + ~.~.~.~.",
"~.~.G Q S i % < h } 6.G.k.f.z.A.L.E.G.4.z ~.~.2 p p - + ~.~.~.~.",
"~.~.:.| S 5 o o # * h ,.Z.R.Q.E.K.s.j q ~.z ~.2 r 3 @ O ~.~.~.~.",
"~.~.~.A F $ o j ~.j ~.j L j *.$.j ~.j ~.~.~.~.- 2 - O X ~.~.~.~.",
"~.~.~.g Q o ~.j ~.j ~.~.j ~.j ~.j ~.~.j ~.~.~.+ + o . ~.~.~.~.~.",
"~.~.~.F Y o ~.~.j ~.j ~.j ~.j ~.~.j ~.j ~.~.~.~.@ . X ~.~.~.~.~.",
"~.~.~.{ V + y ~.j ~.j ~.~.j ~.j ~.j ~.~.j ~.~.>.$.N N u M ~.~.~.",
"~.~.~.O.Y $ V ~.~.j ~.j ~.j ~.j ~.~.j ~.j ~.I ;.#.G A D F ~.~.~.",
"~.~.~.} } - } ~.~.j ~.j ~.~.j ~.j ~.j ~.~.j ..#.} D A A ~.~.~.~.",
"~.~.~.~ +.<  .~.~.~.j ~.j ~.j ~.j ~.~.j ~.j =.} G A A ~.~.~.~.~.",
"~.~.~.G } 0 O.~.~.~.j ~.j ~.~.j ~.j ~.j ~.! #.~ S A A ~.~.~.~.~.",
"~.~.~.G } u B ~.~.~.~.j ~.j ~.j ~.j ~.~.j %.{ D S g ~.~.~.~.~.~.",
"~.~.~.D ~ K d ~.~.~.~.j ~.j ~.~.j ~.j ~.j o.G S g q ~.~.~.~.~.~.",
"~.~.~.D G ! t ~.~.~.~.j ~.~.j ~.j ~.j ~.O.G S g A ~.~.~.~.~.~.~.",
"~.~.~.~.D ~ e ~.~.~.~.~.j ~.j ~.~.j ~.j { F S S ~.~.~.~.~.~.~.~.",
"~.~.~.~.D W f , ~.~.~.~.j ~.~.j ~.j m } G S S ~.~.~.~.~.~.~.~.~.",
"~.~.~.~.D D W 2 ~.~.~.~.~.j ~.j ~.: j W S g g ~.~.~.~.~.~.~.~.~.",
"~.~.~.~.A D G e 3 ~.~.~.~.j ~.~.j B ~ D S g ~.~.~.~.~.~.~.~.~.~.",
"~.~.~.~.~.S D J 3 w ~.~.~.~.j * j } F S g ~.~.~.~.~.~.~.~.~.~.~.",
"~.~.~.~.~.A D W t 9 U ~.~.~.j ~. .G S A g ~.~.~.~.~.~.~.~.~.~.~.",
"~.~.~.~.~.~.A D &.E R a.~.u.^ V.H.6.G A ~.~.~.~.~.~.~.~.~.~.~.~.",
"~.~.~.~.~.~.A D #.j.` / ( i.n.U.D.=.~ ~.~.~.~.~.~.~.~.~.~.~.~.~.",
"~.~.~.~.~.~.~.A W ;.Z.h._ l.U.J.5.~ ~.~.~.~.~.~.~.~.~.~.~.~.~.~.",
"~.~.~.~.~.~.~.~.g ~ 3.K.Y.I.b.i.M 5 ~.~.~.~.~.~.~.~.~.~.~.~.~.~.",
"~.~.~.~.~.~.~.~.y S ~ :.Z.Q.p.H Z Z s r ~.~.~.~.~.~.~.~.~.~.~.~.",
"~.~.~.~.~.~.~.~.~.8 g F %.X.w T a 1 1 ~.~.~.~.~.~.~.~.~.~.~.~.~.",
"~.~.~.~.~.~.~.~.~.~.~.6 # o X X * ~.x ~.~.~.~.~.~.~.~.~.~.~.~.~."
};
