/* XPM */
static const char * newmutebutton_xpm[] = {
"22 22 44 1",
" 	c None",
".	c #000000",
"+	c #313131",
"@	c #E5141A",
"#	c #E1180D",
"$	c #3F3F3F",
"%	c #222222",
"&	c #9E000D",
"*	c #FB1300",
"=	c #E91900",
"-	c #3B3B3B",
";	c #EB1420",
">	c #A9010C",
",	c #454545",
"'	c #E10E08",
")	c #DD1F0F",
"!	c #121212",
"~	c #ED0014",
"{	c #FF0603",
"]	c #F7001C",
"^	c #4C4C4C",
"/	c #525252",
"(	c #1E0700",
"_	c #ED021A",
":	c #F00018",
"<	c #E21C19",
"[	c #070707",
"}	c #030A1D",
"|	c #000F00",
"1	c #E90412",
"2	c #0B0017",
"3	c #000700",
"4	c #010101",
"5	c #EC141D",
"6	c #EA0900",
"7	c #DE0B09",
"8	c #E01000",
"9	c #E81400",
"0	c #F10E1C",
"a	c #EE0E16",
"b	c #E50300",
"c	c #FF0316",
"d	c #E70816",
"e	c #FF1901",
"......................",
".                    .",
".                    .",
".                    .",
".            +  @#   .",
".         $   %&*=   .",
".        -+ + ;+>    .",
".       $,.  $')+    .",
".      $$!. ~%{].    .",
".    $^/!(._:.< [    .",
".    $+.}|.'1.  .    .",
".    +..23.{].  4    .",
".    ......< .  .    .",
".      ....  .  .    .",
".     56...  .  .    .",
".    7890.. .  .     .",
".   abcd  .   .      .",
".   6e~      .       .",
".                    .",
".                    .",
".                    .",
"......................"};
