/* XPM */
static char * record_off_xpm[] = {
"13 13 70 1",
" 	c None",
".	c #B90000",
"+	c #BA0000",
"@	c #B80000",
"#	c #B70101",
"$	c #B70000",
"%	c #B40101",
"&	c #AB0505",
"*	c #B30202",
"=	c #B10303",
"-	c #A50707",
";	c #A30707",
">	c #AD0404",
",	c #B60101",
"'	c #B40202",
")	c #AA0505",
"!	c #9F0808",
"~	c #9B0A0A",
"{	c #A50606",
"]	c #B70100",
"^	c #B20202",
"/	c #A20707",
"(	c #980B0B",
"_	c #940C0D",
":	c #9C0A09",
"<	c #AF0303",
"[	c #B20302",
"}	c #AE0404",
"|	c #A80606",
"1	c #A10707",
"2	c #990A0A",
"3	c #900E0E",
"4	c #8C1010",
"5	c #920D0D",
"6	c #990A0B",
"7	c #9F0909",
"8	c #A30807",
"9	c #A20808",
"0	c #9D0909",
"a	c #970B0B",
"b	c #871111",
"c	c #881010",
"d	c #8E0E0E",
"e	c #930D0D",
"f	c #970C0C",
"g	c #990B0B",
"h	c #9A0C0B",
"i	c #960C0C",
"j	c #910D0D",
"k	c #8D0F0F",
"l	c #861111",
"m	c #7F1414",
"n	c #831313",
"o	c #871011",
"p	c #8B1010",
"q	c #8D1010",
"r	c #811313",
"s	c #7B1414",
"t	c #791515",
"u	c #7C1515",
"v	c #801313",
"w	c #7E1414",
"x	c #7B1515",
"y	c #761616",
"z	c #741817",
"A	c #721818",
"B	c #741717",
"C	c #731717",
"D	c #711818",
"E	c #701918",
"    .....    ",
"  +.@@@@@@.  ",
" +.@.......# ",
" $........@%&",
"&*.@.....@.=-",
";>,.......')!",
"~{>%@...]^)/(",
"_:;)<[^=}|123",
"45678-{-90a3b",
" cdefghgijklm",
" mnop4q4plrs ",
"  tumvrvwxyz ",
"   AABBCDE   "};
