/* XPM */
static const char * routing_input_button_slim_4_xpm[] = {
"16 11 39 1",
" 	c None",
".	c #1C1A16",
"+	c #39342D",
"@	c #2E2D2D",
"#	c #5D5C5B",
"$	c #504A3E",
"%	c #313131",
"&	c #A29F99",
"*	c #7C786F",
"=	c #575553",
"-	c #534E42",
";	c #191918",
">	c #FFFFFF",
",	c #5D5D5C",
"'	c #FEFDFD",
")	c #696359",
"!	c #151310",
"~	c #8E8980",
"{	c #595041",
"]	c #28241D",
"^	c #8A8479",
"/	c #534C3F",
"(	c #14120E",
"_	c #A0988D",
":	c #221F1A",
"<	c #585244",
"[	c #5A5346",
"}	c #676053",
"|	c #100F0C",
"1	c #91897D",
"2	c #565045",
"3	c #151414",
"4	c #797367",
"5	c #938E84",
"6	c #0C0C0B",
"7	c #656565",
"8	c #B2ACA2",
"9	c #070707",
"0	c #0F0F0F",
"                ",
".++             ",
"@@#$            ",
"%%&*****=*=* -  ",
";>>>>>>,>,>>$'>)",
"!~{{{{]{]{{{>^{/",
"({_____:_:__<{[}",
"||1222223232 45 ",
"6678            ",
"900             ",
"                "};
