/* XPM */
static char *metronom_xpm[]={
"18 18 3 1",
". c None",
"# c #000000",
"a c #0000ff",
".........##.......",
".........##.......",
"........###....a..",
".......###.#..aaa.",
".......##..#.aaa..",
"......###...#aa...",
"......##....aaa...",
".....##....aaa....",
"....###...aaa#....",
"....##....aa.#....",
"...###...aa...#...",
"..###...aaa...#...",
"..##...aaa....#...",
".###...aaa.....#..",
".##....aa......#..",
"###.....a.......#.",
"##################",
"##################"};
