/* XPM */
static const char *doth_xpm[] = {
/* width height num_colors chars_per_pixel */
"     16    13        2            1",
/* colors */
". c none",
"# c #000000",
/* pixels */
"................",
"................",
".......##.......",
"......#..#......",
".....#....#.....",
"....#......#....",
"....#......#....",
"....#......#....",
".....#....#.....",
"......#..#......",
".......##.......",
"................",
"................"
};
