/* XPM */
static const char * editpasteclone2trackS_xpm[] = {
"16 16 15 1",
" 	c None",
".	c #000000",
"+	c #C0C000",
"@	c #A0A0A0",
"#	c #DCDCDC",
"$	c #FFFFFF",
"%	c #616161",
"&	c #545454",
"*	c #FFFFC0",
"=	c #303030",
"-	c #4A4A4A",
";	c #232323",
">	c #1C1C1C",
",	c #1A1A1A",
"'	c #FBFD35",
"       ..       ",
" ......++.....  ",
".@@@@.+..+.@@@. ",
".#@@.++++++.@@. ",
"............@@. ",
".$$$$%.$$$$..@. ",
".$$$$&.$$$$.*.. ",
".$==$-.$==$.$*..",
".$$$$;....$.....",
".$==$$@@@>$$@@@.",
".$$$$$*$*.$$*$*.",
".$===$==*,=$==*.",
"................",
".''@@''''@@''@@.",
".''@@''''@@''@@.",
"................"};
