/* XPM */
static const char * glue_xpm[] = {
"22 22 24 1",
" 	c None",
".	c #A0A0A4",
"+	c #8C9BBA",
"@	c #BBC4D6",
"#	c #7C8BAA",
"$	c #A3ACBE",
"%	c #7D8EAE",
"&	c #98A6C0",
"*	c #8895B0",
"=	c #4F6693",
"-	c #0D1628",
";	c #7586A6",
">	c #4A566E",
",	c #000000",
"'	c #6D7FA2",
")	c #63779D",
"!	c #9B9B9F",
"~	c #6A7A99",
"{	c #687B9F",
"]	c #374664",
"^	c #424F6A",
"/	c #5C7199",
"(	c #3B4967",
"_	c #3E4C68",
"                      ",
"                      ",
"          .           ",
"          .           ",
"         .+.          ",
"         .+..         ",
"        .@+#.         ",
"        .@+#..        ",
"       .@@@$#.        ",
"      .@@@@@##.       ",
"      .@@@@@$%..      ",
"     .&@@@@$*#=-      ",
"     .&@@@@$;#>,.     ",
"     .'*@@@*;'),.     ",
"     !~;$$*{')],.     ",
"      ,^;{*//(,..     ",
"       ,_#))_,..      ",
"        ,,,,,..       ",
"         .....        ",
"                      ",
"                      ",
"                      "};
