/* XPM */
static const char * midi_local_off_xpm[] = {
"16 16 86 1",
" 	c None",
".	c #800000",
"+	c #C00000",
"@	c #FFFFFF",
"#	c #F2F2F2",
"$	c #3D3D3D",
"%	c #414141",
"&	c #FEFEFE",
"*	c #F1F1F1",
"=	c #BFBFBF",
"-	c #E7E7E7",
";	c #EEEEEE",
">	c #363636",
",	c #353535",
"'	c #D1D1D1",
")	c #B5B5B5",
"!	c #FAFAFA",
"~	c #878787",
"{	c #040404",
"]	c #636363",
"^	c #E9E9E9",
"/	c #6B6B6B",
"(	c #0E0E0E",
"_	c #999999",
":	c #C4C4C4",
"<	c #1E1E1E",
"[	c #1C1C1C",
"}	c #B7B7B7",
"|	c #ECECEC",
"1	c #F7F7F7",
"2	c #9E9E9E",
"3	c #121212",
"4	c #2E2E2E",
"5	c #DFDFDF",
"6	c #535353",
"7	c #070707",
"8	c #EFEFEF",
"9	c #E5E5E5",
"0	c #4C4C4C",
"a	c #0A0A0A",
"b	c #949494",
"c	c #212121",
"d	c #B8B8B8",
"e	c #979797",
"f	c #454545",
"g	c #171717",
"h	c #3C3C3C",
"i	c #DADADA",
"j	c #494949",
"k	c #BEBEBE",
"l	c #292929",
"m	c #242424",
"n	c #101010",
"o	c #A8A8A8",
"p	c #4B4B4B",
"q	c #FDFDFD",
"r	c #868686",
"s	c #373737",
"t	c #828282",
"u	c #090909",
"v	c #5C5C5C",
"w	c #F0F0F0",
"x	c #F4F4F4",
"y	c #FBFBFB",
"z	c #404040",
"A	c #0F0F0F",
"B	c #A5A5A5",
"C	c #111111",
"D	c #4E4E4E",
"E	c #B4B4B4",
"F	c #EBEBEB",
"G	c #ACACAC",
"H	c #464646",
"I	c #E8E8E8",
"J	c #131313",
"K	c #484848",
"L	c #2D2D2D",
"M	c #0D0D0D",
"N	c #5A5A5A",
"O	c #CECECE",
"P	c #FCFCFC",
"Q	c #CCCCCC",
"R	c #7F7F7F",
"S	c #262626",
"T	c #A7A7A7",
"U	c #E2E2E2",
"................",
".++++++++++++++.",
".+@@@@#$%&@@@@+.",
".+@*=-;>,&')!@+.",
".+!~{]^>,^/(_@+.",
".+:<[}|>,12345+.",
".+67/8;>,&90ab+.",
".+<cd@;>,&@eaf+.",
".+ghi@;>j&@k<l+.",
".+mno&8pj&qr{s+.",
".+tuv9qwxyizAB+.",
".+'%CDEF-GHA6I+.",
".+qkf7JKLM7NO@+.",
".+@PQRSCC/TU@@+.",
".++++++++++++++.",
"................"};
