/* XPM */
static const char * midi_transform_xpm[] = {
"16 16 11 1",
" 	c None",
".	c #58A8FF",
"+	c #A8DCFF",
"@	c #363636",
"#	c #FFFFFF",
"$	c #CACACA",
"%	c #626262",
"&	c #000000",
"*	c #85AECA",
"=	c #010101",
"-	c #4685CA",
"................",
".+++++++++@@+++.",
".+##@#####@@##+.",
".+##@$####@@##+.",
".+##@$####@@##+.",
".+#%&%##%@&&@%+.",
".+#%&%$#%@&&@%*.",
".+#%&%$#%@&&@%*.",
".+#%&%$#%@&&@%*.",
".+##&$$#%@&&@%*.",
".+#&=$##%@&&@%*.",
".+&&$$###$=&$$*.",
".&&$$####&&&$#+.",
"&&$$####&&&$$#+.",
"&**++++&&&**+++.",
"--....&&&--....."};
