/* XPM */
static const char *reddot_xpm[]={
"12 12 2 1",
". c None",
"# c #ff5600",
"...#####....",
"..#######...",
".#########..",
"###########.",
"###########.",
"###########.",
"###########.",
"###########.",
".#########..",
"..#######...",
"...#####....",
"............"};
