/* XPM */
static const char * redoS_xpm[] = {
"16 16 6 1",
" 	c None",
".	c #000000",
"+	c #00FF00",
"@	c #00C000",
"#	c #008000",
"$	c #004000",
"                ",
"     ....       ",
"   ..++++..     ",
"  .+@@@@@++.   .",
" .+#$..#@@@+. #.",
" .$..  ..#@@+.#.",
".@.      .#@@@#.",
"...       .@@@#.",
"...       .@@@#.",
"...      ######.",
" ..     ........",
" ...            ",
"  ...           ",
"   ....         ",
"     ...        ",
"                "};
