/* XPM */
static const char *settings_configureshortcuts_xpm[] = {
"16 16 17 1",
" 	c None",
".	c #000000",
"+	c #808080",
"@	c #646464",
"#	c #DCDCDC",
"$	c #C3C3C3",
"%	c #A0A0A0",
"&	c #B8B8B8",
"*	c #787878",
"=	c #FFFFFF",
"-	c #EDEDED",
";	c #585858",
">	c #C2C2C2",
",	c #B7B7B7",
"'	c #E7E7E7",
")	c #303030",
"!	c #CFCFCF",
"   ......       ",
"   .+@#$%..     ",
"    .&*@#$%.    ",
"...  ..&@#$.    ",
".=$..  .@##%.   ",
".=-#$.;@>##,.   ",
".@=-######'$%.. ",
")=@*=--##'$!$%%.",
".$#=@@@*%$-#!$,%",
" ..$#$$$*@*=-#!$",
"   ...%#$$%@*=-#",
"      ....-#%@*=",
"          ..-#%@",
"            ..-#",
"              ..",
"                "};
