/* XPM */
static const char * settings_appearance_settings_xpm[] = {
"16 16 47 1",
" 	c None",
".	c #000000",
"+	c #A80000",
"@	c #B60000",
"#	c #D40000",
"$	c #93440B",
"%	c #A44C0C",
"&	c #B7550D",
"*	c #E56A10",
"=	c #CD5F0E",
"-	c #C9CC00",
";	c #FCFF00",
">	c #B4B600",
",	c #A1A300",
"'	c #CC0000",
")	c #E40000",
"!	c #E1E400",
"~	c #909200",
"{	c #4E8F00",
"]	c #61B300",
"^	c #57A000",
"/	c #B000B6",
"(	c #6CC800",
"_	c #79E000",
":	c #DC00E4",
"<	c #C500CC",
"[	c #9D00A3",
"}	c #009836",
"|	c #468000",
"1	c #7D0083",
"2	c #1B687D",
"3	c #008830",
"4	c #22829D",
"5	c #00D44B",
"6	c #00AA3C",
"7	c #250492",
"8	c #3304CB",
"9	c #2E04B6",
"0	c #3905E3",
"a	c #2904A3",
"b	c #2691B0",
"c	c #2AA2C5",
"d	c #00ED54",
"e	c #00BE43",
"f	c #2FB5DC",
"g	c #185D70",
"h	c #1E748C",
"................",
".+@#.$%&*=.-;>,.",
".'').==*=.--!->.",
".')).===.~!-!;-.",
".))).=&.........",
"..)'.&....{]^]{.",
"./.).......((_].",
".:<.........(((.",
".:::.........]^.",
"./[::.......}.|.",
".1<:<[....2.}3..",
".........44.556.",
".78908a.bbc.d5e.",
".88888.4fbc.6de.",
".aa09.ghcc4.3e6.",
"................"};
