/* XPM */
static const char * addtrack_wavetrack_xpm[] = {
"16 16 148 2",
"  	c None",
". 	c #A90CF6",
"+ 	c #A90BF6",
"@ 	c #A910F5",
"# 	c #A910F3",
"$ 	c #A90FF1",
"% 	c #A917EE",
"& 	c #AA1EEB",
"* 	c #AF2BEA",
"= 	c #BD42E7",
"- 	c #CD61E6",
"; 	c #D384E7",
"> 	c #D6A8E8",
", 	c #E8CAEB",
"' 	c #EBD5EB",
") 	c #EBD9EB",
"! 	c #ECD8EC",
"~ 	c #A903FA",
"{ 	c #A902F9",
"] 	c #A901F9",
"^ 	c #A901F8",
"/ 	c #A902F6",
"( 	c #A905F7",
"_ 	c #A908F5",
": 	c #AB11F3",
"< 	c #B325F3",
"[ 	c #C64DF2",
"} 	c #D26EEF",
"| 	c #DA91EF",
"1 	c #E9C2EE",
"2 	c #ECCEED",
"3 	c #E9CDEB",
"4 	c #E8C9EA",
"5 	c #A900FB",
"6 	c #A900FA",
"7 	c #000000",
"8 	c #A900F9",
"9 	c #AC0FF8",
"0 	c #BD30F7",
"a 	c #C24FF6",
"b 	c #D58FF3",
"c 	c #E2B0F0",
"d 	c #E1B1EC",
"e 	c #DCADE6",
"f 	c #AB14F9",
"g 	c #BC36FA",
"h 	c #D470F5",
"i 	c #E190F2",
"j 	c #DF95EC",
"k 	c #DC89E8",
"l 	c #A906F9",
"m 	c #B622FA",
"n 	c #C44BF8",
"o 	c #CA56F4",
"p 	c #D669EF",
"q 	c #D864EC",
"r 	c #A900F6",
"s 	c #AF10F9",
"t 	c #BF32F9",
"u 	c #C63BF8",
"v 	c #CE47F5",
"w 	c #181818",
"x 	c #A900F7",
"y 	c #AB08F6",
"z 	c #B61DFA",
"A 	c #BA22FA",
"B 	c #C326F9",
"C 	c #A900F8",
"D 	c #A903F6",
"E 	c #B10EFB",
"F 	c #A904F4",
"G 	c #AF03FE",
"H 	c #1B1B1B",
"I 	c #A90DEF",
"J 	c #A904F8",
"K 	c #AD01FB",
"L 	c #373737",
"M 	c #B425E6",
"N 	c #AE18EC",
"O 	c #AC0FF2",
"P 	c #A901F6",
"Q 	c #A900F4",
"R 	c #A900F2",
"S 	c #A900F5",
"T 	c #AA00F9",
"U 	c #AA00FB",
"V 	c #AC01FB",
"W 	c #AF04FA",
"X 	c #B208F9",
"Y 	c #BE41E5",
"Z 	c #B733E7",
"` 	c #B324EC",
" .	c #AD15EE",
"..	c #AC0FEF",
"+.	c #AC09F0",
"@.	c #B109F2",
"#.	c #B105F2",
"$.	c #1A1A1A",
"%.	c #AD04FA",
"&.	c #AE06FA",
"*.	c #AF08FA",
"=.	c #B30FF8",
"-.	c #C364E0",
";.	c #C056E1",
">.	c #BD44E6",
",.	c #BD33E9",
"'.	c #B824EC",
").	c #B91DED",
"!.	c #BB12EF",
"~.	c #B70EF2",
"{.	c #B70CF4",
"].	c #B30CF8",
"^.	c #B20EF9",
"/.	c #B311F9",
"(.	c #B417F7",
"_.	c #B51EF1",
":.	c #D39FDD",
"<.	c #D19ADD",
"[.	c #CF8ADD",
"}.	c #BE65DD",
"|.	c #C15AE0",
"1.	c #BA43E4",
"2.	c #BA34E6",
"3.	c #C026EB",
"4.	c #C326EE",
"5.	c #C120F0",
"6.	c #BD1EF4",
"7.	c #B91EF5",
"8.	c #B922F6",
"9.	c #B726F3",
"0.	c #B62DEF",
"a.	c #B639EA",
"b.	c #D7BBDA",
"c.	c #D5B4DD",
"d.	c #D1A6DC",
"e.	c #CF96DA",
"f.	c #CE81DC",
"g.	c #CF6FDE",
"h.	c #C857E0",
"i.	c #C745E3",
"j.	c #C940E6",
"k.	c #C73AED",
"l.	c #C738EF",
"m.	c #C23BEF",
"n.	c #C03EF0",
"o.	c #BC43EB",
"p.	c #BB4EE7",
"q.	c #BB5DE4",
". + @ # $ % & * = - ; > , ' ) ! ",
"~ { ] ^ / ( _ : < [ } | 1 2 3 4 ",
"5 5 6 7 6 6 6 8 9 0 a 7 b c d e ",
"7 5 5 7 5 5 5 6 7 f g 7 h i j k ",
"7 5 5 7 5 7 5 6 7 l m 7 n o p q ",
"7 7 5 7 5 7 5 5 7 r s 7 t u v w ",
"7 7 7 7 5 7 7 5 7 x y 7 z A B 7 ",
"7 7 7 7 7 7 7 7 7 C D 7 7 E 7 7 ",
"7 x 7 5 7 7 5 7 7 7 C 7 7 7 7 7 ",
"7 F 7 6 7 7 5 7 x 7 8 7 5 7 G H ",
"7 I 7 J 7 8 8 7 x 7 8 7 5 7 K L ",
"7 M N O 7 P Q R S 7 T 7 U V W X ",
"7 Y Z `  ...+.@.#.7 $.7 %.&.*.=.",
"7 -.;.>.,.'.).!.~.{.7 ].^./.(._.",
":.<.[.}.|.1.2.3.4.5.6.7.8.9.0.a.",
"b.c.d.e.f.g.h.i.j.k.l.m.n.o.p.q."};
