/* XPM */
static const char * addtrack_audioinput_xpm[] = {
"16 16 13 1",
" 	c None",
".	c #350000",
"+	c #D50000",
"@	c #FF0000",
"#	c #B30000",
"$	c #5E0000",
"%	c #000000",
"&	c #0B0000",
"*	c #7F0000",
"=	c #6F0000",
"-	c #990000",
";	c #550000",
">	c #840000",
"..+@@@@#+@++++++",
"$$$+++#+++++++++",
".%%.@+@+++++@@@+",
"+.&&.#+++@@@@*@+",
"@@*%..+@@@@@*$@@",
"@@+=...++@@-*$@+",
"++@+$...+@*.%$++",
"++@+@$....$%%;@@",
"@@++@@.%...&&$@+",
"+@++@@+;&&.%%*+@",
"+@++@+.;&.&%%*+@",
"++#++;;..%&%%=@@",
"@@++>$.%&&&.;*@@",
"@@@-;;======*-++",
"++++###+#+#+++@@",
"@@@@++++@#+@@@@@"};
