/* XPM */
static const char * automation_take_snapshot_xpm[] = {
"16 16 125 2",
"  	c None",
". 	c #616167",
"+ 	c #6B6A6E",
"@ 	c #66685A",
"# 	c #9EA18A",
"$ 	c #CACB0E",
"% 	c #F7F810",
"& 	c #FAFB10",
"* 	c #FEFF0A",
"= 	c #1F1D28",
"- 	c #1D1B27",
"; 	c #4E5047",
"> 	c #7E8072",
", 	c #F2F30F",
"' 	c #EDEE10",
") 	c #DCDD20",
"! 	c #E9EA25",
"~ 	c #52534E",
"{ 	c #54564B",
"] 	c #595C50",
"^ 	c #5B5E53",
"/ 	c #53544A",
"( 	c #4F5148",
"_ 	c #7D7F72",
": 	c #7B7D6E",
"< 	c #585944",
"[ 	c #666848",
"} 	c #5B5D51",
"| 	c #535342",
"1 	c #535447",
"2 	c #595955",
"3 	c #4B4C47",
"4 	c #636558",
"5 	c #78796D",
"6 	c #84847F",
"7 	c #94958B",
"8 	c #413F4C",
"9 	c #0E0B1C",
"0 	c #201E2A",
"a 	c #999990",
"b 	c #8E907F",
"c 	c #6D6F65",
"d 	c #5A5D51",
"e 	c #4E4F49",
"f 	c #A9AB9E",
"g 	c #4C4C48",
"h 	c #585A4E",
"i 	c #787A6F",
"j 	c #A0A296",
"k 	c #1A1725",
"l 	c #1D1A27",
"m 	c #181624",
"n 	c #616165",
"o 	c #A7A89A",
"p 	c #86877F",
"q 	c #595B4F",
"r 	c #52544E",
"s 	c #ADAFA3",
"t 	c #53544F",
"u 	c #9A9D88",
"v 	c #A4A699",
"w 	c #100D1D",
"x 	c #2C2932",
"y 	c #878A79",
"z 	c #8A8A82",
"A 	c #606255",
"B 	c #53534E",
"C 	c #A3A598",
"D 	c #454641",
"E 	c #5A5C50",
"F 	c #797A6F",
"G 	c #999C91",
"H 	c #1C1A26",
"I 	c #151321",
"J 	c #292630",
"K 	c #8D8F7E",
"L 	c #A5A799",
"M 	c #5E6053",
"N 	c #9A9C8F",
"O 	c #5F6155",
"P 	c #727368",
"Q 	c #9C9D92",
"R 	c #2A2931",
"S 	c #1C1A27",
"T 	c #181523",
"U 	c #26232F",
"V 	c #98998F",
"W 	c #8A8B82",
"X 	c #464742",
"Y 	c #A1A396",
"Z 	c #6D6F61",
"` 	c #6B6D62",
" .	c #A5A899",
"..	c #2A2A32",
"+.	c #1C1926",
"@.	c #181623",
"#.	c #1E1C28",
"$.	c #8E8F89",
"%.	c #81827B",
"&.	c #787A6E",
"*.	c #95978A",
"=.	c #3E3F3F",
"-.	c #484944",
";.	c #5E6054",
">.	c #57594E",
",.	c #55574C",
"'.	c #56584D",
").	c #5A5C51",
"!.	c #5C5E53",
"~.	c #4B4C46",
"{.	c #53544E",
"].	c #484847",
"^.	c #9B9D90",
"/.	c #B2B3A8",
"(.	c #AAAC9F",
"_.	c #AAACA0",
":.	c #9D9F93",
"<.	c #AAABA1",
"[.	c #B7B8AE",
"}.	c #AEB0A4",
"|.	c #ABADA1",
"1.	c #B4B6AB",
"2.	c #C8C9C1",
"3.	c #D4D4CE",
"4.	c #C0C1B8",
"                                ",
"                                ",
"  . + @ #         $ % & *       ",
"  = - ; >         , ' ) !       ",
"~ { ] ^ / ( _ : < [ } | 1 2     ",
"3 4 5 6 7 8 9 9 0 a b c d e f   ",
"g h i j 9 9 k l m n o p q r s   ",
"t { u v 9 9 9 9 w x y z A B C   ",
"D E F G H I 9 9 9 J K L M 3 N   ",
"D O P Q R S 9 9 T U V W A X Y   ",
"D Z ` 7  ...+.@.#.$.%.&.q X *.  ",
"t =.-.3 } ;.>.,.'.).!.~.{.].^.  ",
"    /.f (.(._.:.<.[.}._.|.f 1.  ",
"    2.3.3.2.2.3.3.3.2.3.2.2.4.  ",
"                                ",
"                                "};
