/* XPM */
static const char * blacksquare_xpm[] = {
"18 18 4 1",
"   c None",
".  c #414141",
"+  c #473E3E",
"@  c #4E3C3C",
"                  ",
"                  ",
"                  ",
"                  ",
"                  ",
"   ............   ",
"   +...........   ",
"   @+..........   ",
"   ............   ",
"   ............   ",
"   ............   ",
"   ............   ",
"   ............   ",
"   ............   ",
"   ............   ",
"   ............   ",
"   ............   ",
"                  "};
