/* XPM */
static const char *bounceToFileS_xpm[]={
"16 16 6 1",
"# c #000000",
"c c #a0a0a0",
"d c #c3c3c3",
"b c #dcdcdc",
". c #ff00ff",
"a c #ffffff",
"......###.......",
".....#####......",
"..aa###bb##aaa..",
"..a###bbbb##aa..",
"..###bbbcbb##a..",
".###bbcccdbd##..",
"##bbccddbbb####.",
"##bbbddbb##cc##.",
"####bbbb##ccc##.",
".####b###ccccc#.",
"..#####ccccccc..",
"..a####cc#ccca..",
"..aa####ccccaa..",
"..aaa####ccaaa..",
"......###.......",
"................"};
