/* XPM */
static const char * editcopy_xpm[] = {
"22 22 77 1",
" 	c None",
".	c #121212",
"+	c #FFFFFF",
"@	c #313131",
"#	c #898989",
"$	c #3C3B3C",
"%	c #C9C9C9",
"&	c #828282",
"*	c #C6C6C6",
"=	c #474646",
"-	c #5C5B5B",
";	c #FEFCFB",
">	c #A4A4A4",
",	c #747474",
"'	c #FDFBF9",
")	c #FCF7F3",
"!	c #FAF4EE",
"~	c #F0EAE6",
"{	c #C1BAB3",
"]	c #C3C3C3",
"^	c #5A5552",
"/	c #7E7873",
"(	c #9F958D",
"_	c #7D746E",
":	c #D8D0C8",
"<	c #FCF8F5",
"[	c #FBF5F0",
"}	c #F9F1EA",
"|	c #F8EEE5",
"1	c #F7EADF",
"2	c #F5E7DA",
"3	c #D6CABF",
"4	c #5B5959",
"5	c #C4C0BD",
"6	c #807C79",
"7	c #5A5653",
"8	c #C0B5AC",
"9	c #998778",
"0	c #7B6F65",
"a	c #7A6D62",
"b	c #D3C3B4",
"c	c #FBF6F2",
"d	c #FAF2EC",
"e	c #F9EFE7",
"f	c #F7EBE1",
"g	c #F6E8DC",
"h	c #F4E4D6",
"i	c #F3E0D0",
"j	c #F2DDCB",
"k	c #D1BCAA",
"l	c #4D4D4D",
"m	c #7F7A76",
"n	c #595551",
"o	c #7B6F64",
"p	c #564C45",
"q	c #786A5C",
"r	c #CEB6A0",
"s	c #F8EDE3",
"t	c #F6E9DD",
"u	c #F5E5D8",
"v	c #F3E2D2",
"w	c #F2DECD",
"x	c #F1DAC7",
"y	c #EFD7C2",
"z	c #EED3BC",
"A	c #CCAF97",
"B	c #DEDEDE",
"C	c #D7CCC1",
"D	c #D5C7BA",
"E	c #D3C2B3",
"F	c #D1BEAC",
"G	c #CFB9A5",
"H	c #CEB49F",
"I	c #CCB097",
"J	c #CAAB90",
"K	c #C9A88C",
"L	c #000000",
"                      ",
" .........            ",
" .++++++@#.           ",
" .++++++$+%.          ",
" .+&%&*+=%+#.         ",
" .++++++==$@.         ",
" .+&-%&%;*>,......    ",
" .+++++')!~{.]++@#.   ",
" .+-&*&^/(_:.]++$+%.  ",
" .++;<[}|123.&*+=%+#. ",
" .+4567890ab.]++==$@. ",
" .+cdefghijk.l&%+*>&. ",
" .+mn89op9qr.]+++++*. ",
" .+stuvwxyzA.>&-&>&B. ",
" .:CDEFGHIJK.]+++++B. ",
" ..........LL&-*>&&B. ",
"         .]]]]+++++B. ",
"         .+&-*>&->&B. ",
"         .+++++++++B. ",
"         .BBBBBBBBBB. ",
"         ............ ",
"                      "};
