/* XPM */
static const char * editcopyS_xpm[] = {
"16 16 7 1",
" 	c None",
".	c #000000",
"+	c #FFFFFF",
"@	c #FFFFC0",
"#	c #303030",
"$	c #A0A0A0",
"%	c #DCDCDC",
"......          ",
".++++..         ",
".++++.@.        ",
".+##+.+@.       ",
".++++.......    ",
".+##++$$$.+..   ",
".+++++@+@.+.%.  ",
".+###+##@.+.+%. ",
".+++@+@@@.+.....",
".+##+###@.++$$$.",
".+@+@@@@@.++++%.",
".........##+##+.",
"      .++++++++.",
"      .+##+###+.",
"      .++++++++.",
"      .........."};
