/* XPM */
static const char * filesave_xpm[] = {
"22 22 150 2",
"  	c None",
". 	c #747474",
"+ 	c #212121",
"@ 	c #191926",
"# 	c #04043E",
"$ 	c #050540",
"% 	c #05053F",
"& 	c #04043D",
"* 	c #03033C",
"= 	c #03033B",
"- 	c #02023A",
"; 	c #020239",
"> 	c #010138",
", 	c #010137",
"' 	c #000036",
") 	c #000035",
"! 	c #0D0D1A",
"~ 	c #121212",
"{ 	c #232323",
"] 	c #707070",
"^ 	c #6207C0",
"/ 	c #7111D4",
"( 	c #6E0ED1",
"_ 	c #6C0ECD",
": 	c #690CC9",
"< 	c #670BC6",
"[ 	c #6509C4",
"} 	c #6006BD",
"| 	c #5D04B9",
"1 	c #5B03B6",
"2 	c #5901B4",
"3 	c #5600B0",
"4 	c #393939",
"5 	c #3B3B3B",
"6 	c #FFFFFF",
"7 	c #FDFDFD",
"8 	c #FCFCFC",
"9 	c #F8F8F8",
"0 	c #242424",
"a 	c #000000",
"b 	c #C58DFE",
"c 	c #CD9DFE",
"d 	c #CFA1FE",
"e 	c #B471F8",
"f 	c #5D00BE",
"g 	c #3C3C3C",
"h 	c #727272",
"i 	c #FEFEFE",
"j 	c #FBFBFB",
"k 	c #F9F9F9",
"l 	c #222222",
"m 	c #9937FE",
"n 	c #B873FE",
"o 	c #C389FE",
"p 	c #A34BFE",
"q 	c #8525E8",
"r 	c #6C0DCE",
"s 	c #6B6B6B",
"t 	c #FAFAFA",
"u 	c #F6F6F6",
"v 	c #3A3A3A",
"w 	c #111111",
"x 	c #202020",
"y 	c #686868",
"z 	c #383838",
"A 	c #1F1F1F",
"B 	c #636363",
"C 	c #F7F7F7",
"D 	c #F5F5F5",
"E 	c #F4F4F4",
"F 	c #F3F3F3",
"G 	c #373737",
"H 	c #101010",
"I 	c #1D1D1D",
"J 	c #5F5F5F",
"K 	c #BEBEBE",
"L 	c #B4B4B4",
"M 	c #353535",
"N 	c #1C1C1C",
"O 	c #5B5B5B",
"P 	c #585858",
"Q 	c #575757",
"R 	c #565656",
"S 	c #545454",
"T 	c #535353",
"U 	c #505050",
"V 	c #4E4E4E",
"W 	c #4B4B4B",
"X 	c #474747",
"Y 	c #444444",
"Z 	c #414141",
"` 	c #3D3D3D",
" .	c #333333",
"..	c #1B1B1B",
"+.	c #363636",
"@.	c #313131",
"#.	c #0F0F0F",
"$.	c #191919",
"%.	c #515151",
"&.	c #3F3F3F",
"*.	c #3E3E3E",
"=.	c #323232",
"-.	c #303030",
";.	c #2D2D2D",
">.	c #2F2F2F",
",.	c #181818",
"'.	c #4F4F4F",
").	c #DBDBDB",
"!.	c #EBEBEB",
"~.	c #ECECEC",
"{.	c #E9E9E9",
"].	c #E4E4E4",
"^.	c #DDDDDD",
"/.	c #D6D6D6",
"(.	c #D3D3D3",
"_.	c #AAAAAA",
":.	c #4C4C4C",
"<.	c #252525",
"[.	c #4A4A4A",
"}.	c #424242",
"|.	c #D2D2D2",
"1.	c #C9C9C9",
"2.	c #B9B9B9",
"3.	c #9E9E9E",
"4.	c #454545",
"5.	c #262626",
"6.	c #464646",
"7.	c #E3E3E3",
"8.	c #606060",
"9.	c #D1D1D1",
"0.	c #DEDEDE",
"a.	c #CDCDCD",
"b.	c #C5C5C5",
"c.	c #BBBBBB",
"d.	c #B6B6B6",
"e.	c #9D9D9D",
"f.	c #484848",
"g.	c #D8D8D8",
"h.	c #404040",
"i.	c #434343",
"j.	c #C6C6C6",
"k.	c #C0C0C0",
"l.	c #B7B7B7",
"m.	c #B2B2B2",
"n.	c #9B9B9B",
"o.	c #B1B1B1",
"p.	c #AFAFAF",
"q.	c #9A9A9A",
"r.	c #1E1E1E",
"s.	c #0E0E0E",
"                                            ",
"  . + @ # $ % # & * = - ; > , ' ) ) ! ~ .   ",
"  { ] ] ^ / ( _ : < [ ^ } | 1 2 3 3 4 5 ~   ",
"  { . . 6 6 6 6 6 6 6 6 6 6 6 7 8 9 4 4 ~   ",
"  0 . a 6 6 6 6 6 6 6 6 6 6 6 7 8 9 a 4 ~   ",
"  { . . 6 b c d b e f f f f f f f 9 4 g ~   ",
"  { h h 6 6 6 6 6 6 6 6 6 i 8 j k 9 4 5 ~   ",
"  l ] ] 6 m n o n p q r f f f f f 9 4 5 ~   ",
"  + s s 6 6 6 6 6 6 6 6 7 j t 9 u 9 4 v w   ",
"  x y y 6 f f f f f f f f f f f f 9 4 z w   ",
"  A B B 6 6 i 7 8 t k 9 C C D E F 9 4 G H   ",
"  I J J K i 7 8 j t k 9 C u D E F L 4 M H   ",
"  N O O P P P Q R S T U V W X Y Z ` 4  .H   ",
"  ..R P P P Q R S T U V W X Y Z ` 4 +.@.#.  ",
"  $.T S S %.Z &.*.` 5 4 G M =.-.;.@.@.>.#.  ",
"  ,.V '.'.Z ).!.~.{.].^./.(._.Y :.<.>.>.#.  ",
"  a [.[.W }.].X '.U |.1.K 2.3.4.:.5.>.>.#.  ",
"  a 4.6.6.&.7.Y 8.Q 9.1.K 2.3.Y W <.>.>.#.  ",
"  a Z Z }.` 0.}.P %.a.b.c.d.e.Z f.0 >.>.#.  ",
"  { v ` ` 5 g.h.6.i.j.k.l.m.n.g i.+ >.>.#.  ",
"    a G 4 +.g.K K K K 2.o.p.q.M g r.>.>.#.  ",
"      ..H a a a a a a a a a a a a a a s..   "};
