/* XPM */
static const char * midi_reset_instr_xpm[] = {
"16 16 36 1",
" 	c None",
".	c #800000",
"+	c #C00000",
"@	c #FFFFFF",
"#	c #D4D4D4",
"$	c #606060",
"%	c #000000",
"&	c #F8F8F8",
"*	c #DDDDDD",
"=	c #272727",
"-	c #E0E0E0",
";	c #757575",
">	c #E1E1E1",
",	c #AE0000",
"'	c #A3A3A3",
")	c #909090",
"!	c #474747",
"~	c #D1D1D1",
"{	c #E6E6E6",
"]	c #B3B3B3",
"^	c #B0B0B0",
"/	c #C0C0C0",
"(	c #CBCBCB",
"_	c #B5B5B5",
":	c #DCDCDC",
"<	c #DBDBDB",
"[	c #E4E4E4",
"}	c #2A2A2A",
"|	c #1E1E1E",
"1	c #C2C2C2",
"2	c #D3D3D3",
"3	c #4E4E4E",
"4	c #252525",
"5	c #EAEAEA",
"6	c #D7D7D7",
"7	c #CCCCCC",
"................",
".++++++++++++++.",
".+@@@@#$#@@@@@+.",
".+@@@#%%#@@@@@+.",
".+&@#%%%#####@+.",
".+&*%%%%%%=$#@+.",
".+&-%%%%%%%%;>,.",
".+@@#%%%');%!~,.",
".+@@{]%%']^%%]+.",
".+@@@@]$/(_=%/+.",
".+@@@:<]##;%=@+.",
".+@@[}|%%%%=!1+.",
".+@@234%%!$$]@+.",
".+@@@5677777@{+.",
".++++++++++++++.",
"................"};
