/* XPM */
static const char *miditransposeS_xpm[]={
"16 16 6 1",
"a c #303030",
". c #58a8ff",
"c c #800000",
"b c #ff0000",
"d c #ffc0c0",
"# c #ffffff",
"................",
"................",
"..###aaaaab###..",
"..##a#####bb##..",
"..#a###aa#bbb#..",
"..a####aa#bbbb..",
"..a#aabbbbccbbb.",
"..a#aabbbbccbbb.",
"..a###bb##bbbbd.",
"..a#aabb##ccbd..",
"..a#aabb##ccda..",
"..#a##bb##bda#..",
"..##a#bb##da##..",
"..###abbaaa###..",
"......bb........",
"................"};
