/* XPM */
static const char *pitch_xpm[]={
"22 22 3 1",
"a c #303030",
"# c #808080",
". c None",
"..............#..#....",
"...............#..#...",
"................#.#...",
".......a......a.#.#...",
".......a......a.#.#...",
".......a......a.#.#...",
".......a......a.#.#...",
".......a......a.#.#...",
".......a......a#..#...",
".......a......a..#....",
"........a....a..#.....",
".........aaaa.........",
"..........aa..........",
"..........aa..........",
"..........aa..........",
".........aaaa.........",
"........aaaaaa........",
"........aaaaaa........",
".........aaaa.........",
"..........aa..........",
"......................",
"......................"};
