/* XPM */
static const char * rec_echo_off_xpm[] = {
"10 10 2 1",
" 	c None",
".	c #FF0000",
"          ",
"          ",
"          ",
"          ",
"    ..    ",
"    ..    ",
"          ",
"          ",
"          ",
"          "};
