/* XPM */
static const char * redled_xpm[] = {
"10 10 5 1",
" 	c None",
".	c #A00000",
"+	c #FF0000",
"@	c #FF8687",
"#	c #C26667",
"          ",
"   ....   ",
"  .++++.  ",
" .++@+++. ",
" .+#++++. ",
" .++++++. ",
" .++++++. ",
"  .++++.  ",
"   ....   ",
"          "};
