/* XPM */
static const char *select_invert_selection[]={
"16 16 2 1",
". c #000000",
"# c #ffffff",
"................",
"...............#",
"..............##",
"......#####..###",
".....#######.###",
"....#######..###",
"...#######....##",
"...######.....##",
"...#####......##",
"...####.......##",
"...###........##",
"....#........###",
"............####",
"...###.....#####",
"..##############",
".###############"};
