/* XPM */
static const char * settings_follow_song_xpm[] = {
"16 16 11 1",
" 	c None",
".	c #545454",
"+	c #202020",
"@	c #696969",
"#	c #7C7C7C",
"$	c #000000",
"%	c #3C3C3C",
"&	c #C3C3C3",
"*	c #CBCBCB",
"=	c #8C8C8C",
"-	c #DCDCDC",
"                ",
"    .+@         ",
"   #$+%&        ",
"   .$$+&#%%     ",
"   .$$+&@$..    ",
"   .$$$&%$+@&   ",
"   +$$$&%$+%&   ",
"   $$$$&$$+%&   ",
"   $$$+&+$$$&   ",
"    $+@&++$$&   ",
"     **&+$$$&   ",
"    .$@&=.+&&   ",
"    +$$& &&&    ",
"     &&&.$@     ",
"   --   $++     ",
"     ---  --    "};
