/* XPM */
static const char * solobutton_off_xpm[] = {
"22 22 78 1",
" 	c None",
".	c #0B0B0B",
"+	c #454545",
"@	c #444444",
"#	c #464646",
"$	c #484848",
"%	c #494949",
"&	c #4A4A4A",
"*	c #4C4C4C",
"=	c #545454",
"-	c #5B5B5B",
";	c #575757",
">	c #505050",
",	c #4D4D4D",
"'	c #515151",
")	c #535353",
"!	c #555555",
"~	c #5D5D5D",
"{	c #656565",
"]	c #686868",
"^	c #626262",
"/	c #5A5A5A",
"(	c #5E5E5E",
"_	c #606060",
":	c #707070",
"<	c #797979",
"[	c #7C7C7C",
"}	c #777777",
"|	c #585858",
"1	c #636363",
"2	c #6B6B6B",
"3	c #6E6E6E",
"4	c #727272",
"5	c #7A7A7A",
"6	c #878787",
"7	c #919191",
"8	c #939393",
"9	c #4E4E4E",
"0	c #838383",
"a	c #858585",
"b	c #828282",
"c	c #898989",
"d	c #9C9C9C",
"e	c #A7A7A7",
"f	c #AAAAAA",
"g	c #989898",
"h	c #BDBDBD",
"i	c #B6B6B6",
"j	c #9F9F9F",
"k	c #B1B1B1",
"l	c #B2B2B2",
"m	c #B0B0B0",
"n	c #AEAEAE",
"o	c #ADADAD",
"p	c #C1C1C1",
"q	c #A5A5A5",
"r	c #8A8A8A",
"s	c #B5B5B5",
"t	c #B4B4B4",
"u	c #A2A2A2",
"v	c #BABABA",
"w	c #B8B8B8",
"x	c #666666",
"y	c #7E7E7E",
"z	c #A8A8A8",
"A	c #999999",
"B	c #949494",
"C	c #969696",
"D	c #ABABAB",
"E	c #8F8F8F",
"F	c #737373",
"G	c #9B9B9B",
"H	c #6D6D6D",
"I	c #8C8C8C",
"J	c #A1A1A1",
"K	c #8E8E8E",
"L	c #808080",
"M	c #696969",
"......................",
".+@@+#$$%&%$$*=--;>&%.",
".+@+%,>')''>>!~{]^/'*.",
".@#&>;/~(_-~({:<[}=().",
".+*'|123::3345678==:_.",
".%9|14[0ab00c8de===6:.",
".%'(:+++++++++&===fgb.",
".*;][++++++++%==>hijc.",
".,-4c++klmnom==)+piqr.",
".)(<8=,iistl===*+htuc.",
".=1[g&==vis====++wmja.",
".=xyg+===tt===i++tzAy.",
".!xyB++=======l++neC5.",
".;xyB++D=====nm++ou8}.",
".;xy8++Do====Do++zjEF.",
".|x[E++fon==fff++qGcH.",
".;{}I+++++,=+++++JBb].",
".'(3b++++++++++++Bc}^.",
".9!14aEBggC8EKI6aL<M/.",
".%,=_H}yLLL<FF43H]1-'.",
".@$&>|(^1{1_(/;;;=',$.",
"......................"};
