/* XPM */
static const char * solobutton_xpm[] = {
"22 22 14 1",
" 	c None",
".	c #000000",
"+	c #F10606",
"@	c #414141",
"#	c #852A2A",
"$	c #473E3E",
"%	c #723030",
"&	c #CB1212",
"*	c #4E3C3C",
"=	c #E20A0A",
"-	c #A51F1F",
";	c #9E2121",
">	c #832A2A",
",	c #9C2222",
"......................",
".                    .",
".                    .",
".                    .",
".                +   .",
".               ++   .",
".              +++   .",
".   @@@@@@@@@#+++    .",
".   $@@@@@@@%++&     .",
".   *$      ++=@     .",
".   +-     +++;@     .",
".   >++   ++++@@     .",
".   @+++  +++ @@     .",
".   @@+++++++ @@     .",
".   @@ +++++  @@     .",
".   @@  ++++  @@     .",
".   @@   ++   @@     .",
".   @@@@@,+@@@@@     .",
".   @@@@@@@@@@@@     .",
".                    .",
".                    .",
"......................"};
