/* XPM */
static const char * undo_xpm[] = {
"22 22 68 1",
" 	c None",
".	c #275F0B",
"+	c #9AC589",
"@	c #CDE2C1",
"#	c #E5EEDF",
"$	c #F5F9F4",
"%	c #C7E0BA",
"&	c #79BE53",
"*	c #91D56B",
"=	c #C8E1BE",
"-	c #87C86A",
";	c #4AA721",
">	c #3FA21C",
",	c #47AB29",
"'	c #000000",
")	c #8AC963",
"!	c #5BC930",
"~	c #6FD63D",
"{	c #53B529",
"]	c #D4E4CB",
"^	c #2B6A0E",
"/	c #35691B",
"(	c #FFFFFF",
"_	c #E4ECDF",
":	c #A7C49A",
"<	c #42A01E",
"[	c #102806",
"}	c #060D03",
"|	c #0E2005",
"1	c #41821F",
"2	c #79B658",
"3	c #1C4408",
"4	c #ECF3E8",
"5	c #7FCC67",
"6	c #72C24F",
"7	c #0B1B05",
"8	c #1C4508",
"9	c #3A8816",
"0	c #38AA18",
"a	c #34A814",
"b	c #51B929",
"c	c #469D24",
"d	c #122B06",
"e	c #275E0D",
"f	c #40A513",
"g	c #CCE5C2",
"h	c #48B227",
"i	c #4BB626",
"j	c #79D54B",
"k	c #081204",
"l	c #173807",
"m	c #88BE71",
"n	c #3F8222",
"o	c #478824",
"p	c #5B923C",
"q	c #3E8320",
"r	c #529033",
"s	c #071003",
"t	c #020202",
"u	c #15260E",
"v	c #0F1C09",
"w	c #070D04",
"x	c #12230A",
"y	c #102009",
"z	c #15270C",
"A	c #234413",
"B	c #13250A",
"C	c #13200C",
"                      ",
"                      ",
"           .....      ",
"         ..+@#@+..    ",
"       ..$%&&&&*#+.   ",
" .    .$=-;;>>>>,*#'  ",
" ..  .$);>!~~~~!{>*+' ",
" .]..$)>!~{''''^/{>(' ",
" .]_:)<~{'[    }|^12+3",
" .456<~{'        789(3",
" .40abc'          def3",
" .ghaij3          kl3 ",
" .mnopqr3         s3' ",
" .'''''''t        u3  ",
"                 v3w  ",
"                x3y   ",
"               zAB    ",
"              C3'     ",
"            '''       ",
"                      ",
"                      ",
"                      "};
