<?xml version="1.0" encoding="UTF-8"?>
<svg id="SVGRoot" width="64px" height="64px" shape-rendering="crispEdges" version="1.1" viewBox="0 0 64 64" xmlns="http://www.w3.org/2000/svg">
 <g transform="matrix(.95919 0 0 1.0384 2.2446 -1.6905)" stroke-width="1.002" aria-label="R">
  <g transform="matrix(1.0957 0 0 .99091 -2.9284 .53387)" fill="#729fcf" stroke="#000" stroke-width=".96162" aria-label="S">
   <path d="m52.869 43.186q0 7.5444-5.6128 11.554-5.5763 3.9727-16.401 3.9727-9.877 0-15.49-3.4989-5.6128-3.4989-7.2164-10.606l10.387-1.713q1.057 4.082 4.1185 5.9408 3.0615 1.8223 8.4921 1.8223 11.262 0 11.262-6.852 0-2.1868-1.3121-3.6082-1.2756-1.4214-3.6447-2.369-2.3326-0.94761-9.0023-2.2961-5.7586-1.3485-8.0182-2.1503-2.2597-0.83827-4.082-1.9317-1.8223-1.1298-3.098-2.697t-2.0046-3.6811q-0.69248-2.1139-0.69248-4.8474 0-6.9613 5.2119-10.642 5.2483-3.7176 15.235-3.7176 9.549 0 14.324 2.9886 4.8109 2.9886 6.1959 9.877l-10.424 1.4214q-0.80182-3.3166-3.2802-4.9932-2.4419-1.6765-7.0342-1.6765-9.7677 0-9.7677 6.123 0 2.0046 1.0205 3.2802 1.057 1.2756 3.098 2.1868 2.041 0.87472 8.2734 2.2232 7.3987 1.5672 10.57 2.9157 3.2073 1.3121 5.0661 3.098 1.8588 1.7494 2.8428 4.2278 0.98406 2.4419 0.98406 5.6492z" fill="#729fcf" stroke="#000" stroke-width=".96162" style="font-variant-caps:normal;font-variant-east-asian:normal;font-variant-ligatures:normal;font-variant-numeric:normal"/>
  </g>
 </g>
</svg>
