<?xml version="1.0" encoding="UTF-8"?>
<svg width="16mm" height="16mm" fill-rule="evenodd" stroke-linejoin="round" stroke-width="28.222" preserveAspectRatio="xMidYMid" version="1.2" viewBox="0 0 1600 1600" xml:space="preserve" xmlns="http://www.w3.org/2000/svg" xmlns:cc="http://creativecommons.org/ns#" xmlns:dc="http://purl.org/dc/elements/1.1/" xmlns:rdf="http://www.w3.org/1999/02/22-rdf-syntax-ns#"><metadata><rdf:RDF><cc:Work rdf:about=""><dc:format>image/svg+xml</dc:format><dc:type rdf:resource="http://purl.org/dc/dcmitype/StillImage"/><dc:title/></cc:Work></rdf:RDF></metadata>
 <defs class="ClipPathGroup">
  <clipPath id="presentation_clip_path">
   <rect width="1600" height="1600"/>
  </clipPath>
 </defs>
   <g class="Slide" clip-path="url(#presentation_clip_path)">
    <g class="Page">
     <g class="com.sun.star.drawing.ClosedBezierShape">
       <rect class="BoundingBox" x="22" y="237" width="1557" height="1127" fill="none"/>
       <g fill="#f60">
        <path d="m1110 255 47 3 46 8 43 13 42 18 39 22 37 27 35 31 32 35 28 38 26 42 22 45 19 47 14 51 11 53 7 55 2 57-2 57-7 55-11 53-14 51-19 47-22 45-26 42-28 38-32 35-35 31-37 27-39 22-42 18-43 13-46 8-47 3-23-1-22-1-44-8-21-5-21-7-40-16-19-10-19-11-18-12-18-13-34-28-31-32-31 32-34 28-18 13-18 12-19 11-19 10-40 16-21 7-21 5-44 8-22 1-23 1-47-3-46-8-43-13-42-18-39-22-37-27-35-31-32-35-28-38-26-42-22-45-19-47-14-51-11-53-7-55-2-57 2-57 7-55 11-53 14-51 19-47 22-45 26-42 28-38 32-35 35-31 37-27 39-22 42-18 43-13 46-8 47-3 23 1 22 1 44 8 21 5 21 7 40 16 19 10 19 11 18 12 18 13 34 28 31 32 31-32 34-28 18-13 18-12 19-11 19-10 40-16 21-7 21-5 44-8 22-1zm-1 338-17 1-16 3-16 4-15 6-14 8-13 9-13 10-12 12-11 13-9 14-9 16-7 16-7 17-5 19-3 18-2 20v39l2 20 4 19 5 18 6 17 7 16 9 16 10 14 11 13 11 12 13 10 13 9 15 8 15 6 15 4 16 3 17 1 18-1 17-3 16-5 16-7 15-8 14-11 13-11 12-13 11-15 10-16 8-17 7-18 6-19 4-20 2-21 1-21-1-21-2-21-4-20-6-19-7-18-8-17-10-16-11-14-12-13-13-12-14-10-15-8-16-7-16-5-17-3zm-620 0-18 1-17 3-16 5-16 7-15 8-14 10-13 12-12 13-11 14-10 16-8 17-7 18-6 19-4 20-2 21-1 21 1 21 2 21 4 20 6 19 7 18 8 17 10 16 11 15 12 13 13 11 14 11 15 8 16 7 16 5 17 3 18 1 18-1 17-3 16-5 16-7 15-8 14-11 13-11 12-13 11-15 10-16 8-17 7-18 6-19 4-20 2-21 1-21-1-21-2-21-4-20-6-19-7-18-8-17-10-16-11-14-12-13-13-12-14-10-15-8-16-7-16-5-17-3z" fill="#fa0"/>
       </g><g fill="none" stroke="#000" stroke-linejoin="round" stroke-width="35">
       <path d="m1110 255c255 0 450 236 450 545s-195 545-450 545c-122 0-230-54-310-144-80 90-188 144-310 144-255 0-450-236-450-545s195-545 450-545c122 0 230 54 310 144 80-90 188-144 310-144z"/>
       <path d="m1109 593c-91 0-162 79-169 186v39c8 106 79 186 169 186 96 0 170-90 170-206s-74-205-170-205z"/>
       <path d="m489 593c-96 0-170 89-170 205s74 206 170 206 170-90 170-206-74-205-170-205z"/>
      </g>
     </g>
    </g>
   </g>
</svg>
