/* XPM */
static const char * addtrack_auxsend_2_xpm[] = {
"16 16 43 1",
" 	c None",
".	c #000000",
"+	c #A1C400",
"@	c #94B400",
"#	c #98B800",
"$	c #8EAC00",
"%	c #809C00",
"&	c #6D8400",
"*	c #5C7000",
"=	c #687E00",
"-	c #829E00",
";	c #8FAE00",
">	c #9EC000",
",	c #99BA00",
"'	c #91B000",
")	c #738C00",
"!	c #637800",
"~	c #728A00",
"{	c #8CAA00",
"]	c #93B200",
"^	c #9BBC00",
"/	c #87A400",
"(	c #7A9400",
"_	c #5B6E00",
":	c #84A000",
"<	c #A3C600",
"[	c #85A200",
"}	c #7D9800",
"|	c #708800",
"1	c #698000",
"2	c #758E00",
"3	c #A0C200",
"4	c #7F9A00",
"5	c #96B600",
"6	c #5E7200",
"7	c #516200",
"8	c #8AA800",
"9	c #7C9600",
"0	c #4C5C00",
"a	c #789200",
"b	c #89A600",
"c	c #596C00",
"d	c #6E8600",
".........+@#$%&*",
"=-;$@.....>,'-)!",
"=~%{]>#....^]/(&",
"_):',@#'<...[[}|",
"!)%/;>@'',...$:}",
"12:/#]$.........",
"~}%{.$3+.......4",
"}:}...5#<.....;%",
"2}.....<,<...@[~",
"%.......<<+.^'}6",
".........,;@;-&7",
"%8{...,<<#3>@:|7",
"9[']...<<#3>@:&0",
"a}[b@....+3>$%&c",
"d:;#@+.....@,$}1",
"d:'#5+<........."};
