/* XPM */
static const char * addtrack_audiogroup_xpm[] = {
"16 16 223 2",
"  	c None",
". 	c #D1D128",
"+ 	c #D9D939",
"@ 	c #35350F",
"# 	c #E5E559",
"$ 	c #F6F681",
"% 	c #F9F9B1",
"& 	c #F0F087",
"* 	c #F3F37E",
"= 	c #F7F774",
"- 	c #FBFB6F",
"; 	c #FDFD6B",
"> 	c #F9F90D",
", 	c #F5F511",
"' 	c #EDED17",
") 	c #DEDE20",
"! 	c #EBEB1E",
"~ 	c #EFEF2B",
"{ 	c #44440B",
"] 	c #FAFA89",
"^ 	c #FCFC91",
"/ 	c #FEFEB3",
"( 	c #FDFDC1",
"_ 	c #FEFEAE",
": 	c #FDFDB7",
"< 	c #FDFDAB",
"[ 	c #FEFEA6",
"} 	c #FEFEA4",
"| 	c #FCFC6C",
"1 	c #F9F976",
"2 	c #EAEA2C",
"3 	c #DADA3A",
"4 	c #F4F417",
"5 	c #FBFB73",
"6 	c #505028",
"7 	c #FAFA95",
"8 	c #FEFEC9",
"9 	c #FFFFB4",
"0 	c #36361F",
"a 	c #3E3E1E",
"b 	c #616133",
"c 	c #75752D",
"d 	c #9C9C3F",
"e 	c #FEFEA3",
"f 	c #FCFC6D",
"g 	c #F6F679",
"h 	c #EFEF87",
"i 	c #EAEA92",
"j 	c #FDFD6E",
"k 	c #323200",
"l 	c #474702",
"m 	c #252501",
"n 	c #111100",
"o 	c #0A0A00",
"p 	c #0E0E00",
"q 	c #161600",
"r 	c #1F1F00",
"s 	c #2B2B01",
"t 	c #393901",
"u 	c #3C3C01",
"v 	c #3B3B01",
"w 	c #343400",
"x 	c #E3E393",
"y 	c #FEFE69",
"z 	c #535300",
"A 	c #FFFF13",
"B 	c #FFFF7A",
"C 	c #FFFFB7",
"D 	c #56564F",
"E 	c #40403D",
"F 	c #1C1C13",
"G 	c #47473B",
"H 	c #4A4A3A",
"I 	c #FBFBA8",
"J 	c #F0F070",
"K 	c #F2F26E",
"L 	c #EBEB73",
"M 	c #E4E495",
"N 	c #FEFE08",
"O 	c #3C3C00",
"P 	c #FFFF09",
"Q 	c #FFFF6F",
"R 	c #FFFFAD",
"S 	c #FFFFB5",
"T 	c #FFFFBC",
"U 	c #FFFFBA",
"V 	c #FFFFB2",
"W 	c #FCFCAA",
"X 	c #F9F9A6",
"Y 	c #EFEF08",
"Z 	c #E1E10A",
"` 	c #DEDE1E",
" .	c #DADA4D",
"..	c #FDFD08",
"+.	c #3E3E00",
"@.	c #DEDE5A",
"#.	c #FFFFA4",
"$.	c #FFFFA7",
"%.	c #41413D",
"&.	c #4D4D4D",
"*.	c #232323",
"=.	c #3E3E3E",
"-.	c #626262",
";.	c #F4F467",
">.	c #F8F8A3",
",.	c #F2F2A4",
"'.	c #F2F2AC",
").	c #EBEB90",
"!.	c #FBFB09",
"~.	c #FEFE6A",
"{.	c #494900",
"].	c #1E1E00",
"^.	c #464646",
"/.	c #000000",
"(.	c #EBEB8F",
"_.	c #F9F90C",
":.	c #FEFE6D",
"<.	c #575702",
"[.	c #FFFF06",
"}.	c #FFFF01",
"|.	c #FFFF67",
"1.	c #525252",
"2.	c #6B6B6B",
"3.	c #EFEF0A",
"4.	c #F2F2A2",
"5.	c #ECEC68",
"6.	c #EAEA76",
"7.	c #E9E991",
"8.	c #F7F710",
"9.	c #FEFE71",
"0.	c #4E4E01",
"a.	c #FFFF05",
"b.	c #FFFF7E",
"c.	c #FFFF8A",
"d.	c #FFFF89",
"e.	c #FDFDAF",
"f.	c #FAFAA7",
"g.	c #EFEF65",
"h.	c #F0F068",
"i.	c #EBEB72",
"j.	c #E4E491",
"k.	c #F3F317",
"l.	c #FDFD79",
"m.	c #414101",
"n.	c #FFFF0D",
"o.	c #FFFFA3",
"p.	c #4A4A4A",
"q.	c #F8F81F",
"r.	c #F8F8A6",
"s.	c #F3F3A6",
"t.	c #EFEF6E",
"u.	c #F0F07D",
"v.	c #EEEE23",
"w.	c #FCFC85",
"x.	c #303001",
"y.	c #181800",
"z.	c #0B0B00",
"A.	c #030300",
"B.	c #050500",
"C.	c #0D0D00",
"D.	c #0F0F00",
"E.	c #51514B",
"F.	c #F0F081",
"G.	c #E3E337",
"H.	c #F8F894",
"I.	c #222201",
"J.	c #FDFD32",
"K.	c #FCFC78",
"L.	c #FCFC79",
"M.	c #494949",
"N.	c #40403C",
"O.	c #2C2C21",
"P.	c #676760",
"Q.	c #FCFCA6",
"R.	c #FBFB81",
"S.	c #F8F880",
"T.	c #F5F583",
"U.	c #E9E939",
"V.	c #E9E92A",
"W.	c #F0F0AB",
"X.	c #151500",
"Y.	c #F6F65C",
"Z.	c #F9F97C",
"`.	c #F7F77C",
" +	c #EEEE9B",
".+	c #F8F888",
"++	c #F9F98F",
"@+	c #FDFD94",
"#+	c #FDFD91",
"$+	c #F6F685",
"%+	c #F7F73C",
"&+	c #F1F138",
"*+	c #EBEB38",
"=+	c #E5E53C",
"-+	c #D8D844",
";+	c #F3F392",
">+	c #E5E54E",
",+	c #F0F025",
"'+	c #E9E98B",
")+	c #ECEC87",
"!+	c #EEEE8B",
"~+	c #F0F08E",
"{+	c #F4F491",
"]+	c #F6F68F",
"^+	c #F4F440",
"/+	c #F2F237",
"(+	c #EDED30",
"_+	c #E7E72D",
":+	c #DFDF2D",
"<+	c #D5D53F",
"[+	c #EAEA93",
"}+	c #D7D73F",
"|+	c #D2D234",
"1+	c #F1F112",
"2+	c #CECE2A",
"3+	c #D1D12C",
"4+	c #D7D731",
"5+	c #DBDB33",
"6+	c #E3E333",
"7+	c #DBDB42",
"8+	c #EDED1D",
"9+	c #E7E71A",
"0+	c #B9B92D",
". + @ # $ % & * = - ; ; > , ' ) ",
"! ~ { ] ^ / ( _ : < [ } | 1 2 3 ",
"4 5 6 7 8 9 0 a b c d e f g h i ",
"; j k l m n o p q r s t u v w x ",
"y } z A B C D E F G H I J K L M ",
"N y O P Q R S T U V W X Y Z `  .",
"..y +.@.#.$.%.&.*.=.-.;.>.,.'.).",
"!.~.{.t ].o ^././././././././.(.",
"_.:.<.[.}.|.1.=.=.=.2.3.4.5.6.7.",
"8.9.0.P a.#.Q b.c.d.e.f.g.h.i.j.",
"k.l.m.n.|.o.=.*.=.=.p.q.r.s.t.u.",
"v.w.x.y.z.A./././.A.B.z.C.D.E.F.",
"G.H.I.J.K.L.M.^.N.O.P.Q.R.S.T.U.",
"V.W.X.Y.Z.`. +.+++@+#+$+%+&+*+=+",
"-+;+z.>+,+'+)+!+~+{+]+^+/+(+_+:+",
"<+[+A.}+|+1+2+3+4+5+6+2 7+8+9+0+"};
