/* XPM */
static const char * addtrack_old_drumtrack_xpm[] = {
"16 16 62 1",
" 	c None",
".	c #396398",
"+	c #3F6EA8",
"@	c #4E7FBD",
"#	c #6791C6",
"$	c #8CACD3",
"%	c #A9C1DE",
"&	c #C6D6E9",
"*	c #D1DEEE",
"=	c #D7E2F0",
"-	c #DAE4F1",
";	c #D6E1EF",
">	c #CAD9EB",
",	c #C0D1E7",
"'	c #ACC3DF",
")	c #000000",
"!	c #5E8BC3",
"~	c #648FC5",
"{	c #739ACA",
"]	c #90AFD5",
"^	c #A4BDDD",
"/	c #ADC4E0",
"(	c #81A4D0",
"_	c #A6BEDD",
":	c #B1C7E2",
"<	c #CDDBEC",
"[	c #6690C5",
"}	c #AAC2DF",
"|	c #B6CAE3",
"1	c #BACDE5",
"2	c #C7D7EA",
"3	c #D3DFEE",
"4	c #B7CBE4",
"5	c #DDE6F2",
"6	c #172940",
"7	c #8AAAD3",
"8	c #E0E8F3",
"9	c #4679B9",
"0	c #7A9FCD",
"a	c #94B2D7",
"b	c #97B4D8",
"c	c #99B5D8",
"d	c #96B3D7",
"e	c #92B0D6",
"f	c #91AFD5",
"g	c #7FA2CC",
"h	c #89A9D1",
"i	c #7EA0CB",
"j	c #386195",
"k	c #85A6CF",
"l	c #7D9FCB",
"m	c #8EADD3",
"n	c #87A7D0",
"o	c #4578B8",
"p	c #82A4CE",
"q	c #7FA1CD",
"r	c #8AAAD2",
"s	c #7EA0CC",
"t	c #86A7D1",
"u	c #9EB9DB",
"v	c #B3C8E2",
"w	c #B9CCE4",
"..+@#$%&*=-;;>,'",
"..+@#$%&*=-);>,'",
"!!~{]^,>*=))#*,/",
"((]_:,><<))[#>)}",
"||1&><>2))##>))#",
";;33*>&))[[4))##",
"55-66)))66^))##7",
"88)90))99)))[[ab",
"8690,,,0)))##cde",
"86690,09))6[cbfg",
"86.66666))6[bbhi",
"86.9,,09j6[bbekl",
"86.0,,,:.6[bbmnl",
"&&69,,0o66[bepql",
"'':666666:bbrsll",
"tt]u}vw14:bbrlll"};
