/* XPM */
static const char * addtrack_auxsend_xpm[] = {
"16 16 76 1",
" 	c None",
".	c #000000",
"+	c #00FDFD",
"@	c #00EBEB",
"#	c #00EFEF",
"$	c #00DFDF",
"%	c #00C9C9",
"&	c #00AEAE",
"*	c #009494",
"=	c #00A4A4",
"-	c #00CDCD",
";	c #00E1E1",
">	c #00E0E0",
",	c #00E9E9",
"'	c #00FAFA",
")	c #00F2F2",
"!	c #00E3E3",
"~	c #00CECE",
"{	c #00B5B5",
"]	c #009D9D",
"^	c #00B4B4",
"/	c #00CACA",
"(	c #00DCDC",
"_	c #00E5E5",
":	c #00F9F9",
"<	c #00F0F0",
"[	c #00F3F3",
"}	c #00E7E7",
"|	c #00D5D5",
"1	c #00C0C0",
"2	c #00ACAC",
"3	c #009292",
"4	c #00B8B8",
"5	c #00CFCF",
"6	c #00E4E4",
"7	c #00F1F1",
"8	c #00FFFF",
"9	c #00D3D3",
"0	c #00C3C3",
"a	c #00B2B2",
"b	c #00B6B6",
"c	c #00CCCC",
"d	c #00E2E2",
"e	c #00F7F7",
"f	c #00ECEC",
"g	c #00DEDE",
"h	c #00D1D1",
"i	c #00A6A6",
"j	c #00BABA",
"k	c #00E8E8",
"l	c #00DBDB",
"m	c #00DDDD",
"n	c #00FCFC",
"o	c #00FEFE",
"p	c #00C8C8",
"q	c #00D0D0",
"r	c #00C6C6",
"s	c #00EEEE",
"t	c #00CBCB",
"u	c #009696",
"v	c #00ADAD",
"w	c #007F7F",
"x	c #00DADA",
"y	c #00F8F8",
"z	c #00D2D2",
"A	c #00C2C2",
"B	c #00D4D4",
"C	c #00FBFB",
"D	c #00EAEA",
"E	c #007A7A",
"F	c #00BDBD",
"G	c #00D7D7",
"H	c #008B8B",
"I	c #00B0B0",
"J	c #00C5C5",
"K	c #00EDED",
".........+@#$%&*",
"=-;>,.....')!~{]",
"=^/(_:<....[}|12",
"34567@#!8...990a",
"]bc|def!67...gh0",
"ij5|#k>.........",
"^0cl.mno.......p",
"0qr...s#8.....;t",
"j0.....8)8...@9^",
"c.......88o.[6ru",
".........7dfd~vw",
"/x(...)88#nyfzaw",
"AB!_...88#CeDh&E",
"F0BGf....oCe$c&H",
"Ih;#@+.....@7>Ji",
"Iq!<Ko8........."};
