/* XPM */
static const char * audio_restartaudio_xpm[] = {
"16 16 50 1",
" 	c None",
".	c #F5A630",
"+	c #F8B657",
"@	c #A98F5C",
"#	c #F2B64F",
"$	c #BBBBBB",
"%	c #323232",
"&	c #0A0A0A",
"*	c #D2D2D2",
"=	c #292929",
"-	c #101010",
";	c #191916",
">	c #B6B1AF",
",	c #5C5C5C",
"'	c #1C1C1D",
")	c #C4C4C5",
"!	c #B0B0B0",
"~	c #DADADA",
"{	c #C9C9C9",
"]	c #808080",
"^	c #5A5A5A",
"/	c #3A3A3B",
"(	c #929292",
"_	c #A4A4A4",
":	c #949494",
"<	c #39393B",
"[	c #1F1E22",
"}	c #5A5A59",
"|	c #3E3E3D",
"1	c #353537",
"2	c #18171B",
"3	c #060606",
"4	c #363636",
"5	c #393939",
"6	c #272727",
"7	c #29292B",
"8	c #141417",
"9	c #0B0B0B",
"0	c #1C1C1C",
"a	c #252527",
"b	c #2E2D2F",
"c	c #262628",
"d	c #1D1D1E",
"e	c #19191B",
"f	c #0A0A0B",
"g	c #111114",
"h	c #0F0F13",
"i	c #0F0E11",
"j	c #0E0E10",
"k	c #0D0D0F",
"          .. +  ",
"      ++...+++  ",
"        ++.++   ",
"     ++++@+#++  ",
"      $%&&+  ++ ",
"   * = -;>++    ",
"  *  ,'' ) +    ",
" *  !  ''&!+    ",
"* ~ {]^/'&      ",
"  (_:  <[&&     ",
"=    }|123&     ",
"=45   6789(     ",
"!&0abcdef9!     ",
" !&ghijk&!      ",
"  !&&&&&!       ",
"   !&& !        "};
