/* XPM */
static const char * automation_clear_data_xpm[] = {
"16 16 3 1",
" 	c None",
".	c #FF0000",
"+	c #FFBEBE",
"                ",
"                ",
"                ",
"   ..+    +..   ",
"   ...+  +...   ",
"   +...++...+   ",
"    +......+    ",
"     +....+     ",
"     +....+     ",
"    +......+    ",
"   +...++...+   ",
"   ...+  +...   ",
"   ..+    +..   ",
"                ",
"                ",
"                "};
