/* XPM */
static const char * bold_xpm[] = {
"11 11 2 1",
" 	g None",
".	g #000000",
"           ",
" .......   ",
"  ..  ...  ",
"  ..   ..  ",
"  ..  ..   ",
"  .....    ",
"  ..  ...  ",
"  ..   ..  ",
"  ..  ...  ",
" .......   ",
"           "};
