/* XPM */
static const char * cpu_xpm[] = {
"22 22 122 2",
"  	c None",
". 	c #C6D7D2",
"+ 	c #C3D1CF",
"@ 	c #C5CCCE",
"# 	c #AEBEBA",
"$ 	c #A9D1BE",
"% 	c #DCE2E3",
"& 	c #D8DCDF",
"* 	c #CFD5D9",
"= 	c #C6CED2",
"- 	c #BEC6CB",
"; 	c #BAC3C6",
"> 	c #A1B4AF",
", 	c #B0CAC1",
"' 	c #D2D7DA",
") 	c #DFE3E4",
"! 	c #D7DCDF",
"~ 	c #C7CED2",
"{ 	c #B7BEC4",
"] 	c #B0B8BF",
"^ 	c #A8B4B8",
"/ 	c #9CABAB",
"( 	c #96A7A5",
"_ 	c #AFC1BF",
": 	c #BDC4C9",
"< 	c #CED4D8",
"[ 	c #AEB7BD",
"} 	c #A7B0B7",
"| 	c #9FA9B0",
"1 	c #96A1A9",
"2 	c #95A1A7",
"3 	c #7D9991",
"4 	c #A9B8B9",
"5 	c #AFB7BD",
"6 	c #BCC3C8",
"7 	c #9EA9B0",
"8 	c #97A2A9",
"9 	c #8F9AA3",
"0 	c #969CA8",
"a 	c #2A734E",
"b 	c #327D54",
"c 	c #89ABA0",
"d 	c #A5B3B5",
"e 	c #A9B2B8",
"f 	c #AFB8BD",
"g 	c #98A3AA",
"h 	c #8B949B",
"i 	c #838C92",
"j 	c #216C43",
"k 	c #488F68",
"l 	c #A3AEB3",
"m 	c #A9B1B6",
"n 	c #A8B2B7",
"o 	c #AEB7BC",
"p 	c #91999F",
"q 	c #899399",
"r 	c #3D7558",
"s 	c #47945D",
"t 	c #508D59",
"u 	c #99AAAA",
"v 	c #ACB2B9",
"w 	c #ADB4B9",
"x 	c #B4BCC0",
"y 	c #BFC6CB",
"z 	c #9AA2A8",
"A 	c #979CA4",
"B 	c #4F7E68",
"C 	c #34704B",
"D 	c #4A9A70",
"E 	c #7BA492",
"F 	c #B2B5BB",
"G 	c #A2A8AB",
"H 	c #A1A7A8",
"I 	c #D3D7DB",
"J 	c #E0E4E6",
"K 	c #A4ADB3",
"L 	c #9A9EA5",
"M 	c #4E7F68",
"N 	c #3C7652",
"O 	c #49A474",
"P 	c #419568",
"Q 	c #409869",
"R 	c #4B9F72",
"S 	c #6F9884",
"T 	c #B7C0BF",
"U 	c #D5D9DC",
"V 	c #CFD5D8",
"W 	c #ACB5B9",
"X 	c #9B9FA5",
"Y 	c #729287",
"Z 	c #397751",
"` 	c #50A779",
" .	c #55AF7F",
"..	c #61BA8A",
"+.	c #77B495",
"@.	c #D5D6DB",
"#.	c #C9CED1",
"$.	c #C7CDD0",
"%.	c #C1C8CD",
"&.	c #B9BFC3",
"*.	c #B0B3B9",
"=.	c #7E978F",
"-.	c #347851",
";.	c #54AC7D",
">.	c #61B287",
",.	c #B5C4C0",
"'.	c #CED4D7",
").	c #C7CDD1",
"!.	c #C5CBCF",
"~.	c #BCC3C9",
"{.	c #8DA09C",
"].	c #2F7D51",
"^.	c #48A573",
"/.	c #79AF94",
"(.	c #9FBCB1",
"_.	c #A0B9B3",
":.	c #83A798",
"<.	c #3D835C",
"[.	c #3F9F6C",
"}.	c #4AA072",
"|.	c #419668",
"1.	c #488660",
"                                            ",
"                                            ",
"                                            ",
"                                            ",
"                  . + @ #                   ",
"              $ % & * = - ; >               ",
"            , ' ) ! * ~ - { ] ^ / (         ",
"          _ : < ) ! * = - { [ } | 1 2 3     ",
"        4 5 6 < ) ! * = - { [ } 7 8 9 0 a b ",
"    c d e f 6 < ) ! * ~ - { [ } | g h i j   ",
"  k l m n f 6 < ) ! * = - { o } | p q r     ",
"s t u v w x y < ) ! * ~ - { [ } z A B C     ",
"    D E F G H I J ! * ~ - { 5 K L M N       ",
"      O P Q R S T U V = - { W X Y Z         ",
"          `  ...+.@.#.$.%.&.*.=.-.          ",
"              ;.>.,.'.).!.~.{.].            ",
"                  ^./.(._.:.<.              ",
"                      [.}.|.                ",
"                          1.                ",
"                                            ",
"                                            ",
"                                            "};
