/* XPM */
static const char * cursor_xpm[] = {
"18 18 4 1",
" 	c None",
".	c #BABABA",
"+	c #FFFFFF",
"@	c #000000",
"                  ",
" .++++      ++++. ",
" +....      ....@ ",
" +.@@@      @@+.@ ",
" +.@          +.@ ",
" +.@          +.@ ",
" +.@          +.@ ",
" +.@          +.@ ",
" +.@          +.@ ",
" +.@          +.@ ",
" +.@          +.@ ",
" +.@          +.@ ",
" +.@          +.@ ",
" +.@          +.@ ",
" +.@++      +++.@ ",
" +....      ....@ ",
" .@@@@      @@@@@ ",
"                  "};
