/* XPM */
static const char *edit_score_xpm[]={
"16 16 5 1",
"# c #000000",
". c #00c000",
"b c #00ff00",
"a c #dcdcdc",
"c c #ffffff",
"................",
".##############.",
"..aaaaaa#aaaaa..",
".bcccccc##ccccb.",
".##############.",
"..aaaaaa#a#aaa..",
".bcccccc#aaaccb.",
".##############.",
"..aaaaaa#aaaaa..",
".bccc####accccb.",
".##############.",
"..aaa###aaaaaa..",
".bccccaaacccccb.",
".##############.",
"................",
"................"};
