/* XPM */
static const char * edit_pianoroll_xpm[] = {
"16 16 9 1",
" 	c None",
".	c #13A913",
"+	c #0AD700",
"@	c #000100",
"#	c #F8FEFF",
"$	c #FDF7F6",
"%	c #FEFFFC",
"&	c #DBDDDA",
"*	c #006B00",
"................",
".++++++++++++++.",
".+@@@@@@@@@###+.",
".+@@@@@@@@@$$$+.",
".+%&&&&&&&&&%#+.",
".+@@@@@@@@@$%$+.",
".+@@@@@@@@@%%%+.",
".+%&&&&&&&&&#$+.",
".+@@@@@@@@@%##+.",
".+@@@@@@@@@%%$+.",
".+%&&&&&&&&&%%+.",
".+%$$$$$$$$$#$+.",
".+@@@@@@@@@%#%+.",
".+@@@@@@@@@%#$+.",
".++*********+++.",
"................"};
