/* XPM */
static const char * edit_midi_xpm[] = {
"16 16 7 1",
" 	c None",
".	c #57A8FE",
"+	c #A6DDFD",
"@	c #000100",
"#	c #FDF7F6",
"$	c #2F312E",
"%	c #FEFFFC",
"................",
".++++@@@@@@++++.",
".+##@$$$$$$@##+.",
".+%@$######$@#+.",
".+@$#%%$$%#%$@+.",
".@$#%%#$$%%%#$@.",
".@$%$$###%$$#$@.",
".@$#$$%%%#$$#$@.",
".@$###%%%####$@.",
".@$%$$%%%%$$#$@.",
".@$#$$#%%#$$#$@.",
".+@$##%%%###$@+.",
".+#@$%%%%%%$@#+.",
".+%%@$$$$$$@%#+.",
".++++@@@@@@++++.",
"................"};
