/* XPM */
static const char * eye_gray_xpm[] = {
"16 16 3 1",
" 	c None",
".	c #292929",
"+	c #535353",
"                ",
"                ",
"                ",
"      ....      ",
"    ........    ",
"  ...      ...  ",
" ...  ++++  ... ",
"...  ++++++  ...",
"..   ++++++   ..",
"...  ++++++  ...",
" ...  ++++  ... ",
"  ...      ...  ",
"    ........    ",
"      ....      ",
"                ",
"                "};
