/* XPM */
static const char * fforward_xpm[] = {
"22 22 130 2",
"  	c None",
". 	c #505A5A",
"+ 	c #545F5F",
"@ 	c #9CA4A4",
"# 	c #ACB3B3",
"$ 	c #737D7D",
"% 	c #ECEFEF",
"& 	c #F3F6F6",
"* 	c #B7BEBE",
"= 	c #E9EEEE",
"- 	c #E0E7E7",
"; 	c #DEE5E5",
"> 	c #C5CCCC",
", 	c #D1DBDB",
"' 	c #B6BFBF",
") 	c #CFD9D9",
"! 	c #848C8C",
"~ 	c #BCC4C4",
"{ 	c #A4ABAB",
"] 	c #A3AAAA",
"^ 	c #CED8D8",
"/ 	c #B1BBBB",
"( 	c #CCD6D6",
"_ 	c #606A6A",
": 	c #485252",
"< 	c #8E9595",
"[ 	c #C8D1D1",
"} 	c #98A0A0",
"| 	c #465050",
"1 	c #6B7474",
"2 	c #AFB8B8",
"3 	c #C9D3D3",
"4 	c #5C6565",
"5 	c #414B4B",
"6 	c #555E5E",
"7 	c #ABB2B2",
"8 	c #959D9D",
"9 	c #444E4E",
"0 	c #8F9696",
"a 	c #C6CFCF",
"b 	c #ADB7B7",
"c 	c #C7D1D1",
"d 	c #596161",
"e 	c #3D4747",
"f 	c #5C6464",
"g 	c #565E5E",
"h 	c #ADB5B5",
"i 	c #ABB5B5",
"j 	c #C4CECE",
"k 	c #545D5D",
"l 	c #384242",
"m 	c #788181",
"n 	c #C6CECE",
"o 	c #A8B2B2",
"p 	c #C1CBCB",
"q 	c #505959",
"r 	c #333D3D",
"s 	c #505858",
"t 	c #C5C8C8",
"u 	c #D4DBDB",
"v 	c #A6B0B0",
"w 	c #BEC8C8",
"x 	c #4D5555",
"y 	c #2F3939",
"z 	c #495252",
"A 	c #7A8282",
"B 	c #343E3E",
"C 	c #949999",
"D 	c #E0E3E3",
"E 	c #C2CBCB",
"F 	c #A4AEAE",
"G 	c #BCC6C6",
"H 	c #495151",
"I 	c #2A3434",
"J 	c #2D3737",
"K 	c #8C9191",
"L 	c #DDE2E2",
"M 	c #899090",
"N 	c #5D6565",
"O 	c #D2D5D5",
"P 	c #CBD3D3",
"Q 	c #A2ACAC",
"R 	c #B9C3C3",
"S 	c #444D4D",
"T 	c #555D5D",
"U 	c #CFD2D2",
"V 	c #CAD2D2",
"W 	c #343D3D",
"X 	c #A8ACAC",
"Y 	c #DADFDF",
"Z 	c #BAC4C4",
"` 	c #9FA9A9",
" .	c #B6C0C0",
"..	c #B1B6B6",
"+.	c #D8DDDD",
"@.	c #B8C1C1",
"#.	c #AFB6B6",
"$.	c #DADCDC",
"%.	c #C0C8C8",
"&.	c #515B5B",
"*.	c #9CA6A6",
"=.	c #B4BEBE",
"-.	c #BBC4C4",
";.	c #BAC3C3",
">.	c #636D6D",
",.	c #8F9999",
"'.	c #A3ADAD",
").	c #ACB6B6",
"!.	c #AEB8B8",
"~.	c #909A9A",
"{.	c #666F6F",
"].	c #8B9191",
"^.	c #7C8686",
"/.	c #8B9595",
"(.	c #7E8888",
"_.	c #8E9494",
":.	c #A8ADAD",
"<.	c #889090",
"[.	c #838D8D",
"}.	c #828B8B",
"|.	c #848D8D",
"1.	c #8A9393",
"2.	c #ACB1B1",
"3.	c #D4D6D6",
"4.	c #D0D2D2",
"5.	c #D0D3D3",
"6.	c #D1D3D3",
"7.	c #D1D4D4",
"8.	c #D2D4D4",
"9.	c #D6D8D8",
"                                            ",
"    . . . . . . . . . . . . . . . . . .     ",
"  . + @ # # # # # # # # # # # # # # @ + .   ",
". $ % & & & & & & & & & & & & & & & & % $ . ",
". * = - ; ; ; ; ; ; ; ; ; ; ; ; ; ; - = * . ",
". > , , , , , , , , , , , , , , , , , , > . ",
". ' ) ) ) ! ~ ) ) ) { ] ^ ) ) ) ) ) ) ) ' . ",
". / ( ( ( _ : < [ ( } | 1 ~ ( ( ( ( ( ( / . ",
". 2 3 3 3 4 5 5 6 7 8 5 5 9 0 a 3 3 3 3 2 . ",
". b c c c d e e e e f e e e e g h c c c b . ",
". i j j j k l l l l l l l l l l l m n j i . ",
". o p p p q r r r r r r r r r r s t u p o . ",
". v w w w x y y y z A y y y B C D E w w v . ",
". F G G G H I J K L M I I N O P G G G G F . ",
". Q R R R S T U V R ! W X Y Z R R R R R Q . ",
". `  . . ...+.@. . .#.$.%. . . . . . . .` . ",
"&.*.=.=.=.-.=.=.=.=.;.=.=.=.=.=.=.=.=.=.*.&.",
">.,.'.).!.!.!.!.!.!.!.!.!.!.!.!.!.!.).'.~.{.",
"].^././././././././././././././././././.(._.",
"  :.<.[.}.}.}.}.}.}.}.}.}.}.}.}.}.}.|.1.2.  ",
"    3.U 4.4.4.4.5.6.6.6.6.6.6.7.7.7.8.9.    ",
"                                            "};
