/* XPM */
static const char * filesaveas_xpm[] = {
"22 22 65 1",
" 	c None",
".	c #000000",
"+	c #0A0A0A",
"@	c #090C09",
"#	c #010001",
"$	c #800080",
"%	c #0000C0",
"&	c #000002",
"*	c #303030",
"=	c #020001",
"-	c #000105",
";	c #010101",
">	c #FFFFFF",
",	c #060606",
"'	c #040404",
")	c #050505",
"!	c #171717",
"~	c #131313",
"{	c #FEFDFE",
"]	c #FDFDFE",
"^	c #FEFDFF",
"/	c #FFFDFF",
"(	c #FDFDFF",
"_	c #020202",
":	c #030303",
"<	c #50504D",
"[	c #5C5C5C",
"}	c #646464",
"|	c #191919",
"1	c #090909",
"2	c #EEF4ED",
"3	c #F3F3E9",
"4	c #EEF3EC",
"5	c #EFF3EC",
"6	c #F5F5EB",
"7	c #F8FFF8",
"8	c #585858",
"9	c #757575",
"0	c #4A4A4A",
"a	c #141514",
"b	c #161716",
"c	c #171715",
"d	c #151514",
"e	c #0D0E0D",
"f	c #9D9D9C",
"g	c #6F6F6F",
"h	c #474747",
"i	c #333333",
"j	c #4D4D4D",
"k	c #707070",
"l	c #1E1E1E",
"m	c #9F9F9F",
"n	c #DCDCDC",
"o	c #979797",
"p	c #C3C3C3",
"q	c #9B9B9B",
"r	c #4B4B4B",
"s	c #727272",
"t	c #CDCDCD",
"u	c #CFCFCF",
"v	c #393939",
"w	c #313131",
"x	c #B8B8B8",
"y	c #0F0F0F",
"z	c #CECECE",
"......................",
".+@#$%%$%%$%%$%%$%&**.",
".**=$%%$%%$%%$%%$%-**.",
".**;>>>>>>>>>>>>>>,...",
".**'>>>>>>>>>>>>>>)**.",
".!~)>>$%$$%$$%$$>>)**.",
".**)>>$%$$%$$%$$>>)**.",
".**)>>{]{]]{]^/(>>)**.",
".**)>>$%$$%$$%$$>>._+.",
".**:>>$%$$%$$%<.![}|..",
".**1>>234567>8>89>>0..",
".***|abcbbdef>>8g>>h..",
".**********.i}j*k>>h..",
".**********.l888>>>h..",
".*****;.:);.m>>>>>>h..",
".***;>n>nnn;o>>>>>>h..",
".***.n**88p)q>>>>>>r..",
".***.>**88n)stttuttv..",
".***.n*w88xy.:__',)...",
"..**.>**88zpppppp.***.",
"**.*.npnpnppppppp.***.",
"**...................."};
