/* XPM */
static const char * fileclose_xpm[] = {
"22 22 194 2",
"  	c None",
". 	c #535353",
"+ 	c #4A4A4A",
"@ 	c #424242",
"# 	c #3A3A3A",
"$ 	c #313131",
"% 	c #292929",
"& 	c #212121",
"* 	c #181818",
"= 	c #101010",
"- 	c #080808",
"; 	c #000000",
"> 	c #4C4C4C",
", 	c #DEDEDE",
"' 	c #D6D6D6",
") 	c #C6C6C6",
"! 	c #B4B4B4",
"~ 	c #989898",
"{ 	c #464646",
"] 	c #FFFFFF",
"^ 	c #ECECEC",
"/ 	c #E1E1E1",
"( 	c #141414",
"_ 	c #C9C9C9",
": 	c #3F3F3F",
"< 	c #393939",
"[ 	c #3E3E3E",
"} 	c #E0E0E0",
"| 	c #333333",
"1 	c #2C2C2C",
"2 	c #FDFDFD",
"3 	c #F0EEEC",
"4 	c #CFCBC4",
"5 	c #B8B1A9",
"6 	c #857F7A",
"7 	c #262626",
"8 	c #B97E7E",
"9 	c #A63636",
"0 	c #C34444",
"a 	c #CD7E7E",
"b 	c #DBC1C0",
"c 	c #FDFAF7",
"d 	c #E4E0DB",
"e 	c #D0C8C1",
"f 	c #A09B97",
"g 	c #1F1F1F",
"h 	c #FAFAFA",
"i 	c #CDABAB",
"j 	c #A01212",
"k 	c #CF6262",
"l 	c #E19A9A",
"m 	c #E5A7A7",
"n 	c #E39999",
"o 	c #D06060",
"p 	c #B57876",
"q 	c #F9F0E8",
"r 	c #EADFD5",
"s 	c #BBB2AB",
"t 	c #191919",
"u 	c #E8D4D4",
"v 	c #950808",
"w 	c #C64A49",
"x 	c #E18F8E",
"y 	c #DA7977",
"z 	c #DB7C79",
"A 	c #D77575",
"B 	c #DF8D8D",
"C 	c #C34747",
"D 	c #B1736E",
"E 	c #F5E6D9",
"F 	c #C6B8AC",
"G 	c #131313",
"H 	c #F8F8F8",
"I 	c #B04949",
"J 	c #AD1310",
"K 	c #CA6F62",
"L 	c #FEFDFD",
"M 	c #DBA697",
"N 	c #CC6144",
"O 	c #DEA399",
"P 	c #C05A5A",
"Q 	c #AF0F0F",
"R 	c #CDAB9F",
"S 	c #D2C0B1",
"T 	c #0C0C0C",
"U 	c #F2F2F2",
"V 	c #9A0E0E",
"W 	c #B60C01",
"X 	c #C33B0D",
"Y 	c #CD9984",
"Z 	c #EDD1BE",
"` 	c #C78F80",
" .	c #B8230C",
"..	c #B30201",
"+.	c #AE6C63",
"@.	c #D0BCAB",
"#.	c #060606",
"$.	c #E2E3E3",
"%.	c #9C0808",
"&.	c #C01100",
"*.	c #CB4400",
"=.	c #B84E00",
"-.	c #E7CEB9",
";.	c #DFC7B8",
">.	c #B54A00",
",.	c #CD3F00",
"'.	c #BB1000",
").	c #9F2B26",
"!.	c #CFB8A5",
"~.	c #E3E4E4",
"{.	c #A50E0E",
"].	c #BC0D00",
"^.	c #BD3800",
"/.	c #D6A27C",
"(.	c #EAD5B9",
"_.	c #D9A978",
":.	c #CC5200",
"<.	c #C01A00",
"[.	c #A12B26",
"}.	c #F5F5F5",
"|.	c #A73434",
"1.	c #B10500",
"2.	c #BC4B30",
"3.	c #DEAE7C",
"4.	c #DD8B00",
"5.	c #EAC37C",
"6.	c #FEFEFD",
"7.	c #C66A2A",
"8.	c #B20B00",
"9.	c #AB675B",
"0.	c #CEB49F",
"a.	c #FCFBFB",
"b.	c #C3ACAC",
"c.	c #B40404",
"d.	c #AB0900",
"e.	c #C05430",
"f.	c #C55200",
"g.	c #D36B00",
"h.	c #D67400",
"i.	c #D67F2F",
"j.	c #B01400",
"k.	c #B00000",
"l.	c #ECCEB5",
"m.	c #CCB099",
"n.	c #020202",
"o.	c #EBEAE9",
"p.	c #AE7575",
"q.	c #BB0606",
"r.	c #B30400",
"s.	c #B01000",
"t.	c #B12300",
"u.	c #B42400",
"v.	c #B80F00",
"w.	c #BC0101",
"x.	c #916457",
"y.	c #EAC9AD",
"z.	c #CBAC93",
"A.	c #FBF5F0",
"B.	c #F9F1EB",
"C.	c #ECEAE8",
"D.	c #AE9494",
"E.	c #A82D2D",
"F.	c #B70A0A",
"G.	c #BC0707",
"H.	c #BC0D0D",
"I.	c #A92E2E",
"J.	c #886E62",
"K.	c #E9C5A6",
"L.	c #C9A88D",
"M.	c #F7EBE1",
"N.	c #F6E8DB",
"O.	c #F2E9E1",
"P.	c #E2DEDB",
"Q.	c #BFBEBD",
"R.	c #B9B8B7",
"S.	c #C9C2BD",
"T.	c #E6D5C8",
"U.	c #EAC9AC",
"V.	c #E8C5A6",
"W.	c #E7C2A2",
"X.	c #C8A487",
"Y.	c #D8D0CA",
"Z.	c #D7CCC4",
"`.	c #D6C8BE",
" +	c #D4C4B8",
".+	c #D2C0B2",
"++	c #D1BDAC",
"@+	c #CFB8A6",
"#+	c #CEB5A0",
"$+	c #CDB09A",
"%+	c #CBAD94",
"&+	c #C9A88E",
"*+	c #C8A488",
"=+	c #C7A081",
"                                            ",
"      . + @ # $ % & * = - ; ;               ",
"      > , , , , , , ' ) ! ; ~ ;             ",
"      { , ] ] ] ] ] ] ^ / ( _ ~ ;           ",
"      : , ] ] ] ] ] ] ] ^ % ] _ ~ ;         ",
"      < , ] ] ] ] ] ] ] ] [ } ] _ ~ ;       ",
"      | , ] ] ] ] ] ] ] ] . [ % ( ; ;       ",
"      1 , ] ] ] ] ] ] ] ] 2 3 4 5 6 ;       ",
"      7 , ] ] ] ] 8 9 0 a b c d e f ;       ",
"      g , ] h i j k l m n o p q r s ;       ",
"      t , ] u v w x y z A B C D E F ;       ",
"      G , H I J K L M N O L P Q R S ;       ",
"      T , U V W X Y ] Z ] `  ...+.@.;       ",
"      #., $.%.&.*.=.-.] ;.>.,.'.).!.;       ",
"      #., ~.{.].^./.] (.] _.:.<.[.!.;       ",
"      ; , }.|.1.2.L 3.4.5.6.7.8.9.0.;       ",
"      ; , a.b.c.d.e.f.g.h.i.j.k.l.m.;       ",
"      n., c o.p.q.r.s.t.u.v.w.x.y.z.;       ",
"      ; , A.B.C.D.E.F.G.H.I.J.y.K.L.;       ",
"      ; , q M.N.O.P.Q.R.S.T.U.V.W.X.;       ",
"      ; Y.Y.Z.`. +.+++@+#+$+%+&+*+=+;       ",
"      ; ; ; ; ; ; ; ; ; ; ; ; ; ; ; ;       "};
