/* XPM */
static const char * fileprintS_xpm[] = {
"16 16 7 1",
" 	c None",
".	c #000000",
"+	c #FFFFFF",
"@	c #808080",
"#	c #FFFFC0",
"$	c #FF0000",
"%	c #C0C0C0",
"   ..........   ",
"   .++++++++.   ",
"   .+.@.+.@#.   ",
"   .++++++++.   ",
"   .+.@.+#+#.   ",
"   .++++++#+.   ",
"   .+.@.@.@#.   ",
"   .++#+#+##.   ",
" .............. ",
".++++++++++++++.",
".+$$%%%%%%%%%%%.",
".+%%%%%%%%%%%%%.",
".+%%%%%%%%%%%%%.",
"................",
" .@@@@@@@@@@@@. ",
" .............. "};
