/* XPM */
static const char *filesaveasS_xpm[]={
"16 16 8 1",
"d c None",
". c #000000",
"b c #0000c0",
"# c #303030",
"e c #585858",
"a c #800080",
"f c #c3c3c3",
"c c #ffffff",
"................",
".#.ababababab.#.",
".c.cccccccccc...",
".#.cccccccccc.#.",
".#.cababababc.#.",
".#.cccccccccc.#.",
".#.cababab......",
".#.cccccc.c.cc..",
".##......cc.cc..",
".#######....cc..",
".###.....ccccc..",
".##.cdcd.ccccc..",
".##.d#ef.ccccc..",
".##.c#ed........",
"..#.dfdfdfff.##.",
"d..............."};
