/* XPM */
static const char * fileprint_xpm[] = {
"22 22 77 1",
" 	c None",
".	c #000000",
"+	c #121212",
"@	c #FFFFFF",
"#	c #F8F4F1",
"$	c #5C5B5B",
"%	c #828282",
"&	c #C9C9C9",
"*	c #DEDEDE",
"=	c #DBD7D4",
"-	c #C6C6C6",
";	c #F5F0EC",
">	c #D3C3B4",
",	c #0C0C0A",
"'	c #060606",
")	c #A4A4A4",
"!	c #FDFBF9",
"~	c #FCF7F3",
"{	c #FAF4EE",
"]	c #F0EAE6",
"^	c #D5C7BC",
"/	c #5A5552",
"(	c #7E7873",
"_	c #9F958D",
":	c #7D746E",
"<	c #FEFCFB",
"[	c #FCF8F5",
"}	c #FBF5F0",
"|	c #F9F1EA",
"1	c #F8EEE5",
"2	c #F7EADF",
"3	c #F5E7DA",
"4	c #684242",
"5	c #400000",
"6	c #5B5959",
"7	c #C4C0BD",
"8	c #807C79",
"9	c #5A5653",
"0	c #C0B5AC",
"a	c #998778",
"b	c #7B6F65",
"c	c #7A6D62",
"d	c #936E6E",
"e	c #FBF6F2",
"f	c #FAF2EC",
"g	c #F9EFE7",
"h	c #F7EBE1",
"i	c #F6E8DC",
"j	c #F4E4D6",
"k	c #F3E0D0",
"l	c #F2DDCB",
"m	c #D1BCAA",
"n	c #0B0B0B",
"o	c #353535",
"p	c #404040",
"q	c #EAEAEA",
"r	c #E3E3E3",
"s	c #C00000",
"t	c #FF0000",
"u	c #BABABA",
"v	c #D4D4D4",
"w	c #AAAAAA",
"x	c #BDBDBD",
"y	c #B2B2B2",
"z	c #979797",
"A	c #929292",
"B	c #8B8B8B",
"C	c #898989",
"D	c #888888",
"E	c #878787",
"F	c #868686",
"G	c #7D7D7D",
"H	c #313131",
"I	c #484848",
"J	c #424242",
"K	c #676767",
"L	c #949494",
"                      ",
"     ............     ",
"     +@@@@@@@@##.     ",
"     +@$@%&@&%#*.     ",
"     +@@@@@@@@#=.     ",
"     +@%&%-@%&;>,     ",
"     +@@@@@@@#;>'     ",
"     +@%$&%&#$)>.     ",
"     +@@@@@!~{]^.     ",
"     +@$%-%/(_:>.     ",
"   ..+@@<[}|123>...   ",
"   .45@67890abc>54.   ",
"  .4d5@efghijklm555.  ",
"n.ooooppppppppppoooo..",
".@@@@@@@@@@@@@@@@@@@q.",
".rst****************u.",
".v&&&&&&&&&&&&&&&&&&w.",
".xyyyyyyyyyyyyyyyyyyz.",
".ABBCCDDDDDDEEEEEEEFG.",
".HHIIH..........HIIHH.",
" .JKKKLLLLLLLLLLKKKJ. ",
"  ..................  "};
