/* XPM */
static const char * frewind_xpm[] = {
"22 22 129 2",
"  	c None",
". 	c #505A5A",
"+ 	c #545F5F",
"@ 	c #9CA4A4",
"# 	c #ACB3B3",
"$ 	c #737D7D",
"% 	c #ECEFEF",
"& 	c #F3F6F6",
"* 	c #B7BEBE",
"= 	c #E9EEEE",
"- 	c #E0E7E7",
"; 	c #DEE5E5",
"> 	c #C5CCCC",
", 	c #D1DBDB",
"' 	c #B6BFBF",
") 	c #CFD9D9",
"! 	c #CED8D8",
"~ 	c #A3AAAA",
"{ 	c #A4ABAB",
"] 	c #BCC4C4",
"^ 	c #848C8C",
"/ 	c #B1BBBB",
"( 	c #CCD6D6",
"_ 	c #6B7474",
": 	c #465050",
"< 	c #98A0A0",
"[ 	c #C8D1D1",
"} 	c #8E9595",
"| 	c #485252",
"1 	c #606A6A",
"2 	c #AFB8B8",
"3 	c #C9D3D3",
"4 	c #C6CFCF",
"5 	c #8F9696",
"6 	c #444E4E",
"7 	c #414B4B",
"8 	c #959D9D",
"9 	c #ABB2B2",
"0 	c #555E5E",
"a 	c #5C6565",
"b 	c #ADB7B7",
"c 	c #C7D1D1",
"d 	c #ADB5B5",
"e 	c #565E5E",
"f 	c #3D4747",
"g 	c #5C6464",
"h 	c #596161",
"i 	c #ABB5B5",
"j 	c #C4CECE",
"k 	c #C6CECE",
"l 	c #788181",
"m 	c #384242",
"n 	c #A8B2B2",
"o 	c #C1CBCB",
"p 	c #D4DBDB",
"q 	c #C5C8C8",
"r 	c #505858",
"s 	c #333D3D",
"t 	c #505959",
"u 	c #A6B0B0",
"v 	c #BEC8C8",
"w 	c #C2CBCB",
"x 	c #E0E3E3",
"y 	c #949999",
"z 	c #343E3E",
"A 	c #2F3939",
"B 	c #7A8282",
"C 	c #495252",
"D 	c #4D5555",
"E 	c #A4AEAE",
"F 	c #BCC6C6",
"G 	c #CBD3D3",
"H 	c #D2D5D5",
"I 	c #5D6565",
"J 	c #2A3434",
"K 	c #899090",
"L 	c #DDE2E2",
"M 	c #8C9191",
"N 	c #2D3737",
"O 	c #495151",
"P 	c #A2ACAC",
"Q 	c #B9C3C3",
"R 	c #BAC4C4",
"S 	c #DADFDF",
"T 	c #A8ACAC",
"U 	c #343D3D",
"V 	c #CAD2D2",
"W 	c #CFD2D2",
"X 	c #555D5D",
"Y 	c #444D4D",
"Z 	c #9FA9A9",
"` 	c #B6C0C0",
" .	c #C0C8C8",
"..	c #DADCDC",
"+.	c #AFB6B6",
"@.	c #B8C1C1",
"#.	c #D8DDDD",
"$.	c #B1B6B6",
"%.	c #515B5B",
"&.	c #9CA6A6",
"*.	c #B4BEBE",
"=.	c #BAC3C3",
"-.	c #BBC4C4",
";.	c #666F6F",
">.	c #909A9A",
",.	c #A3ADAD",
"'.	c #ACB6B6",
").	c #AEB8B8",
"!.	c #8F9999",
"~.	c #636D6D",
"{.	c #8E9494",
"].	c #7E8888",
"^.	c #8B9595",
"/.	c #7C8686",
"(.	c #8B9191",
"_.	c #ACB1B1",
":.	c #8A9393",
"<.	c #848D8D",
"[.	c #828B8B",
"}.	c #838D8D",
"|.	c #889090",
"1.	c #A8ADAD",
"2.	c #D6D8D8",
"3.	c #D2D4D4",
"4.	c #D1D4D4",
"5.	c #D1D3D3",
"6.	c #D0D3D3",
"7.	c #D0D2D2",
"8.	c #D4D6D6",
"                                            ",
"    . . . . . . . . . . . . . . . . . .     ",
"  . + @ # # # # # # # # # # # # # # @ + .   ",
". $ % & & & & & & & & & & & & & & & & % $ . ",
". * = - ; ; ; ; ; ; ; ; ; ; ; ; ; ; - = * . ",
". > , , , , , , , , , , , , , , , , , , > . ",
". ' ) ) ) ) ) ) ) ! ~ { ) ) ) ] ^ ) ) ) ' . ",
". / ( ( ( ( ( ( ] _ : < ( [ } | 1 ( ( ( / . ",
". 2 3 3 3 3 4 5 6 7 7 8 9 0 7 7 a 3 3 3 2 . ",
". b c c c d e f f f f g f f f f h c c c b . ",
". i j k l m m m m m m m m m m m 0 j j j i . ",
". n o p q r s s s s s s s s s s t o o o n . ",
". u v v w x y z A A A B C A A A D v v v u . ",
". E F F F F G H I J J K L M N J O F F F E . ",
". P Q Q Q Q Q R S T U ^ Q V W X Y Q Q Q P . ",
". Z ` ` ` ` ` ` `  ...+.` ` @.#.$.` ` ` Z . ",
"%.&.*.*.*.*.*.*.*.*.*.=.*.*.*.*.-.*.*.*.&.%.",
";.>.,.'.).).).).).).).).).).).).).).'.,.!.~.",
"{.].^.^.^.^.^.^.^.^.^.^.^.^.^.^.^.^.^.^./.(.",
"  _.:.<.[.[.[.[.[.[.[.[.[.[.[.[.[.[.}.|.1.  ",
"    2.3.4.4.4.5.5.5.5.5.5.6.7.7.7.7.W 8.    ",
"                                            "};
