/* XPM */
static const char* const global_xpm[] = { 
"34 34 176 2",
"Qt c None",
".# c #000000",
".f c #00406a",
"#w c #004473",
"#l c #005d8b",
"aE c #080c08",
"#h c #08406a",
"#U c #084c73",
"#6 c #08507b",
"aw c #08557b",
"#V c #0885c5",
"#n c #101010",
".W c #104c7b",
"ay c #105073",
"## c #10507b",
"#7 c #105583",
"ad c #105983",
".v c #1085ac",
".n c #1085b4",
"#z c #181c18",
".q c #18507b",
".k c #185583",
".g c #185983",
"ax c #18598b",
"#8 c #185d8b",
"#F c #1885b4",
"#q c #1889b4",
"#M c #1895d5",
"#K c #202020",
"ao c #205d7b",
"at c #205d83",
"ae c #205d8b",
"#9 c #20618b",
"af c #206194",
"#X c #206594",
"a# c #20719c",
"#W c #2085d5",
"#r c #2089b4",
"#L c #2091de",
"a. c #29699c",
"al c #296d8b",
"#Y c #296d9c",
"#Z c #29719c",
".6 c #29759c",
"#N c #2975a4",
"#k c #29799c",
"#O c #2979a4",
"#E c #2985ac",
"#c c #298dbd",
"#d c #2991b4",
"#A c #299dde",
"ai c #316d8b",
"ac c #317194",
"#0 c #3175a4",
"#g c #31799c",
"#x c #3179a4",
"an c #317da4",
"#P c #317dac",
"#C c #3181ac",
"#b c #3189b4",
"#1 c #318dbd",
"#2 c #3191bd",
".Z c #3195bd",
"#B c #31a5e6",
"#o c #31aede",
"aD c #397594",
"#D c #3989b4",
"#e c #3995c5",
"#p c #39aade",
"#3 c #414041",
"aj c #414441",
"ag c #41759c",
"aa c #417994",
"#Q c #4199bd",
".0 c #419dc5",
".Y c #41b2de",
".X c #41b2e6",
".a c #4a444a",
"aK c #4a484a",
"#R c #4aa1c5",
"#a c #4ab2e6",
".d c #525052",
"#T c #52819c",
"#5 c #5299bd",
"#i c #5a7d94",
"#I c #5a85a4",
".1 c #5aa5cd",
"#f c #5aaacd",
"aT c #626162",
".N c #62aecd",
".L c #62b6d5",
".7 c #6a89a4",
"#v c #73a1b4",
".2 c #73b6d5",
"aS c #7b797b",
".e c #7b8183",
"#s c #7bb6d5",
".O c #7bbad5",
".M c #7bbede",
"aN c #837d83",
"aP c #838183",
"aM c #838583",
".P c #83bed5",
"aR c #8b858b",
".h c #8b898b",
".o c #8b8d8b",
"#j c #948d94",
"aG c #949194",
"#G c #94c2de",
".G c #94c6de",
".E c #94cade",
"aO c #9c959c",
"aL c #9c999c",
"av c #9cb6c5",
".H c #9ccade",
".F c #9ccede",
"#J c #a4a1a4",
"#y c #a4a5a4",
"ah c #a4becd",
"#S c #a4cee6",
"#m c #aca5ac",
"aQ c #acaaac",
".8 c #acaeac",
"ab c #acbecd",
"ak c #acc2d5",
".I c #acd6e6",
"aH c #b4aeb4",
"aJ c #b4b2b4",
".i c #b4b6b4",
".S c #b4d2e6",
".Q c #b4d6ee",
".x c #b4dae6",
".4 c #bdb6bd",
".c c #bdbabd",
"aF c #bdbebd",
"#4 c #bdcad5",
"aC c #bdcede",
".z c #bddaee",
".y c #bddef6",
"aI c #c5bec5",
"aB c #c5c2c5",
".5 c #c5c6c5",
".3 c #c5deee",
".B c #c5e2ee",
"aA c #cdc6cd",
"au c #cdcacd",
".J c #cdcecd",
".t c #cde2ee",
".A c #cde2f6",
".s c #cde6f6",
"az c #d5ced5",
".9 c #d5d2d5",
"as c #d5d6d5",
"#t c #d5e6f6",
".r c #d5eaf6",
"ar c #ded6de",
".T c #dedade",
".U c #dedede",
"#u c #dee6ee",
"aq c #e6dee6",
"am c #e6e2e6",
"ap c #e6e6e6",
".V c #eee6ee",
"#. c #eeeaee",
".j c #eeeeee",
".R c #eeeef6",
".u c #eef2f6",
".C c #eef2ff",
"#H c #eef6ff",
".p c #f6eef6",
".K c #f6f2f6",
".w c #f6f6f6",
".l c #f6faff",
".D c #fff6ff",
".m c #fffaff",
".b c #ffffff",
"QtQtQtQtQtQtQtQtQtQtQtQtQtQtQtQtQtQtQtQtQtQtQtQtQtQtQtQtQtQtQtQtQtQt",
"QtQtQt.#.#.#.#.#QtQtQtQtQtQtQtQtQtQtQtQtQtQtQtQtQtQtQtQtQtQtQtQtQtQt",
"QtQt.a.b.b.c.d.#.#.#.#QtQtQtQtQtQtQtQtQtQtQtQtQtQtQtQtQtQtQtQtQtQtQt",
".e.f.g.h.i.j.b.b.i.d.#.#.#.#QtQtQtQtQtQtQtQtQtQtQtQtQtQtQtQtQtQtQtQt",
".k.l.m.n.f.g.o.i.p.b.b.c.d.#.#.#.#Qt.#.#.#.#.#QtQtQtQtQtQtQtQtQtQtQt",
".q.r.s.t.u.b.v.f.g.h.i.j.b.b.c.d.#.#.c.b.w.d.#.#.#.#QtQtQtQtQtQtQtQt",
".k.x.y.z.A.B.A.C.b.n.f.g.o.i.p.m.b.w.D.w.m.m.b.b.#.#QtQtQtQtQtQtQtQt",
".q.E.F.G.H.I.x.t.B.t.u.b.v.f.g.h.J.p.m.b.j.w.w.D.K.#Qt.#QtQtQtQtQtQt",
".q.L.M.N.O.P.G.F.Q.z.A.t.C.R.S.g.c.J.T.U.V.w.b.j.p.#.#QtQtQtQtQtQtQt",
".W.X.Y.Z.0.1.N.2.P.G.H.I.x.3.t.f.h.4.5.T.6.7.8.9.U#..#Qt.#QtQtQtQtQt",
"##.Y#a#b#c#d#e.0#f.N.O.P.G.F.t#g#h#i#j.4.f#k.f#l#m.T#nQtQtQtQtQtQtQt",
".W#o#p#q.v.n#r#c#d.Z.0.1.N#s.G#t#u#v#w#x.f.A.u.b.6#y#zQtQtQtQtQtQtQt",
".q#A#B#C#D#E#q#F#F#b#c#d#e.0.N.P#G.x#H.t#x.B#t.t#I#J#KQtQtQtQtQtQtQt",
".W#L#M#N#O#P#C#b#E#q.v.n#b#c#d#Q#R.N.O.H#S.H.H.I#T#y#zQtQtQtQtQtQtQt",
"#U#V#W#X#Y#Z#0#O#C#C#D#E#q#F#F#b#1#2#e.0#f.N.O.P#T#J#KQtQtQtQtQtQtQt",
"#3#4#5#6#7#8#9a.a##N#N#P#C#b#E#q.v.n#b#1#d.Z.0.1aa#y#zQtQtQtQtQtQtQt",
".a.b.b.babac#6adaeaf#Y#Z#0#O#C#C#D#E#q#F#F#r#c#dag#J#KQtQtQtQtQtQtQt",
"#3.b.m.D.K.D.wahac#6.g#8#9a.a##N#O#P#C#b#E#q.v.nai#y#zQtQtQtQtQtQtQt",
"aj.m.m.w.w.j.p#..K.Kakac#6.gaeaf#Y#Z#0#O#C#C#D#Eal#J#KQtQtQtQtQtQtQt",
"#3.m.K.K.j.p#.#.amam.U#.#.abac#6#7#8#9a.a##N#Oanao#y#zQtQtQtQtQtQtQt",
".a.K.K.j.p#.#.ap.Vaqaq.Taras.Tapabac#6.gaeaf#Y#Zat#J#K.#.#.#.#QtQtQt",
"#3.p#.#.#.#.amam.Uaq.T.T.9.9.Jauau.9.Uavacawadaxay#y#z.#.#.#.#.#.#.#",
"ajap.V.V#.amamaqaq.T.TasasazazauaAaBaBaBau.UaCaD.a#J#K.#.#.#.#.#.#.#",
"aE.haBar.Uaq.Uaq.Taras.9.JazauauaBaBaF.c.c.9aGaHaj#y#z.#.#.#.#.#.#.#",
".#.#.#.##Jauarasarasas.Jazauau.5aAaIaI.cam.haJ.JaK#J#K.#.#.#.#.#.#.#",
"QtQtQt.#.#.#.#aLaBazauauauauaBaBaFaIaF.VaMaJ.TaNaj#y#z.#.#.#.#.#.#.#",
"QtQtQtQtQtQt.#.#.#.#aO.caAaBaBaIaI.camaMaJaqaPaQaK#J#K.#.#.#.#.#.#.#",
"QtQtQtQt.#QtQtQtQt.#.#.#.##jaJaI.i.TaRaJ.TaPaQauaj#y#z.#.#.#.#.#.#Qt",
"QtQtQtQtQtQtQtQtQtQtQtQt.#.#.#.#auaP.i.JaNaQ.JaSaK#J#K.#.#.#.#.#QtQt",
"QtQtQtQtQtQtQtQtQtQt.#QtQtQtQt.#.#.#.#aT#J.JaS#yaj#y#z.#.#.#.#QtQtQt",
"QtQtQtQtQtQtQtQtQtQtQtQtQtQtQtQtQtQt.#.#.#.#aSaOaKaG#K.#.#.#QtQtQtQt",
"QtQtQtQtQtQtQtQtQtQtQtQtQtQtQtQt.#QtQtQtQt.#.#.#.##K.#.#.#QtQtQtQtQt",
"QtQtQtQtQtQtQtQtQtQtQtQtQtQtQtQtQtQtQt.#QtQtQtQtQtQtQtQtQtQtQtQtQtQt",
"QtQtQtQtQtQtQtQtQtQtQtQtQtQtQtQtQtQtQtQtQtQtQtQtQtQtQtQtQtQtQtQtQtQt"};
