/* XPM */
static const char *loop1_xpm[] = {
/* width height num_colors chars_per_pixel */
"    22    22        9            1",
/* colors */
". c #000000",
"# c #00007f",
"a c #0000ff",
"b c #505850",
"c c #7f7f7f",
"d c None",
"e c #dfdfdf",
"f c #ffff00",
"g c #ffffff",
/* pixels */
"dddddddddddddddddddddd",
"dddddddddddddddddddddd",
"dddddddggggggggddddddd",
"ddddddg........cdddddd",
"dddddg.cccccccc.cddddd",
"ddddg.cddddddddg.cdddd",
"ddddg.cddddddddg.cdddd",
"ddddg.cddddddddg.cdddd",
"ddddg.cdddddddg...dddd",
"ddddg.cdddddddg...cddd",
"ddddg.cddddddg.....ddd",
"ddddg.cddddddg.....ddd",
"ddddg.cddddddg.c.c.ddd",
"ddddg.cddddddddc.cdddd",
"ddddg.cddddddddg.cdddd",
"ddddg.cddddddddg.cdddd",
"ddddg.cddddddddg.cdddd",
"dddddc.ddddddgg.cddddd",
"ddddddc........cdddddd",
"ddddddddcccccccddddddd",
"dddddddddddddddddddddd",
"dddddddddddddddddddddd"
};

