/* XPM */
static const char * mastertrack_list_xpm[] = {
"16 16 8 1",
" 	c None",
".	c #13A913",
"+	c #0AD700",
"@	c #000100",
"#	c #FEFFFC",
"$	c #DBDDDA",
"%	c #078002",
"&	c #C2C4C0",
"................",
".+@@@@@@@@@@@@+.",
".+@#$$$####$$@%.",
".+@$@&@&@&@&#@%.",
".+@##@&@&@&@#@%.",
".+@#$##$#####@%.",
".+@$@@#@#@#@#@%.",
".+@$@@#$@#@##@%.",
".+@$$##$#####@%.",
".+@#@@#@$@#@#@%.",
".+@#@@##@$@##@%.",
".+@$#@@#@#@##@%.",
".+@#@##@@#@@#@%.",
".+@$#####$$#$@%.",
".+@@@@@@@@@@@@%.",
"...%%%%%%%%%%%%."};
