/* XPM */
static const char *mastertrackS_xpm[]={
"16 16 6 1",
"# c #000000",
". c #00ff00",
"c c #808080",
"d c #c3c3c3",
"b c #ffc0c0",
"a c #ffffff",
"................",
"................",
"..#aaaaaaaaaaa..",
"..##aaaaaaaaaa..",
"..a##abbaaaaaa..",
"..aa##abbaaaaa..",
"..aaa#cbbbb####.",
"..aaaabcbbb#c##.",
"..aaaaabbbb####.",
"..aaaaacbbb####.",
"..aaaaaaa#a####.",
"..aaaaaaaaadddd.",
"..aaaaaaaaaaaa..",
"..aaaaaaaaaaaa..",
"................",
"................"};
