/* XPM */
static const char * metronome_xpm[] = {
"18 18 9 1",
" 	c None",
".	c #000000",
"+	c #FFAE4C",
"@	c #D5961C",
"#	c #FFFFFF",
"$	c #FF9933",
"%	c #FFCC33",
"&	c #FFCC66",
"*	c #FFC054",
"                  ",
"                  ",
"      .....       ",
"      .+@@.  #.   ",
"     .@+@@$. #.   ",
"     .@+@@$.#.    ",
"     .@+@@$.#.    ",
"     .@+@@$#.     ",
"    .@@+@@$#.     ",
"    .@@+@@#..     ",
"    .@@+@@#..     ",
"   .%@@+@#.@@.    ",
"   .%@@+@#.@@.    ",
"   .%@@+#.$@@.    ",
"   .%@@+#.$@@.    ",
"  .&%@@+**$@@+.   ",
"  .............   ",
"                  "};
