/* XPM */
static const char * metronome_off_xpm[] = {
"18 18 4 1",
" 	c None",
".	c #000000",
"+	c #729FCF",
"@	c #FFFFFF",
"                  ",
"                  ",
"      .....       ",
"      .+++.  @.   ",
"     .+++++. @.   ",
"     .+++++.@.    ",
"     .+++++.@.    ",
"     .+++++@.     ",
"    .++++++@.     ",
"    .+++++@..     ",
"    .+++++@..     ",
"   .+++++@.++.    ",
"   .+++++@.++.    ",
"   .++++@.+++.    ",
"   .++++@.+++.    ",
"  .+++++++++++.   ",
"  .............   ",
"                  "};
