/* XPM */
static const char * midi_inputplugins_midi_input_filter_xpm[] = {
"16 16 79 1",
" 	c None",
".	c #58A8FF",
"+	c #A8DCFF",
"@	c #FFFFFF",
"#	c #FCFCFC",
"$	c #000000",
"%	c #030303",
"&	c #010101",
"*	c #FAFAFA",
"=	c #F1F1F1",
"-	c #F5F5F5",
";	c #060606",
">	c #A9A9A9",
",	c #989898",
"'	c #BCBCBC",
")	c #E3E3E3",
"!	c #0B0B0B",
"~	c #F7F7F7",
"{	c #040404",
"]	c #888888",
"^	c #A4A4A4",
"/	c #C5C5C5",
"(	c #CACACA",
"_	c #CBCBCB",
":	c #C1C1C1",
"<	c #E4E4E4",
"[	c #C6C6C6",
"}	c #0F0F0F",
"|	c #979797",
"1	c #828282",
"2	c #ACACAC",
"3	c #BFBFBF",
"4	c #C8C8C8",
"5	c #D9D9D9",
"6	c #E6E6E6",
"7	c #88B2CE",
"8	c #252525",
"9	c #878787",
"0	c #A7A7A7",
"a	c #C7C7C7",
"b	c #B1B1B1",
"c	c #C2C2C2",
"d	c #D8D8D8",
"e	c #020202",
"f	c #82ABC6",
"g	c #FDFDFD",
"h	c #0A0A0A",
"i	c #A8A8A8",
"j	c #CFCFCF",
"k	c #B6B6B6",
"l	c #090909",
"m	c #93B6CD",
"n	c #F8F8F8",
"o	c #A2A2A2",
"p	c #0D0D0D",
"q	c #CCCCCC",
"r	c #89B4D0",
"s	c #9F9F9F",
"t	c #9B9B9B",
"u	c #0E0E0E",
"v	c #A0A0A0",
"w	c #CDCDCD",
"x	c #F0F0F0",
"y	c #B0B0B0",
"z	c #ADADAD",
"A	c #F4F4F4",
"B	c #FBFBFB",
"C	c #050505",
"D	c #D0D0D0",
"E	c #999999",
"F	c #121212",
"G	c #F2F2F2",
"H	c #FEFEFE",
"I	c #B7B7B7",
"J	c #A1A1A1",
"K	c #F6F6F6",
"L	c #ECECEC",
"M	c #779CB5",
"N	c #3E77B5",
"................",
".++++++++++++++.",
".+@@#@$%&$@*@@+.",
".+=-;$>,')$!@~+.",
".+{&]^/(_:<[$}+.",
".+!|1234[/565{7.",
".+8$90ab'c_de$f.",
".+g$h$ibjk$$l$m.",
".+@n;o%$$p^$$qr.",
".+n@@$qstouvw4+.",
".+~@x@$3y$zvg@+.",
".+@ABnCDEFi@n@+.",
".+GH@@$IJ$i~@K+.",
".+@GH@;[y%i-L@+.",
".++++++;;MM++++.",
"........NN......"};
