/* XPM */
static const char * midi_ctrl_graph_merge_copy_xpm[] = {
"16 16 5 1",
" 	c None",
".	c #12DD0C",
"+	c #63FB5E",
"@	c #FF9200",
"#	c #729FCF",
"      ...       ",
"      .+.       ",
"    ...+...     ",
"@   .+++++.     ",
"@@  ...+...     ",
"@@ @  .+.       ",
"@@ @@ ... #     ",
"@@ @@@    #     ",
"@@ @@@    #     ",
"@@#@@@ @@ #     ",
"@@#@@@ @@@#     ",
"@@#@@@ @@@#     ",
"@@#@@@#@@@#@@   ",
"@@#@@@#@@@#@@@  ",
"@@#@@@#@@@#@@@@ ",
"@@#@@@#@@@#@@@@@"};
