/* XPM */
static const char *miditransformS_xpm[]={
"16 16 3 1",
"a c #303030",
". c #58a8ff",
"# c #ffffff",
"................",
"................",
"..###aaaaaa###..",
"..##a######a##..",
"..#a###aa###a#..",
"..a####aa####a..",
"..a#aa####aa#a..",
"..a#aa####aa#a..",
"..a##########a..",
"..a#aa####aa#a..",
"..a#aa####aa#a..",
"..#a########a#..",
"..##a######a##..",
"..###aaaaaa###..",
"................",
"................"};
