/* XPM */
static const char * midi_thru_on4_xpm[] = {
"13 13 4 1",
" 	c None",
".	c #000000",
"+	c #FF0C0B",
"@	c #F18888",
"             ",
"       .     ",
"       ..    ",
"       .+.   ",
"........++.  ",
".+++++++@++. ",
".@@@@@@@@@++.",
".@@@@@@@@@+. ",
"........@+.  ",
"       .+.   ",
"       ..    ",
"       .     ",
"             "};
