/* XPM */
static const char * midi_thru_on5_xpm[] = {
"9 11 4 1",
" 	c None",
".	c #000000",
"+	c #FF0C0B",
"@	c #F18888",
"   .     ",
"   ..    ",
"   .+.   ",
"....++.  ",
".+++@++. ",
".@@@@@++.",
".@@@@@+. ",
"....@+.  ",
"   .+.   ",
"   ..    ",
"   .     "};
