/* XPM */
static const  char * midi_edit_instrument_xpm[] = {
"16 16 8 1",
" 	c None",
".	c #000000",
"+	c #FFFFFF",
"@	c #FF0000",
"#	c #A0A0A0",
"$	c #808000",
"%	c #404000",
"&	c #585858",
"                ",
"  ...........   ",
"  .+++++++++. @@",
"  .+########.@@@",
"  .+++++++++$%@ ",
"  .+#######$%$  ",
"  .+++++++$%$   ",
"  .+####+$%$.   ",
"  .+++++$%$+.   ",
"  .+#++$%$++.   ",
"  .+++&$$+++.   ",
"  .+++&&++++.   ",
"  .+++++++++.   ",
"  .+#######+.   ",
"  .+++++++++.   ",
"  ...........   "};
