/* XPM */
static const char * mutebutton_off_xpm[] = {
"22 22 48 1",
" 	c None",
".	c #232323",
"+	c #525252",
"@	c #585858",
"#	c #5C5C5C",
"$	c #5E5E5E",
"%	c #626262",
"&	c #666666",
"*	c #6B6B6B",
"=	c #6D6D6D",
"-	c #686868",
";	c #646464",
">	c #5A5A5A",
",	c #545454",
"'	c #565656",
")	c #6F6F6F",
"!	c #767676",
"~	c #797979",
"{	c #7B7B7B",
"]	c #808080",
"^	c #7E7E7E",
"/	c #747474",
"(	c #606060",
"_	c #888888",
":	c #8A8A8A",
"<	c #8D8D8D",
"[	c #8F8F8F",
"}	c #838383",
"|	c #717171",
"1	c #929292",
"2	c #969696",
"3	c #989898",
"4	c #949494",
"5	c #858585",
"6	c #9D9D9D",
"7	c #9F9F9F",
"8	c #9A9A9A",
"9	c #A1A1A1",
"0	c #535353",
"a	c #484848",
"b	c #A3A3A3",
"c	c #383838",
"d	c #6A6A6A",
"e	c #313131",
"f	c #2E2E2E",
"g	c #2C2C2C",
"h	c #292929",
"i	c #272727",
"......................",
".+@#$$%&&*=*-;%$>@,++.",
".'$&*)!~{]^^~/=*;($>@.",
".@;)~]_::<[<_}{!|*-;$.",
".@&/}:1232324<_}^~|*;.",
".@-!5[236776821[_}{|-.",
".>*~_1286799@663[:]!-.",
".$*{_[436790a9764<}/&.",
".()]:14336@$.b962[}|%.",
".%|}<1233@@c.b972[])(.",
".;!}[43@;dce.bb73[^*#.",
".;!5[28@a.fg.9b73<{*>.",
".;/5128a..hi.6763<^-@.",
".;/5[28......8882<{-@.",
".%|}[4382....3882<{->.",
".()]<14244...8662<{->.",
".$*{_[[11[1..8682<{->.",
".>&!}__:<<<1.3831_~&@.",
".@;|{}}55_:<[441<}/;@.",
".@%=!~^^^]}5_<:_}{)$,.",
".>;*)/||/!!{^^^~/)&#,.",
"......................"};
