/* XPM */
static const char*pencil_xpm[]={
"18 18 5 1",
"# c #000000",
"c c #ffffff",
"b c #a0a0a4",
"a c #dcdcdc",
". c None",
"..................",
"........####......",
"........#aaa#.....",
".......#aaaa#b....",
".......##aa#bb....",
"......#cc###b.....",
"......#caa#bb.....",
".....#ccaa#b......",
".....#caa#bb......",
"....#ccaa#b.......",
"....#caa#bb.......",
"....##aa#b........",
"....####bb........",
"....###bb.........",
"....##bb..........",
"....#bb...........",
".....b............",
".................."};

