/* XPM */
static const char * play_xpm[] = {
"22 22 104 2",
"  	c None",
". 	c #505A5A",
"+ 	c #545F5F",
"@ 	c #9CA4A4",
"# 	c #ACB3B3",
"$ 	c #737D7D",
"% 	c #ECEFEF",
"& 	c #F3F6F6",
"* 	c #B7BEBE",
"= 	c #E9EEEE",
"- 	c #E0E7E7",
"; 	c #DEE5E5",
"> 	c #C5CCCC",
", 	c #D1DBDB",
"' 	c #B6BFBF",
") 	c #CFD9D9",
"! 	c #7F8787",
"~ 	c #BFC7C7",
"{ 	c #B1BBBB",
"] 	c #CCD6D6",
"^ 	c #565F5F",
"/ 	c #495252",
"( 	c #939A9A",
"_ 	c #C8D3D3",
": 	c #AFB8B8",
"< 	c #C9D3D3",
"[ 	c #515A5A",
"} 	c #414B4B",
"| 	c #596363",
"1 	c #AEB6B6",
"2 	c #ADB7B7",
"3 	c #C7D1D1",
"4 	c #4D5757",
"5 	c #3D4747",
"6 	c #7B8282",
"7 	c #BFC8C8",
"8 	c #ABB5B5",
"9 	c #C4CECE",
"0 	c #384242",
"a 	c #454E4E",
"b 	c #A4ACAC",
"c 	c #A8B2B2",
"d 	c #C1CBCB",
"e 	c #444D4D",
"f 	c #333D3D",
"g 	c #7E8585",
"h 	c #DDE1E1",
"i 	c #C6CFCF",
"j 	c #A6B0B0",
"k 	c #BEC8C8",
"l 	c #414A4A",
"m 	c #2F3939",
"n 	c #4E5757",
"o 	c #C4C8C8",
"p 	c #D3DADA",
"q 	c #A4AEAE",
"r 	c #BCC6C6",
"s 	c #3C4545",
"t 	c #2A3434",
"u 	c #303A3A",
"v 	c #939898",
"w 	c #BFC9C9",
"x 	c #A2ACAC",
"y 	c #B9C3C3",
"z 	c #384141",
"A 	c #5D6464",
"B 	c #D2D5D5",
"C 	c #C8CFCF",
"D 	c #9FA9A9",
"E 	c #B6C0C0",
"F 	c #B3B6B6",
"G 	c #D7DDDD",
"H 	c #B7C0C0",
"I 	c #515B5B",
"J 	c #9CA6A6",
"K 	c #B4BEBE",
"L 	c #BBC4C4",
"M 	c #636D6D",
"N 	c #8F9999",
"O 	c #A3ADAD",
"P 	c #ACB6B6",
"Q 	c #AEB8B8",
"R 	c #909A9A",
"S 	c #666F6F",
"T 	c #8B9191",
"U 	c #7C8686",
"V 	c #8B9595",
"W 	c #7E8888",
"X 	c #8E9494",
"Y 	c #A8ADAD",
"Z 	c #889090",
"` 	c #838D8D",
" .	c #828B8B",
"..	c #848D8D",
"+.	c #8A9393",
"@.	c #ACB1B1",
"#.	c #D4D6D6",
"$.	c #CFD2D2",
"%.	c #D0D2D2",
"&.	c #D0D3D3",
"*.	c #D1D3D3",
"=.	c #D1D4D4",
"-.	c #D2D4D4",
";.	c #D6D8D8",
"                                            ",
"    . . . . . . . . . . . . . . . . . .     ",
"  . + @ # # # # # # # # # # # # # # @ + .   ",
". $ % & & & & & & & & & & & & & & & & % $ . ",
". * = - ; ; ; ; ; ; ; ; ; ; ; ; ; ; - = * . ",
". > , , , , , , , , , , , , , , , , , , > . ",
". ' ) ) ) ) ) ) ! ~ ) ) ) ) ) ) ) ) ) ) ' . ",
". { ] ] ] ] ] ] ^ / ( _ ] ] ] ] ] ] ] ] { . ",
". : < < < < < < [ } } | 1 < < < < < < < : . ",
". 2 3 3 3 3 3 3 4 5 5 5 5 6 7 3 3 3 3 3 2 . ",
". 8 9 9 9 9 9 9 / 0 0 0 0 0 a b 9 9 9 9 8 . ",
". c d d d d d d e f f f f f g h i d d d c . ",
". j k k k k k k l m m m n o p k k k k k j . ",
". q r r r r r r s t u v h w r r r r r r q . ",
". x y y y y y y z A B C y y y y y y y y x . ",
". D E E E E E E F G H E E E E E E E E E D . ",
"I J K K K K K K L K K K K K K K K K K K J I ",
"M N O P Q Q Q Q Q Q Q Q Q Q Q Q Q Q P O R S ",
"T U V V V V V V V V V V V V V V V V V V W X ",
"  Y Z `  . . . . . . . . . . . . . ...+.@.  ",
"    #.$.%.%.%.%.&.*.*.*.*.*.*.=.=.=.-.;.    ",
"                                            "};
