/* XPM */
static const char *punchout_xpm[] = {
"22 16 3 1",
". c #000000",
"f c None",
"h c #ffffff",
"ffffffffffffffffffffff",
"ffffffffffffffffffffff",
"ffffffffffffffffffffff",
"ffffffffffffffffffffff",
"ffffffffffffffffffffff",
"fffffffffffff......fff",
"ffffffffffff.fffffffff",
"fffffffffff.ffffffffff",
"ffffffffff.fffffffffff",
"fff.......ffffffffffff",
"ffffffffffffffffffffff",
"ffffffffffffffffffffff",
"ffffffffffffffffffffff",
"ffffffffffffffffffffff",
"ffffffffffffffffffffff",
"ffffffffffffffffffffff",
};

