/* XPM */
static const char * punchout1_xpm[] = {
"22 22 116 2",
"  	c None",
". 	c #505A5A",
"+ 	c #545F5F",
"@ 	c #9CA4A4",
"# 	c #ACB3B3",
"$ 	c #737D7D",
"% 	c #ECEFEF",
"& 	c #F3F6F6",
"* 	c #B7BEBE",
"= 	c #E9EEEE",
"- 	c #E0E7E7",
"; 	c #DEE5E5",
"> 	c #DBE2E2",
", 	c #C5CCCC",
"' 	c #D1DBDB",
") 	c #899090",
"! 	c #C1CACA",
"~ 	c #B6BFBF",
"{ 	c #CFD9D9",
"] 	c #767E7E",
"^ 	c #535C5C",
"/ 	c #BAC4C4",
"( 	c #B1BBBB",
"_ 	c #CCD6D6",
": 	c #8C9494",
"< 	c #5E6767",
"[ 	c #4B5454",
"} 	c #434D4D",
"| 	c #4C5555",
"1 	c #B3BBBB",
"2 	c #AFB8B8",
"3 	c #C9D3D3",
"4 	c #7A8181",
"5 	c #3F4949",
"6 	c #454E4E",
"7 	c #ABB3B3",
"8 	c #ADB7B7",
"9 	c #C7D1D1",
"0 	c #777F7F",
"a 	c #3B4545",
"b 	c #3E4848",
"c 	c #A2A9A9",
"d 	c #ABB5B5",
"e 	c #C4CECE",
"f 	c #757D7D",
"g 	c #384242",
"h 	c #374141",
"i 	c #A0A7A7",
"j 	c #A8B2B2",
"k 	c #C1CBCB",
"l 	c #727979",
"m 	c #343E3E",
"n 	c #333D3D",
"o 	c #545C5C",
"p 	c #DADDDD",
"q 	c #C2CCCC",
"r 	c #A6B0B0",
"s 	c #BEC8C8",
"t 	c #6F7777",
"u 	c #303A3A",
"v 	c #5A6262",
"w 	c #DCE0E0",
"x 	c #BFC9C9",
"y 	c #A4AEAE",
"z 	c #BCC6C6",
"A 	c #6C7474",
"B 	c #2C3636",
"C 	c #616868",
"D 	c #A2ACAC",
"E 	c #B9C3C3",
"F 	c #9DA3A3",
"G 	c #7F8585",
"H 	c #404949",
"I 	c #283232",
"J 	c #697070",
"K 	c #DBDFDF",
"L 	c #9FA9A9",
"M 	c #B6C0C0",
"N 	c #BCC5C5",
"O 	c #BFC7C7",
"P 	c #5C6464",
"Q 	c #737979",
"R 	c #D7DCDC",
"S 	c #515B5B",
"T 	c #9CA6A6",
"U 	c #B4BEBE",
"V 	c #A9AEAE",
"W 	c #D3D9D9",
"X 	c #636D6D",
"Y 	c #8F9999",
"Z 	c #A3ADAD",
"` 	c #ACB6B6",
" .	c #AEB8B8",
"..	c #BBC3C3",
"+.	c #909A9A",
"@.	c #666F6F",
"#.	c #8B9191",
"$.	c #7C8686",
"%.	c #8B9595",
"&.	c #7E8888",
"*.	c #8E9494",
"=.	c #A8ADAD",
"-.	c #889090",
";.	c #838D8D",
">.	c #828B8B",
",.	c #848D8D",
"'.	c #8A9393",
").	c #ACB1B1",
"!.	c #D4D6D6",
"~.	c #CFD2D2",
"{.	c #D0D2D2",
"].	c #D0D3D3",
"^.	c #D1D3D3",
"/.	c #D1D4D4",
"(.	c #D2D4D4",
"_.	c #D6D8D8",
"                                            ",
"    . . . . . . . . . . . . . . . . . .     ",
"  . + @ # # # # # # # # # # # # # # @ + .   ",
". $ % & & & & & & & & & & & & & & & & % $ . ",
". * = - ; ; ; ; ; ; ; > ; ; ; ; ; ; - = * . ",
". , ' ' ' ' ' ' ' ' ' ) ! ' ' ' ' ' ' ' , . ",
". ~ { { { { { { { { { ] ^ / { { { { { { ~ . ",
". ( _ _ _ : < < < < < [ } | 1 _ _ _ _ _ ( . ",
". 2 3 3 3 4 5 5 5 5 5 5 5 5 6 7 3 3 3 3 2 . ",
". 8 9 9 9 0 a a a a a a a a a b c 9 9 9 8 . ",
". d e e e f g g g h h h h h h h g i e e d . ",
". j k k k l m m m m m m m n n n o p q k j . ",
". r s s s t u u u u u u u u u v w x s s r . ",
". y z z z A B B B B B B B B C w z z z z y . ",
". D E E E F G G G G G H I J K E E E E E D . ",
". L M M M N O O O O O P Q R M M M M M M L . ",
"S T U U U U U U U U U V W U U U U U U U T S ",
"X Y Z `  . . . . . . ... . . . . . .` Z +.@.",
"#.$.%.%.%.%.%.%.%.%.%.%.%.%.%.%.%.%.%.%.&.*.",
"  =.-.;.>.>.>.>.>.>.>.>.>.>.>.>.>.>.,.'.).  ",
"    !.~.{.{.{.{.].^.^.^.^.^.^./././.(._.    ",
"                                            "};
