/* XPM */
static const char * record1_xpm[] = {
"22 22 232 2",
"  	c None",
". 	c #444949",
"+ 	c #4E5353",
"@ 	c #4E5454",
"# 	c #697070",
"$ 	c #C3CCCC",
"% 	c #B4BEBE",
"& 	c #AAB5B5",
"* 	c #454A4A",
"= 	c #BEC6C6",
"- 	c #99A4A4",
"; 	c #97A1A1",
"> 	c #9DA7A7",
", 	c #ADB8B8",
"' 	c #BEC8C8",
") 	c #ADB7B7",
"! 	c #9CA6A6",
"~ 	c #96A0A0",
"{ 	c #98A3A3",
"] 	c #4A5050",
"^ 	c #B8C2C2",
"/ 	c #9AA4A4",
"( 	c #A5AEAE",
"_ 	c #CFDADA",
": 	c #DFEAEA",
"< 	c #4B5151",
"[ 	c #AEB8B8",
"} 	c #B7C2C2",
"| 	c #D6E1E1",
"1 	c #D7E1E0",
"2 	c #D6AA9E",
"3 	c #DF9E8F",
"4 	c #E7A290",
"5 	c #E8A290",
"6 	c #E0A090",
"7 	c #D8AC9F",
"8 	c #A1ABAB",
"9 	c #B6C0C1",
"0 	c #D1DCDD",
"a 	c #D0C1BE",
"b 	c #E08F7E",
"c 	c #F5CFC6",
"d 	c #F8D9D1",
"e 	c #F8DAD2",
"f 	c #F6D1C7",
"g 	c #E3937F",
"h 	c #D1C3BF",
"i 	c #A0AAAA",
"j 	c #AFB9B9",
"k 	c #A4AEAE",
"l 	c #A9B4B4",
"m 	c #C9D4D5",
"n 	c #CBBCB9",
"o 	c #E59686",
"p 	c #F3C6BB",
"q 	c #F5C8BD",
"r 	c #F6CBBE",
"s 	c #F7CCBE",
"t 	c #F8CDBF",
"u 	c #E99B89",
"v 	c #CCBDB9",
"w 	c #4A4F4F",
"x 	c #B0BABA",
"y 	c #A8B2B2",
"z 	c #BDC8C8",
"A 	c #C2CBCC",
"B 	c #D67A6B",
"C 	c #EDB1A5",
"D 	c #F1B6A7",
"E 	c #F3B9A9",
"F 	c #F6BDAA",
"G 	c #F8C0AC",
"H 	c #F9C1AC",
"I 	c #F1B5A7",
"J 	c #DA816E",
"K 	c #C2CCCC",
"L 	c #A7B1B1",
"M 	c #B0B9B9",
"N 	c #494F4F",
"O 	c #B1BBBB",
"P 	c #ABB6B6",
"Q 	c #BCC7C8",
"R 	c #C09089",
"S 	c #E59485",
"T 	c #EAA08F",
"U 	c #EEA592",
"V 	c #F2AB94",
"W 	c #F6B097",
"X 	c #F9B599",
"Y 	c #FBB79A",
"Z 	c #E99A88",
"` 	c #C3948B",
" .	c #ABB5B5",
"..	c #B1BABA",
"+.	c #484E4E",
"@.	c #AFBABB",
"#.	c #B6C1C3",
"$.	c #C5776C",
"%.	c #E28877",
"&.	c #E78F7A",
"*.	c #EC957D",
"=.	c #F09C81",
"-.	c #F5A384",
";.	c #FAA987",
">.	c #FEAF8A",
",.	c #C97D6E",
"'.	c #B3BDBD",
").	c #B0BABB",
"!.	c #AEBABC",
"~.	c #C96254",
"{.	c #DD7460",
"].	c #E27B65",
"^.	c #E88368",
"/.	c #ED8B6B",
"(.	c #F39270",
"_.	c #F79973",
":.	c #FA9D74",
"<.	c #CE6957",
"[.	c #B2BCBC",
"}.	c #474D4D",
"|.	c #AEB9BA",
"1.	c #A8B3B4",
"2.	c #C14E3F",
"3.	c #D1462D",
"4.	c #D95538",
"5.	c #E16444",
"6.	c #E8724F",
"7.	c #EE7E58",
"8.	c #F2845C",
"9.	c #F3875D",
"0.	c #F2855B",
"a.	c #ED7A52",
"b.	c #E76D48",
"c.	c #E05F3D",
"d.	c #D85032",
"e.	c #C65641",
"f.	c #AEB8B9",
"g.	c #B3BEBE",
"h.	c #B1BBBC",
"i.	c #A1ADAE",
"j.	c #B45E53",
"k.	c #CB3117",
"l.	c #D23B1C",
"m.	c #D94521",
"n.	c #DF4E26",
"o.	c #E5562A",
"p.	c #E95D2F",
"q.	c #EA6030",
"r.	c #E95C2C",
"s.	c #D23B1D",
"t.	c #B96457",
"u.	c #464C4C",
"v.	c #B5BFBF",
"w.	c #B9C4C4",
"x.	c #99A6A8",
"y.	c #A77672",
"z.	c #C82C15",
"A.	c #CE361A",
"B.	c #D53F1E",
"C.	c #DA4722",
"D.	c #DF4D26",
"E.	c #E25228",
"F.	c #E35429",
"G.	c #CF361A",
"H.	c #A97A73",
"I.	c #B8C3C3",
"J.	c #B4BFBF",
"K.	c #454B4B",
"L.	c #B6BFBF",
"M.	c #BFC9C9",
"N.	c #9CA8AA",
"O.	c #929D9F",
"P.	c #B94131",
"Q.	c #CA3017",
"R.	c #D0381B",
"S.	c #DB4823",
"T.	c #DC4A24",
"U.	c #BD4834",
"V.	c #B5BEBE",
"W.	c #B6C0C0",
"X.	c #8D9A9B",
"Y.	c #948684",
"Z.	c #C22D18",
"`.	c #D43E1E",
" +	c #D53F1F",
".+	c #CF371A",
"++	c #C8331B",
"@+	c #958784",
"#+	c #444A4A",
"$+	c #C6D0D0",
"%+	c #A8B4B4",
"&+	c #859193",
"*+	c #8E7F7E",
"=+	c #B73E2E",
"-+	c #C92D16",
";+	c #CC3218",
">+	c #CE3519",
",+	c #CE351A",
"'+	c #BA4330",
")+	c #8F807E",
"!+	c #C5CFCF",
"~+	c #B7C1C1",
"{+	c #C9D3D3",
"]+	c #C8D3D3",
"^+	c #A7B2B4",
"/+	c #808D8F",
"(+	c #7D888B",
"_+	c #956560",
":+	c #A65046",
"<+	c #B63F2F",
"[+	c #A75247",
"}+	c #966661",
"|+	c #424848",
"1+	c #CCD6D6",
"2+	c #BFC8C9",
"3+	c #8A9698",
"4+	c #778386",
"5+	c #3D4343",
"6+	c #909999",
"7+	c #CCD7D7",
"8+	c #D0DADA",
"9+	c #C8D2D2",
"0+	c #B4BFC0",
"a+	c #A0ACAD",
"b+	c #C7D1D1",
"c+	c #CFD9D9",
"d+	c #CBD6D6",
"e+	c #525959",
"f+	c #8E9999",
"g+	c #BAC5C5",
"h+	c #3C4141",
"i+	c #414747",
"    . + @ @ @ @ @ @ @ @ @ @ @ @ @ @ + .     ",
"  # $ % & & & & & & & & & & & & & & % $ #   ",
"* = - ; ; ; ; ; > , ' ' ) ! ~ ~ ~ ~ ~ { = * ",
"] ^ / / / / ( _ : : : : : : _ ( / / / / ^ ] ",
"< [ > > > } | 1 2 3 4 5 6 7 1 | } > > > ) < ",
"< [ 8 8 9 0 a b c d e e e f g h 0 9 i i , < ",
"] j k l m n o p q r s t s r q u v m l k j ] ",
"w x y z A B C D E F G H G F E I J K z L M w ",
"N O P Q R S T U V W X Y X W V U Z ` Q  ...N ",
"+.O @.#.$.%.&.*.=.-.;.>.;.-.=.*.&.,.#.@.O +.",
"+.'.).!.~.{.].^./.(._.:._.(./.^.].<.!.@.[.+.",
"}.'.|.1.2.3.4.5.6.7.8.9.0.a.b.c.d.e.1.f.[.}.",
"}.g.h.i.j.k.l.m.n.o.p.q.r.o.n.m.s.t.i.h.g.}.",
"u.v.w.x.y.z.A.B.C.D.E.F.E.n.C.B.G.H.x.I.J.u.",
"K.L.M.N.O.P.Q.R.B.m.S.T.S.m.B.R.U.O.N.' V.K.",
"K.W.K w.X.Y.Z.Q.G.s.`. +B.s..+++@+X.w.K W.K.",
"#+} $+$+%+&+*+=+-+;+>+,+>+;+'+)+&+%+!+!+~+#+",
". } {+{+]+^+/+(+_+:+<+<+[+}+(+/+^+]+{+{+} . ",
"|+[ 1+1+1+1+2+3+4+4+4+4+4+4+3+2+1+1+1+1+) |+",
"5+6+7+8+8+8+8+8+9+0+a+a+0+b+c+c+c+c+c+d+6+5+",
"  e+f+O g+g+g+g+g+g+g+g+g+g+g+g+g+g+O f+e+  ",
"    h+i+i+i+i+i+i+i+i+i+i+i+i+i+i+i+i+h+    "};
