/* XPM */
static const char * record_off_xpm[] = {
"13 13 54 1",
" 	c None",
".	c #790000",
"+	c #7A0000",
"@	c #780000",
"#	c #770000",
"$	c #740000",
"%	c #6B0000",
"&	c #730000",
"*	c #710000",
"=	c #640000",
"-	c #620000",
";	c #6D0000",
">	c #760000",
",	c #6A0000",
"'	c #5E0000",
")	c #5A0000",
"!	c #720000",
"~	c #610000",
"{	c #570000",
"]	c #530000",
"^	c #5B0000",
"/	c #6F0000",
"(	c #6E0000",
"_	c #680000",
":	c #600000",
"<	c #580000",
"[	c #4E0000",
"}	c #4A0000",
"|	c #510000",
"1	c #5C0000",
"2	c #560000",
"3	c #450000",
"4	c #460000",
"5	c #4C0000",
"6	c #520000",
"7	c #590000",
"8	c #550000",
"9	c #500000",
"0	c #4B0000",
"a	c #440000",
"b	c #3D0000",
"c	c #410000",
"d	c #490000",
"e	c #3F0000",
"f	c #380000",
"g	c #360000",
"h	c #3A0000",
"i	c #3E0000",
"j	c #3C0000",
"k	c #330000",
"l	c #2F0000",
"m	c #310000",
"n	c #300000",
"o	c #2E0000",
"    .....    ",
"  +.@@@@@@.  ",
" +.@.......# ",
" #........@$ ",
"%&.@.....@.*=",
"-;>.......$,'",
")=;$@...#!,~{",
"]^-,/!!*(_:<[",
"}|<'-===~12[3",
" 4562<7<890a ",
" bc3d}0}daef ",
"  ghbieijfk  ",
"    lmmno    "};
