/* XPM */
static const char * record_xpm[] = {
"15 15 4 1",
" 	c None",
".	c #9F4D4D",
"+	c #9D2424",
"@	c #9B0000",
"      .+.      ",
"    .@@@@@.    ",
"  .@@@@@@@@@.  ",
"  @@@@@@@@@@@  ",
" .@@@@@@@@@@@. ",
" @@@@@@@@@@@@@ ",
".@@@@@@@@@@@@@.",
"+@@@@@@@@@@@@@+",
".@@@@@@@@@@@@@.",
" @@@@@@@@@@@@@ ",
" .@@@@@@@@@@@. ",
"  @@@@@@@@@@@  ",
"  .@@@@@@@@@.  ",
"    .@@@@@.    ",
"      .+.      "};
