/* XPM */
static const char * routing_midi_input_button_slim_xpm[] = {
"16 11 44 1",
" 	c None",
".	c #1C1A16",
"+	c #39342D",
"@	c #211D18",
"#	c #2E2D2D",
"$	c #5D5C5B",
"%	c #343332",
"&	c #504A3E",
"*	c #151414",
"=	c #313131",
"-	c #646464",
";	c #434343",
">	c #7C786F",
",	c #575553",
"'	c #000000",
")	c #262624",
"!	c #4D4C49",
"~	c #343330",
"{	c #FFFFFF",
"]	c #5D5D5C",
"^	c #221F1A",
"/	c #151310",
"(	c #2B2721",
"_	c #16130F",
":	c #595041",
"<	c #28241D",
"[	c #14120E",
"}	c #14120D",
"|	c #9C9489",
"1	c #A0988D",
"2	c #100F0C",
"3	c #211E19",
"4	c #0F0E0B",
"5	c #565045",
"6	c #413F3D",
"7	c #0C0C0B",
"8	c #191816",
"9	c #171614",
"0	c #100F0E",
"a	c #B2ACA2",
"b	c #070707",
"c	c #0F0F0F",
"d	c #0D0D0D",
"e	c #050505",
"                ",
"   .+++++@      ",
"  #$$$$$%&&&&*  ",
" =-----;>>>>,'* ",
")!!!!!~{{{{]{'{^",
"/(((((_::::<'''<",
"[<<<<<}|111^{'{]",
" 23333345555*{6 ",
"  7888890aaaa^  ",
"   bccccde      ",
"                "};
