/* XPM */
static const char * router_filter_destination_routes_xpm[] = {
"16 16 5 1",
" 	c None",
".	c #000000",
"+	c #828282",
"@	c #FFFFFF",
"#	c #FFFF00",
"................",
".+++++++.@@@@@@.",
".###++++.@@@@@@.",
".+++#+++.@....@.",
".####+++.@@@@@@.",
".+++#+++.@@@@@@.",
".++++#++.@@@@@@.",
".#######.@....@.",
".++++#++.@@@@@@.",
".+++#+++.@@@@@@.",
".####+++.@@@@@@.",
".+++#+++.@...@@.",
".###++++.@@@@@@.",
".+++++++.@@@@@@.",
".+++++++.@@@@@@.",
"................"};
