/* XPM */
static const char * router_filter_source_routes_xpm[] = {
"16 16 5 1",
" 	c None",
".	c #000000",
"+	c #FFFFFF",
"@	c #828282",
"#	c #FFFF00",
"................",
".++++++.@@@@@@@.",
".++++++.@@@@###.",
".+....+.@@@#@@@.",
".++++++.@@@####.",
".++++++.@@@#@@@.",
".++++++.@@#@@@@.",
".+....+.#######.",
".++++++.@@#@@@@.",
".++++++.@@@#@@@.",
".++++++.@@@####.",
".+...++.@@@#@@@.",
".++++++.@@@@###.",
".++++++.@@@@@@@.",
".++++++.@@@@@@@.",
"................"};
