/* XPM */
static const char * router_filter_source_xpm[] = {
"16 16 5 1",
" 	c None",
".	c #000000",
"+	c #A0A0A4",
"@	c #DCDCDC",
"#	c #FFFFFF",
"   ....         ",
" +.@##@.+       ",
" .##++##.+      ",
".@#+####@.      ",
".########.      ",
".########.      ",
".@######@.      ",
"+.######.+      ",
" +.@##@...      ",
"  +....+...     ",
"   ++++++...    ",
"        ++...   ",
"         ++...  ",
"          ++... ",
"           ++.+ ",
"            ++  "};
