/* XPM */
static const char *select_outside_loop_xpm[]={
"16 16 2 1",
"# c #000000",
". c #ffffff",
"................",
"................",
"....########....",
"....#......#....",
"....#......#....",
".#######...#....",
"..#####....#....",
"...###.....#....",
"....#.....###...",
"....#....#####..",
"....#...#######.",
"....#......#....",
"....#......#....",
"....########....",
"................",
"................"};
