/* XPM */
static const char * solobutton_on_xpm[] = {
"22 22 275 2",
"  	c #000000",
". 	c #066714",
"+ 	c #056613",
"@ 	c #076915",
"# 	c #076A15",
"$ 	c #076A16",
"% 	c #086B17",
"& 	c #096C18",
"* 	c #066B15",
"= 	c #066B14",
"- 	c #076F17",
"; 	c #0C751C",
"> 	c #107B20",
", 	c #0F7C1F",
"' 	c #0D791D",
") 	c #097318",
"! 	c #066E15",
"~ 	c #066C14",
"{ 	c #066814",
"] 	c #086B16",
"^ 	c #0A6F19",
"/ 	c #0B711A",
"( 	c #0B721B",
"_ 	c #0C731C",
": 	c #0C731B",
"< 	c #0A731A",
"[ 	c #097219",
"} 	c #077318",
"| 	c #0A781B",
"1 	c #0E7E1F",
"2 	c #118522",
"3 	c #128722",
"4 	c #0F8321",
"5 	c #0B7D1B",
"6 	c #077517",
"7 	c #067016",
"8 	c #056713",
"9 	c #066914",
"0 	c #086D17",
"a 	c #0A721A",
"b 	c #0F771E",
"c 	c #107A20",
"d 	c #117D21",
"e 	c #127E21",
"f 	c #117F21",
"g 	c #0E7D1F",
"h 	c #0D801E",
"i 	c #0F8620",
"j 	c #128F25",
"k 	c #159627",
"l 	c #169828",
"m 	c #159427",
"n 	c #F10606",
"o 	c #0B821C",
"p 	c #087718",
"q 	c #086E17",
"r 	c #0B731A",
"s 	c #0F791F",
"t 	c #138223",
"u 	c #168727",
"v 	c #188A29",
"w 	c #178D28",
"x 	c #168D27",
"y 	c #158C26",
"z 	c #128D25",
"A 	c #129125",
"B 	c #149926",
"C 	c #17A22B",
"D 	c #19AA2D",
"E 	c #1AAC2E",
"F 	c #119122",
"G 	c #0C831D",
"H 	c #066D15",
"I 	c #0A7119",
"J 	c #0C7A1D",
"K 	c #118323",
"L 	c #178D29",
"M 	c #1B952E",
"N 	c #1B9C2E",
"O 	c #1A9E2E",
"P 	c #199C2B",
"Q 	c #189D2B",
"R 	c #189E2B",
"S 	c #17A32C",
"T 	c #18AC2E",
"U 	c #19B630",
"V 	c #1CC033",
"W 	c #16A22A",
"X 	c #129025",
"Y 	c #097519",
"Z 	c #0F801F",
"` 	c #158E27",
" .	c #414141",
"..	c #852A2A",
"+.	c #1CC335",
"@.	c #19B130",
"#.	c #179C2A",
"$.	c #067015",
"%.	c #097A1A",
"&.	c #108922",
"*.	c #17982A",
"=.	c #473E3E",
"-.	c #723030",
";.	c #CB1212",
">.	c #1CDA38",
",.	c #1DD038",
"'.	c #1BB832",
").	c #19A22D",
"!.	c #067215",
"~.	c #0A7F1B",
"{.	c #119124",
"].	c #18A22D",
"^.	c #4E3C3C",
"/.	c #1BCB35",
"(.	c #1ACD35",
"_.	c #19CB34",
":.	c #1AC932",
"<.	c #18C833",
"[.	c #18CC33",
"}.	c #E20A0A",
"|.	c #1BDF37",
"1.	c #1CD136",
"2.	c #1CBD35",
"3.	c #19A42E",
"4.	c #087618",
"5.	c #0B821D",
"6.	c #129725",
"7.	c #A51F1F",
"8.	c #18D435",
"9.	c #18D433",
"0.	c #18D333",
"a.	c #18D033",
"b.	c #19CE33",
"c.	c #9E2121",
"d.	c #19DB36",
"e.	c #1ACF36",
"f.	c #1BBB33",
"g.	c #1AA22E",
"h.	c #087818",
"i.	c #0C861E",
"j.	c #129B26",
"k.	c #18B12F",
"l.	c #832A2A",
"m.	c #19D833",
"n.	c #17D433",
"o.	c #19D534",
"p.	c #1ACB34",
"q.	c #1AB832",
"r.	c #199F2D",
"s.	c #087918",
"t.	c #0D891F",
"u.	c #129C26",
"v.	c #17B22F",
"w.	c #17D232",
"x.	c #16D531",
"y.	c #19D034",
"z.	c #18C432",
"A.	c #19B230",
"B.	c #169A2A",
"C.	c #087A19",
"D.	c #0D881F",
"E.	c #139C27",
"F.	c #17AF2D",
"G.	c #14D130",
"H.	c #16CC31",
"I.	c #18C132",
"J.	c #18B02E",
"K.	c #159828",
"L.	c #0A7A1A",
"M.	c #149C27",
"N.	c #17AE2D",
"O.	c #16C830",
"P.	c #14CD2E",
"Q.	c #14CE30",
"R.	c #17CA31",
"S.	c #15BF2F",
"T.	c #15AE2B",
"U.	c #129624",
"V.	c #0E8821",
"W.	c #17AD2E",
"X.	c #17C730",
"Y.	c #16CA31",
"Z.	c #15C92E",
"`.	c #14CB2E",
" +	c #14C72E",
".+	c #14BD2C",
"++	c #11AD29",
"@+	c #0F9423",
"#+	c #0B7B1A",
"$+	c #0F8720",
"%+	c #139B26",
"&+	c #16AA2B",
"*+	c #17C72F",
"=+	c #15CB30",
"-+	c #15CC31",
";+	c #15C82F",
">+	c #16C730",
",+	c #11C52C",
"'+	c #10BA29",
")+	c #0FA825",
"!+	c #0C9020",
"~+	c #0B791C",
"{+	c #0D871F",
"]+	c #119625",
"^+	c #15A82A",
"/+	c #9C2222",
"(+	c #10C02A",
"_+	c #0EB526",
":+	c #0DA322",
"<+	c #0A8D1D",
"[+	c #097419",
"}+	c #0E9121",
"|+	c #11A126",
"1+	c #0EB426",
"2+	c #0DAA23",
"3+	c #0B9A20",
"4+	c #08871B",
"5+	c #077217",
"6+	c #0A871D",
"7+	c #0D9521",
"8+	c #10A425",
"9+	c #11AE27",
"0+	c #11B228",
"a+	c #12B529",
"b+	c #11B628",
"c+	c #10B429",
"d+	c #10B227",
"e+	c #10AF27",
"f+	c #10AC27",
"g+	c #0FAB26",
"h+	c #0EA824",
"i+	c #0DA624",
"j+	c #0CA221",
"k+	c #0B9C20",
"l+	c #088F1C",
"m+	c #068018",
"n+	c #056D13",
"o+	c #057214",
"p+	c #067A17",
"q+	c #09841B",
"r+	c #0C911E",
"s+	c #0D9921",
"t+	c #0E9F22",
"u+	c #0EA123",
"v+	c #0DA222",
"w+	c #0DA123",
"x+	c #0C9C21",
"y+	c #0B981F",
"z+	c #0C971F",
"A+	c #0C951F",
"B+	c #0B931F",
"C+	c #0A911E",
"D+	c #088E1C",
"E+	c #07891A",
"F+	c #058218",
"G+	c #047715",
"H+	c #036812",
"I+	c #046C12",
"J+	c #047014",
"K+	c #057615",
"L+	c #077D19",
"M+	c #09831B",
"N+	c #09871C",
"O+	c #08891C",
"P+	c #088A1B",
"Q+	c #078619",
"R+	c #078419",
"S+	c #078018",
"T+	c #067D18",
"U+	c #067C18",
"V+	c #067D17",
"W+	c #057B16",
"X+	c #047815",
"Y+	c #037313",
"Z+	c #036D12",
"                                            ",
"  . + + . @ # $ % & % * = - ; > , ' ) ! ~   ",
"  . + { ] ^ / ( _ : < [ } | 1 2 3 4 5 6 7   ",
"  8 9 0 a b c d e f g 1 h i j k l m n o p   ",
"  { q r s t u v w x y z A B C D E n n F G   ",
"  H I J K L M N O P Q R S T U V n n n W X   ",
"  H Y Z `  . . . . . . . . ...n n n +.@.#.  ",
"  $.%.&.*.=. . . . . . . .-.n n ;.>.,.'.).  ",
"  !.~.{.].^.=./.(._.:.<.[.n n }. .|.1.2.3.  ",
"  4.5.6.T n 7.8.9.0.a.b.n n n c. .d.e.f.g.  ",
"  h.i.j.k.l.n n m.n.0.n n n n  . .o.p.q.r.  ",
"  s.t.u.v. .n n n w.w.n n n x. . .y.z.A.B.  ",
"  C.D.E.F. . .n n n n n n n G. . .H.I.J.K.  ",
"  L.t.M.N. . .O.n n n n n P.Q. . .R.S.T.U.  ",
"  L.V.M.W. . .X.Y.n n n n Z.`. . . +.+++@+  ",
"  #+$+%+&+ . .*+=+-+n n ;+>+;+ . .,+'+)+!+  ",
"  ~+{+]+^+ . . . . ./+n  . . . . .(+_+:+<+  ",
"  [+5.}+|+ . . . . . . . . . . . .1+2+3+4+  ",
"  5+C.6+7+8+9+0+a+b+c+d+e+f+g+h+i+j+k+l+m+  ",
"  n+o+p+q+r+s+t+u+v+w+x+y+z+A+B+C+D+E+F+G+  ",
"  H+I+J+K+L+M+N+O+P+E+Q+R+S+T+U+V+W+X+Y+Z+  ",
"                                            "};
