/* XPM */
static const char * solobutton_on_blksq_xpm[] = {
"22 22 248 2",
"   c None",
".  c #000000",
"+  c #066714",
"@  c #056613",
"#  c #076915",
"$  c #076A15",
"%  c #076A16",
"&  c #086B17",
"*  c #096C18",
"=  c #066B15",
"-  c #066B14",
";  c #076F17",
">  c #0C751C",
",  c #107B20",
"'  c #0F7C1F",
")  c #0D791D",
"!  c #097318",
"~  c #066E15",
"{  c #066C14",
"]  c #066814",
"^  c #086B16",
"/  c #0A6F19",
"(  c #0B711A",
"_  c #0B721B",
":  c #0C731C",
"<  c #0C731B",
"[  c #0A731A",
"}  c #097219",
"|  c #077318",
"1  c #0A781B",
"2  c #0E7E1F",
"3  c #118522",
"4  c #128722",
"5  c #0F8321",
"6  c #0B7D1B",
"7  c #077517",
"8  c #067016",
"9  c #056713",
"0  c #066914",
"a  c #086D17",
"b  c #0A721A",
"c  c #0F771E",
"d  c #107A20",
"e  c #117D21",
"f  c #127E21",
"g  c #117F21",
"h  c #0E7D1F",
"i  c #0D801E",
"j  c #0F8620",
"k  c #128F25",
"l  c #159627",
"m  c #169828",
"n  c #159427",
"o  c #F10606",
"p  c #0B821C",
"q  c #087718",
"r  c #086E17",
"s  c #0B731A",
"t  c #0F791F",
"u  c #138223",
"v  c #168727",
"w  c #188A29",
"x  c #178D28",
"y  c #168D27",
"z  c #158C26",
"A  c #128D25",
"B  c #129125",
"C  c #149926",
"D  c #17A22B",
"E  c #19AA2D",
"F  c #1AAC2E",
"G  c #119122",
"H  c #0C831D",
"I  c #066D15",
"J  c #0A7119",
"K  c #0C7A1D",
"L  c #118323",
"M  c #178D29",
"N  c #1B952E",
"O  c #1B9C2E",
"P  c #1A9E2E",
"Q  c #199C2B",
"R  c #189D2B",
"S  c #189E2B",
"T  c #17A32C",
"U  c #18AC2E",
"V  c #19B630",
"W  c #1CC033",
"X  c #16A22A",
"Y  c #129025",
"Z  c #097519",
"`  c #0F801F",
" . c #158E27",
".. c #414141",
"+. c #852A2A",
"@. c #1CC335",
"#. c #19B130",
"$. c #179C2A",
"%. c #067015",
"&. c #097A1A",
"*. c #108922",
"=. c #17982A",
"-. c #473E3E",
";. c #723030",
">. c #CB1212",
",. c #1CDA38",
"'. c #1DD038",
"). c #1BB832",
"!. c #19A22D",
"~. c #067215",
"{. c #0A7F1B",
"]. c #119124",
"^. c #18A22D",
"/. c #4E3C3C",
"(. c #E20A0A",
"_. c #1BDF37",
":. c #1CD136",
"<. c #1CBD35",
"[. c #19A42E",
"}. c #087618",
"|. c #0B821D",
"1. c #129725",
"2. c #A51F1F",
"3. c #9E2121",
"4. c #19DB36",
"5. c #1ACF36",
"6. c #1BBB33",
"7. c #1AA22E",
"8. c #087818",
"9. c #0C861E",
"0. c #129B26",
"a. c #18B12F",
"b. c #832A2A",
"c. c #19D534",
"d. c #1ACB34",
"e. c #1AB832",
"f. c #199F2D",
"g. c #087918",
"h. c #0D891F",
"i. c #129C26",
"j. c #17B22F",
"k. c #19D034",
"l. c #18C432",
"m. c #19B230",
"n. c #169A2A",
"o. c #087A19",
"p. c #0D881F",
"q. c #139C27",
"r. c #17AF2D",
"s. c #16CC31",
"t. c #18C132",
"u. c #18B02E",
"v. c #159828",
"w. c #0A7A1A",
"x. c #149C27",
"y. c #17AE2D",
"z. c #17CA31",
"A. c #15BF2F",
"B. c #15AE2B",
"C. c #129624",
"D. c #0E8821",
"E. c #17AD2E",
"F. c #14C72E",
"G. c #14BD2C",
"H. c #11AD29",
"I. c #0F9423",
"J. c #0B7B1A",
"K. c #0F8720",
"L. c #139B26",
"M. c #16AA2B",
"N. c #11C52C",
"O. c #10BA29",
"P. c #0FA825",
"Q. c #0C9020",
"R. c #0B791C",
"S. c #0D871F",
"T. c #119625",
"U. c #15A82A",
"V. c #9C2222",
"W. c #10C02A",
"X. c #0EB526",
"Y. c #0DA322",
"Z. c #0A8D1D",
"`. c #097419",
" + c #0E9121",
".+ c #11A126",
"++ c #0EB426",
"@+ c #0DAA23",
"#+ c #0B9A20",
"$+ c #08871B",
"%+ c #077217",
"&+ c #0A871D",
"*+ c #0D9521",
"=+ c #10A425",
"-+ c #11AE27",
";+ c #11B228",
">+ c #12B529",
",+ c #11B628",
"'+ c #10B429",
")+ c #10B227",
"!+ c #10AF27",
"~+ c #10AC27",
"{+ c #0FAB26",
"]+ c #0EA824",
"^+ c #0DA624",
"/+ c #0CA221",
"(+ c #0B9C20",
"_+ c #088F1C",
":+ c #068018",
"<+ c #056D13",
"[+ c #057214",
"}+ c #067A17",
"|+ c #09841B",
"1+ c #0C911E",
"2+ c #0D9921",
"3+ c #0E9F22",
"4+ c #0EA123",
"5+ c #0DA222",
"6+ c #0DA123",
"7+ c #0C9C21",
"8+ c #0B981F",
"9+ c #0C971F",
"0+ c #0C951F",
"a+ c #0B931F",
"b+ c #0A911E",
"c+ c #088E1C",
"d+ c #07891A",
"e+ c #058218",
"f+ c #047715",
"g+ c #036812",
"h+ c #046C12",
"i+ c #047014",
"j+ c #057615",
"k+ c #077D19",
"l+ c #09831B",
"m+ c #09871C",
"n+ c #08891C",
"o+ c #088A1B",
"p+ c #078619",
"q+ c #078419",
"r+ c #078018",
"s+ c #067D18",
"t+ c #067C18",
"u+ c #067D17",
"v+ c #057B16",
"w+ c #047815",
"x+ c #037313",
"y+ c #036D12",
". . . . . . . . . . . . . . . . . . . . . . ",
". + @ @ + # $ % & * & = - ; > , ' ) ! ~ { . ",
". + @ ] ^ / ( _ : < [ } | 1 2 3 4 5 6 7 8 . ",
". 9 0 a b c d e f g h 2 i j k l m n o p q . ",
". ] r s t u v w x y z A B C D E F o o G H . ",
". I J K L M N O P Q R S T U V W o o o X Y . ",
". I Z `  ...................+.o o o @.#.$.. ",
". %.&.*.=.-...............;.o o >.,.'.).!.. ",
". ~.{.].^./.-.............o o (..._.:.<.[.. ",
". }.|.1.U o 2...........o o o 3...4.5.6.7.. ",
". 8.9.0.a.b.o o ......o o o o ....c.d.e.f.. ",
". g.h.i.j...o o o ....o o o ......k.l.m.n.. ",
". o.p.q.r.....o o o o o o o ......s.t.u.v.. ",
". w.h.x.y.......o o o o o ........z.A.B.C.. ",
". w.D.x.E.........o o o o ........F.G.H.I.. ",
". J.K.L.M...........o o ..........N.O.P.Q.. ",
". R.S.T.U...........V.o ..........W.X.Y.Z.. ",
". `.|. +.+........................++@+#+$+. ",
". %+o.&+*+=+-+;+>+,+'+)+!+~+{+]+^+/+(+_+:+. ",
". <+[+}+|+1+2+3+4+5+6+7+8+9+0+a+b+c+d+e+f+. ",
". g+h+i+j+k+l+m+n+o+d+p+q+r+s+t+u+v+w+x+y+. ",
". . . . . . . . . . . . . . . . . . . . . . "};
