/* XPM */
static const char * start_xpm[] = {
"22 22 132 2",
"  	c None",
". 	c #505A5A",
"+ 	c #545F5F",
"@ 	c #9CA4A4",
"# 	c #ACB3B3",
"$ 	c #737D7D",
"% 	c #ECEFEF",
"& 	c #F3F6F6",
"* 	c #B7BEBE",
"= 	c #E9EEEE",
"- 	c #E0E7E7",
"; 	c #DEE5E5",
"> 	c #C5CCCC",
", 	c #D1DBDB",
"' 	c #CED7D7",
") 	c #C8D3D3",
"! 	c #CFD9D9",
"~ 	c #B6BFBF",
"{ 	c #7E8787",
"] 	c #4B5555",
"^ 	c #8D9797",
"/ 	c #CDD7D7",
"( 	c #9EA5A5",
"_ 	c #A9B1B1",
": 	c #B1BBBB",
"< 	c #CCD6D6",
"[ 	c #7E8888",
"} 	c #465050",
"| 	c #8E9696",
"1 	c #B7BFBF",
"2 	c #656D6D",
"3 	c #A1A8A8",
"4 	c #AFB8B8",
"5 	c #C9D3D3",
"6 	c #7F8888",
"7 	c #414B4B",
"8 	c #8E9797",
"9 	c #C4CDCD",
"0 	c #868E8E",
"a 	c #424C4C",
"b 	c #ADB7B7",
"c 	c #C7D1D1",
"d 	c #808888",
"e 	c #3D4747",
"f 	c #8F9898",
"g 	c #A6AEAE",
"h 	c #505959",
"i 	c #9BA3A3",
"j 	c #ABB5B5",
"k 	c #C4CECE",
"l 	c #818989",
"m 	c #384242",
"n 	c #909898",
"o 	c #C2CBCB",
"p 	c #6E7676",
"q 	c #9AA1A1",
"r 	c #A8B2B2",
"s 	c #C1CBCB",
"t 	c #828A8A",
"u 	c #333D3D",
"v 	c #8F9999",
"w 	c #D7DDDD",
"x 	c #BCBFBF",
"y 	c #495252",
"z 	c #959C9C",
"A 	c #A6B0B0",
"B 	c #BEC8C8",
"C 	c #828B8B",
"D 	c #2E3838",
"E 	c #909999",
"F 	c #C3CCCC",
"G 	c #DEE2E2",
"H 	c #8A8F8F",
"I 	c #313B3B",
"J 	c #2F3939",
"K 	c #939A9A",
"L 	c #A4AEAE",
"M 	c #BCC6C6",
"N 	c #838C8C",
"O 	c #2A3434",
"P 	c #919A9A",
"Q 	c #CED5D5",
"R 	c #CCCFCF",
"S 	c #555D5D",
"T 	c #A2ACAC",
"U 	c #B9C3C3",
"V 	c #848D8D",
"W 	c #252F2F",
"X 	c #929A9A",
"Y 	c #BBC5C5",
"Z 	c #DBE0E0",
"` 	c #9FA4A4",
" .	c #303A3A",
"..	c #8D9595",
"+.	c #9FA9A9",
"@.	c #B6C0C0",
"#.	c #9BA4A4",
"$.	c #5F6666",
"%.	c #A2AAAA",
"&.	c #C2CACA",
"*.	c #D8DBDB",
"=.	c #B0B7B7",
"-.	c #515B5B",
";.	c #9CA6A6",
">.	c #B4BEBE",
",.	c #BDC5C5",
"'.	c #CCD3D3",
").	c #BBC4C4",
"!.	c #BAC3C3",
"~.	c #636D6D",
"{.	c #A3ADAD",
"].	c #ACB6B6",
"^.	c #AEB8B8",
"/.	c #909A9A",
"(.	c #666F6F",
"_.	c #8B9191",
":.	c #7C8686",
"<.	c #8B9595",
"[.	c #8E9494",
"}.	c #A8ADAD",
"|.	c #889090",
"1.	c #838D8D",
"2.	c #8A9393",
"3.	c #ACB1B1",
"4.	c #D4D6D6",
"5.	c #CFD2D2",
"6.	c #D0D2D2",
"7.	c #D0D3D3",
"8.	c #D1D3D3",
"9.	c #D1D4D4",
"0.	c #D2D4D4",
"a.	c #D6D8D8",
"                                            ",
"    . . . . . . . . . . . . . . . . . .     ",
"  . + @ # # # # # # # # # # # # # # @ + .   ",
". $ % & & & & & & & & & & & & & & & & % $ . ",
". * = - ; ; ; ; ; ; ; ; ; ; ; ; ; ; - = * . ",
". > , , , ' ) ! , , , , , , , , , , , , > . ",
". ~ ! ! ! { ] ^ ! ! ! ! ! ! / ( _ ! ! ! ~ . ",
". : < < < [ } | < < < < < 1 2 } 3 < < < : . ",
". 4 5 5 5 6 7 8 5 5 5 9 0 a 7 7 ( 5 5 5 4 . ",
". b c c c d e f c c g h e e e e i c c c b . ",
". j k k k l m n o p m m m m m m q k k k j . ",
". r s s s t u v w x y u u u u u z s s s r . ",
". A B B B C D E B F G H I J J J K B B B A . ",
". L M M M N O P M M M Q R S O O n M M M L . ",
". T U U U V W X U U U U Y Z `  ...U U U T . ",
". +.@.@.@.#.$.%.@.@.@.@.@.@.&.*.=.@.@.@.+.. ",
"-.;.>.>.>.,.'.).>.>.>.>.>.>.>.>.!.>.>.>.;.-.",
"~.v {.].^.^.^.^.^.^.^.^.^.^.^.^.^.^.].{./.(.",
"_.:.<.<.<.<.<.<.<.<.<.<.<.<.<.<.<.<.<.<.[ [.",
"  }.|.1.C C C C C C C C C C C C C C V 2.3.  ",
"    4.5.6.6.6.6.7.8.8.8.8.8.8.9.9.9.0.a.    ",
"                                            "};
