/* XPM */
static const char * start_xpm[] = {
"17 12 2 1",
" 	c None",
".	c #000000",
"   ....       .  ",
"   ....     ...  ",
"   ....    ...   ",
"   ....   ....   ",
"   ....  ....    ",
"   .... .....    ",
"   .... .....    ",
"   ....  ....    ",
"   ....   ....   ",
"   ....    ...   ",
"   ....     ...  ",
"   ....       .  "};
