/* XPM */
static const char * stop_xpm[] = {
"22 22 85 1",
" 	c None",
".	c #505A5A",
"+	c #545F5F",
"@	c #9CA4A4",
"#	c #ACB3B3",
"$	c #737D7D",
"%	c #ECEFEF",
"&	c #F3F6F6",
"*	c #B7BEBE",
"=	c #E9EEEE",
"-	c #E0E7E7",
";	c #DEE5E5",
">	c #C5CCCC",
",	c #D1DBDB",
"'	c #CDD8D8",
")	c #C8D2D2",
"!	c #B6BFBF",
"~	c #CFD9D9",
"{	c #ACB4B4",
"]	c #434D4D",
"^	c #B1BBBB",
"/	c #CCD6D6",
"(	c #ABB2B2",
"_	c #3F4949",
":	c #AFB8B8",
"<	c #C9D3D3",
"[	c #A7AFAF",
"}	c #3A4444",
"|	c #ADB7B7",
"1	c #C7D1D1",
"2	c #A5ADAD",
"3	c #353F3F",
"4	c #ABB5B5",
"5	c #C4CECE",
"6	c #A2A9A9",
"7	c #303A3A",
"8	c #A8B2B2",
"9	c #C1CBCB",
"0	c #9FA7A7",
"a	c #2C3636",
"b	c #A6B0B0",
"c	c #BEC8C8",
"d	c #273131",
"e	c #A4AEAE",
"f	c #BCC6C6",
"g	c #9AA2A2",
"h	c #222C2C",
"i	c #A2ACAC",
"j	c #B9C3C3",
"k	c #B1B8B8",
"l	c #878C8C",
"m	c #9FA9A9",
"n	c #B6C0C0",
"o	c #BFC7C7",
"p	c #D3D9D9",
"q	c #515B5B",
"r	c #9CA6A6",
"s	c #B4BEBE",
"t	c #636D6D",
"u	c #8F9999",
"v	c #A3ADAD",
"w	c #ACB6B6",
"x	c #AEB8B8",
"y	c #909A9A",
"z	c #666F6F",
"A	c #8B9191",
"B	c #7C8686",
"C	c #8B9595",
"D	c #7E8888",
"E	c #8E9494",
"F	c #A8ADAD",
"G	c #889090",
"H	c #838D8D",
"I	c #828B8B",
"J	c #848D8D",
"K	c #8A9393",
"L	c #ACB1B1",
"M	c #D4D6D6",
"N	c #CFD2D2",
"O	c #D0D2D2",
"P	c #D0D3D3",
"Q	c #D1D3D3",
"R	c #D1D4D4",
"S	c #D2D4D4",
"T	c #D6D8D8",
"                      ",
"  ..................  ",
" .+@##############@+. ",
".$%&&&&&&&&&&&&&&&&%$.",
".*=-;;;;;;;;;;;;;;-=*.",
".>,,,,'))))))))',,,,>.",
".!~~~~{]]]]]]]]{~~~~!.",
".^////(________(////^.",
".:<<<<[}}}}}}}}[<<<<:.",
".|111123333333321111|.",
".45555677777777655554.",
".899990aaaaaaaa099998.",
".bcccc@dddddddd@ccccb.",
".effffghhhhhhhhgffffe.",
".ijjjjkllllllllkjjjji.",
".mnnnnopppppppponnnnm.",
"qrssssssssssssssssssrq",
"tuvwxxxxxxxxxxxxxxwvyz",
"ABCCCCCCCCCCCCCCCCCCDE",
" FGHIIIIIIIIIIIIIIJKL ",
"  MNOOOOPQQQQQQRRRST  ",
"                      "};
