/* XPM */
static const char * synth_xpm[] = {
"16 16 69 1",
" 	c None",
".	c #FFA000",
"+	c #ED9500",
"@	c #DE8B00",
"#	c #D38500",
"$	c #F39800",
"%	c #E59000",
"&	c #E38E00",
"*	c #CA7F00",
"=	c #E18D00",
"-	c #E08D00",
";	c #F19600",
">	c #E79000",
",	c #F39900",
"'	c #FFFFFF",
")	c #000000",
"!	c #160E00",
"~	c #FCF9F4",
"{	c #EB9300",
"]	c #E28E00",
"^	c #DC8B00",
"/	c #FB9E00",
"(	c #D08200",
"_	c #D98800",
":	c #DD8A00",
"<	c #CE8100",
"[	c #EE9500",
"}	c #F89C00",
"|	c #C67C00",
"1	c #F89B00",
"2	c #D48500",
"3	c #FC9E00",
"4	c #D18300",
"5	c #E08C00",
"6	c #F29700",
"7	c #EC9400",
"8	c #EF9500",
"9	c #F69A00",
"0	c #ED9300",
"a	c #F99C00",
"b	c #FE9F00",
"c	c #F09600",
"d	c #E18C00",
"e	c #DC8A00",
"f	c #EC9300",
"g	c #E48F00",
"h	c #DA8800",
"i	c #DF8C00",
"j	c #DE8A00",
"k	c #F19800",
"l	c #FB9D00",
"m	c #ED9400",
"n	c #D68600",
"o	c #E79100",
"p	c #E99200",
"q	c #E69000",
"r	c #FA9D00",
"s	c #F59A00",
"t	c #D28400",
"u	c #F19700",
"v	c #CB7F00",
"w	c #D78700",
"x	c #EF9600",
"y	c #D38400",
"z	c #D08300",
"A	c #F29800",
"B	c #F59900",
"C	c #DA8900",
"D	c #D18200",
".++.@#$%&*=-..;>",
",'))!~)))')))'{]",
"^')))')))')))'/(",
"_')))')))')))'/(",
":')))')))')))'.<",
"['')''')''')''}|",
"['')''')''')''12",
".'')''')''')''34",
"56.1>7890a...bcd",
"ef)1g=:&ha).i;][",
"jk))lcmno.))..ap",
"6q))))r[[.))))..",
"))))))))))))))))",
"33)))).s3.))))..",
"t7)).uovml))a8w>",
">3)xpyz<yA).BCD@"};
