/* XPM */
static const char *track_add_xpm[]={
"16 16 4 1",
"b c #404000",
"a c #808080",
". c #c00000",
"# c #ffffff",
"................",
"................",
"..############..",
"..############..",
"..a#a#a#a#a#a#..",
".bbbbbbbbbbbbbb.",
"..a#a#a#a#a#a#..",
"..a#a#a#a#a#a#..",
"..a#a#a#a#a#a#..",
"..a#a#a#a#a#a#..",
".bbbbbbbbbbbbbb.",
"..a#a#a#a#a#a#..",
"..############..",
"..############..",
"................",
"................"};
