/* XPM */
static const char * underlined_xpm[] = {
"11 11 2 1",
" 	g None",
".	g #000000",
" ....  ... ",
"  ..    .  ",
"  ..    .  ",
"  ..    .  ",
"  ..    .  ",
"  ..    .  ",
"  ..    .  ",
"  ...  ..  ",
"   .....   ",
"           ",
" ......... "};
