/* XPM */
static const char * view_bigtime_window_xpm[] = {
"16 16 3 1",
" 	c None",
".	c #D4D4D4",
"+	c #000000",
"      .++.      ",
"    .++..++.    ",
"   +.  ++  .+   ",
"  +.   ++   .+  ",
" ..    ++.   .. ",
" +     ++.    + ",
".+     ++.    +.",
"+.     ++.    .+",
"+.    + ..    .+",
".+   + .      +.",
" +  + .       + ",
" ..+ .       .. ",
"  +..       .+  ",
"   +.      .+   ",
"    .++..++.    ",
"      .++.      "};
