/* XPM */
static const char * view_transport_window_xpm[] = {
"16 16 5 1",
" 	c None",
".	c #575757",
"+	c #000000",
"@	c #D4D4D4",
"#	c #D1CFD5",
"      .+.       ",
"     .+++.      ",
"     .+++.@     ",
"      .+.@@     ",
"                ",
"                ",
"     .+++.@     ",
"    .+++++@     ",
"    .@++++@     ",
"     @++.@@     ",
"      ++        ",
"     .++@@      ",
"     +++@++     ",
"    .+++++.@    ",
"    .++++.@#    ",
"     @@@@@@     "};
