/* XPM */
static const char * zoom_at_xpm[] = {
"16 16 5 1",
" 	c None",
".	c #000000",
"+	c #A0A0A4",
"@	c #DCDCDC",
"#	c #FFFFFF",
".....           ",
"....            ",
"...             ",
"..  +...+       ",
".  +.@#@.+      ",
"   .##+##.      ",
"   .#+###.      ",
"   .#####.      ",
"   +.@#@..      ",
"    +......     ",
"     ++++...    ",
"         +...   ",
"         ++...  ",
"          ++..  ",
"           +++  ",
"                "};
