/* XPM */
static const char * zoom_out_xpm[] = {
"16 16 7 1",
" 	c None",
".	c #A0A0A4",
"+	c #000000",
"@	c #DCDCDC",
"#	c #FFFFFF",
"$	c #3F231D",
"%	c #F6574B",
"                ",
"                ",
"                ",
"    .+++.       ",
"   .+@#@+.      ",
"   +##.##+      ",
"   +#.###+      ",
"   +#####+      ",
"   .+@#@++      ",
"    .++++++     ",
"     ....+++    ",
"         .+++   ",
"$$$$$    ..+++  ",
"%%%%%     ..++  ",
"$$$$$      ...  ",
"                "};
