/* XPM */
static const char* const sine_xpm[] = { 
"12 12 2 1",
". c #000000",
"# c #20ff18",
"............",
"............",
"............",
"............",
"..###.....##",
".#...#...#..",
".#...#...#..",
"#.....###...",
"............",
"............",
"............",
"............"};


