/* XPM */
static const char * addtrack_drumtrack_2_xpm[] = {
"16 16 67 1",
" 	c None",
".	c #37A6A6",
"+	c #3DB7B7",
"@	c #54C6C6",
"#	c #6FCFCF",
"$	c #95DCDC",
"%	c #B5E6E6",
"&	c #D4F0F0",
"*	c #E2F5F5",
"=	c #E8F7F7",
"-	c #EBF8F8",
";	c #000000",
">	c #E7F7F7",
",	c #D9F2F2",
"'	c #CFEFEF",
")	c #B8E7E7",
"!	c #9DDEDE",
"~	c #65CCCC",
"{	c #6CCECE",
"]	c #7BD2D2",
"^	c #9ADDDD",
"/	c #B0E4E4",
"(	c #B9E7E7",
"_	c #A1DFDF",
":	c #8BD8D8",
"<	c #B2E5E5",
"[	c #BFEAEA",
"}	c #DEF3F3",
"|	c #6DCECE",
"1	c #B7E7E7",
"2	c #9CDEDE",
"3	c #C4EBEB",
"4	c #C8EDED",
"5	c #DBF2F2",
"6	c #D6F1F1",
"7	c #8FDADA",
"8	c #E4F6F6",
"9	c #C5ECEC",
"0	c #7FD4D4",
"a	c #EEF9F9",
"b	c #174646",
"c	c #94DBDB",
"d	c #F1FAFA",
"e	c #4BC2C2",
"f	c #84D6D6",
"g	c #A0DFDF",
"h	c #82D5D5",
"i	c #5CC8C8",
"j	c #A4E0E0",
"k	c #55C6C6",
"l	c #A3E0E0",
"m	c #92DBDB",
"n	c #7DD3D3",
"o	c #5BC8C8",
"p	c #36A3A3",
"q	c #61CACA",
"r	c #40BFBF",
"s	c #49C2C2",
"t	c #76D1D1",
"u	c #80D4D4",
"v	c #ABE2E2",
"w	c #C1EAEA",
"x	c #C7ECEC",
"y	c #71CFCF",
"z	c #85D6D6",
"A	c #97DCDC",
"B	c #A9E2E2",
".+@#$%&*=-;>,')!",
"~{]^/',*=;;#*'(_",
":^<[',}};;|#,;12",
"34&,}56;;##,;;#7",
">88*5&;;||9;;##0",
"a-bb;;;bb/;;##c{",
"d;ef;;ee;;;||ghi",
"bef'''f;;;##j^0k",
"bbef'fe;;b|jg$]@",
"b.bbbbb;;b|l!mno",
"b.e''fepb;;;;;0q",
"b.f'''[.;;l|lr;{",
"&be''fsbb;rll;;t",
")[bbbbbb[;;;;;;u",
"7^v1wx49[;#rr;$:",
"qyzAv([3[(;;;jBl"};
