/* XPM */
static const char * addtrack_addmiditrack_2_xpm[] = {
"16 16 70 1",
" 	c None",
".	c #739BFF",
"+	c #799FFF",
"@	c #83A6FF",
"#	c #87A9FF",
"$	c #8FAFFF",
"%	c #97B4FF",
"&	c #85A7FF",
"*	c #000000",
"=	c #8BACFF",
"-	c #A3BDFF",
";	c #BBCEFF",
">	c #CFDDFF",
",	c #95B3FF",
"'	c #99B6FF",
")	c #9DB9FF",
"!	c #BDD0FF",
"~	c #CDDBFF",
"{	c #9FBAFF",
"]	c #ABC3FF",
"^	c #A1BCFF",
"/	c #A9C1FF",
"(	c #B1C7FF",
"_	c #B7CBFF",
":	c #B3C8FF",
"<	c #C9DAFF",
"[	c #BFD1FF",
"}	c #C3D4FF",
"|	c #0048FE",
"1	c #A7C2FF",
"2	c #C7D7FF",
"3	c #002174",
"4	c #C5D5FF",
"5	c #ADC4FF",
"6	c #91B0FF",
"7	c #D3DFFF",
"8	c #DFE9FF",
"9	c #D9E5FF",
"0	c #DBE5FF",
"a	c #E1E9FF",
"b	c #E3EAFF",
"c	c #D5E1FF",
"d	c #D1DEFF",
"e	c #D9E3FF",
"f	c #D3E3FF",
"g	c #D1DCFF",
"h	c #D7E1FF",
"i	c #DDE6FF",
"j	c #D7E3FF",
"k	c #C9D4FF",
"l	c #AFC4FF",
"m	c #B7C6FF",
"n	c #C9D8FF",
"o	c #CBD8FF",
"p	c #D3DEFF",
"q	c #D7E2FF",
"r	c #D9E6FF",
"s	c #C3D5FF",
"t	c #B5C6FF",
"u	c #A1B7FF",
"v	c #97B2FF",
"w	c #C7D4FF",
"x	c #BFD0FF",
"y	c #BDCEFF",
"z	c #C9D7FF",
"A	c #CBDBFF",
"B	c #CDD9FF",
"C	c #95B0FF",
"D	c #9DB2FF",
"E	c #8FB1FF",
".+@#$%%&+**+=-;>",
"+@$,'-)$@***$-!~",
"&,{]]]^%$****]!~",
"/(_:(]-{%*,**];<",
"[}|_|(|1^*')*/_2",
"~3333333-*'33334",
">~|_|5|]-*,6|-(}",
"<2|_|5|]1*,6|-:}",
"42|;|((5]*{'|]!2",
"[<|}|!****]]|;<7",
"[333<*****_33338",
"4>|9|*****2<|0ab",
"4c8a80***d>d0aef",
"<ghibba00j>>2klm",
"nopqegr>~stlu')v",
"wxyzABnzx_-C{'DE"};
