/* XPM */
static const char * audio_bounce_to_file_xpm[] = {
"16 16 5 1",
" 	c None",
".	c #000000",
"+	c #C3C3C3",
"@	c #DCDCDC",
"#	c #A0A0A0",
"      ...       ",
"     ..+..      ",
"    ..+@@..     ",
"   ..+@#@@..    ",
"  ..+@###@@..   ",
" ..+@####+@+..  ",
"..@@###+@+@.... ",
".+@###+@++.##...",
"..+##@@++.####..",
" ..++@++.###### ",
"  ..+++..#####  ",
"   ..+.##.###   ",
"    ....##.#    ",
"     ....##     ",
"      ...       ",
"       .        "};
