/* XPM */
static const char * automation_mixer_xpm[] = {
"16 16 16 1",
" 	c None",
".	c #FF0000",
"+	c #DA1007",
"@	c #000000",
"#	c #710000",
"$	c #FFBEBE",
"%	c #B00000",
"&	c #EA0904",
"*	c #B80000",
"=	c #A00000",
"-	c #CE160A",
";	c #880000",
">	c #990000",
",	c #BD0000",
"'	c #FF8E8E",
")	c #D32311",
"                ",
"               .",
"              .+",
"   @  @  @  #.. ",
"  @@@ @  @ $..  ",
"  @@@ @ @@%..   ",
"&  @  @ @*=.@   ",
"-. @  @.... @   ",
" ..@  ....  @   ",
"  ...*;;.@ @@@  ",
"  ...>;,'@ @@@  ",
"   ....' @  @   ",
"    ...         ",
"    ..          ",
"     )          ",
"                "};
