/* XPM */
static const char *cliplistS_xpm[]={
"16 16 9 1",
"# c #000000",
"f c #585858",
"e c #808080",
"d c #a0a0a0",
"c c #c000c0",
"g c #c3c3c3",
"a c #dcdcdc",
". c #ff00ff",
"b c #ffffff",
"................",
"..############..",
"..#aaaaaaaaaa#..",
"..#abbbbbbbba#c.",
"..#bbdeeeedbb#c.",
"..#bdbbbbbbdb#c.",
"..#bbbdffdbbb#c.",
"..#bbbbbbbbbb#c.",
"..#b#gggggg#b#c.",
"..#bb######gb#c.",
"..#bbb####gbb#c.",
"..#bbbb##gbbb#c.",
"..#bbbbggbbbb#c.",
"..############c.",
"....ccccccccccc.",
"................"};
