/* XPM */
static const char* delete_xpm[]={
"18 18 5 1",
"# c #000000",
"a c #ffffff",
"b c #a0a0a4",
"c c #dcdcdc",
". c None",
"..................",
"..................",
"..................",
"..................",
"........########..",
".......#aaaaaa##b.",
"......#aaaaaa#c#b.",
".....#aaaaaa#cc#b.",
"....#aaaaaa#cc#bb.",
"...#aaaaaa#cc#bb..",
"..#aaaaaa#cc#bb...",
".########cc#bb....",
".#cccccc#c#bb.....",
".#cccccc##bb......",
".########bb.......",
"..bbbbbbbb........",
"..................",
".................."};

