/* XPM */
static const char * edit_track_del_xpm[] = {
"16 16 6 1",
" 	c None",
".	c #800000",
"+	c #C00000",
"@	c #FFFFFF",
"#	c #808080",
"$	c #404000",
"................",
".++++++++++++++.",
".+++@@@@@@@@@@+.",
".++++@@@@@@@@@+.",
".+#+++#@#@#@#@+.",
".$$$+++$$$$$$$$.",
".+#@#+++#@#@#@+.",
".+#@#@+++@#@#@+.",
".+#@#@#+++#@#@+.",
".+#@#@#@+++@#@+.",
".$$$$$$$$+++$$$.",
".+#@#@#@#@+++@+.",
".+@@@@@@@@@++++.",
".+@@@@@@@@@@+++.",
".++++++++++++++.",
"................"};
