/* XPM */
static const char * editcut_xpm[] = {
"22 22 8 1",
" 	c None",
".	c #000000",
"+	c #080203",
"@	c #FFFFFF",
"#	c #C3C3C3",
"$	c #010101",
"%	c #A0A0A0",
"&	c #303030",
"                      ",
"                      ",
"  ..+.                ",
" ... ..          ...  ",
" ..   ..        .@@#. ",
" ..    ..      .@@#.  ",
"  ..    .     .@@#.   ",
"   ... ..    .@@#.    ",
"     ....$  .@@#.     ",
"       .....@@#.      ",
"         %.@@#.       ",
"         .@&#.        ",
"       ....@.#.       ",
"     ....$..@@#.      ",
"   ... ..   .@@#.     ",
"  ..    .    .@@#.    ",
" ..    ..     .@@#.   ",
" ..   ..       .@@#.  ",
" ..  ..         .@@#. ",
"  ..+.           ...  ",
"                      ",
"                      "};
