/* XPM */
static const char * editpaste2track_xpm[] = {
"22 22 143 2",
"  	c None",
". 	c #161616",
"+ 	c #3A3616",
"@ 	c #6F681E",
"# 	c #625607",
"$ 	c #575006",
"% 	c #020202",
"& 	c #060A06",
"* 	c #262206",
"= 	c #807529",
"- 	c #FEFEFD",
"; 	c #CAC682",
"> 	c #A69E62",
", 	c #362E16",
"' 	c #EAEAEA",
") 	c #EEEEEE",
"! 	c #574D0A",
"~ 	c #FFFFFF",
"{ 	c #F6F6DE",
"] 	c #EEEECA",
"^ 	c #CECA96",
"/ 	c #9E964A",
"( 	c #4A462E",
"_ 	c #C5C5C5",
": 	c #C9C9C9",
"< 	c #CCCCCC",
"[ 	c #D4D4D4",
"} 	c #DBDBDB",
"| 	c #3A3636",
"1 	c #D6D6D6",
"2 	c #A6A6A6",
"3 	c #989898",
"4 	c #D6D29E",
"5 	c #CAC686",
"6 	c #B6B26A",
"7 	c #AAA65A",
"8 	c #7E721E",
"9 	c #818181",
"0 	c #888885",
"a 	c #8C8C8C",
"b 	c #262626",
"c 	c #DADADA",
"d 	c #A2A2A2",
"e 	c #A9A9A9",
"f 	c #B2B6B6",
"g 	c #3E3A32",
"h 	c #2E2E26",
"i 	c #26261A",
"j 	c #22221A",
"k 	c #222216",
"l 	c #161612",
"m 	c #626266",
"n 	c #727272",
"o 	c #6E6E6E",
"p 	c #7A7A7A",
"q 	c #222222",
"r 	c #D5D5D5",
"s 	c #999999",
"t 	c #9E9E9E",
"u 	c #AAAAAA",
"v 	c #BEBEBE",
"w 	c #9A9A9A",
"x 	c #828282",
"y 	c #6C6C6C",
"z 	c #5E5E5E",
"A 	c #656565",
"B 	c #5B5B5B",
"C 	c #2E2E2E",
"D 	c #B5B5B1",
"E 	c #AFAFAF",
"F 	c #9A9E9E",
"G 	c #969696",
"H 	c #7E7E7E",
"I 	c #432E1A",
"J 	c #372617",
"K 	c #2C1F14",
"L 	c #201711",
"M 	c #15110D",
"N 	c #1B1B1B",
"O 	c #1E1E1E",
"P 	c #939393",
"Q 	c #9F9F9F",
"R 	c #A4A4A4",
"S 	c #A2A29E",
"T 	c #313131",
"U 	c #898989",
"V 	c #121212",
"W 	c #B6B6B6",
"X 	c #9F9FA3",
"Y 	c #979797",
"Z 	c #8A8A8A",
"` 	c #797979",
" .	c #676767",
"..	c #3C3B3C",
"+.	c #AEAEAE",
"@.	c #949494",
"#.	c #C6C6C6",
"$.	c #474646",
"%.	c #8E8E8E",
"&.	c #D2D2D2",
"*.	c #A2A2A6",
"=.	c #868686",
"-.	c #717171",
";.	c #5C5B5B",
">.	c #FEFCFB",
",.	c #747474",
"'.	c #868682",
").	c #FDFBF9",
"!.	c #FCF7F3",
"~.	c #FAF4EE",
"{.	c #F0EAE6",
"].	c #C1BAB3",
"^.	c #CACACA",
"/.	c #6A6A6A",
"(.	c #3A2818",
"_.	c #5A5552",
":.	c #7E7873",
"<.	c #9F958D",
"[.	c #7D746E",
"}.	c #D8D0C8",
"|.	c #CECECE",
"1.	c #767676",
"2.	c #636363",
"3.	c #322316",
"4.	c #FCF8F5",
"5.	c #FBF5F0",
"6.	c #F9F1EA",
"7.	c #F8EEE5",
"8.	c #F7EADF",
"9.	c #F5E7DA",
"0.	c #D6CABF",
"a.	c #2A1E14",
"b.	c #5B5959",
"c.	c #C4C0BD",
"d.	c #807C79",
"e.	c #5A5653",
"f.	c #C0B5AC",
"g.	c #998778",
"h.	c #7B6F65",
"i.	c #7A6D62",
"j.	c #D3C3B4",
"k.	c #FBFD35",
"l.	c #A0A0A0",
"              . + @ # $                     ",
"  % % % % % & * = - ; > , % % % % % %       ",
"% ' ) ) ) ) ) ! ~ { ] ^ / ( _ : < [ } |     ",
"% 1 2 2 2 3 = ~ 4 5 6 7 / 8 ( 9 0 9 a b     ",
"% c d e f 2 g h i i j i j k l m n o p q     ",
"% r s t u v u w x y z A B A z B A y w C     ",
"% 1 D E u F t G H I I I J K L M N N y O     ",
"% r P Q R S w G H I ~ ~ ~ ~ ~ ~ T U V O     ",
"% 1 W u X Y Z `  .I ~ ~ ~ ~ ~ ~ ..~ : V     ",
"% 1 G t t u +.@.x I ~ x : x #.~ $.: ~ U V   ",
"% 1 w 2 t %.x x o I ~ ~ ~ ~ ~ ~ $.$...T V   ",
"% &.%.G w 2 *.=.-.I ~ x ;.: x : >.#.R ,.V   ",
"% &.2 u 2 '.=.=.-.I ~ ~ ~ ~ ~ ).!.~.{.].V   ",
"% ^.H =.Z w G H /.(.~ ;.x #.x _.:.<.[.}.V   ",
"% |.w G =.H p 1.2.3.~ ~ >.4.5.6.7.8.9.0.V   ",
"% ^.=.%.%.=.x p  .a.~ b.c.d.e.f.g.h.i.j.V   ",
"% % % % % % % % % % % % % % % % % % % % %   ",
"% k.k.k.l.l.k.k.k.k.k.l.l.k.k.k.k.k.l.l.V   ",
"% k.k.k.l.l.k.k.k.k.k.l.l.k.k.k.k.k.l.l.V   ",
"% k.k.k.l.l.k.k.k.k.k.l.l.k.k.k.k.k.l.l.%   ",
"% % % % % % % % % % % % % % % % % % % % %   ",
"                                            "};
