/* XPM */
static const char * eye_crossed_xpm[] = {
"16 16 4 1",
" 	c None",
".	c #E10E08",
"+	c #000000",
"@	c #0000FD",
"                ",
"             .. ",
"            ....",
"      ++++ .... ",
"    ++++++....  ",
"  +++    ....+  ",
" +++  @@....+++ ",
"+++  @@....  +++",
"++   @....@   ++",
"+++  ....@@  +++",
" +++....@@  +++ ",
"  +....    +++  ",
"  ....++++++    ",
" .... ++++      ",
"  ..            ",
"                "};
