/* XPM */
static const char * gv_xpm[] = {
"16 16 4 1",
" 	g None",
".	g #000000",
"+	g #FFFFFF",
"@	g #C0C0C0",
" ...........    ",
".+++++++++++.   ",
".+@@@@+@@@++.   ",
".+++++++++++.   ",
".+@++@...@++.   ",
".+++@.+++.@+.   ",
".+@+.++@++.+.   ",
".+++.++@@+.+.   ",
".+++.+++++.+.   ",
".+++@.+++..+.   ",
".@@+@@....+..   ",
".@+@@@++++.+.   ",
".@@++@+++++.+.  ",
".@+@@+++++++.+. ",
" ........... .+.",
"              . "};
