/* XPM */
static const char *localoffS_xpm[]={
"16 16 3 1",
"a c #000000",
". c #c00000",
"# c #ffffff",
"................",
"................",
"..############..",
"..############..",
"..####aaaa####..",
"..##aaaaaaaa##..",
"..##aaaaaaaa##..",
"..############..",
"..############..",
"..##aaaaaaaa##..",
"..##aaaaaaaa##..",
"..####aaaa####..",
"..############..",
"..############..",
"................",
"................"};
