/* XPM */
static const char * midi_init_instr_xpm[] = {
"16 16 9 1",
" 	c None",
".	c #800000",
"+	c #C00000",
"@	c #E1DDDA",
"#	c #C7C0BB",
"$	c #FFFFFF",
"%	c #0E0702",
"&	c #080401",
"*	c #000000",
"................",
".++++++++++++++.",
".+@###$$$$@##$+.",
".+@%&#@$$##&&#+.",
".+@%*&#@@@&*&#+.",
".+@#&*&#@&**##+.",
".+@$#&*&*&%@@@+.",
".+@$$#&***#@@@+.",
".+@$$#****#@$@+.",
".+@@#%*%&&%#@@+.",
".+@#&*%#@&*&#@+.",
".+#&*%##$@**%#+.",
".+#%%#@$$@#%%#+.",
".+@@@@$$$$$##$+.",
".++++++++++++++.",
"................"};
