/* XPM */
static const char *mustangS_xpm[]={
"16 16 4 1",
"# c #000000",
". c #c00000",
"b c #c3c3c3",
"a c #ffffff",
"...#...#........",
"...###.#........",
"..aa##a##aaaaa..",
"..a#b####aaaaa..",
"..#b####aaaaaa..",
".#b######baaaa..",
".#####bb###aaa..",
".###########aa..",
".############a..",
".#############..",
".#####a#####b#..",
".#####aaa#####..",
".#####aaaaa##a..",
".####aaaaaaaaa..",
".####...........",
"................"};
