/* XPM */
static const char * mute_xpm[] = {
"12 12 3 1",
" 	c None",
".	c #F50E0E",
"+	c #000000",
".       +  .",
" .     +++. ",
"  .   +++.  ",
"   . ++ .+  ",
"  ++.+ .++  ",
"  +++.. ++  ",
"  +++.. ++  ",
"  ++.+ .++  ",
"   . ++ .+  ",
"  .   +++.  ",
" .     +++. ",
".       +  ."};
