/* XPM */
static const char * pianoNew_xpm[] = {
"24 24 152 2",
"  	g None",
". 	g #424242",
"+ 	g #3F3F3F",
"@ 	g #3E3E3E",
"# 	g #373737",
"$ 	g #2D2D2D",
"% 	g #222222",
"& 	g #F6F6F6",
"* 	g #B7B7B7",
"= 	g #444444",
"- 	g #343434",
"; 	g #313131",
"> 	g #959595",
", 	g #F2F2F2",
"' 	g #CACACA",
") 	g #4C4C4C",
"! 	g #191919",
"~ 	g #0E0E0E",
"{ 	g #606060",
"] 	g #E9E9E9",
"^ 	g #FFFFFF",
"/ 	g #ACACAC",
"( 	g #262626",
"_ 	g #232323",
": 	g #909090",
"< 	g #FBFBFB",
"[ 	g #CFCFCF",
"} 	g #080808",
"| 	g #020202",
"1 	g #484848",
"2 	g #E8E8E8",
"3 	g #E1E1E1",
"4 	g #EDEDED",
"5 	g #979797",
"6 	g #161616",
"7 	g #181818",
"8 	g #868686",
"9 	g #FAFAFA",
"0 	g #CECECE",
"a 	g #010101",
"b 	g #000000",
"c 	g #333333",
"d 	g #D8D8D8",
"e 	g #F3F3F3",
"f 	g #F7F7F7",
"g 	g #818181",
"h 	g #121212",
"i 	g #0C0C0C",
"j 	g #090909",
"k 	g #0B0B0B",
"l 	g #7C7C7C",
"m 	g #F8F8F8",
"n 	g #202020",
"o 	g #C3C3C3",
"p 	g #6B6B6B",
"q 	g #050505",
"r 	g #777777",
"s 	g #D1D1D1",
"t 	g #141414",
"u 	g #ADADAD",
"v 	g #FCFCFC",
"w 	g #EBEBEB",
"x 	g #595959",
"y 	g #040404",
"z 	g #737373",
"A 	g #D2D2D2",
"B 	g #353535",
"C 	g #949494",
"D 	g #FDFDFD",
"E 	g #494949",
"F 	g #030303",
"G 	g #707070",
"H 	g #D3D3D3",
"I 	g #383838",
"J 	g #797979",
"K 	g #DCDCDC",
"L 	g #111111",
"M 	g #151515",
"N 	g #787878",
"O 	g #F1F1F1",
"P 	g #D5D5D5",
"Q 	g #101010",
"R 	g #717171",
"S 	g #F0F0F0",
"T 	g #E3E3E3",
"U 	g #6A6A6A",
"V 	g #323232",
"W 	g #919191",
"X 	g #DBDBDB",
"Y 	g #666666",
"Z 	g #8E8E8E",
"` 	g #E0E0E0",
" .	g #ECECEC",
"..	g #A1A1A1",
"+.	g #747474",
"@.	g #616161",
"#.	g #7A7A7A",
"$.	g #BABABA",
"%.	g #E2E2E2",
"&.	g #969696",
"*.	g #696969",
"=.	g #585858",
"-.	g #727272",
";.	g #7D7D7D",
">.	g #BFBFBF",
",.	g #F5F5F5",
"'.	g #E5E5E5",
").	g #E6E6E6",
"!.	g #A3A3A3",
"~.	g #A6A6A6",
"{.	g #EFEFEF",
"].	g #DDDDDD",
"^.	g #D6D6D6",
"/.	g #F4F4F4",
"(.	g #A8A8A8",
"_.	g #B3B3B3",
":.	g #DFDFDF",
"<.	g #EAEAEA",
"[.	g #E7E7E7",
"}.	g #E4E4E4",
"|.	g #9C9C9C",
"1.	g #B4B4B4",
"2.	g #CDCDCD",
"3.	g #DADADA",
"4.	g #989898",
"5.	g #B6B6B6",
"6.	g #DEDEDE",
"7.	g #C7C7C7",
"8.	g #C8C8C8",
"9.	g #C1C1C1",
"0.	g #B9B9B9",
"a.	g #7F7F7F",
"b.	g #C4C4C4",
"c.	g #C0C0C0",
"d.	g #BDBDBD",
"e.	g #BBBBBB",
"f.	g #C9C9C9",
"g.	g #C5C5C5",
"h.	g #9D9D9D",
"i.	g #9E9E9E",
"j.	g #9F9F9F",
"k.	g #8B8B8B",
"l.	g #A5A5A5",
"m.	g #A4A4A4",
"n.	g #A0A0A0",
"o.	g #676767",
"p.	g #757575",
"q.	g #929292",
"r.	g #CCCCCC",
"s.	g #D4D4D4",
"t.	g #808080",
"u.	g #8C8C8C",
"                                                ",
"                                                ",
"              . + @         # $ %               ",
"        & * = - ; - > , ' ) % ! ~ { ]           ",
"        ^ / - ( _ ( : < [ + ~ } | 1 2 3         ",
"      4 < 5 % ! 6 7 8 9 0 - a b b c d 4         ",
"      e f g h i j k l m [ ; b b b n o &         ",
"      f , p q | a q r f s c b b b t u v         ",
"      < w x a b b y z & A B b b b k C v         ",
"      D 3 E b b b F G e H I b b b y J &         ",
"      ^ K ) L h h M N O P 1 Q h h t R S         ",
"      ^ T U V - c # W O X Y V - c B Z , `       ",
"      D  ...+.@.{ #.$.O %.&.*.=.-.;.>.,.'.      ",
"      m , ).K !.~.'.w {.] ].o Z ^.w {.e ]       ",
"    ` /.{. .2 (._./.S  .2 ).H &.:.9 e {.<.      ",
"    T S w 2 %..._.S  .] '.%.A > ^.,.{. .]       ",
"    '. .[.}.].|.1.4 <.).%.:.A > 2.,  .] [.      ",
"    [.<.'.T 3.4.5.4 ] '.3 6.H 5 7.O <.[.).>.    ",
"    8.7.o 9.0.a.|.7.b.c.d.e._.g ~.0 f.g.b./     ",
"    h.i.i.j.4.p k.(.~.~.l.m.n.o.p.~.l.!...q.    ",
"    8.' ' r.o k._.s.H H s.s.s t.u.s.s.s.P d.    ",
"                                                ",
"                                                ",
"                                                "};
