/* XPM */
static const char * presetsNew_xpm[] = {
"24 24 113 2",
"  	c None",
". 	c #8DB4DA",
"+ 	c #81ACD8",
"@ 	c #7FABD7",
"# 	c #7EAAD7",
"$ 	c #7BA9D7",
"% 	c #7EABD7",
"& 	c #7AA8D7",
"* 	c #7FABD6",
"= 	c #EBEBEA",
"- 	c #F0F0F0",
"; 	c #EFEFEF",
"> 	c #EEEEEE",
", 	c #ECECEC",
"' 	c #EBEBEB",
") 	c #D4D4D4",
"! 	c #4584C3",
"~ 	c #3A7EC3",
"{ 	c #377BC2",
"] 	c #367BC2",
"^ 	c #377CC2",
"/ 	c #4182C5",
"( 	c #4686C7",
"_ 	c #4F8BC7",
": 	c #E3E3E3",
"< 	c #E9EAE9",
"[ 	c #E7E7E7",
"} 	c #E4E4E4",
"| 	c #E1E1E1",
"1 	c #DEDEDE",
"2 	c #CACACA",
"3 	c #3D7DC0",
"4 	c #3178C0",
"5 	c #2F76C0",
"6 	c #347AC1",
"7 	c #3B7FC4",
"8 	c #4385C6",
"9 	c #4E8AC6",
"0 	c #E5E5E5",
"a 	c #E2E2E2",
"b 	c #E0DFE0",
"c 	c #DCDCDC",
"d 	c #DADADA",
"e 	c #C7C7C7",
"f 	c #3E7EC1",
"g 	c #3379C0",
"h 	c #3177C0",
"i 	c #357BC1",
"j 	c #3D80C4",
"k 	c #4485C7",
"l 	c #4E8BC6",
"m 	c #DBDBDB",
"n 	c #DFDFDF",
"o 	c #DDDDDD",
"p 	c #D8D8D8",
"q 	c #C5C5C5",
"r 	c #4181C2",
"s 	c #3379C1",
"t 	c #3279C0",
"u 	c #397EC2",
"v 	c #4082C5",
"w 	c #4687C7",
"x 	c #508CC7",
"y 	c #DDDDDE",
"z 	c #D6D6D6",
"A 	c #C3C3C3",
"B 	c #4684C4",
"C 	c #397DC3",
"D 	c #3A7FC3",
"E 	c #3E82C5",
"F 	c #4A8AC9",
"G 	c #538EC8",
"H 	c #D5D5D5",
"I 	c #D9D9D9",
"J 	c #D7D7D7",
"K 	c #D5D5D4",
"L 	c #C1C1C1",
"M 	c #4E87C2",
"N 	c #4784C2",
"O 	c #4482C1",
"P 	c #4583C2",
"Q 	c #4885C3",
"R 	c #4C88C4",
"S 	c #518CC6",
"T 	c #598FC6",
"U 	c #C4C4C4",
"V 	c #C9C8C9",
"W 	c #C8C8C8",
"X 	c #C6C6C6",
"Y 	c #B4B4B4",
"Z 	c #D6D6D5",
"` 	c #E1E1E0",
" .	c #E0E0DF",
"..	c #DEDEDD",
"+.	c #DDDDDC",
"@.	c #EDEDED",
"#.	c #EAEBEA",
"$.	c #E0E0E0",
"%.	c #E6E6E6",
"&.	c #DEDDDE",
"*.	c #CECECE",
"=.	c #CCCCCC",
"-.	c #D4D3D3",
";.	c #DFDEDF",
">.	c #D0D0D0",
",.	c #DBDCDB",
"'.	c #CBCBCB",
").	c #D5D6D5",
"!.	c #D4D5D5",
"~.	c #D4D4D5",
"{.	c #D2D2D2",
"].	c #CFCFCF",
"^.	c #C3C4C4",
"                                                ",
"                                                ",
"    . + @ @ # $ % & *     = - - ; > , ' ' )     ",
"    ! ~ { ] ^ ~ / ( _     : ' ' < [ } | 1 2     ",
"    3 4 5 5 5 6 7 8 9     1 0 0 } a b c d e     ",
"    f g 5 5 h i j k l     m | | | n o d p q     ",
"    r ^ s t 6 u v w x     p y y o c d p z A     ",
"    B j ~ C D E k F G     H d d I p J K ) L     ",
"    M N O O P Q R S T     U V W W e X U A Y     ",
"                                                ",
"                                                ",
"    Z ` `  .n ..+.+.I                           ",
"    | > > @.#.[ : $.)                           ",
"    I [ %.%.} | &.m *.                          ",
"    z : : a | 1 c I =.                          ",
"    -.n ;.;.o m I J 2                           ",
"    >.,.m m I p z H W                           ",
"    '.).!.~.) {.>.].^.                          ",
"                                                ",
"                                                ",
"                                                ",
"                                                ",
"                                                ",
"                                                "};
