/* XPM */
static const char * record_off_xpm[] = {
"15 15 132 2",
"  	c None",
". 	c #520002",
"+ 	c #420002",
"@ 	c #3F0002",
"# 	c #350002",
"$ 	c #3E0002",
"% 	c #360002",
"& 	c #370002",
"* 	c #590006",
"= 	c #490002",
"- 	c #3F0000",
"; 	c #450002",
"> 	c #470003",
", 	c #5A0006",
"' 	c #430003",
") 	c #3B0001",
"! 	c #450200",
"~ 	c #530006",
"{ 	c #470000",
"] 	c #520001",
"^ 	c #5C0200",
"/ 	c #760002",
"( 	c #980201",
"_ 	c #6E0006",
": 	c #660004",
"< 	c #630002",
"[ 	c #3B0000",
"} 	c #3B0200",
"| 	c #5A0002",
"1 	c #4D0004",
"2 	c #610600",
"3 	c #740800",
"4 	c #990200",
"5 	c #B20201",
"6 	c #740000",
"7 	c #6E0200",
"8 	c #680200",
"9 	c #560200",
"0 	c #390100",
"a 	c #460002",
"b 	c #400000",
"c 	c #590200",
"d 	c #830800",
"e 	c #A40B00",
"f 	c #A80400",
"g 	c #B00400",
"h 	c #960400",
"i 	c #6E0400",
"j 	c #630300",
"k 	c #450000",
"l 	c #330000",
"m 	c #700000",
"n 	c #AA0300",
"o 	c #A60300",
"p 	c #AA0200",
"q 	c #B40101",
"r 	c #AC0400",
"s 	c #8E0200",
"t 	c #750000",
"u 	c #590000",
"v 	c #4B0002",
"w 	c #680100",
"x 	c #330002",
"y 	c #9D0201",
"z 	c #A70200",
"A 	c #B00201",
"B 	c #AC0001",
"C 	c #B20101",
"D 	c #C00000",
"E 	c #AE0001",
"F 	c #8C0004",
"G 	c #530004",
"H 	c #3A0000",
"I 	c #540200",
"J 	c #400002",
"K 	c #560006",
"L 	c #670006",
"M 	c #7F0000",
"N 	c #A70400",
"O 	c #990300",
"P 	c #AF0100",
"Q 	c #8E0600",
"R 	c #920400",
"S 	c #9E0001",
"T 	c #5A0004",
"U 	c #430002",
"V 	c #340000",
"W 	c #510200",
"X 	c #6A0004",
"Y 	c #6C0200",
"Z 	c #9C0200",
"` 	c #B20200",
" .	c #930300",
"..	c #610000",
"+.	c #4F0003",
"@.	c #3F0003",
"#.	c #390002",
"$.	c #450003",
"%.	c #640002",
"&.	c #6A0200",
"*.	c #6A0400",
"=.	c #710001",
"-.	c #810004",
";.	c #900004",
">.	c #650000",
",.	c #540400",
"'.	c #500200",
").	c #430000",
"!.	c #3F0004",
"~.	c #370001",
"{.	c #350000",
"].	c #590300",
"^.	c #570000",
"/.	c #510004",
"(.	c #5F0004",
"_.	c #5D0002",
":.	c #4F0200",
"<.	c #3D0000",
"[.	c #450004",
"}.	c #4D0200",
"|.	c #4C0002",
"1.	c #440002",
"2.	c #490003",
"3.	c #380000",
"4.	c #370000",
"5.	c #3E0000",
"6.	c #310000",
"7.	c #390000",
"8.	c #4A0006",
"9.	c #440004",
"0.	c #670100",
"a.	c #5E0200",
"                              ",
"        . + @ # $ % &         ",
"      * = - ; > , - ' ) !     ",
"    ~ { ] ^ / ( _ : < [ }     ",
"  | 1 ] 2 3 4 5 6 7 8 9 - 0   ",
"  a b c d e f 5 g h i j k l   ",
"  @ - m n o p q r s t u v [ w ",
"  x > y z A B C D E F G = H I ",
"  J K L M N O P Q R S T U V W ",
"  # b X Y R Z `  .8 ..| +.@.  ",
"  #.$.%.&.*.=.-.;.>.,.'.).!.  ",
"    ~.{.].*.^./.(._.:.<.$ [.  ",
"    }.} - ).a |.1.2.{ 3.}     ",
"        0 4.5.b 6.7.8.9.      ",
"            0.}.a.            "};
