/* XPM */
static const char * recordonbutton_xpm[] = {
"22 22 60 1",
" 	c None",
".	c #C8CCCF",
"+	c #EFD6D7",
"@	c #FDD3D3",
"#	c #FFCCCC",
"$	c #FFC3C3",
"%	c #FCBABA",
"&	c #EAABAC",
"*	c #AF8F94",
"=	c #C7D3D5",
"-	c #F9E2E2",
";	c #FFDDDD",
">	c #FFD4D4",
",	c #FFBBBB",
"'	c #FFB2B2",
")	c #FFAAAA",
"!	c #FFA1A1",
"~	c #F49596",
"{	c #A88C91",
"]	c #CAD3D6",
"^	c #FFE5E5",
"/	c #FF9898",
"(	c #FF9090",
"_	c #FF8787",
":	c #AB787D",
"<	c #FF7F7F",
"[	c #FF7777",
"}	c #A48184",
"|	c #FF6E6E",
"1	c #F26565",
"2	c #FF6666",
"3	c #FF5D5D",
"4	c #A86669",
"5	c #EFD7D7",
"6	c #FF5555",
"7	c #E24D4E",
"8	c #FF4C4C",
"9	c #FB4343",
"0	c #FF4343",
"a	c #FF3B3B",
"b	c #FF3333",
"c	c #FA2A2A",
"d	c #EAADAD",
"e	c #FF2A2A",
"f	c #E02728",
"g	c #B2969B",
"h	c #FF2121",
"i	c #A64C4E",
"j	c #F49595",
"k	c #F01B1B",
"l	c #A3888D",
"m	c #FF1919",
"n	c #9C6364",
"o	c #A8757A",
"p	c #A7484A",
"q	c #A07E81",
"r	c #9A6164",
"s	c #A56366",
"t	c #E02727",
"u	c #A44A4C",
"                      ",
"                      ",
"       .+@#$%&*       ",
"     =-;>#$,')!~{     ",
"    ]^;>#$,')!/(_:    ",
"   =^;>#$,')!/(_<[}   ",
"   -;>#$,')!/(_<[|1   ",
"  .;>#$,')!/(_<[|234  ",
"  5>#$,')!/(_<[|2367  ",
"  @#$,')!/(_<[|23689  ",
"  #$,')!/(_<[|23680a  ",
"  $,')!/(_<[|23680ab  ",
"  %')!/(_<[|23680abc  ",
"  d)!/(_<[|23680abef  ",
"  g!/(_<[|23680abehi  ",
"   j(_<[|23680abehk   ",
"   l_<[|23680abehmn   ",
"    o[|23680abehmp    ",
"     q13680abehkr     ",
"       s79abctu       ",
"                      ",
"                      "};
