/* XPM */
static const char * record_on_xpm[] = {
"13 13 72 1",
" 	c None",
".	c #FF0000",
"+	c #FE0000",
"@	c #FC0101",
"#	c #F80202",
"$	c #EA0707",
"%	c #F70303",
"&	c #F30505",
"*	c #E20A0A",
"=	c #E00A0A",
"-	c #EE0506",
";	c #FB0101",
">	c #E90707",
",	c #DB0C0C",
"'	c #D60E0E",
")	c #E30909",
"!	c #EF0505",
"~	c #F90202",
"{	c #FD0000",
"]	c #F60303",
"^	c #EB0707",
"/	c #DF0A0A",
"(	c #D10F0F",
"_	c #CA1111",
":	c #D70E0D",
"<	c #E10A0A",
"[	c #F00505",
"}	c #F40404",
"|	c #F60403",
"1	c #F30404",
"2	c #E70808",
"3	c #DE0B0B",
"4	c #D30E0E",
"5	c #C71313",
"6	c #C01515",
"7	c #CA1212",
"8	c #D30F0F",
"9	c #DA0D0D",
"0	c #E00B0B",
"a	c #E40909",
"b	c #E30A0A",
"c	c #D80D0D",
"d	c #D01010",
"e	c #BA1717",
"f	c #BB1717",
"g	c #C41414",
"h	c #CB1212",
"i	c #D40F0F",
"j	c #D30F10",
"k	c #CE1010",
"l	c #C91212",
"m	c #C21515",
"n	c #B91818",
"o	c #AE1B1B",
"p	c #B51A1A",
"q	c #BF1616",
"r	c #C31515",
"s	c #C11515",
"t	c #BE1616",
"u	c #B81818",
"v	c #B31A1A",
"w	c #AA1D1D",
"x	c #A51F1E",
"y	c #AF1B1B",
"z	c #B21A1A",
"A	c #B11A1B",
"B	c #A91D1D",
"C	c #A31F1F",
"D	c #9D2121",
"E	c #A02020",
"F	c #9F2121",
"G	c #9C2121",
"    .+++.    ",
"  ..++.++++  ",
" .++.......@ ",
" @+......+.# ",
"$%.+......+&*",
"=-;.......%>,",
"')!~{..+@]^/(",
"_:<$[}|1!2345",
"67890)ab3cd5e",
" fghd8ijklmn ",
" opeqmrstuvw ",
"  xwyzzAoBC  ",
"    DEEFG    "};
