/* XPM */
static const char * reddot_xpm[] = {
"12 16 2 1",
" 	c None",
".	c #FF0000",
"            ",
"            ",
"            ",
"     ..     ",
"    ....    ",
"   ......   ",
"  ........  ",
"  ........  ",
"  ........  ",
"   ......   ",
"    ....    ",
"     ..     ",
"            ",
"            ",
"            ",
"            "};
