/* XPM */
static const char * routing_output_button_slim_4_xpm[] = {
"16 11 39 1",
" 	c None",
".	c #39342D",
"+	c #1C1A16",
"@	c #504A3E",
"#	c #5D5C5B",
"$	c #2E2D2D",
"%	c #534E42",
"&	c #7C786F",
"*	c #575553",
"=	c #A29F99",
"-	c #313131",
";	c #696359",
">	c #FFFFFF",
",	c #FEFDFD",
"'	c #5D5D5C",
")	c #191918",
"!	c #534C3F",
"~	c #595041",
"{	c #8A8479",
"]	c #28241D",
"^	c #8E8980",
"/	c #151310",
"(	c #676053",
"_	c #5A5346",
":	c #585244",
"<	c #A0988D",
"[	c #221F1A",
"}	c #14120E",
"|	c #938E84",
"1	c #797367",
"2	c #565045",
"3	c #151414",
"4	c #91897D",
"5	c #100F0C",
"6	c #B2ACA2",
"7	c #656565",
"8	c #0C0C0B",
"9	c #0F0F0F",
"0	c #070707",
"                ",
"             ..+",
"            @#$$",
"  % &*&*&&&&&=--",
";>,@>>'>'>>>>>>)",
"!~{>~~~]~]~~~~^/",
"(_~:<<[<[<<<<<~}",
" |1 232322222455",
"            6788",
"             990",
"                "};
