/* XPM */
static const char * routing_midi_output_button_slim_xpm[] = {
"16 11 44 1",
" 	c None",
".	c #211D18",
"+	c #39342D",
"@	c #1C1A16",
"#	c #151414",
"$	c #504A3E",
"%	c #343332",
"&	c #5D5C5B",
"*	c #2E2D2D",
"=	c #000000",
"-	c #575553",
";	c #7C786F",
">	c #434343",
",	c #646464",
"'	c #313131",
")	c #221F1A",
"!	c #FFFFFF",
"~	c #5D5D5C",
"{	c #343330",
"]	c #4D4C49",
"^	c #262624",
"/	c #28241D",
"(	c #595041",
"_	c #16130F",
":	c #2B2721",
"<	c #151310",
"[	c #A0988D",
"}	c #9C9489",
"|	c #14120D",
"1	c #14120E",
"2	c #413F3D",
"3	c #565045",
"4	c #0F0E0B",
"5	c #211E19",
"6	c #100F0C",
"7	c #B2ACA2",
"8	c #100F0E",
"9	c #171614",
"0	c #191816",
"a	c #0C0C0B",
"b	c #050505",
"c	c #0D0D0D",
"d	c #0F0F0F",
"e	c #070707",
"                ",
"      .+++++@   ",
"  #$$$$%&&&&&*  ",
" #=-;;;;>,,,,,' ",
")!=!~!!!!{]]]]]^",
"/===/((((_:::::<",
"~!=!)[[[}|/////1",
" 2!#33334555556 ",
"  )7777890000a  ",
"      bcdddde   ",
"                "};
