/* XPM */
static const char * settings_midisync_xpm[] = {
"16 16 34 1",
" 	c None",
".	c #7C7C7C",
"+	c #787878",
"@	c #818181",
"#	c #747474",
"$	c #757575",
"%	c #000000",
"&	c #636363",
"*	c #8C8C8C",
"=	c #909090",
"-	c #939393",
";	c #8A8A8A",
">	c #7F7F7F",
",	c #9A9A9A",
"'	c #777777",
")	c #949494",
"!	c #828282",
"~	c #9E9E9E",
"{	c #999999",
"]	c #888888",
"^	c #979797",
"/	c #929292",
"(	c #969696",
"_	c #9B9B9B",
":	c #858585",
"<	c #848484",
"[	c #898989",
"}	c #7A7A7A",
"|	c #7E7E7E",
"1	c #808080",
"2	c #838383",
"3	c #737373",
"4	c #6A6A6A",
"5	c #676767",
"                ",
"                ",
"      .+@#$%    ",
"     &    **%   ",
"           =%   ",
"   +%      #%   ",
"  -;>%     >%   ",
" +;,'.% )!-~{)]%",
"^/(_{-]% :,<[!% ",
"   }@%    .|>%  ",
"   12%     <%   ",
"   }<%%         ",
"    34%  4%     ",
"     }55}%      ",
"                ",
"                "};
