/* XPM */
static const char * settings_globalsettings_xpm[] = {
"16 16 70 1",
" 	c None",
".	c #BDBDBD",
"+	c #000000",
"@	c #B0B0B0",
"#	c #ABABAB",
"$	c #CAC8C1",
"%	c #B5B5B5",
"&	c #EBEBE8",
"*	c #D7D7D7",
"=	c #D8D8D8",
"-	c #C4C4C4",
";	c #F9F8F8",
">	c #BBBBBB",
",	c #828282",
"'	c #D2D0CC",
")	c #F7F7F7",
"!	c #DEDBD6",
"~	c #9C9C9C",
"{	c #7B7B7B",
"]	c #7D7D7D",
"^	c #D2D2D2",
"/	c #D3D2CF",
"(	c #E3E2E1",
"_	c #DFDEDC",
":	c #DBDAD7",
"<	c #A4A19C",
"[	c #5F5F5F",
"}	c #292929",
"|	c #D3D3D3",
"1	c #1C1C1C",
"2	c #D2D1D0",
"3	c #50504F",
"4	c #101010",
"5	c #3A3A3A",
"6	c #494746",
"7	c #D1D1D1",
"8	c #DADADA",
"9	c #363636",
"0	c #C8C7C6",
"a	c #6C6967",
"b	c #CCCCCC",
"c	c #708295",
"d	c #CFD6DD",
"e	c #7C91A7",
"f	c #D6D5D5",
"g	c #8A8784",
"h	c #C9C9C9",
"i	c #7D8C9C",
"j	c #788DA4",
"k	c #7F99B3",
"l	c #1F272F",
"m	c #ECEBEA",
"n	c #72706D",
"o	c #CBCBCB",
"p	c #8D99A5",
"q	c #748AA2",
"r	c #849EB9",
"s	c #4D5F73",
"t	c #D5D4D3",
"u	c #6B6A69",
"v	c #7D91A7",
"w	c #849EBA",
"x	c #D6D6D6",
"y	c #525252",
"z	c #717171",
"A	c #484848",
"B	c #66798F",
"C	c #CACACA",
"D	c #6F6F6F",
"E	c #8D8D8D",
"                ",
"    .+@      #+#",
"    +$+#    #+%+",
"     +&+*   +=+#",
" -+  +;+>  ,++# ",
" +'++)!+~ {+]   ",
" ^+/(_:<+[}{    ",
"  |+1++23+[     ",
"       456+78   ",
"    +++9+0a+b   ",
"   +cde+ +fg+h8 ",
"  +idjkl -+mn+o ",
" +pdqrs+   +tu+b",
" +dvws+^   x+2yz",
" AvBs+C      ++D",
" EA++>          "};
