/* XPM */
static const char * speaker_xpm[] = {
"18 18 2 1",
" 	c None",
".	c #000000",
"                  ",
"            ..    ",
"           . .    ",
"          .  .    ",
"         .   .    ",
"    .....    .    ",
"    .        .    ",
"    .        .    ",
"    .        .    ",
"    .        .    ",
"    .        .    ",
"    .        .    ",
"    .....    .    ",
"         .   .    ",
"          .  .    ",
"           . .    ",
"            ..    ",
"                  "};
