/* XPM */
static const char*toc_xpm[]={
"18 18 6 1",
"d c #a0a0a0",
"# c #c0c0c0",
"a c #000000",
". c None",
"c c #00c000",
"b c #ffffff",
"..................",
"..................",
".#aaaaaaaaaaa.....",
".#a...abbba#a#....",
".#a#c#abbba#.aa#..",
".#a.c.abbba###a#..",
".#a.c.abbbaaaaa#..",
".#a#c#abbbbbbba#..",
".#a.c.abdddbbba#..",
".#a.c.abbbbbbba#..",
".#a#c.abbddddba##.",
".#a#c.abbbbbbba##.",
".#a#c.abbbbbbba##.",
".#a#c.abddddbba##.",
".#a...abbbbbbba#..",
".#aaaaaaaaaaaaa#..",
"..............###.",
".................."};
