/* XPM */
static const char* const user_xpm[] = { 
"34 34 296 2",
".a c None",
".# c None",
"Qt c None",
".b c #000000",
".s c #000400",
".o c #00406a",
"bM c #00446a",
"#O c #00487b",
"bD c #004c73",
".g c #080408",
"cr c #080808",
"#Q c #08619c",
"#y c #08659c",
"cF c #101410",
"bu c #105083",
"bE c #105583",
"bt c #105994",
"bw c #106194",
"cE c #181418",
"bT c #181c18",
".y c #185d8b",
"bv c #185d94",
".p c #18618b",
"bm c #18659c",
"bn c #18699c",
"bx c #1869a4",
"#6 c #1891d5",
"#7 c #1895e6",
"b4 c #202020",
"cq c #202420",
"ba c #206994",
"a1 c #2071ac",
"a2 c #20759c",
"be c #2075a4",
"bN c #292829",
"bU c #292c29",
"b# c #29699c",
"a0 c #296d94",
"#P c #29759c",
"bc c #2975a4",
"bd c #2979ac",
"a3 c #297db4",
"a# c #2981a4",
"aP c #2981ac",
"ak c #2981cd",
"a4 c #2985bd",
"a5 c #2989ac",
"#G c #2989b4",
"#F c #2989bd",
"#o c #298db4",
"aQ c #298dbd",
"#T c #29a1e6",
"aB c #312c31",
".A c #313031",
"bb c #3175a4",
".x c #3179a4",
"#g c #3179ac",
"#4 c #317da4",
"#w c #317dac",
"bf c #3181b4",
"#E c #318db4",
"ac c #318dbd",
"#H c #3191c5",
".6 c #3195bd",
"#q c #3195c5",
"#A c #31aade",
"aK c #392c39",
".c c #393c39",
"bC c #3975a4",
"bL c #3979a4",
".n c #397dac",
"#X c #398db4",
"aH c #3991bd",
"#W c #3991c5",
"#p c #3995c5",
"ad c #3999c5",
".4 c #39b2de",
"#B c #39b2e6",
".d c #413c41",
".h c #414041",
"aT c #414441",
"ck c #41444a",
"bF c #4179ac",
"at c #4199c5",
"#m c #41b2e6",
"am c #4a3c4a",
"aI c #4a404a",
"a6 c #4a444a",
"ax c #4a484a",
"bh c #4a4c4a",
"bl c #4a718b",
"bs c #4a758b",
".7 c #4a9dcd",
"au c #4aa1cd",
".5 c #4abae6",
"al c #524852",
"aU c #525052",
"#N c #52819c",
"by c #528db4",
"#I c #52a1c5",
".8 c #52a5c5",
"#r c #52a5cd",
"#l c #52b6ee",
"bR c #5a1c08",
"a7 c #5a4c5a",
"aA c #5a595a",
"cG c #5a5d5a",
"av c #5aaad5",
"cH c #622c31",
"bk c #626162",
"aD c #62798b",
"#x c #6285a4",
"aq c #6295bd",
"as c #6299b4",
"bo c #62a1cd",
"aa c #62a5cd",
"cK c #6a2000",
"cw c #6a3031",
"bq c #6a656a",
"bO c #6a6d6a",
"b. c #6a8194",
"#h c #6a899c",
"aj c #6aaade",
".9 c #6ab2d5",
"c# c #732000",
"ch c #732400",
"cz c #732800",
"a9 c #736d73",
"aV c #737173",
"ab c #73919c",
"a. c #7391ac",
"aO c #73a5cd",
"aE c #73aecd",
"#. c #73b6cd",
".T c #73b6de",
".S c #73bed5",
".R c #73bede",
"cL c #7b797b",
"cc c #7b7d7b",
"ap c #7b8da4",
"#D c #7b9dbd",
"bg c #7bb2c5",
"ag c #7bbad5",
"cp c #832800",
"cd c #83444a",
"cj c #837d83",
"a8 c #838183",
"bS c #838583",
"#J c #8399a4",
"#0 c #8399ac",
"#V c #839db4",
"ae c #83a5bd",
"cl c #8b444a",
".i c #8b898b",
"#n c #8ba5bd",
"## c #8bc2e6",
".J c #8bc6de",
"b0 c #945531",
"cu c #948594",
"bZ c #948994",
"bp c #949194",
"#S c #949594",
"ao c #94b2cd",
"#a c #94c6de",
".U c #94c6e6",
"cJ c #9c4008",
"bQ c #9c5531",
"b7 c #9c616a",
"#c c #9c8d9c",
"bX c #9c919c",
"aJ c #9c959c",
"b6 c #9c999c",
"bB c #9cb2c5",
"ah c #9ccae6",
"b3 c #a44008",
"cI c #a44410",
"aR c #a499a4",
"#5 c #a49da4",
"bY c #a4a1a4",
"#t c #a4b6c5",
"ai c #a4cede",
"ar c #a4ceee",
".K c #a4d2ee",
"c. c #ac5000",
"cB c #ac5518",
"bP c #ac754a",
"cb c #aca1ac",
"bH c #aca5ac",
"bz c #acaaac",
"bI c #acaeac",
"#Y c #acbed5",
".M c #acd2e6",
".L c #acd2ee",
"cD c #b45000",
"b5 c #b4aab4",
"bi c #b4aeac",
"bj c #b4aeb4",
"az c #b4b2b4",
"#d c #b4b6b4",
"aZ c #b4c6de",
"#u c #b4d6ee",
"co c #bd5908",
"b1 c #bd998b",
"#i c #bdb2bd",
"bA c #bdb6b4",
"ct c #bdb6bd",
"bW c #bdbabd",
"aG c #bdc2c5",
".Y c #bdd2ee",
"#K c #bddaee",
".B c #bddef6",
"cg c #c55d08",
".Z c #c5b6c5",
".j c #c5bac5",
".q c #c5bec5",
"bG c #c5c2c5",
"cv c #c5c6c5",
"bK c #c5cade",
"af c #c5d6e6",
"#s c #c5daf6",
".N c #c5deee",
".C c #c5def6",
".v c #c5e2ee",
".D c #c5e2f6",
"cC c #cd5d08",
"bJ c #cdbecd",
"bV c #cdc2cd",
".2 c #cdc6cd",
"cA c #cdcacd",
"cs c #cdcecd",
"aF c #cddade",
"#R c #cddeee",
"#L c #cde2ee",
".F c #cde2f6",
".t c #cde6f6",
"cy c #d56910",
"cf c #d58139",
"cx c #d59d83",
"aS c #d5cad5",
"ca c #d5cecd",
"#e c #d5ced5",
"#j c #d5d2d5",
"#f c #d5d6d5",
"br c #d5d6e6",
"an c #d5daee",
"#9 c #d5e2ee",
"#1 c #d5e2f6",
".O c #d5e6f6",
".E c #d5e6ff",
".V c #d5eaff",
"cn c #de8541",
"cm c #debaa4",
".0 c #ded2de",
".k c #ded6de",
".P c #dedade",
"ay c #dedede",
"#U c #dedeee",
"aW c #dee2ee",
"aC c #dee6ee",
"#v c #dee6f6",
"#8 c #deeaf6",
"#3 c #deeaff",
"#C c #deeef6",
".u c #deeeff",
"b9 c #e69962",
"b8 c #e6cab4",
".r c #e6d6e6",
"ci c #e6dade",
".I c #e6dae6",
"#z c #e6dee6",
"aL c #e6e2f6",
"#k c #e6e6e6",
"aM c #e6e6f6",
"aX c #e6eaf6",
"aN c #e6eaff",
"#M c #e6eeff",
"b2 c #eecac5",
".1 c #eee2ee",
".f c #eee6ee",
"aw c #eeeaee",
"aY c #eeeaff",
"#Z c #eeeeff",
".W c #eef2ff",
"#b c #eef6ff",
"ce c #f6d2c5",
".3 c #f6eaf6",
".z c #f6eef6",
".Q c #f6f2f6",
"#2 c #f6f2ff",
".l c #f6f6f6",
".X c #f6f6ff",
".w c #f6faff",
".G c #fff2ff",
".H c #fff6ff",
".m c #fffaff",
".e c #ffffff",
"Qt.#Qt.#Qt.#Qt.#Qt.#Qt.#Qt.#Qt.#Qt.#Qt.#Qt.#Qt.#Qt.#Qt.#Qt.#Qt.#Qt.#",
".aQt.aQt.aQt.aQt.b.b.c.b.bQt.aQt.aQt.aQt.aQt.aQt.aQt.aQt.aQt.aQt.aQt",
"Qt.#Qt.#Qt.#Qt.d.e.e.f.b.g.c.b.bQt.#Qt.#Qt.#Qt.#Qt.#Qt.#Qt.#Qt.#Qt.#",
".aQt.aQt.a.h.c.h.i.j.k.e.l.f.b.b.c.b.bQt.aQt.aQt.aQt.aQt.aQt.aQt.aQt",
"Qt.#Qt.#Qt.d.e.m.n.o.p.i.q.r.e.m.f.b.s.c.b.bQt.d.g.d.b.bQt.#Qt.#Qt.#",
".aQt.aQt.a.h.t.u.v.w.e.x.o.y.i.j.k.e.m.z.s.s.b.e.e.f.b.b.A.b.bQt.aQt",
"Qt.#Qt.#Qt.d.B.C.D.D.E.F.w.e.n.o.p.i.q.k.z.G.m.H.m.H.m.e.I.b.b.bQt.#",
".aQt.aQt.a.h.J.K.J.L.M.C.N.O.v.w.e.x.o.y.i.k.P.z.l.H.Q.m.l.z.b.b.bQt",
"Qt.#Qt.#Qt.d.R.S.T.T.U.U.L.L.D.D.V.W.X.Y.p.Z.0.I.1.2.I.f.H.3.g.b.b.#",
".aQt.aQt.a.h.4.5.6.7.8.9#.###a.L.M.C.v#b.o#c#d#e#f#g#h#i#j.f#k.s.b.b",
"Qt.#Qt.#Qt.d#l#m#n#o#p#q#r.8.T#s#t.U#u#v#w.o#x.i.q.o.n.o#y.i#z.b.b.b",
".aQt.aQt.a.h#A#B#C#D#E#F#G#H#I.E#J.9#a#K#L#M#N#O#P#Q#R.w.e.x#S.s.b.b",
"Qt.#Qt.#Qt.d#T#T.W#U#V#G#W#X#Y#Z#0#q#r.8.U#u#1#2#3#4.E.t.V.e#5.b.b.b",
".aQt.aQt.a.h#6#7#8#1#9a.a#aa#8.Wabac#Gadaeafagahai.C#a.L.M.e#S.s.b.b",
"Qt.#Qt.#.h.bajakal.hamanao.O.W#Zap#Gaqar#basatauav.8.T.T.U.W#5.b.b.b",
".aQt.aQt.c.bawaxayazaAaBaC#M#8#ZaDaEaF.WaGaH#Eac#o#H.6.7.8.V#S.s.b.b",
"Qt.#Qt.#aI.bal#z.2aJ.iaAaKaL#ZaM#ZaN.WaMaOaPac#G#W#EaQ#o#p.LaR.b.b.b",
".aQt.aQt.daxayaSaTaUaTaVaAaBaWaXaCaYaCaZa0a1a2a3aPa4a5ac#Eah#S.s.b.b",
"Qt.#Qt.#al#z.2a6a7a8a7a6a9aAaK.H.WaMaMb.b#babbbcbdbebfaPacbgaR.b.b.b",
".aQt.aaxay.2aTbhbi.fbjbhaTbkaAaB.m.e.l#ZaWaXaCanblbmbna1a2bobp.s.b.b",
"Qt.#al#z#ia6a7az.f.e.faza7a6bqaAaK.m.e.m.e.HbrbsbtbubvbwbxbyaR.b.b.b",
".aaxayaJaTbhbi.f.m.e.m.QbzbhaTbkaAaB.l.e.l.fbA.IbBbCbDbEbubFbp.s.b.b",
"albGbHa6a7bI.f.e.e.e.e.e.z#da7a6bqaAaK.m#zbiaSbJ.2.2.IbKbLbMaR.b.b.b",
".baxbN.AbO#e.m.mbPbQbR.e.e.fbSbTbNbU#k.e#k.fbibVbW.q#jbXbIa6bY.s.b.b",
".b.b.b.AbZ.I.eb0b1b2b3bR.e.1#5b4.e.m.e.H.e.H.e.HbV.0bZbI.0a6b5.b.b.b",
".a.b.b.Ab6.f.mb7b8b9c.c#.m.fb6.b.l.e.l.m.l.m.l.mcacbbI.0cca6bY.s.b.b",
"Qt.#Qt.Acb.1.ecdcecfcgch.e.1cb.b.H.H.e.H.e.Gci.0bZaz.kcjbjckb5.b.b.b",
".aQt.a.Ab6.f.mclcmcncocp.m.fb6.bcqcrcs.m.lctbGcuaz.0ccbjcva6bY.s.b.b",
"Qt.#Qt.Acb.1.ecwcxcycgcz.e.1cb.b.b.b.b.bcr.G.kbA.0ccazcAcja6bz.b.b.b",
".aQt.a.Ab6.f.mcwcBcCcDch.m.fb6.b.b.b.b.b.bcEcFaUcGcbcAccbYa6bY.s.b.b",
"Qt.#Qt.AaJ#e.3cHcIcJcIcK.3#eaJ.b.b.b.b.b.b.b.b.b.g.baIcL#5bMaR.b.b.b",
".aQt.a.b.b.b.b.b.b.b.b.b.b.b.b.b.b.b.aQt.a.b.b.b.b.b.b.s.b.s.b.b.b.b",
"Qt.#Qt.b.b.b.b.b.b.b.b.b.b.b.b.b.b.bQt.#Qt.#Qt.#.b.b.b.b.b.b.b.b.b.b",
".aQt.aQt.b.b.b.b.b.b.b.b.b.b.b.b.bQt.aQt.aQt.aQt.aQt.a.b.b.b.b.b.bQt"};
