/* XPM */
static const char * velo_all_xpm[] = {
"15 15 5 1",
" 	c None",
".	c #58A8FF",
"+	c #000000",
"@	c #FFFFFF",
"#	c #ED7700",
"...............",
".++++@.........",
".+++++.+.+.+##.",
".++++@......##.",
".@@@@@......##.",
".@@@@@......##.",
".++++@......##.",
".++++++.+##.##.",
".++++@...##.##.",
".@@@@@...##.##.",
".@@@@@...##.##.",
".++++@...##.##.",
".+++++##.##.##.",
".++++@##.##.##.",
"..............."};
