/* XPM */
static const char * velo_per_note_xpm[] = {
"15 15 7 1",
" 	c None",
".	c #58A8FF",
"+	c #000000",
"@	c #FFFFFF",
"#	c #D6D600",
"$	c #FFFF00",
"%	c #ED7700",
"...............",
".++++@.........",
".+++++.........",
".++++@.........",
".@@@@@.........",
".@@@@@.........",
".####@.........",
".#$$$#+.+%%....",
".####@...%%....",
".@@@@@...%%....",
".@@@@@...%%....",
".++++@...%%....",
".+++++...%%....",
".++++@...%%....",
"..............."};
