/* XPM */
static const char * view_cliplist_xpm[] = {
"16 16 13 1",
" 	c None",
".	c #5E2ABF",
"+	c #945BFD",
"@	c #000000",
"#	c #DCDCDC",
"$	c #CACACA",
"%	c #E6E6E6",
"&	c #EAEAEA",
"*	c #FFFFFF",
"=	c #FCFCFC",
"-	c #461F8E",
";	c #FBFBFB",
">	c #F9F9F9",
"................",
".+@@@@@@@@@@+++.",
".+@####$###@@++.",
".+@%&@***@*@@@+.",
".+@%@@#&@@#*=@-.",
".+@%@@#*@@#@=@-.",
".+@;&@#**@#*@@-.",
".+@;&&#&&*#@=@-.",
".+@;&@***@*=@@-.",
".+@%@@#&@@#@>@-.",
".+@%@@#*@@#=@@-.",
".+@%%@#;;@#@=@-.",
".+@;%%#;%;#;#@-.",
".+@@@@@@@@@@@@-.",
".++------------.",
"................"};
