/* XPM */
static const char * zoom_in_at_xpm[] = {
"16 16 7 1",
" 	c None",
".	c #000000",
"+	c #A0A0A4",
"@	c #DCDCDC",
"#	c #FFFFFF",
"$	c #103A2D",
"%	c #83EF42",
".....           ",
"....            ",
"...             ",
"..  +...+       ",
".  +.@#@.+      ",
"   .##+##.      ",
"   .#+###.      ",
"   .#####.      ",
"   +.@#@..      ",
"    +......     ",
" $%$ ++++...    ",
"$$%$$    +...   ",
"%%%%%    ++...  ",
"$$%$$     ++..  ",
" $%$       +++  ",
"                "};
