/* XPM */
static const char *draw_xpm[]={
"18 18 4 1",
". c None",
"# c #000040",
"b c #c3c3c3",
"a c #ffffff",
"..................",
"..........###.....",
"..........#a#.....",
".........####.....",
"........#b..#.....",
".......#b....#....",
"......#b.....#....",
".....#bb......#...",
"....#bb.......###.",
".###bb........#a#.",
".#a#b.........###.",
".###b.............",
"..................",
"..................",
"..................",
"..................",
"..................",
".................."};
