/* XPM */
static const char * midi_inputplugins_random_rhythm_generator_xpm[] = {
"16 16 48 1",
" 	c None",
".	c #58A8FF",
"+	c #A8DCFF",
"@	c #828181",
"#	c #1E1C1C",
"$	c #FFFFFF",
"%	c #C6C5C5",
"&	c #4984C5",
"*	c #646464",
"=	c #4B4949",
"-	c #504E4E",
";	c #5D5B5B",
">	c #9B9A9A",
",	c #626060",
"'	c #464545",
")	c #7E7D7D",
"!	c #9F9E9E",
"~	c #575555",
"{	c #4A4848",
"]	c #85ABC5",
"^	c #8A8989",
"/	c #363535",
"(	c #2A2828",
"_	c #2B2929",
":	c #2F2D2D",
"<	c #3A3838",
"[	c #514F4F",
"}	c #605E5E",
"|	c #535252",
"1	c #2E2C2C",
"2	c #2C2A2A",
"3	c #656464",
"4	c #545353",
"5	c #6E6D6D",
"6	c #5B5A5A",
"7	c #312F2F",
"8	c #4D4C4C",
"9	c #373535",
"0	c #252323",
"a	c #4F4E4E",
"b	c #333131",
"c	c #272525",
"d	c #403E3E",
"e	c #777676",
"f	c #232121",
"g	c #434141",
"h	c #282626",
"i	c #6B879A",
"................",
".+++++++@#@++++.",
".+$$$$$$###%@#@.",
".+$$$$$$@#@%###&",
".+*=--;$$#>%@#@&",
".,'))!~{$#%$$#]&",
".^/(_:<[%#%$$#].",
".}|12<34%#%$$#].",
".56:(7|5%#%$$#].",
".58907|5%#%$$#].",
".5abcda5%#%$$#].",
".e69fg6e%#%$$#].",
".]69cd6>%#%$$#].",
".+3gh93>$$%$$#].",
".++9h9]]++++++i.",
"...9#d&........."};
