/* XPM */
/* Drawn  by Mark Donohoe for the K Desktop Environment */
/* See http://www.kde.org */
static const char*pointer_xpm[]={
"18 18 4 1",
"# c #000000",
"a c #000080",
"b c #808080",
". c None",
"..................",
"..................",
".....#............",
".....##...........",
".....###..........",
".....####.........",
".....#####........",
".....######.......",
".....#######......",
".....########.....",
".....#####........",
".....##.##........",
".....#...##.......",
".........##.......",
"..........##......",
"..........##......",
"..................",
".................."};

