/* XPM */
static char * rmark_xpm[] = {
"18 18 35 1",
" 	c None",
".	c #349400",
"+	c #86DE3E",
"@	c #85DD3D",
"#	c #8DE04A",
"$	c #ADE87E",
"%	c #60BE22",
"&	c #8BE145",
"*	c #87E145",
"=	c #9FE66A",
"-	c #7CCE46",
";	c #8FE44A",
">	c #8EE448",
",	c #9BE862",
"'	c #9BDE6A",
")	c #66BB37",
"!	c #90E850",
"~	c #8FE74F",
"{	c #98E95D",
"]	c #AFED81",
"^	c #62BA2C",
"/	c #98EB55",
"(	c #9AEB59",
"_	c #B6F18B",
":	c #70C23A",
"<	c #B1F381",
"[	c #7FD54B",
"}	c #5DB62C",
"|	c #ACF07A",
"1	c #98E163",
"2	c #4DB012",
"3	c #B0ED7F",
"4	c #4DB30F",
"5	c #44AD05",
"6	c #80C15D",
"                  ",
"                  ",
"                  ",
"                  ",
"                  ",
"                  ",
"                  ",
"        ......... ",
"        ++++@#$%  ",
"        &&&&*=-   ",
"        ;;;>,')   ",
"        !!~{]^    ",
"        //(_:     ",
"        //<[}     ",
"        ||12      ",
"        334       ",
"        55        ",
"        66        "};
