/* XPM */
static const char *select_deselect_all[]={
"16 16 3 1",
". c #000000",
"a c #ff0000",
"# c #ffffff",
"..#..#..#..#..#.",
"###############.",
".#aa########aa##",
".#aaa######aaa#.",
"###aaa####aaa##.",
".###aaa##aaa####",
".####aaaaaa####.",
"######aaaa#####.",
".#####aaaa######",
".####aaaaaa####.",
"####aaa##aaa###.",
".##aaa####aaa###",
".#aaa######aaa#.",
"##aa########aa#.",
".###############",
".#..#..#..#..#.."};
