/* XPM */
static const char * settings_midiport_softsynths_xpm[] = {
"16 16 10 1",
" 	c None",
".	c #000000",
"+	c #CECECE",
"@	c #313131",
"#	c #939393",
"$	c #797979",
"%	c #595959",
"&	c #282828",
"*	c #A6A6A6",
"=	c #484848",
"      ....      ",
"     .    .     ",
"     ..  ..+    ",
"      @..@+     ",
"      #..$+     ",
"     ......     ",
"       ..+++    ",
"       ..+      ",
"    $$ ..+$$    ",
"  ...  ..+ ...  ",
"  ..$  ..+ $..  ",
" $.%.. ..+..$.$ ",
" $ +&......@++$ ",
"    *=....%++   ",
"      =..=++    ",
"       ++++     "};
