/* XPM */
static const char* down_xpm[]={
"14 10 2 1",
"# c #000000",
". c None",
"..............",
"......##......",
"......##......",
"......##......",
"......##......",
"...##.##.##...",
"....######....",
".....####.....",
"......##......",
".............."};
