/* XPM */
static const char * midi_ctrl_graph_merge_erase_inclusive_xpm[] = {
"16 16 3 1",
" 	c None",
".	c #FF9200",
"+	c #729FCF",
"                ",
"                ",
"                ",
".               ",
"..              ",
"..              ",
"..        +     ",
"..        +     ",
"..+++++++++     ",
"..+++++++++     ",
"..+++++++++     ",
"..+++++++++     ",
"..+++++++++..   ",
"..+++++++++...  ",
"..+++++++++.... ",
"..+++++++++....."};
