/* XPM */
static const char * select_all_parts_on_track_xpm[] = {
"16 16 20 1",
" 	c None",
".	c #000100",
"+	c #FEFFFC",
"@	c #FDF7F6",
"#	c #FFFFFF",
"$	c #F8FEFF",
"%	c #F4F1E9",
"&	c #AA8747",
"*	c #9E772E",
"=	c #8A5C04",
"-	c #0F0F0F",
";	c #000000",
">	c #95702B",
",	c #CECECE",
"'	c #F3F3F3",
")	c #AE8E51",
"!	c #FDFDFD",
"~	c #FCFCFC",
"{	c #926716",
"]	c #2B2B2B",
"..+..+..+..+..+.",
"+++++++++++++++.",
".@#############+",
".+#############.",
"$%#############.",
".&*##=*##=*##=*#",
"-;;;;;;;;;;;;;;;",
">*,'=),,=*,,=*,#",
"*,!=),,=*,,=*,#=",
",~{*,#=*,#=*##=;",
";;;;;;;];;;;;;;;",
"#=*,#=*,#=*##=*#",
".##############;",
"###############;",
".###############",
".+..+..+..+..+.."};
