<?xml version="1.0" encoding="UTF-8"?>
<svg id="SVGRoot" width="64px" height="64px" version="1.1" viewBox="0 0 64 64" xmlns="http://www.w3.org/2000/svg">
 <g transform="translate(.019682 -1.4412)" fill="#f00" stroke="#000" stroke-linecap="round" stroke-linejoin="round" stroke-width="2" style="paint-order:stroke fill markers">
  <path transform="translate(-.019682 1.4412)" d="m32.039 2.5586c-4.6025-0.17537-9.6073 3.5899-9.1113 8.5156 0.17096 3.5437 3.5531 5.8912 6.3281 7.0137l-0.31055 5.1191h-6.0488v4.918h5.748l-1.6445 20.875c-1.2153 3.2945-5.2304 4.5879-8.3984 3.3691-4.1936-1.2211-6.1913-4.9335-6.998-8.3242 1.6217-0.30078 3.2435-0.60168 4.8652-0.90234l-8.4297-4.6797-5.4395 7.25c1.2721-0.23568 2.5444-0.47118 3.8164-0.70703 0.58399 3.9941 1.0867 5.2066 2.584 7.9941 2.1848 4.902 4 7 11 8 4 0 7 0 12-3 4.9411 3.2553 7.3018 3.942 13 3 3.9179-0.65916 8.1182-4.9168 10-8s2.3645-5.6066 2.4238-8.0391l4.0547 0.75195c-1.8134-2.4172-3.6262-4.8328-5.4395-7.25l-8.4277 4.6797 5.043 0.93555c-1.3796 4.4547-4.1804 7.9998-8.5859 8.5645-3.0572 0.89146-6.0007-1.2697-7.0957-3.9863l-1.6738-20.531h5.8828v-4.918h-6.1699l-0.30469-5.2617c4.2301-0.92458 7.7418-5.543 6.0625-9.8516-1.2877-3.5164-5.1063-5.5702-8.7305-5.5352zm0.55078 3.9219c2.7409 0.14895 5.1694 3.289 3.4746 5.8301-2.0332 3.4235-8.5166 2.359-8.5957-1.8848-0.02562-2.3722 2.3645-3.9991 4.5703-3.9336 0.18438-0.017715 0.36805-0.021649 0.55078-0.011719z" color="#000000" color-rendering="auto" dominant-baseline="auto" fill="#37abc8" image-rendering="auto" shape-rendering="auto" solid-color="#000000" stop-color="#000000" stroke="#000" stroke-linecap="round" stroke-linejoin="round" stroke-width="2" style="font-feature-settings:normal;font-variant-alternates:normal;font-variant-caps:normal;font-variant-east-asian:normal;font-variant-ligatures:normal;font-variant-numeric:normal;font-variant-position:normal;font-variation-settings:normal;inline-size:0;isolation:auto;mix-blend-mode:normal;paint-order:stroke fill markers;shape-margin:0;shape-padding:0;text-decoration-color:#000000;text-decoration-line:none;text-decoration-style:solid;text-indent:0;text-orientation:mixed;text-transform:none;white-space:normal"/>
 </g>
</svg>
