<?xml version="1.0" encoding="UTF-8"?>
<!DOCTYPE svg PUBLIC "-//W3C//DTD SVG 1.1//EN" "http://www.w3.org/Graphics/SVG/1.1/DTD/svg11.dtd">
<svg version="1.2" width="16mm" height="16mm" viewBox="0 0 1600 1600" preserveAspectRatio="xMidYMid" fill-rule="evenodd" stroke-width="28.222" stroke-linejoin="round" xmlns="http://www.w3.org/2000/svg" xmlns:ooo="http://xml.openoffice.org/svg/export" xmlns:xlink="http://www.w3.org/1999/xlink" xmlns:presentation="http://sun.com/xmlns/staroffice/presentation" xmlns:smil="http://www.w3.org/2001/SMIL20/" xmlns:anim="urn:oasis:names:tc:opendocument:xmlns:animation:1.0" xml:space="preserve">
 <defs class="ClipPathGroup">
  <clipPath id="presentation_clip_path" clipPathUnits="userSpaceOnUse">
   <rect x="0" y="0" width="1600" height="1600"/>
  </clipPath>
  <clipPath id="presentation_clip_path_shrink" clipPathUnits="userSpaceOnUse">
   <rect x="1" y="1" width="1597" height="1597"/>
  </clipPath>
 </defs>
 <defs class="TextShapeIndex">
  <g ooo:slide="id1" ooo:id-list="id3 id4 id5 id6 id7 id8 id9 id10 id11"/>
 </defs>
 <defs class="EmbeddedBulletChars">
  <g id="bullet-char-template-57356" transform="scale(0.00048828125,-0.00048828125)">
   <path d="M 580,1141 L 1163,571 580,0 -4,571 580,1141 Z"/>
  </g>
  <g id="bullet-char-template-57354" transform="scale(0.00048828125,-0.00048828125)">
   <path d="M 8,1128 L 1137,1128 1137,0 8,0 8,1128 Z"/>
  </g>
  <g id="bullet-char-template-10146" transform="scale(0.00048828125,-0.00048828125)">
   <path d="M 174,0 L 602,739 174,1481 1456,739 174,0 Z M 1358,739 L 309,1346 659,739 1358,739 Z"/>
  </g>
  <g id="bullet-char-template-10132" transform="scale(0.00048828125,-0.00048828125)">
   <path d="M 2015,739 L 1276,0 717,0 1260,543 174,543 174,936 1260,936 717,1481 1274,1481 2015,739 Z"/>
  </g>
  <g id="bullet-char-template-10007" transform="scale(0.00048828125,-0.00048828125)">
   <path d="M 0,-2 C -7,14 -16,27 -25,37 L 356,567 C 262,823 215,952 215,954 215,979 228,992 255,992 264,992 276,990 289,987 310,991 331,999 354,1012 L 381,999 492,748 772,1049 836,1024 860,1049 C 881,1039 901,1025 922,1006 886,937 835,863 770,784 769,783 710,716 594,584 L 774,223 C 774,196 753,168 711,139 L 727,119 C 717,90 699,76 672,76 641,76 570,178 457,381 L 164,-76 C 142,-110 111,-127 72,-127 30,-127 9,-110 8,-76 1,-67 -2,-52 -2,-32 -2,-23 -1,-13 0,-2 Z"/>
  </g>
  <g id="bullet-char-template-10004" transform="scale(0.00048828125,-0.00048828125)">
   <path d="M 285,-33 C 182,-33 111,30 74,156 52,228 41,333 41,471 41,549 55,616 82,672 116,743 169,778 240,778 293,778 328,747 346,684 L 369,508 C 377,444 397,411 428,410 L 1163,1116 C 1174,1127 1196,1133 1229,1133 1271,1133 1292,1118 1292,1087 L 1292,965 C 1292,929 1282,901 1262,881 L 442,47 C 390,-6 338,-33 285,-33 Z"/>
  </g>
  <g id="bullet-char-template-9679" transform="scale(0.00048828125,-0.00048828125)">
   <path d="M 813,0 C 632,0 489,54 383,161 276,268 223,411 223,592 223,773 276,916 383,1023 489,1130 632,1184 813,1184 992,1184 1136,1130 1245,1023 1353,916 1407,772 1407,592 1407,412 1353,268 1245,161 1136,54 992,0 813,0 Z"/>
  </g>
  <g id="bullet-char-template-8226" transform="scale(0.00048828125,-0.00048828125)">
   <path d="M 346,457 C 273,457 209,483 155,535 101,586 74,649 74,723 74,796 101,859 155,911 209,963 273,989 346,989 419,989 480,963 531,910 582,859 608,796 608,723 608,648 583,586 532,535 482,483 420,457 346,457 Z"/>
  </g>
  <g id="bullet-char-template-8211" transform="scale(0.00048828125,-0.00048828125)">
   <path d="M -4,459 L 1135,459 1135,606 -4,606 -4,459 Z"/>
  </g>
  <g id="bullet-char-template-61548" transform="scale(0.00048828125,-0.00048828125)">
   <path d="M 173,740 C 173,903 231,1043 346,1159 462,1274 601,1332 765,1332 928,1332 1067,1274 1183,1159 1299,1043 1357,903 1357,740 1357,577 1299,437 1183,322 1067,206 928,148 765,148 601,148 462,206 346,322 231,437 173,577 173,740 Z"/>
  </g>
 </defs>
 <g>
  <g id="id2" class="Master_Slide">
   <g id="bg-id2" class="Background"/>
   <g id="bo-id2" class="BackgroundObjects"/>
  </g>
 </g>
 <g class="SlideGroup">
  <g>
   <g id="container-id1">
    <g id="id1" class="Slide" clip-path="url(#presentation_clip_path)">
     <g class="Page">
      <g class="com.sun.star.drawing.CustomShape">
       <g id="id3">
        <rect class="BoundingBox" stroke="none" fill="none" x="345" y="345" width="897" height="897"/>
        <g>
         <defs>
          <linearGradient id="gradient1" x1="515" y1="311" x2="1071" y2="1275" gradientUnits="userSpaceOnUse">
           <stop offset="0" style="stop-color:rgb(255,255,255)"/>
           <stop offset="1" style="stop-color:rgb(178,178,178)"/>
          </linearGradient>
         </defs>
         <path style="fill:url(#gradient1)" d="M 1200,793 L 1199,820 1197,846 1192,872 1186,898 1178,924 1169,949 1158,973 1145,997 1131,1019 1116,1041 1099,1061 1081,1081 1061,1099 1041,1116 1019,1131 997,1145 973,1158 949,1169 924,1178 898,1186 872,1192 846,1197 820,1199 793,1200 766,1199 740,1197 714,1192 688,1186 662,1178 637,1169 613,1158 590,1145 567,1131 545,1116 525,1099 505,1081 487,1061 470,1041 455,1019 441,997 428,973 417,949 408,924 400,898 394,872 389,846 387,820 386,793 387,766 389,740 394,714 400,688 408,662 417,637 428,613 441,590 455,567 470,545 487,525 505,505 525,487 545,470 567,455 589,441 613,428 637,417 662,408 688,400 714,394 740,389 766,387 793,386 820,387 846,389 872,394 898,400 924,408 949,417 973,428 996,441 1019,455 1041,470 1061,487 1081,505 1099,525 1116,545 1131,567 1145,589 1158,613 1169,637 1178,662 1186,688 1192,714 1197,740 1199,766 1200,793 1200,793 Z"/>
        </g>
        <path fill="none" stroke="rgb(0,0,0)" stroke-width="81" stroke-linejoin="round" d="M 1200,793 C 1200,864 1181,935 1145,997 1110,1058 1058,1110 997,1145 935,1181 864,1200 793,1200 722,1200 651,1181 590,1145 528,1110 476,1058 441,997 405,935 386,864 386,793 386,722 405,651 441,590 476,528 528,476 589,441 651,405 722,386 793,386 864,386 935,405 996,441 1058,476 1110,528 1145,589 1181,651 1200,722 1200,793 L 1200,793 Z"/>
       </g>
      </g>
      <g class="com.sun.star.drawing.CustomShape">
       <g id="id4">
        <rect class="BoundingBox" stroke="none" fill="none" x="759" y="415" width="72" height="112"/>
        <path fill="rgb(0,0,0)" stroke="none" d="M 782,433 L 783,433 C 782,433 781,433 780,434 779,434 778,435 778,436 777,437 777,438 777,439 L 777,502 777,502 C 777,503 777,504 778,505 778,506 779,507 780,507 781,508 782,508 783,508 L 806,507 806,508 C 807,508 808,508 809,507 810,507 811,506 811,505 812,504 812,503 812,502 L 812,438 812,439 812,439 C 812,438 812,437 811,436 811,435 810,434 809,434 808,433 807,433 806,433 L 782,433 Z"/>
        <path fill="none" stroke="rgb(0,0,0)" stroke-width="35" stroke-linejoin="round" d="M 782,433 L 783,433 C 782,433 781,433 780,434 779,434 778,435 778,436 777,437 777,438 777,439 L 777,502 777,502 C 777,503 777,504 778,505 778,506 779,507 780,507 781,508 782,508 783,508 L 806,507 806,508 C 807,508 808,508 809,507 810,507 811,506 811,505 812,504 812,503 812,502 L 812,438 812,439 812,439 C 812,438 812,437 811,436 811,435 810,434 809,434 808,433 807,433 806,433 L 782,433 Z"/>
       </g>
      </g>
      <g class="com.sun.star.drawing.CustomShape">
       <g id="id5">
        <rect class="BoundingBox" stroke="none" fill="none" x="1061" y="747" width="113" height="80"/>
        <path fill="rgb(0,0,0)" stroke="none" d="M 1086,765 L 1086,765 C 1085,765 1084,765 1083,766 1081,767 1081,767 1080,769 1079,770 1079,771 1079,772 L 1079,800 1079,801 C 1079,802 1079,803 1080,804 1081,806 1081,806 1083,807 1084,808 1085,808 1086,808 L 1147,808 1148,808 C 1149,808 1150,808 1151,807 1153,806 1153,806 1154,804 1155,803 1155,802 1155,801 L 1155,772 1155,772 1155,772 C 1155,771 1155,770 1154,769 1153,767 1153,767 1151,766 1150,765 1149,765 1148,765 L 1086,765 Z"/>
        <path fill="none" stroke="rgb(0,0,0)" stroke-width="35" stroke-linejoin="round" d="M 1086,765 L 1086,765 C 1085,765 1084,765 1083,766 1081,767 1081,767 1080,769 1079,770 1079,771 1079,772 L 1079,800 1079,801 C 1079,802 1079,803 1080,804 1081,806 1081,806 1083,807 1084,808 1085,808 1086,808 L 1147,808 1148,808 C 1149,808 1150,808 1151,807 1153,806 1153,806 1154,804 1155,803 1155,802 1155,801 L 1155,772 1155,772 1155,772 C 1155,771 1155,770 1154,769 1153,767 1153,767 1151,766 1150,765 1149,765 1148,765 L 1086,765 Z"/>
       </g>
      </g>
      <g class="com.sun.star.drawing.CustomShape">
       <g id="id6">
        <rect class="BoundingBox" stroke="none" fill="none" x="759" y="1061" width="72" height="113"/>
        <path fill="rgb(0,0,0)" stroke="none" d="M 782,1079 L 783,1079 C 782,1079 781,1079 780,1080 779,1080 778,1081 778,1082 777,1083 777,1084 777,1085 L 777,1149 777,1149 C 777,1150 777,1151 778,1152 778,1153 779,1154 780,1154 781,1155 782,1155 783,1155 L 806,1155 806,1155 C 807,1155 808,1155 809,1154 810,1154 811,1153 811,1152 812,1151 812,1150 812,1149 L 812,1084 812,1085 812,1085 C 812,1084 812,1083 811,1082 811,1081 810,1080 809,1080 808,1079 807,1079 806,1079 L 782,1079 Z"/>
        <path fill="none" stroke="rgb(0,0,0)" stroke-width="35" stroke-linejoin="round" d="M 782,1079 L 783,1079 C 782,1079 781,1079 780,1080 779,1080 778,1081 778,1082 777,1083 777,1084 777,1085 L 777,1149 777,1149 C 777,1150 777,1151 778,1152 778,1153 779,1154 780,1154 781,1155 782,1155 783,1155 L 806,1155 806,1155 C 807,1155 808,1155 809,1154 810,1154 811,1153 811,1152 812,1151 812,1150 812,1149 L 812,1084 812,1085 812,1085 C 812,1084 812,1083 811,1082 811,1081 810,1080 809,1080 808,1079 807,1079 806,1079 L 782,1079 Z"/>
       </g>
      </g>
      <g class="com.sun.star.drawing.CustomShape">
       <g id="id7">
        <rect class="BoundingBox" stroke="none" fill="none" x="415" y="757" width="112" height="76"/>
        <path fill="rgb(0,0,0)" stroke="none" d="M 439,775 L 440,775 C 438,775 437,775 436,776 435,776 434,777 434,778 433,779 433,780 433,781 L 433,807 433,808 C 433,809 433,810 434,811 434,812 435,813 436,813 437,814 438,814 440,814 L 501,814 502,814 C 503,814 504,814 505,813 506,813 507,812 507,811 508,810 508,809 508,808 L 508,781 508,781 508,781 C 508,780 508,779 507,778 507,777 506,776 505,776 504,775 503,775 502,775 L 439,775 Z"/>
        <path fill="none" stroke="rgb(0,0,0)" stroke-width="35" stroke-linejoin="round" d="M 439,775 L 440,775 C 438,775 437,775 436,776 435,776 434,777 434,778 433,779 433,780 433,781 L 433,807 433,808 C 433,809 433,810 434,811 434,812 435,813 436,813 437,814 438,814 440,814 L 501,814 502,814 C 503,814 504,814 505,813 506,813 507,812 507,811 508,810 508,809 508,808 L 508,781 508,781 508,781 C 508,780 508,779 507,778 507,777 506,776 505,776 504,775 503,775 502,775 L 439,775 Z"/>
       </g>
      </g>
      <g class="com.sun.star.drawing.CustomShape">
       <g id="id8">
        <rect class="BoundingBox" stroke="none" fill="none" x="529" y="555" width="313" height="276"/>
        <path fill="rgb(0,0,0)" stroke="none" d="M 566,575 L 566,575 C 566,574 567,573 569,573 570,573 571,573 572,573 573,573 574,574 575,574 L 820,781 820,781 C 821,782 822,783 822,784 823,785 823,786 823,787 822,789 822,790 821,790 L 804,809 804,810 C 803,811 802,811 801,812 800,812 799,812 797,812 796,812 795,811 794,810 L 549,603 549,603 549,603 C 548,603 547,602 547,601 547,600 547,598 547,597 547,596 548,595 548,594 L 566,575 Z"/>
        <path fill="none" stroke="rgb(0,0,0)" stroke-width="35" stroke-linejoin="round" d="M 566,575 L 566,575 C 566,574 567,573 569,573 570,573 571,573 572,573 573,573 574,574 575,574 L 820,781 820,781 C 821,782 822,783 822,784 823,785 823,786 823,787 822,789 822,790 821,790 L 804,809 804,810 C 803,811 802,811 801,812 800,812 799,812 797,812 796,812 795,811 794,810 L 549,603 549,603 549,603 C 548,603 547,602 547,601 547,600 547,598 547,597 547,596 548,595 548,594 L 566,575 Z"/>
       </g>
      </g>
      <g class="com.sun.star.drawing.CustomShape">
       <g id="id9">
        <rect class="BoundingBox" stroke="none" fill="none" x="754" y="582" width="241" height="261"/>
        <path fill="rgb(0,0,0)" stroke="none" d="M 955,602 L 955,602 C 955,601 954,601 952,600 951,600 950,600 949,601 948,601 947,602 947,602 L 773,799 773,799 C 773,800 772,801 772,802 772,803 772,804 772,805 773,806 773,807 774,807 L 793,822 793,822 C 793,823 794,823 796,824 797,824 798,824 799,823 800,823 801,822 801,822 L 975,625 975,625 975,625 C 975,624 976,623 976,622 976,621 976,620 976,619 975,618 975,617 974,617 L 955,602 Z"/>
        <path fill="none" stroke="rgb(0,0,0)" stroke-width="35" stroke-linejoin="round" d="M 955,602 L 955,602 C 955,601 954,601 952,600 951,600 950,600 949,601 948,601 947,602 947,602 L 773,799 773,799 C 773,800 772,801 772,802 772,803 772,804 772,805 773,806 773,807 774,807 L 793,822 793,822 C 793,823 794,823 796,824 797,824 798,824 799,823 800,823 801,822 801,822 L 975,625 975,625 975,625 C 975,624 976,623 976,622 976,621 976,620 976,619 975,618 975,617 974,617 L 955,602 Z"/>
       </g>
      </g>
      <g class="com.sun.star.drawing.CustomShape">
       <g id="id10">
        <rect class="BoundingBox" stroke="none" fill="none" x="1282" y="82" width="238" height="1438"/>
        <path fill="rgb(0,255,255)" stroke="none" d="M 1333,100 L 1333,100 C 1328,100 1322,102 1317,104 1312,107 1307,112 1304,117 1302,122 1300,128 1300,134 L 1300,1467 1300,1467 C 1300,1473 1302,1479 1304,1484 1307,1489 1312,1494 1317,1497 1322,1499 1328,1501 1333,1501 L 1467,1500 1468,1501 C 1473,1501 1479,1499 1484,1497 1489,1494 1494,1489 1497,1484 1499,1479 1501,1473 1501,1467 L 1500,133 1501,134 1501,134 C 1501,128 1499,122 1497,117 1494,112 1489,107 1484,104 1479,102 1473,100 1468,100 L 1333,100 Z"/>
        <path fill="none" stroke="rgb(0,0,0)" stroke-width="35" stroke-linejoin="round" d="M 1333,100 L 1333,100 C 1328,100 1322,102 1317,104 1312,107 1307,112 1304,117 1302,122 1300,128 1300,134 L 1300,1467 1300,1467 C 1300,1473 1302,1479 1304,1484 1307,1489 1312,1494 1317,1497 1322,1499 1328,1501 1333,1501 L 1467,1500 1468,1501 C 1473,1501 1479,1499 1484,1497 1489,1494 1494,1489 1497,1484 1499,1479 1501,1473 1501,1467 L 1500,133 1501,134 1501,134 C 1501,128 1499,122 1497,117 1494,112 1489,107 1484,104 1479,102 1473,100 1468,100 L 1333,100 Z"/>
       </g>
      </g>
      <g class="com.sun.star.drawing.CustomShape">
       <g id="id11">
        <rect class="BoundingBox" stroke="none" fill="none" x="82" y="82" width="238" height="1438"/>
        <path fill="rgb(0,255,255)" stroke="none" d="M 133,100 L 134,100 C 128,100 122,102 117,104 112,107 107,112 104,117 102,122 100,128 100,134 L 100,1467 100,1467 C 100,1473 102,1479 104,1484 107,1489 112,1494 117,1497 122,1499 128,1501 134,1501 L 267,1500 268,1501 C 273,1501 279,1499 284,1497 289,1494 294,1489 297,1484 299,1479 301,1473 301,1467 L 300,133 301,134 301,134 C 301,128 299,122 297,117 294,112 289,107 284,104 279,102 273,100 268,100 L 133,100 Z"/>
        <path fill="none" stroke="rgb(0,0,0)" stroke-width="35" stroke-linejoin="round" d="M 133,100 L 134,100 C 128,100 122,102 117,104 112,107 107,112 104,117 102,122 100,128 100,134 L 100,1467 100,1467 C 100,1473 102,1479 104,1484 107,1489 112,1494 117,1497 122,1499 128,1501 134,1501 L 267,1500 268,1501 C 273,1501 279,1499 284,1497 289,1494 294,1489 297,1484 299,1479 301,1473 301,1467 L 300,133 301,134 301,134 C 301,128 299,122 297,117 294,112 289,107 284,104 279,102 273,100 268,100 L 133,100 Z"/>
       </g>
      </g>
     </g>
    </g>
   </g>
  </g>
 </g>
</svg>