<?xml version="1.0" encoding="UTF-8"?>
<svg id="SVGRoot" width="64px" height="64px" version="1.1" viewBox="0 0 64 64" xmlns="http://www.w3.org/2000/svg">
 <g transform="matrix(1.1086 0 0 .9286 -9.4134 1.5599)" display="none" fill="#59f" stroke="#000080" stroke-width="1.0942" aria-label="?">
  <path d="m47.417 37.376h5.7945v7.2503h-5.7945zm5.6233-4.196h-5.452v-4.3959q0-2.883 0.79925-4.7384t3.3683-4.3102l2.569-2.5405q1.627-1.5129 2.3407-2.8545 0.74216-1.3416 0.74216-2.7403 0-2.5405-1.8839-4.1104-1.8554-1.5699-4.9382-1.5699-2.255 0-4.824 0.99906-2.5405 0.99906-5.3093 2.9115v-5.3664q2.6832-1.627 5.4235-2.4263 2.7688-0.79925 5.7089-0.79925 5.2522 0 8.4206 2.7688 3.197 2.7688 3.197 7.3074 0 2.1694-1.0276 4.139-1.0276 1.941-3.5966 4.3959l-2.5119 2.4548q-1.3416 1.3416-1.9125 2.1123-0.54235 0.74216-0.7707 1.4558-0.17127 0.59944-0.2569 1.4558-0.08563 0.85634-0.08563 2.3407z" fill="#59f" stroke="#000080" stroke-width="1.0942"/>
 </g>
 <rect x="10" y="10.117" width="45" height="44.889" fill="#a8a899" stop-color="#000000" stroke="#502d16"/>
 <g fill="none" stroke="#000" stroke-width=".84515px">
  <g transform="matrix(1,0,0,1.4,0,-4)">
   <path d="m15 5v5"/>
   <path d="m25 5v5"/>
   <path d="m35 5v5"/>
   <path d="m45 5v5"/>
   <path d="m50 5v5"/>
   <path d="m40 5v5"/>
   <path d="m30 5v5"/>
   <path d="m20 5v5"/>
  </g>
  <g transform="matrix(1,0,0,1.4,0,48)">
   <path d="m15 5v5"/>
   <path d="m25 5v5"/>
   <path d="m35 5v5"/>
   <path d="m45 5v5"/>
   <path d="m50 5v5"/>
   <path d="m40 5v5"/>
   <path d="m30 5v5"/>
   <path d="m20 5v5"/>
  </g>
  <g transform="matrix(0,-1,1.4,0,48,65)">
   <path d="m15 5v5"/>
   <path d="m25 5v5"/>
   <path d="m35 5v5"/>
   <path d="m45 5v5"/>
   <path d="m50 5v5"/>
   <path d="m40 5v5"/>
   <path d="m30 5v5"/>
   <path d="m20 5v5"/>
  </g>
  <g transform="matrix(0,-1,1.4,0,-4,65)">
   <path d="m15 5v5"/>
   <path d="m25 5v5"/>
   <path d="m35 5v5"/>
   <path d="m45 5v5"/>
   <path d="m50 5v5"/>
   <path d="m40 5v5"/>
   <path d="m30 5v5"/>
   <path d="m20 5v5"/>
  </g>
 </g>
 <text x="14.461906" y="38.519424" fill="#502d16" font-family="sans-serif" font-size="40px" letter-spacing="0px" word-spacing="0px" style="line-height:1.25" xml:space="preserve"><tspan x="14.461906" y="38.519424" fill="#502d16" font-family="sans-serif" font-size="18.667px" style="font-variant-caps:normal;font-variant-east-asian:normal;font-variant-ligatures:normal;font-variant-numeric:normal">CPU</tspan></text>
</svg>
