<?xml version="1.0" encoding="UTF-8"?>
<svg id="SVGRoot" width="64px" height="64px" version="1.1" viewBox="0 0 64 64" xmlns="http://www.w3.org/2000/svg">
 <g transform="matrix(1.1086 0 0 .9286 -9.4134 1.5599)" display="none" fill="#59f" stroke="#000080" stroke-width="1.0942" aria-label="?">
  <path d="m47.417 37.376h5.7945v7.2503h-5.7945zm5.6233-4.196h-5.452v-4.3959q0-2.883 0.79925-4.7384t3.3683-4.3102l2.569-2.5405q1.627-1.5129 2.3407-2.8545 0.74216-1.3416 0.74216-2.7403 0-2.5405-1.8839-4.1104-1.8554-1.5699-4.9382-1.5699-2.255 0-4.824 0.99906-2.5405 0.99906-5.3093 2.9115v-5.3664q2.6832-1.627 5.4235-2.4263 2.7688-0.79925 5.7089-0.79925 5.2522 0 8.4206 2.7688 3.197 2.7688 3.197 7.3074 0 2.1694-1.0276 4.139-1.0276 1.941-3.5966 4.3959l-2.5119 2.4548q-1.3416 1.3416-1.9125 2.1123-0.54235 0.74216-0.7707 1.4558-0.17127 0.59944-0.2569 1.4558-0.08563 0.85634-0.08563 2.3407z" fill="#59f" stroke="#000080" stroke-width="1.0942"/>
 </g>
 <path d="m8.5 36.67c-2.9289 1.691-5.1406 4.071-6.3566 6.7439-1.216 2.6729-1.4101 5.8037 0.098282 8.4163 1.5084 2.6127 4.3168 4.0099 7.2396 4.2933 2.9228 0.28337 6.0898-0.44201 9.0187-2.133 2.9289-1.691 5.1423-4.072 6.3583-6.7449 0.862-1.8948 1.1723-4.0162 0.76464-6.0233l37.464-21.63s-0.75-1.299-2.9608-2.8357c-1.9073-1.3257-5.5167-0.26412-9.1284 1.2116-9.983 4.079-27.871 18.922-27.871 18.922-1.5353-1.3608-3.5305-2.153-5.6059-2.3543-2.9228-0.28338-6.0915 0.44298-9.0204 2.134zm2.5 4.3301c2.0931-1.2085 4.3122-1.655 6.0377-1.4877 1.7255 0.1673 2.8278 0.84329 3.3905 1.8178 0.56265 0.97454 0.59594 2.2655-0.12194 3.8435-0.71789 1.578-2.2131 3.2782-4.3063 4.4866-2.0931 1.2085-4.3115 1.6523-6.037 1.485-1.7255-0.1673-2.8286-0.84062-3.3912-1.8152-0.56265-0.97454-0.59523-2.2681 0.12266-3.8461 0.71789-1.578 2.2124-3.2755 4.3055-4.484z" color="#000000" color-rendering="auto" dominant-baseline="auto" fill="#5fbcd3" image-rendering="auto" shape-rendering="auto" solid-color="#000000" stop-color="#000000" stroke="#164450" style="font-feature-settings:normal;font-variant-alternates:normal;font-variant-caps:normal;font-variant-east-asian:normal;font-variant-ligatures:normal;font-variant-numeric:normal;font-variant-position:normal;font-variation-settings:normal;inline-size:0;isolation:auto;mix-blend-mode:normal;shape-margin:0;shape-padding:0;text-decoration-color:#000000;text-decoration-line:none;text-decoration-style:solid;text-indent:0;text-orientation:mixed;text-transform:none;white-space:normal"/>
 <path d="m8.413 26.922c-2.9289-1.691-5.1406-4.071-6.3566-6.7439-1.216-2.6729-1.4101-5.8037 0.098282-8.4163 1.5084-2.6127 4.3168-4.0099 7.2396-4.2933 2.9228-0.28337 6.0898 0.44201 9.0187 2.133 2.9289 1.691 5.1423 4.072 6.3583 6.7449 0.862 1.8948 1.1723 4.0162 0.76464 6.0233l37.464 21.63s-0.75 1.299-2.9608 2.8357c-1.9073 1.3257-5.5167 0.26412-9.1284-1.2116-9.983-4.079-27.871-18.922-27.871-18.922-1.5353 1.3608-3.5305 2.153-5.6059 2.3543-2.9228 0.28338-6.0915-0.44298-9.0204-2.134zm2.5-4.3301c2.0931 1.2085 4.3122 1.655 6.0377 1.4877 1.7255-0.1673 2.8278-0.84329 3.3905-1.8178 0.56265-0.97454 0.59594-2.2655-0.12194-3.8435-0.71789-1.578-2.2131-3.2782-4.3063-4.4866-2.0931-1.2085-4.3115-1.6523-6.037-1.485-1.7255 0.1673-2.8286 0.84062-3.3912 1.8152-0.56265 0.97454-0.59523 2.2681 0.12266 3.8461s2.2124 3.2755 4.3055 4.484z" color="#000000" color-rendering="auto" dominant-baseline="auto" fill="#5fbcd3" image-rendering="auto" shape-rendering="auto" solid-color="#000000" stop-color="#000000" stroke="#164450" style="font-feature-settings:normal;font-variant-alternates:normal;font-variant-caps:normal;font-variant-east-asian:normal;font-variant-ligatures:normal;font-variant-numeric:normal;font-variant-position:normal;font-variation-settings:normal;inline-size:0;isolation:auto;mix-blend-mode:normal;shape-margin:0;shape-padding:0;text-decoration-color:#000000;text-decoration-line:none;text-decoration-style:solid;text-indent:0;text-orientation:mixed;text-transform:none;white-space:normal"/>
</svg>
