<?xml version="1.0" encoding="UTF-8"?>
<svg id="SVGRoot" width="64px" height="64px" version="1.1" viewBox="0 0 64 64" xmlns="http://www.w3.org/2000/svg">
 <g transform="matrix(1.1086 0 0 .9286 -9.4134 1.5599)" display="none" fill="#59f" stroke="#000080" stroke-width="1.0942" aria-label="?">
  <path d="m47.417 37.376h5.7945v7.2503h-5.7945zm5.6233-4.196h-5.452v-4.3959q0-2.883 0.79925-4.7384t3.3683-4.3102l2.569-2.5405q1.627-1.5129 2.3407-2.8545 0.74216-1.3416 0.74216-2.7403 0-2.5405-1.8839-4.1104-1.8554-1.5699-4.9382-1.5699-2.255 0-4.824 0.99906-2.5405 0.99906-5.3093 2.9115v-5.3664q2.6832-1.627 5.4235-2.4263 2.7688-0.79925 5.7089-0.79925 5.2522 0 8.4206 2.7688 3.197 2.7688 3.197 7.3074 0 2.1694-1.0276 4.139-1.0276 1.941-3.5966 4.3959l-2.5119 2.4548q-1.3416 1.3416-1.9125 2.1123-0.54235 0.74216-0.7707 1.4558-0.17127 0.59944-0.2569 1.4558-0.08563 0.85634-0.08563 2.3407z" fill="#59f" stroke="#000080" stroke-width="1.0942"/>
 </g>
 <g transform="matrix(1 0 0 1.3813 0 -11.953)" stroke-width=".85084">
  <g fill="#045" aria-label="✄">
   <path d="m21.02 32.134q0.41395-0.30105 0.67737-0.79026-0.26342-0.52684-0.67737-0.79026-0.33868-0.22579-1.2795-0.6021-3.0482-1.2042-6.5103-1.2042h-2.5213q-1.6934 0-3.3868-0.6021-1.3924-0.48921-2.8976-1.7687-1.2795-1.0537-1.9945-2.5966-0.67737-1.43-0.67737-3.2363t0.67737-3.2363q0.6021-1.2795 2.1074-2.7471 1.0161-0.97842 2.7847-1.6558 1.5805-0.6021 3.3868-0.6021 1.731 0 3.3868 0.6021 1.6182 0.6021 2.8976 1.7687 1.5053 1.3547 1.9945 2.6342 0.67737 1.7687 0.67737 3.2363 0 1.0913-0.22579 1.7687 1.7687 0.33868 7.1124 2.5966l3.3116 1.3924 13.133-5.2308q8.5047-3.3868 11.967-3.3868 5.1179 0 7.2629 3.1234 0.30105 0.48921 0.30105 1.1289 0 1.1666-1.1289 1.6182l-19.192 7.7897 19.192 7.7897q1.1289 0.45158 1.1289 1.8439 0 0.48921-0.30105 0.90316-2.2579 3.1234-7.2629 3.1234-3.4621 0-11.967-3.3868l-13.133-5.2308-3.3116 1.3924q-5.3437 2.2579-7.1124 2.5966 0.22579 0.90316 0.22579 1.7687 0 1.7687-0.67737 3.2363-0.715 1.5805-1.9945 2.6718-1.3547 1.2042-2.8976 1.7311-1.8063 0.6021-3.3868 0.6021-1.9192 0-3.3868-0.6021-1.5429-0.63974-2.8224-1.6934-1.5805-1.2795-2.0697-2.6718-0.67737-1.9945-0.67737-3.2739 0-1.6934 0.67737-3.1987 0.6021-1.3547 1.9945-2.6718 1.0537-1.0161 2.8976-1.7311 1.5805-0.6021 3.3868-0.6021h2.5213q3.0858 0 6.5103-1.2042 0.86553-0.33868 1.2795-0.6021zm-11.252 11.478q0.41395 0.15053 0.94079 0.15053 0.52684 0 0.94079-0.15053 0.45158-0.18816 0.79026-0.48921 0.37632-0.26342 0.48921-0.52684 0.1129-0.15053 0.1129-0.45158 0-0.26342-0.1129-0.45158-0.11289-0.22579-0.48921-0.52684-0.33868-0.26342-0.79026-0.45158-0.41395-0.15053-0.94079-0.15053-0.52684 0-0.94079 0.15053-0.45158 0.18816-0.79026 0.48921-0.37632 0.26342-0.48921 0.52684-0.11289 0.15053-0.11289 0.41395 0 0.30105 0.11289 0.48921 0.11289 0.22579 0.48921 0.52684 0.33868 0.26342 0.79026 0.45158zm0-21.638q0.41395 0.15053 0.94079 0.15053 0.52684 0 0.94079-0.15053 0.45158-0.18816 0.79026-0.48921 0.37632-0.26342 0.48921-0.52684 0.1129-0.15053 0.1129-0.41395 0-0.30105-0.1129-0.48921-0.11289-0.22579-0.48921-0.52684-0.33868-0.26342-0.79026-0.45158-0.41395-0.15053-0.94079-0.15053-0.52684 0-0.94079 0.15053-0.45158 0.18816-0.79026 0.48921-0.37632 0.26342-0.48921 0.52684-0.11289 0.15053-0.11289 0.45158 0 0.26342 0.11289 0.45158 0.11289 0.22579 0.48921 0.52684 0.33868 0.26342 0.79026 0.45158zm2.6718 23.746q-0.79026 0.26342-1.731 0.26342-0.94079 0-1.7311-0.26342-0.79026-0.30105-1.43-0.82789-0.715-0.6021-1.0537-1.2418-0.33868-0.67737-0.33868-1.5053 0-0.79026 0.33868-1.4676 0.33868-0.63974 1.0537-1.2418 0.63974-0.52684 1.43-0.82789 0.79026-0.26342 1.7311-0.26342 0.94079 0 1.731 0.26342 0.79026 0.30105 1.43 0.82789 0.715 0.6021 1.0537 1.2418 0.33868 0.67737 0.33868 1.4676 0 0.82789-0.33868 1.5053-0.33868 0.63974-1.0537 1.2418-0.63974 0.52684-1.43 0.82789zm0-21.638q-0.79026 0.26342-1.731 0.26342-0.94079 0-1.7311-0.26342-0.79026-0.30105-1.43-0.82789-0.715-0.6021-1.0537-1.2418-0.33868-0.67737-0.33868-1.4676 0-0.82789 0.33868-1.5053 0.33868-0.63974 1.0537-1.2418 0.63974-0.52684 1.43-0.82789 0.79026-0.26342 1.7311-0.26342 0.94079 0 1.731 0.26342 0.79026 0.30105 1.43 0.82789 0.715 0.6021 1.0537 1.2418 0.33868 0.67737 0.33868 1.5053 0 0.79026-0.33868 1.4676-0.33868 0.63974-1.0537 1.2418-0.63974 0.52684-1.43 0.82789zm14.676 3.4621-1.3924-0.56447q-5.6071-2.2955-7.0747-2.5589-0.82789-0.15053-1.2418-0.37632-0.6021-0.30105-0.6021-0.82789 0-0.37632 0.41395-1.2795 0.22579-0.52684 0.22579-1.3924 0-1.2418-0.48921-2.2955-0.48921-1.0161-1.5053-1.9568-0.75263-0.715-2.1826-1.3171-1.1666-0.45158-2.5589-0.45158-1.3924 0-2.5589 0.45158-1.2042 0.52684-2.2203 1.3547-0.90316 0.715-1.4676 1.9192-0.48921 1.0537-0.48921 2.2955 0 1.2042 0.48921 2.2579 0.48921 1.0161 1.5053 1.9568 0.75263 0.715 2.1826 1.3171 1.1666 0.45158 2.5589 0.45158h2.5213q3.4621 0 7.2253 1.2795 1.1289 0.37632 1.8063 0.90316 0.86552 0.63974 1.1289 0.94079l1.3171-0.90316q1.0537-0.63974 2.4084-1.2042zm-8.4671 10.725 18.552-7.3005 22.842-9.295q-1.5805-1.7687-5.0803-1.7687-2.9729 0-11.139 3.2363l-13.811 5.4942q-5.5695 2.5213-6.2468 3.6503-0.63974 1.1289-1.5053 1.6934-0.75263 0.52684-1.8063 0.90316-3.9137 1.2795-7.2253 1.2795h-2.5213q-1.3924 0-2.5589 0.45158-1.43 0.6021-2.1826 1.3171-1.0161 0.94079-1.5053 1.9568-0.48921 1.0537-0.48921 2.2579 0 1.2418 0.48921 2.2955 0.56447 1.2042 1.4676 1.9192 1.0161 0.82789 2.2203 1.3547 1.1666 0.45158 2.5589 0.45158 1.3924 0 2.5589-0.45158 1.43-0.6021 2.1826-1.3171 1.0161-0.94079 1.5053-1.9568 0.48921-1.0537 0.48921-2.2955 0-0.86553-0.22579-1.3547-0.41395-0.94079-0.41395-1.3171 0-0.75263 0.6021-0.82789 0.45158-0.07526 1.2418-0.37632zm14.375-3.1234 10.8 4.4029q8.166 3.2363 11.139 3.2363 3.4997 0 5.0803-1.7687l-20.584-8.4671zm-1.9192-4.5534q0.18816 0.33868 0.18816 0.75263t-0.18816 0.75263q-0.22579 0.33868-0.56447 0.56447-0.33868 0.18816-0.75263 0.18816t-0.75263-0.18816q-0.33868-0.22579-0.56447-0.56447-0.18816-0.33868-0.18816-0.75263t0.18816-0.75263q0.22579-0.33868 0.56447-0.56447 0.33868-0.18816 0.75263-0.18816t0.75263 0.18816q0.33868 0.22579 0.56447 0.56447z" fill="#045" stroke-width=".85084"/>
  </g>
  <g fill="#80e5ff" stroke-width="0">
   <path d="m23.331 29.522c-0.10668-0.17262-1.4242-1.1279-1.8561-1.3458-0.61612-0.31082-2.2687-0.83284-3.5791-1.1305-1.7498-0.39753-3.0522-0.52764-5.2893-0.52838-1.1015-3.69e-4 -2.3274-0.038013-2.7243-0.083651-2.0404-0.23463-3.9812-1.4208-5.0578-3.0913-0.98469-1.5278-1.0664-3.5336-0.21335-5.2376 0.4802-0.95925 1.0958-1.6193 2.1499-2.3052 1.3605-0.88522 2.408-1.2098 3.9129-1.2125 1.2637-0.0022 2.0539 0.18544 3.2445 0.77057 0.88278 0.43383 1.1095 0.5934 1.7236 1.2133 1.234 1.2456 1.646 2.1551 1.7042 3.7622 0.03565 0.98547 0.02729 1.0433-0.2558 1.7678-0.59451 1.5215-0.32808 1.9464 1.4685 2.3422 1.0534 0.23204 2.9646 0.9042 5.8407 2.054l2.5703 1.0276-1.0696 0.53573c-0.58825 0.29465-1.3948 0.76367-1.7924 1.0423-0.39997 0.28027-0.74694 0.46756-0.77677 0.4193zm-11.49-5.2589c0.91836-0.19367 1.6572-0.59491 2.3391-1.2702 0.92876-0.91984 1.2636-1.8612 1.066-2.9965-0.13587-0.78021-0.4419-1.3453-1.0559-1.9499-0.95752-0.94277-1.9984-1.3411-3.4947-1.3375-1.5601 0.0038-2.4307 0.34632-3.4467 1.3562-0.8973 0.89179-1.063 1.2722-1.0639 2.4424-6.364e-4 0.84577 0.022023 0.97435 0.25546 1.4498 0.36503 0.74343 1.1396 1.4728 2.0266 1.9083 1.0589 0.51992 2.1718 0.65102 3.3741 0.39748z" stop-color="#000000"/>
   <path d="m9.0682 47.948c-1.15-0.24952-2.8261-1.2419-3.667-2.1711-1.1424-1.2624-1.617-3.0695-1.2548-4.7781 0.34889-1.6461 1.6131-3.149 3.4083-4.0517 1.2112-0.60904 1.347-0.63107 4.3902-0.71186 3.5798-0.09502 4.857-0.26334 7.3783-0.97232 2.272-0.63887 3.4651-1.3825 4.3177-2.6911 0.59989-0.92074 1.6427-1.6074 4.6843-3.0843 1.4608-0.70931 13.127-5.416 17.545-7.0784 3.2077-1.207 5.8222-2.0075 7.5025-2.297 1.8421-0.3174 3.9117-0.09244 5.2254 0.56799 0.65733 0.33044 1.2826 0.79557 1.2809 0.95279-4.42e-4 0.03715-1.9792 0.87092-4.3973 1.8528s-7.4393 3.0242-11.158 4.5384c-6.0796 2.4754-9.1548 3.6988-22.064 8.7782-2.048 0.80581-3.997 1.5487-4.331 1.6509-0.9087 0.27789-1.0394 0.36047-1.1271 0.71235-0.08063 0.32322-0.01424 0.61985 0.37843 1.6909 0.22838 0.62292 0.25241 1.8959 0.05043 2.6713-0.53127 2.0397-2.5662 3.8676-4.9246 4.4236-0.69634 0.16418-2.4739 0.16241-3.2372-0.0032zm2.6549-2.0238c1.303-0.23237 2.7565-1.2617 3.2429-2.2966 0.42733-0.9091 0.42733-2.0218 0-2.9309-0.49419-1.0514-1.9366-2.0628-3.2866-2.3045-1.7871-0.32003-3.4267 0.211-4.6386 1.5024-0.70897 0.75543-0.85685 1.1468-0.85685 2.2676 0 0.83032 0.025209 0.97928 0.23933 1.4142 0.42678 0.86687 1.756 1.971 2.6757 2.2227 0.93381 0.25548 1.6909 0.29159 2.6241 0.12516zm18.607-13.137c0.56638-0.21399 1.0001-0.84405 1.0001-1.4528 0-1.3897-1.7462-2.056-2.6799-1.0225-0.53316 0.59014-0.54615 1.4278-0.03125 2.0142 0.44969 0.51218 1.107 0.6893 1.711 0.46108z" stop-color="#000000"/>
   <path d="m54.135 42.687c-1.6987-0.18394-4.3972-0.96366-8.0875-2.3369-1.3208-0.49148-5.2311-2.0675-11.787-4.7507-0.66605-0.2726-1.0453-0.4709-0.97227-0.50838 0.06584-0.0338 1.481-0.60953 3.1448-1.2794l3.0251-1.2179 10.056 4.1332c5.531 2.2733 10.149 4.1802 10.262 4.2377 0.20501 0.10421 0.20455 0.10532-0.17678 0.4153-0.5339 0.43402-1.0877 0.73849-1.7102 0.94033-1.0262 0.3327-2.6259 0.48898-3.7544 0.36678z" stop-color="#000000"/>
  </g>
 </g>
</svg>
