<?xml version="1.0" encoding="UTF-8"?>
<svg id="SVGRoot" width="64px" height="64px" version="1.1" viewBox="0 0 64 64" xmlns="http://www.w3.org/2000/svg">
 <g stroke="#000" stroke-linejoin="round">
  <g fill="none">
   <g stroke-width="1px">
    <path d="m9.1538 15.769 9.3846 46.923h28.154l9.3846-46.923z"/>
    <path d="m4.4615 12.486h56.308l-4.6923-6.1016h-46.923z"/>
    <path d="m23.231 6.3846 4.6923-4.6923h9.3846l4.6923 4.6923"/>
   </g>
   <path d="m22.231 25 3.4615 30h3.4615v-30z" stroke-width=".99999px"/>
   <path d="m39.538 55 3.4615-30h-6.9231v30z" stroke-width=".99999px"/>
  </g>
  <g fill="#d40000" fill-rule="evenodd">
   <path d="m5.6118 11.904c0-0.02545 0.85729-1.159 1.9051-2.5191l1.9051-2.4728h46.385l1.9051 2.4728c1.0478 1.36 1.9051 2.4936 1.9051 2.5191 0 0.02545-12.151 0.04628-27.003 0.04628-14.851 0-27.003-0.02083-27.003-0.04628z" style="paint-order:fill markers stroke"/>
   <path d="m26.295 4.04 1.8103-1.812h9.0188l3.6207 3.6239h-16.26z" style="paint-order:fill markers stroke"/>
   <path d="m18.876 61.691c-0.052499-0.25522-2.1177-10.577-4.5893-22.937l-4.4938-22.473h45.644l-4.4938 22.473c-2.4716 12.36-4.5368 22.682-4.5893 22.937l-0.09545 0.46404h-27.287zm10.616-6.3114c0.1554-0.14064 0.16164-0.73386 0.16164-15.373 0-13.725-0.0137-15.241-0.1389-15.366-0.12184-0.12184-0.59241-0.1389-3.8312-0.1389-3.5549 0-3.6981 0.0064-3.8491 0.17323-0.15068 0.1665-0.08938 0.75818 1.5775 15.225 0.95385 8.2784 1.7342 15.101 1.7341 15.162-8.8e-5 0.06077 0.07934 0.19004 0.17657 0.28726 0.1659 0.1659 0.29463 0.17678 2.0923 0.17678 1.6583 0 1.9372-0.01964 2.0771-0.14628zm10.415-0.030495c0.09723-0.09723 0.17654-0.2265 0.17626-0.28726-2.65e-4 -0.06077 0.78081-6.8829 1.7358-15.16 1.6758-14.525 1.7308-15.056 1.5778-15.225-0.15316-0.16924-0.28242-0.17511-3.8508-0.17511-3.2388 0-3.7094 0.01706-3.8312 0.1389-0.12519 0.12519-0.1389 1.6396-0.1389 15.351 0 14.031 0.01136 15.224 0.14628 15.373 0.13321 0.1472 0.31881 0.16164 2.0771 0.16164 1.813 0 1.9416-0.01079 2.1076-0.17678z" style="paint-order:fill markers stroke"/>
  </g>
 </g>
</svg>
