<?xml version="1.0" encoding="UTF-8"?>
<svg id="SVGRoot" width="64px" height="64px" version="1.1" viewBox="0 0 64 64" xmlns="http://www.w3.org/2000/svg" xmlns:cc="http://creativecommons.org/ns#" xmlns:dc="http://purl.org/dc/elements/1.1/" xmlns:rdf="http://www.w3.org/1999/02/22-rdf-syntax-ns#">
 <metadata>
  <rdf:RDF>
   <cc:Work rdf:about="">
    <dc:format>image/svg+xml</dc:format>
    <dc:type rdf:resource="http://purl.org/dc/dcmitype/StillImage"/>
    <dc:title/>
   </cc:Work>
  </rdf:RDF>
 </metadata>
 <g>
  <g transform="matrix(1.1086 0 0 .9286 -9.4134 1.5599)" display="none" fill="#59f" stroke="#000080" stroke-width="1.0942" aria-label="?">
   <path d="m47.417 37.376h5.7945v7.2503h-5.7945zm5.6233-4.196h-5.452v-4.3959q0-2.883 0.79925-4.7384t3.3683-4.3102l2.569-2.5405q1.627-1.5129 2.3407-2.8545 0.74216-1.3416 0.74216-2.7403 0-2.5405-1.8839-4.1104-1.8554-1.5699-4.9382-1.5699-2.255 0-4.824 0.99906-2.5405 0.99906-5.3093 2.9115v-5.3664q2.6832-1.627 5.4235-2.4263 2.7688-0.79925 5.7089-0.79925 5.2522 0 8.4206 2.7688 3.197 2.7688 3.197 7.3074 0 2.1694-1.0276 4.139-1.0276 1.941-3.5966 4.3959l-2.5119 2.4548q-1.3416 1.3416-1.9125 2.1123-0.54235 0.74216-0.7707 1.4558-0.17127 0.59944-0.2569 1.4558-0.08563 0.85634-0.08563 2.3407z" fill="#59f" stroke="#000080" stroke-width="1.0942"/>
  </g>
  <path d="m15 9a4 4 0 0 0-2.5293 0.93555c-9.6418 8.0905-13.203 21.383-8.8984 33.211 4.3048 11.827 15.578 19.721 28.164 19.721s23.859-7.8932 28.164-19.721c4.3048-11.827 0.7434-25.12-8.8984-33.211a4 4 0 0 0-5.6348 0.49219 4 4 0 0 0 0.49219 5.6348c7.0866 5.9463 9.6874 15.655 6.5234 24.348-3.164 8.6929-11.396 14.457-20.646 14.457s-17.483-5.7641-20.646-14.457c-3.164-8.6929-0.56312-18.401 6.5234-24.348a4 4 0 0 0 0.49219-5.6348 4 4 0 0 0-3.1055-1.4277z" color="#000000" color-rendering="auto" dominant-baseline="auto" fill="#008080" image-rendering="auto" shape-rendering="auto" solid-color="#000000" stop-color="#000000" stroke="#000" stroke-linecap="round" stroke-linejoin="round" stroke-width="2" style="d:M 48.68074200000000218, 13.59673000000000087 A 25.97222899999999868, 25.97222899999999868 0 0 1 56.39202600000000132, 42.37563699999999756 25.97222899999999868, 25.97222899999999868 0 0 1 31.98611400000000060, 59.46484000000000236 25.97222899999999868, 25.97222899999999868 0 0 1 7.58020240000000012, 42.37563600000000008 25.97222899999999868, 25.97222899999999868 0 0 1 15.29148799999999930, 13.59672899999999984;font-feature-settings:normal;font-variant-alternates:normal;font-variant-caps:normal;font-variant-east-asian:normal;font-variant-ligatures:normal;font-variant-numeric:normal;font-variant-position:normal;font-variation-settings:normal;inline-size:0;isolation:auto;mix-blend-mode:normal;paint-order:stroke fill markers;shape-margin:0;shape-padding:0;text-decoration-color:#000000;text-decoration-line:none;text-decoration-style:solid;text-indent:0;text-orientation:mixed;text-transform:none;white-space:normal"/>
  <path d="m32 1a4 4 0 0 0-4 4v26a4 4 0 0 0 4 4 4 4 0 0 0 4-4v-26a4 4 0 0 0-4-4z" color="#000000" color-rendering="auto" dominant-baseline="auto" fill="#008080" image-rendering="auto" shape-rendering="auto" solid-color="#000000" stop-color="#000000" stroke="#000" stroke-linecap="round" stroke-linejoin="round" style="font-feature-settings:normal;font-variant-alternates:normal;font-variant-caps:normal;font-variant-east-asian:normal;font-variant-ligatures:normal;font-variant-numeric:normal;font-variant-position:normal;font-variation-settings:normal;inline-size:0;isolation:auto;mix-blend-mode:normal;shape-margin:0;shape-padding:0;text-decoration-color:#000000;text-decoration-line:none;text-decoration-style:solid;text-indent:0;text-orientation:mixed;text-transform:none;white-space:normal"/>
 </g>
</svg>
