<?xml version="1.0" encoding="UTF-8"?>
<svg id="SVGRoot" width="64px" height="64px" version="1.1" viewBox="0 0 64 64" xmlns="http://www.w3.org/2000/svg">
 <g stroke-linecap="round" stroke-linejoin="round">
  <g shape-rendering="auto" stroke="#000">
   <path d="m59.92 32.396c0 8.2843-12.349 15-27.582 15s-27.582-6.7157-27.582-15 12.349-15 27.582-15 27.582 6.7157 27.582 15z" color="#000000" color-rendering="auto" dominant-baseline="auto" fill="#fff" image-rendering="auto" solid-color="#000000" stop-color="#000000" stroke-width="8" style="font-feature-settings:normal;font-variant-alternates:normal;font-variant-caps:normal;font-variant-east-asian:normal;font-variant-ligatures:normal;font-variant-numeric:normal;font-variant-position:normal;font-variation-settings:normal;inline-size:0;isolation:auto;mix-blend-mode:normal;shape-margin:0;shape-padding:0;text-decoration-color:#000000;text-decoration-line:none;text-decoration-style:solid;text-indent:0;text-orientation:mixed;text-transform:none;white-space:normal"/>
   <path d="m32.338 15.396c-7.9104 0-15.093 1.7183-20.459 4.6367-5.3664 2.9185-9.123 7.2274-9.123 12.363 0 5.1359 3.7566 9.4448 9.123 12.363 5.3664 2.9185 12.549 4.6367 20.459 4.6367 7.9104 1e-6 15.093-1.7183 20.459-4.6367 5.3664-2.9185 9.123-7.2274 9.123-12.363 0-5.1359-3.7566-9.4448-9.123-12.363-5.3664-2.9185-12.549-4.6367-20.459-4.6367zm0 4c7.3226 0 13.933 1.6399 18.549 4.1504s7.0332 5.7012 7.0332 8.8496c0 3.1484-2.417 6.3391-7.0332 8.8496s-11.226 4.1504-18.549 4.1504c-7.3226 0-13.931-1.6399-18.547-4.1504-4.6162-2.5105-7.0352-5.7012-7.0352-8.8496 0-3.1484 2.4189-6.3391 7.0352-8.8496 4.6162-2.5105 11.224-4.1504 18.547-4.1504z" color="#000000" color-rendering="auto" dominant-baseline="auto" fill="#b3b3b3" image-rendering="auto" solid-color="#000000" stop-color="#000000" style="font-feature-settings:normal;font-variant-alternates:normal;font-variant-caps:normal;font-variant-east-asian:normal;font-variant-ligatures:normal;font-variant-numeric:normal;font-variant-position:normal;font-variation-settings:normal;inline-size:0;isolation:auto;mix-blend-mode:normal;shape-margin:0;shape-padding:0;text-decoration-color:#000000;text-decoration-line:none;text-decoration-style:solid;text-indent:0;text-orientation:mixed;text-transform:none;white-space:normal"/>
  </g>
  <circle cx="32.523" cy="32.521" r="8.7156" fill="#06f" stop-color="#000000" stroke="#333"/>
 </g>
</svg>
