<?xml version="1.0" encoding="UTF-8"?>
<svg width="64" height="64" version="1.1" viewBox="0 0 64 64" xmlns="http://www.w3.org/2000/svg">
 <path d="m61.477 2h-59.243l-0.00103 50.46 9.4425 9.4142 49.794 0.0076z" fill="none" stroke="#1aff75" stroke-linejoin="round" stroke-width="3"/>
 <path d="m13.824 30.409-1.8238-1.8465v-25.394h39.656v25.486l-3.5627 3.6009h-32.446zm31.677-5.6698v-0.66713h-27.346v1.3343h27.346zm0-5.2481v-0.66713h-27.346v1.3343h27.346zm0-5.2481v-0.66713h-27.346v1.3343h27.346zm0-5.2481v-0.66713h-27.346v1.3343h27.346z" fill="#fff" stroke="#fff" stroke-linejoin="round" stroke-width="2" style="paint-order:stroke fill markers"/>
 <path d="m11.334 3.1316v26.777l3.9712 4.0165h33.093l3.9712-4.0165v-26.777" fill="none"/>
 <path d="m60.37 31.989v28.887h-11.589v-16.743l-2.9614-2.9923h-24.011l-2.958 2.9957v16.74h-1.4468l-5.1985-0.084337-4.5421-4.7895-4.292-4.0304 0.11118-17.321c0.047456-7.393-0.055562-17.515-0.055562-22.495v-9.0525h7.6702v25.851l4.2949 4.3423h33.016l4.2924-4.3448v-25.849h7.6702v28.887z" fill="#008033" stroke="#373748" stroke-width=".12856"/>
 <path d="m60.742 2.743h-57.773l-1e-3 49.208 9.2081 9.1806 48.558 0.0074z" fill="none" stroke="#008033" stroke-linejoin="round" stroke-width="2"/>
 <path d="m18.252 61.971v-18.175l2.8862-2.7962h25.976l2.8862 2.7962v18.175" fill="#b3b3b3"/>
 <path d="m26.016 58.398v-12.908h6.984v12.908z" fill="#008033" fill-rule="evenodd"/>
 <g transform="matrix(.79379 0 0 .79379 1.5033 20.286)" fill="#008033" stroke="#008033" aria-label="01">
  <path d="m20-2.88q0-6.96 2.44-10.72 2.48-3.76 6.84-3.76t6.8 3.76q2.48 3.76 2.48 10.72t-2.48 10.72q-2.44 3.76-6.8 3.76t-6.84-3.76q-2.44-3.76-2.44-10.72zm14.64 0q0-2.28-0.28-4.32-0.24-2.04-0.88-3.56-0.6-1.52-1.64-2.4-1.04-0.92-2.56-0.92t-2.56 0.92q-1.04 0.88-1.68 2.4-0.6 1.52-0.88 3.56-0.24 2.04-0.24 4.32t0.24 4.32q0.28 2.04 0.88 3.56 0.64 1.52 1.68 2.44 1.04 0.88 2.56 0.88t2.56-0.88q1.04-0.92 1.64-2.44 0.64-1.52 0.88-3.56 0.28-2.04 0.28-4.32z" style="font-variant-caps:normal;font-variant-east-asian:normal;font-variant-ligatures:normal;font-variant-numeric:normal"/>
  <path d="m44.298-11q2.28-0.88 4.44-2.24 2.16-1.4 3.96-3.48h2.64v27.72h-3.72v-22.56q-0.48 0.44-1.2 0.92-0.68 0.48-1.52 0.92-0.8 0.44-1.72 0.84-0.88 0.4-1.72 0.68z" style="font-variant-caps:normal;font-variant-east-asian:normal;font-variant-ligatures:normal;font-variant-numeric:normal"/>
 </g>
</svg>
