<?xml version="1.0" encoding="UTF-8"?>
<svg width="64" height="64" version="1.1" viewBox="0 0 64 64" xmlns="http://www.w3.org/2000/svg">
 <path d="m58.512 5h-53.308l-9.268e-4 45.404 8.4965 8.471 44.871 0.01094z" fill="none" stroke="#000" stroke-linejoin="round" stroke-width="2.6994"/>
 <path d="m57.516 31.984v25.993h-10.428v-15.066l-2.6647-2.6925h-21.605l-2.6616 2.6956v15.063h-1.3018l-4.6777-0.07589-4.087-4.3096-3.862-3.6266 0.10004-15.586c0.042701-6.6523-0.049995-15.76-0.049995-20.241v-8.1455h6.9017v23.261l3.8646 3.9072h29.708l3.8623-3.9095v-23.259h6.9017v25.993z" fill="#b80092" stroke="#373748" stroke-width=".11568"/>
 <path d="m15.634 30.563-1.6411-1.6615v-22.85h35.683v22.933l-3.2058 3.2401h-29.195zm28.503-5.1017v-0.60029h-24.606v1.2006h24.606zm0-4.7223v-0.60029h-24.606v1.2006h24.606zm0-4.7223v-0.60029h-24.606v1.2006h24.606zm0-4.7223v-0.60029h-24.606v1.2006h24.606z" fill="#fff" stroke="#fff" stroke-linejoin="round" stroke-width="1.7996" style="paint-order:stroke fill markers"/>
 <path d="m13.393 6.0182v24.094l3.5733 3.6141h29.777l3.5733-3.6141v-24.094" fill="none" stroke-width=".89981"/>
 <path d="m57.851 5.6686h-51.985l-8.998e-4 44.278 8.2855 8.2608 43.757 0.01067z" fill="none" stroke="#b80092" stroke-linejoin="round" stroke-width="1.7996"/>
 <path d="m19.618 58.989v-16.377l2.597-2.5195h23.373l2.597 2.5195v16.377" fill="#b3b3b3" stroke-width=".89981"/>
 <g transform="matrix(.89981 0 0 .89981 3.1947 3.2004)" fill="#b80092">
  <path d="m26.016 57.664v-12.364h6.984v12.364z" fill-rule="evenodd"/>
  <path d="m25.443 22.193h-5.9349v-0.80556q0-1.3481 0.54252-2.3838 0.54252-1.0522 2.2852-2.6633l1.0522-0.95353q0.93709-0.85488 1.3645-1.6111 0.44388-0.75624 0.44388-1.5125 0-1.1508-0.78912-1.792-0.78912-0.6576-2.203-0.6576-1.3316 0-2.877 0.55896-1.5454 0.54252-3.2223 1.6276v-5.1622q1.9893-0.69048 3.6333-1.0193 1.644-0.3288 3.1729-0.3288 4.0114 0 6.1157 1.644 2.1043 1.6276 2.1043 4.7676 0 1.6111-0.64116 2.8935-0.64116 1.2659-2.1865 2.7291l-1.0522 0.93709q-1.1179 1.0193-1.4632 1.644-0.34524 0.60828-0.34524 1.3481zm-5.9349 2.4331h5.9349v5.8527h-5.9349z" stroke-width=".89477" style="font-variant-caps:normal;font-variant-east-asian:normal;font-variant-ligatures:normal;font-variant-numeric:normal"/>
  <path d="m43.338 22.193h-5.9349v-0.80556q0-1.3481 0.54252-2.3838 0.54252-1.0522 2.2852-2.6633l1.0522-0.95353q0.93708-0.85488 1.3645-1.6111 0.44388-0.75624 0.44388-1.5125 0-1.1508-0.78912-1.792-0.78912-0.6576-2.203-0.6576-1.3316 0-2.877 0.55896-1.5454 0.54252-3.2223 1.6276v-5.1622q1.9893-0.69048 3.6333-1.0193 1.644-0.3288 3.1729-0.3288 4.0114 0 6.1157 1.644 2.1043 1.6276 2.1043 4.7676 0 1.6111-0.64116 2.8935-0.64116 1.2659-2.1865 2.7291l-1.0522 0.93709q-1.1179 1.0193-1.4632 1.644-0.34524 0.60828-0.34524 1.3481zm-5.9349 2.4331h5.9349v5.8527h-5.9349z" stroke-width=".89477" style="font-variant-caps:normal;font-variant-east-asian:normal;font-variant-ligatures:normal;font-variant-numeric:normal"/>
 </g>
</svg>
