<?xml version="1.0" encoding="UTF-8"?>
<svg id="SVGRoot" width="64px" height="64px" version="1.1" viewBox="0 0 64 64" xmlns="http://www.w3.org/2000/svg">
 <path d="m10 6v51a2 2 45 0 0 2 2h41a2 2 135 0 0 2-2v-36a4.8284 4.8284 67.5 0 0-1.4142-3.4142l-12.172-12.172a4.8284 4.8284 22.5 0 0-3.4142-1.4142h-26a2 2 135 0 0-2 2z" fill="#fff" stroke="#000" stroke-linecap="round" stroke-linejoin="round" stroke-width="2"/>
 <path d="m39.619 4.4793v15h15" fill="none" stroke="#000" stroke-linecap="round" stroke-linejoin="round" stroke-width="2"/>
 <path d="m41.038 12.241v-5.7342l5.7188 5.7185c3.1453 3.1452 5.7188 5.7256 5.7188 5.7342 0 0.0087-2.5734 0.01575-5.7188 0.01575h-5.7188z" fill="#fff" style="paint-order:stroke fill markers"/>
 <g fill="none" stroke="#000" stroke-linecap="round" stroke-width="2.191">
  <path d="m17 30h30"/>
  <path d="m17 50h30"/>
  <path d="m17 40h30"/>
 </g>
</svg>
