<?xml version="1.0" encoding="UTF-8"?>
<svg width="64" height="64" version="1.1" viewBox="0 0 64 64" xmlns="http://www.w3.org/2000/svg" xmlns:cc="http://creativecommons.org/ns#" xmlns:dc="http://purl.org/dc/elements/1.1/" xmlns:rdf="http://www.w3.org/1999/02/22-rdf-syntax-ns#" xmlns:xlink="http://www.w3.org/1999/xlink">
 <metadata>
  <rdf:RDF>
   <cc:Work rdf:about="">
    <dc:format>image/svg+xml</dc:format>
    <dc:type rdf:resource="http://purl.org/dc/dcmitype/StillImage"/>
    <dc:title/>
   </cc:Work>
  </rdf:RDF>
 </metadata>
 <defs>
  <linearGradient id="linearGradient849" x1="53.7" x2="53.605" y1="2.2846" y2="61.753" gradientTransform="matrix(.90407 0 0 .90407 3.0701 3.0689)" gradientUnits="userSpaceOnUse">
   <stop stop-color="#1fbbff" offset="0"/>
   <stop stop-color="#006fa5" offset="1"/>
  </linearGradient>
 </defs>
 <path d="m5.3077 5s0.050432 29.579-0.052922 45.661l4.0111 3.7648 4.2429 4.4765 4.8579 0.07846h1.3522v-15.641l2.7629-2.7994h22.435l2.7665 2.7957v15.645h10.827v-26.992l0.0019 0.0019v-26.99z" fill="url(#linearGradient849)" stroke-width="0"/>
 <g stroke="#000">
  <path d="m19.571 59.329v-16.633l2.6093-2.5589h23.484l2.6093 2.5589v16.633" fill="#b3b3b3" stroke-width=".90407"/>
  <path d="m58.646 4.8771h-53.556l0.1847 45.617 8.3504 8.5105 45.291 0.09982z" fill="none" stroke-linejoin="round" stroke-width="1.0849"/>
  <path d="m26.59 55.201v-11.178h6.314v11.178z" fill="#008acb" fill-rule="evenodd" stroke-width=".90407"/>
  <path d="m15.848 30.724-1.8234-1.7794v-17.943h36.302v17.948l-3.7294 3.5751-28.926-0.02222z" fill="#d5e5ff" fill-rule="evenodd" stroke-linecap="round" stroke-linejoin="round" stroke-width=".90407"/>
 </g>
</svg>
