<?xml version="1.0" encoding="UTF-8"?>
<svg width="64" height="64" version="1.1" viewBox="0 0 64 64" xmlns="http://www.w3.org/2000/svg">
 <path d="m61.477 2h-59.243l-0.00103 50.46 9.4425 9.4142 49.794 0.0076z" fill="none" stroke="#e9afaf" stroke-linejoin="round" stroke-width="3"/>
 <path d="m13.824 30.409-1.8238-1.8465v-25.394h39.656v25.486l-3.5627 3.6009h-32.446zm31.677-5.6698v-0.66713h-27.346v1.3343h27.346zm0-5.2481v-0.66713h-27.346v1.3343h27.346zm0-5.2481v-0.66713h-27.346v1.3343h27.346zm0-5.2481v-0.66713h-27.346v1.3343h27.346z" fill="#fff" stroke="#fff" stroke-linejoin="round" stroke-width="2" style="paint-order:stroke fill markers"/>
 <path d="m11.334 3.1316v26.777l3.9712 4.0165h33.093l3.9712-4.0165v-26.777" fill="none"/>
 <path d="m60.37 31.989v28.887h-11.589v-16.743l-2.9614-2.9923h-24.011l-2.958 2.9957v16.74h-1.4468l-5.1985-0.084337-4.5421-4.7895-4.292-4.0304 0.11118-17.321c0.047456-7.393-0.055562-17.515-0.055562-22.495v-9.0525h7.6702v25.851l4.2949 4.3423h33.016l4.2924-4.3448v-25.849h7.6702v28.887z" fill="#c83737" stroke="#373748" stroke-width=".12856"/>
 <g fill="#d40000" stroke="#c83737" stroke-width="3">
  <path d="m19 25h27.236"/>
  <path d="m19 17h27.236"/>
  <path d="m19 9h27.236"/>
 </g>
 <path d="m60.742 2.743h-57.773l-1e-3 49.208 9.2081 9.1806 48.558 0.0074z" fill="none" stroke="#c83737" stroke-linejoin="round" stroke-width="2"/>
 <path d="m18.252 62v-18.2l2.8862-2.8h25.976l2.8862 2.8v18.2" fill="#b3b3b3"/>
 <path d="m26.016 57.664v-12.364h6.984v12.364z" fill="#c83737" fill-rule="evenodd"/>
</svg>
