<?xml version="1.0" encoding="UTF-8"?>
<svg id="SVGRoot" width="64px" height="64px" version="1.1" viewBox="0 0 64 64" xmlns="http://www.w3.org/2000/svg" xmlns:xlink="http://www.w3.org/1999/xlink">
 <defs>
  <linearGradient id="linearGradient1491" x1="7.0581" x2="57.588" y1="32.14" y2="32.14" gradientUnits="userSpaceOnUse">
   <stop stop-color="#fff" offset="0"/>
   <stop stop-color="#b2b2b2" offset="1"/>
  </linearGradient>
 </defs>
 <g stroke="#000" stroke-linecap="round">
  <path d="m8.0581 4.4832v55.314a2 2 45 0 0 2 2h44.529a2 2 135 0 0 2-2v-39.137a4.8284 4.8284 67.5 0 0-1.4142-3.4142l-13.348-13.348a4.8284 4.8284 22.5 0 0-3.4142-1.4142h-28.353a2 2 135 0 0-2 2z" fill="url(#linearGradient1491)" stroke-linejoin="round" stroke-width="2"/>
  <path d="m40 3v16.176h16.176" fill="none" stroke-linejoin="round" stroke-width="2"/>
  <g transform="matrix(1.0784 0 0 1.0784 -2.7262 -1.8306)" fill="none" stroke-width="2.0316">
   <path d="m17 30h30"/>
   <path d="m17 50h30"/>
   <path d="m17 40h30"/>
  </g>
 </g>
 <path d="m41.04 11.36v-6.7681l6.7444 6.7439c3.7094 3.7091 6.7444 6.7548 6.7444 6.7681 0 0.01329-3.035 0.02417-6.7444 0.02417h-6.7444z" fill="#fff" fill-rule="evenodd" stroke-width="0"/>
</svg>
