<?xml version="1.0" encoding="UTF-8"?>
<svg width="64" height="64" version="1.1" viewBox="0 0 64 64" xmlns="http://www.w3.org/2000/svg" xmlns:cc="http://creativecommons.org/ns#" xmlns:dc="http://purl.org/dc/elements/1.1/" xmlns:rdf="http://www.w3.org/1999/02/22-rdf-syntax-ns#">
 <metadata>
  <rdf:RDF>
   <cc:Work rdf:about="">
    <dc:format>image/svg+xml</dc:format>
    <dc:type rdf:resource="http://purl.org/dc/dcmitype/StillImage"/>
    <dc:title/>
   </cc:Work>
  </rdf:RDF>
 </metadata>
 <path d="m58.509 5h-53.307l-9.268e-4 45.404 8.4964 8.4709 44.805 0.0068z" fill="none" stroke="#1aff75" stroke-linejoin="round" stroke-width="2.6994"/>
 <path d="m15.631 30.562-1.6411-1.6615v-22.85h35.683v22.932l-3.2057 3.2401h-29.195zm28.503-5.1017v-0.60029h-24.606v1.2006h24.606zm0-4.7223v-0.60028h-24.606v1.2006h24.606zm0-4.7223v-0.60028h-24.606v1.2006h24.606zm0-4.7223v-0.60028h-24.606v1.2006h24.606z" fill="#fff" stroke="#fff" stroke-linejoin="round" stroke-width="1.7996" style="paint-order:stroke fill markers"/>
 <path d="m13.39 6.0182v24.094l3.5733 3.6141h29.777l3.5733-3.6141v-24.094" fill="none" stroke-width=".8998"/>
 <path d="m57.513 31.984v25.993h-10.428v-15.065l-2.6647-2.6925h-21.605l-2.6616 2.6955v15.063h-1.3018l-4.6776-0.07589-4.087-4.3096-3.862-3.6266 0.10004-15.585c0.042701-6.6522-0.049995-15.76-0.049995-20.241v-8.1455h6.9017v23.261l3.8646 3.9072h29.708l3.8623-3.9095v-23.259h6.9017v25.993z" fill="#008033" stroke="#373748" stroke-width=".11568"/>
 <path d="m57.848 5.6686h-51.984l-8.998e-4 44.277 8.2855 8.2607 43.693 0.0067z" fill="none" stroke="#008033" stroke-linejoin="round" stroke-width="1.7996"/>
 <path d="m19.615 58.962v-16.354l2.597-2.516h23.373l2.597 2.516v16.354" fill="#b3b3b3" stroke-width=".8998"/>
 <path d="m26.601 55.747v-11.615h6.2842v11.615z" fill="#008033" fill-rule="evenodd" stroke-width=".8998"/>
 <g transform="matrix(.71425 0 0 .71425 4.5445 21.454)" fill="#008033" stroke="#008033" aria-label="01">
  <path d="m20-2.88q0-6.96 2.44-10.72 2.48-3.76 6.84-3.76t6.8 3.76q2.48 3.76 2.48 10.72t-2.48 10.72q-2.44 3.76-6.8 3.76t-6.84-3.76q-2.44-3.76-2.44-10.72zm14.64 0q0-2.28-0.28-4.32-0.24-2.04-0.88-3.56-0.6-1.52-1.64-2.4-1.04-0.92-2.56-0.92t-2.56 0.92q-1.04 0.88-1.68 2.4-0.6 1.52-0.88 3.56-0.24 2.04-0.24 4.32t0.24 4.32q0.28 2.04 0.88 3.56 0.64 1.52 1.68 2.44 1.04 0.88 2.56 0.88t2.56-0.88q1.04-0.92 1.64-2.44 0.64-1.52 0.88-3.56 0.28-2.04 0.28-4.32z" style="font-variant-caps:normal;font-variant-east-asian:normal;font-variant-ligatures:normal;font-variant-numeric:normal"/>
  <path d="m44.298-11q2.28-0.88 4.44-2.24 2.16-1.4 3.96-3.48h2.64v27.72h-3.72v-22.56q-0.48 0.44-1.2 0.92-0.68 0.48-1.52 0.92-0.8 0.44-1.72 0.84-0.88 0.4-1.72 0.68z" style="font-variant-caps:normal;font-variant-east-asian:normal;font-variant-ligatures:normal;font-variant-numeric:normal"/>
 </g>
</svg>
