<?xml version="1.0" encoding="UTF-8"?>
<svg width="64" height="64" version="1.1" viewBox="0 0 64 64" xmlns="http://www.w3.org/2000/svg">
 <path d="m61.477 2h-59.244l-0.00103 50.46 9.4425 9.4142 49.867 0.01216z" fill="none" stroke="#ff1ad0" stroke-linejoin="round" stroke-width="3"/>
 <path d="m60.37 31.989v28.887h-11.589v-16.743l-2.9614-2.9923h-24.011l-2.958 2.9957v16.74h-1.4468l-5.1985-0.08434-4.5421-4.7895-4.292-4.0304 0.11118-17.321c0.047456-7.393-0.055562-17.515-0.055562-22.495v-9.0525h7.6702v25.851l4.2949 4.3423h33.016l4.2924-4.3448v-25.849h7.6702v28.887z" fill="#800066" stroke="#373748" stroke-width=".12856"/>
 <path d="m13.824 30.409-1.8238-1.8465v-25.394h39.656v25.486l-3.5627 3.6009h-32.446zm31.677-5.6698v-0.66713h-27.346v1.3343h27.346zm0-5.2481v-0.66713h-27.346v1.3343h27.346zm0-5.2481v-0.66713h-27.346v1.3343h27.346zm0-5.2481v-0.66713h-27.346v1.3343h27.346z" fill="#fff" stroke="#fff" stroke-linejoin="round" stroke-width="2" style="paint-order:stroke fill markers"/>
 <path d="m11.334 3.1316v26.777l3.9712 4.0165h33.093l3.9712-4.0165v-26.777" fill="none"/>
 <path d="m60.742 2.743h-57.773l-1e-3 49.208 9.2081 9.1806 48.629 0.01186z" fill="none" stroke="#800066" stroke-linejoin="round" stroke-width="2"/>
 <path d="m18.252 62v-18.2l2.8862-2.8h25.976l2.8862 2.8v18.2" fill="#b3b3b3"/>
 <g fill="#800066">
  <path d="m26.016 57.664v-12.364h6.984v12.364z" fill-rule="evenodd"/>
  <path d="m25.443 22.193h-5.9349v-0.80556q0-1.3481 0.54252-2.3838 0.54252-1.0522 2.2852-2.6633l1.0522-0.95353q0.93709-0.85488 1.3645-1.6111 0.44388-0.75624 0.44388-1.5125 0-1.1508-0.78912-1.792-0.78912-0.6576-2.203-0.6576-1.3316 0-2.877 0.55896-1.5454 0.54252-3.2223 1.6276v-5.1622q1.9893-0.69048 3.6333-1.0193 1.644-0.3288 3.1729-0.3288 4.0114 0 6.1157 1.644 2.1043 1.6276 2.1043 4.7676 0 1.6111-0.64116 2.8935-0.64116 1.2659-2.1865 2.7291l-1.0522 0.93709q-1.1179 1.0193-1.4632 1.644-0.34524 0.60828-0.34524 1.3481zm-5.9349 2.4331h5.9349v5.8527h-5.9349z" stroke-width=".89477" style="font-variant-caps:normal;font-variant-east-asian:normal;font-variant-ligatures:normal;font-variant-numeric:normal"/>
  <path d="m43.338 22.193h-5.9349v-0.80556q0-1.3481 0.54252-2.3838 0.54252-1.0522 2.2852-2.6633l1.0522-0.95353q0.93708-0.85488 1.3645-1.6111 0.44388-0.75624 0.44388-1.5125 0-1.1508-0.78912-1.792-0.78912-0.6576-2.203-0.6576-1.3316 0-2.877 0.55896-1.5454 0.54252-3.2223 1.6276v-5.1622q1.9893-0.69048 3.6333-1.0193 1.644-0.3288 3.1729-0.3288 4.0114 0 6.1157 1.644 2.1043 1.6276 2.1043 4.7676 0 1.6111-0.64116 2.8935-0.64116 1.2659-2.1865 2.7291l-1.0522 0.93709q-1.1179 1.0193-1.4632 1.644-0.34524 0.60828-0.34524 1.3481zm-5.9349 2.4331h5.9349v5.8527h-5.9349z" stroke-width=".89477" style="font-variant-caps:normal;font-variant-east-asian:normal;font-variant-ligatures:normal;font-variant-numeric:normal"/>
 </g>
</svg>
