<?xml version="1.0" encoding="UTF-8"?>
<svg width="64" height="64" version="1.1" viewBox="0 0 64 64" xmlns="http://www.w3.org/2000/svg">
 <path d="m58.519 5h-53.306l0.18384 45.403 8.3115 8.4708 45.049-0.12143z" fill="none" stroke="#000" stroke-linejoin="round" stroke-width="2.6994"/>
 <path d="m15.644 30.562-1.641-1.6615v-22.849h35.682v22.932l-3.2057 3.2401h-29.195zm28.503-5.1016v-0.60028h-24.606v1.2006h24.606zm0-4.7222v-0.60028h-24.606v1.2006h24.606zm0-4.7222v-0.60028h-24.606v1.2006h24.606zm0-4.7222v-0.60028h-24.606v1.2006h24.606z" fill="#fff" stroke="#fff" stroke-linejoin="round" stroke-width="1.7996" style="paint-order:stroke fill markers"/>
 <path d="m13.403 6.0182v24.094l3.5732 3.614h29.777l3.5732-3.614v-24.094" fill="none" stroke-width=".89979"/>
 <path d="m57.526 31.984v25.992h-10.428v-15.065l-2.6646-2.6924h-21.605l-2.6616 2.6955v15.062h-1.3018l-4.6776-0.07589-4.0869-4.3095-3.8619-3.6265 0.10004-15.585c0.0427-6.6521-0.049994-15.76-0.049994-20.241v-8.1453h6.9016v23.26l3.8645 3.9072h29.707l3.8623-3.9094v-23.259h6.9016v25.992z" fill="#0092b8" stroke="#373748" stroke-width=".11568"/>
 <path d="m57.86 5.6685h-51.984l0.17927 44.277 8.1052 8.2606 43.931-0.11841z" fill="none" stroke="#0092b8" stroke-linejoin="round" stroke-width="1.7996"/>
 <path d="m19.628 58.987v-16.376l2.597-2.5194h23.373l2.597 2.5194v16.376" fill="#b3b3b3" stroke-width=".89979"/>
 <path d="m26.614 55.086v-11.125h6.2841v11.125z" fill="#0092b8" fill-rule="evenodd" stroke-width=".89979"/>
 <path d="m33.798 23.483h-5.3963v-0.73246q0-1.2257 0.49329-2.1675 0.49329-0.95666 2.0778-2.4216l0.95666-0.86703q0.85206-0.77731 1.2407-1.4649 0.40361-0.68762 0.40361-1.3752 0-1.0465-0.71751-1.6293-0.71751-0.59793-2.0031-0.59793-1.2108 0-2.616 0.50824-1.4051 0.49329-2.9298 1.4799v-4.6938q1.8088-0.62783 3.3036-0.92678 1.4948-0.29896 2.885-0.29896 3.6474 0 5.5608 1.4948 1.9134 1.4799 1.9134 4.335 0 1.4649-0.58298 2.6309-0.58298 1.151-1.9881 2.4814l-0.95666 0.85206q-1.0165 0.92678-1.3304 1.4948-0.31392 0.55308-0.31392 1.2257zm-5.3963 2.2123h5.3963v5.3215h-5.3963z" fill="#0092b8" stroke-width=".81357" style="font-variant-caps:normal;font-variant-east-asian:normal;font-variant-ligatures:normal;font-variant-numeric:normal"/>
</svg>
