<?xml version="1.0" encoding="UTF-8"?>
<svg id="SVGRoot" width="64px" height="64px" version="1.1" viewBox="0 0 64 64" xmlns="http://www.w3.org/2000/svg" xmlns:cc="http://creativecommons.org/ns#" xmlns:dc="http://purl.org/dc/elements/1.1/" xmlns:rdf="http://www.w3.org/1999/02/22-rdf-syntax-ns#">
 <metadata>
  <rdf:RDF>
   <cc:Work rdf:about="">
    <dc:format>image/svg+xml</dc:format>
    <dc:type rdf:resource="http://purl.org/dc/dcmitype/StillImage"/>
    <dc:title/>
   </cc:Work>
  </rdf:RDF>
 </metadata>
 <path d="m39.767 20.132-8.6342 1.9127c-3.9471 0.86939-6.9074 1.2171-12.088 1.6518-0.37004 0-0.98677 0.08694-1.8502 0.17388v3.1298l5.5506 0.26082c2.837 0.17388 3.207 0.95633 3.207 6.0857v19.04c0 4.6947-0.61673 5.3902-4.4404 5.5641l-4.3171 0.17388v3.2167l15.912-0.26082c2.4669 0 8.3875 0.08694 16.652 0.26082v-3.2167l-4.3171-0.17388c-3.8237-0.17388-4.4404-0.86939-4.4404-5.5641v-31.733zm-6.8446-17.287c-5.3039 0-9.3743 2.782-9.3743 6.4335 0 3.6514 4.0704 6.6073 9.2509 6.6073 5.0572 0 9.2509-2.9559 9.2509-6.5204 0-3.5645-4.0704-6.5204-9.1276-6.5204z" fill="#06f" stroke="#000" stroke-linecap="round" stroke-linejoin="round" stroke-width="1.1911" style="font-variant-caps:normal;font-variant-east-asian:normal;font-variant-ligatures:normal;font-variant-numeric:normal"/>
</svg>
