<?xml version="1.0" encoding="UTF-8"?>
<!DOCTYPE svg PUBLIC "-//W3C//DTD SVG 1.1//EN" "http://www.w3.org/Graphics/SVG/1.1/DTD/svg11.dtd">
<svg version="1.2" width="16mm" height="16mm" viewBox="0 0 1600 1600" preserveAspectRatio="xMidYMid" fill-rule="evenodd" stroke-width="28.222" stroke-linejoin="round" xmlns="http://www.w3.org/2000/svg" xmlns:ooo="http://xml.openoffice.org/svg/export" xmlns:xlink="http://www.w3.org/1999/xlink" xmlns:presentation="http://sun.com/xmlns/staroffice/presentation" xmlns:smil="http://www.w3.org/2001/SMIL20/" xmlns:anim="urn:oasis:names:tc:opendocument:xmlns:animation:1.0" xml:space="preserve">
 <defs class="ClipPathGroup">
  <clipPath id="presentation_clip_path" clipPathUnits="userSpaceOnUse">
   <rect x="0" y="0" width="1600" height="1600"/>
  </clipPath>
  <clipPath id="presentation_clip_path_shrink" clipPathUnits="userSpaceOnUse">
   <rect x="1" y="1" width="1597" height="1597"/>
  </clipPath>
 </defs>
 <defs class="TextShapeIndex">
  <g ooo:slide="id1" ooo:id-list="id3 id4 id5"/>
 </defs>
 <defs class="EmbeddedBulletChars">
  <g id="bullet-char-template-57356" transform="scale(0.00048828125,-0.00048828125)">
   <path d="M 580,1141 L 1163,571 580,0 -4,571 580,1141 Z"/>
  </g>
  <g id="bullet-char-template-57354" transform="scale(0.00048828125,-0.00048828125)">
   <path d="M 8,1128 L 1137,1128 1137,0 8,0 8,1128 Z"/>
  </g>
  <g id="bullet-char-template-10146" transform="scale(0.00048828125,-0.00048828125)">
   <path d="M 174,0 L 602,739 174,1481 1456,739 174,0 Z M 1358,739 L 309,1346 659,739 1358,739 Z"/>
  </g>
  <g id="bullet-char-template-10132" transform="scale(0.00048828125,-0.00048828125)">
   <path d="M 2015,739 L 1276,0 717,0 1260,543 174,543 174,936 1260,936 717,1481 1274,1481 2015,739 Z"/>
  </g>
  <g id="bullet-char-template-10007" transform="scale(0.00048828125,-0.00048828125)">
   <path d="M 0,-2 C -7,14 -16,27 -25,37 L 356,567 C 262,823 215,952 215,954 215,979 228,992 255,992 264,992 276,990 289,987 310,991 331,999 354,1012 L 381,999 492,748 772,1049 836,1024 860,1049 C 881,1039 901,1025 922,1006 886,937 835,863 770,784 769,783 710,716 594,584 L 774,223 C 774,196 753,168 711,139 L 727,119 C 717,90 699,76 672,76 641,76 570,178 457,381 L 164,-76 C 142,-110 111,-127 72,-127 30,-127 9,-110 8,-76 1,-67 -2,-52 -2,-32 -2,-23 -1,-13 0,-2 Z"/>
  </g>
  <g id="bullet-char-template-10004" transform="scale(0.00048828125,-0.00048828125)">
   <path d="M 285,-33 C 182,-33 111,30 74,156 52,228 41,333 41,471 41,549 55,616 82,672 116,743 169,778 240,778 293,778 328,747 346,684 L 369,508 C 377,444 397,411 428,410 L 1163,1116 C 1174,1127 1196,1133 1229,1133 1271,1133 1292,1118 1292,1087 L 1292,965 C 1292,929 1282,901 1262,881 L 442,47 C 390,-6 338,-33 285,-33 Z"/>
  </g>
  <g id="bullet-char-template-9679" transform="scale(0.00048828125,-0.00048828125)">
   <path d="M 813,0 C 632,0 489,54 383,161 276,268 223,411 223,592 223,773 276,916 383,1023 489,1130 632,1184 813,1184 992,1184 1136,1130 1245,1023 1353,916 1407,772 1407,592 1407,412 1353,268 1245,161 1136,54 992,0 813,0 Z"/>
  </g>
  <g id="bullet-char-template-8226" transform="scale(0.00048828125,-0.00048828125)">
   <path d="M 346,457 C 273,457 209,483 155,535 101,586 74,649 74,723 74,796 101,859 155,911 209,963 273,989 346,989 419,989 480,963 531,910 582,859 608,796 608,723 608,648 583,586 532,535 482,483 420,457 346,457 Z"/>
  </g>
  <g id="bullet-char-template-8211" transform="scale(0.00048828125,-0.00048828125)">
   <path d="M -4,459 L 1135,459 1135,606 -4,606 -4,459 Z"/>
  </g>
  <g id="bullet-char-template-61548" transform="scale(0.00048828125,-0.00048828125)">
   <path d="M 173,740 C 173,903 231,1043 346,1159 462,1274 601,1332 765,1332 928,1332 1067,1274 1183,1159 1299,1043 1357,903 1357,740 1357,577 1299,437 1183,322 1067,206 928,148 765,148 601,148 462,206 346,322 231,437 173,577 173,740 Z"/>
  </g>
 </defs>
 <defs class="TextEmbeddedBitmaps"/>
 <g>
  <g id="id2" class="Master_Slide">
   <g id="bg-id2" class="Background"/>
   <g id="bo-id2" class="BackgroundObjects"/>
  </g>
 </g>
 <g class="SlideGroup">
  <g>
   <g id="container-id1">
    <g id="id1" class="Slide" clip-path="url(#presentation_clip_path)">
     <g class="Page">
      <g class="com.sun.star.drawing.CustomShape">
       <g id="id3">
        <rect class="BoundingBox" stroke="none" fill="none" x="146" y="146" width="1308" height="1308"/>
        <g>
         <defs>
          <linearGradient id="gradient1" x1="365" y1="47" x2="1234" y2="1552" gradientUnits="userSpaceOnUse">
           <stop offset="0" style="stop-color:rgb(239,41,41)"/>
           <stop offset="1" style="stop-color:rgb(164,0,0)"/>
          </linearGradient>
         </defs>
         <path style="fill:url(#gradient1)" d="M 802,1435 L 164,164 1435,164 802,1435 Z"/>
        </g>
        <path fill="none" stroke="rgb(0,0,0)" stroke-width="35" stroke-linejoin="round" d="M 802,1435 L 164,164 1435,164 802,1435 Z"/>
       </g>
      </g>
      <g class="com.sun.star.drawing.CustomShape">
       <g id="id4">
        <rect class="BoundingBox" stroke="none" fill="none" x="187" y="443" width="831" height="531"/>
        <g>
         <defs>
          <linearGradient id="gradient2" x1="602" y1="457" x2="602" y2="958" gradientUnits="userSpaceOnUse">
           <stop offset="0" style="stop-color:rgb(255,255,0)"/>
           <stop offset="1" style="stop-color:rgb(196,160,0)"/>
          </linearGradient>
         </defs>
         <path style="fill:url(#gradient2)" d="M 1003,707 L 1002,682 999,657 995,633 988,610 980,588 971,568 960,548 948,531 935,514 921,500 906,487 890,477 873,468 855,462 837,458 818,457 387,457 368,458 350,462 333,468 316,477 300,487 285,500 270,514 257,531 245,548 234,568 225,588 217,610 211,633 206,657 203,682 202,707 203,732 206,757 211,781 217,804 225,826 234,847 245,866 257,884 270,900 285,915 300,927 316,938 333,947 350,953 368,957 387,958 818,958 837,957 855,953 873,947 890,938 906,927 921,915 935,900 948,884 960,866 971,847 980,826 988,804 995,781 999,757 1002,732 1003,707 Z"/>
        </g>
        <path fill="none" stroke="rgb(0,0,0)" stroke-width="28" stroke-linejoin="round" d="M 1003,707 C 1003,570 919,457 818,457 L 387,457 C 287,457 202,570 202,707 202,844 287,958 387,958 L 818,958 C 919,958 1003,844 1003,707 L 1003,707 Z"/>
        <g>
         <defs>
          <linearGradient id="gradient3" x1="818" y1="457" x2="818" y2="958" gradientUnits="userSpaceOnUse">
           <stop offset="0" style="stop-color:rgb(255,255,102)"/>
           <stop offset="1" style="stop-color:rgb(220,195,88)"/>
          </linearGradient>
         </defs>
         <path style="fill:url(#gradient3)" d="M 1003,707 L 1002,682 999,657 995,633 988,610 980,588 971,568 960,548 948,531 935,514 921,500 906,487 890,477 873,468 855,462 837,458 818,457 799,458 781,462 764,468 747,477 731,487 716,500 701,514 688,531 676,548 665,568 656,588 648,610 642,633 637,657 634,682 633,707 634,732 637,757 642,781 648,804 656,826 665,847 676,866 688,884 701,900 716,915 731,927 747,938 764,947 781,953 799,957 818,958 837,957 855,953 873,947 890,938 906,927 921,915 935,900 948,884 960,866 971,847 980,826 988,804 995,781 999,757 1002,732 1003,707 Z"/>
        </g>
        <path fill="none" stroke="rgb(0,0,0)" stroke-width="28" stroke-linejoin="round" d="M 1003,707 C 1003,570 919,457 818,457 718,457 633,570 633,707 633,844 718,958 818,958 919,958 1003,844 1003,707 L 1003,707 Z"/>
       </g>
      </g>
      <g class="com.sun.star.drawing.CustomShape">
       <g id="id5">
        <rect class="BoundingBox" stroke="none" fill="none" x="810" y="537" width="690" height="330"/>
        <g>
         <defs>
          <linearGradient id="gradient4" x1="1154" y1="551" x2="1154" y2="852" gradientUnits="userSpaceOnUse">
           <stop offset="0.015625" style="stop-color:rgb(255,255,255)"/>
           <stop offset="0.015625" style="stop-color:rgb(253,253,253)"/>
           <stop offset="0.03125" style="stop-color:rgb(253,253,253)"/>
           <stop offset="0.03125" style="stop-color:rgb(251,251,251)"/>
           <stop offset="0.046875" style="stop-color:rgb(251,251,251)"/>
           <stop offset="0.046875" style="stop-color:rgb(249,249,249)"/>
           <stop offset="0.0625" style="stop-color:rgb(249,249,249)"/>
           <stop offset="0.0625" style="stop-color:rgb(247,247,247)"/>
           <stop offset="0.078125" style="stop-color:rgb(247,247,247)"/>
           <stop offset="0.078125" style="stop-color:rgb(245,245,245)"/>
           <stop offset="0.09375" style="stop-color:rgb(245,245,245)"/>
           <stop offset="0.09375" style="stop-color:rgb(243,243,243)"/>
           <stop offset="0.109375" style="stop-color:rgb(243,243,243)"/>
           <stop offset="0.109375" style="stop-color:rgb(241,241,241)"/>
           <stop offset="0.125" style="stop-color:rgb(241,241,241)"/>
           <stop offset="0.125" style="stop-color:rgb(239,239,239)"/>
           <stop offset="0.140625" style="stop-color:rgb(239,239,239)"/>
           <stop offset="0.140625" style="stop-color:rgb(237,237,237)"/>
           <stop offset="0.15625" style="stop-color:rgb(237,237,237)"/>
           <stop offset="0.15625" style="stop-color:rgb(235,235,235)"/>
           <stop offset="0.171875" style="stop-color:rgb(235,235,235)"/>
           <stop offset="0.171875" style="stop-color:rgb(233,233,233)"/>
           <stop offset="0.1875" style="stop-color:rgb(233,233,233)"/>
           <stop offset="0.1875" style="stop-color:rgb(231,231,231)"/>
           <stop offset="0.203125" style="stop-color:rgb(231,231,231)"/>
           <stop offset="0.203125" style="stop-color:rgb(229,229,229)"/>
           <stop offset="0.21875" style="stop-color:rgb(229,229,229)"/>
           <stop offset="0.21875" style="stop-color:rgb(227,227,227)"/>
           <stop offset="0.234375" style="stop-color:rgb(227,227,227)"/>
           <stop offset="0.234375" style="stop-color:rgb(225,225,225)"/>
           <stop offset="0.25" style="stop-color:rgb(225,225,225)"/>
           <stop offset="0.25" style="stop-color:rgb(223,223,223)"/>
           <stop offset="0.265625" style="stop-color:rgb(223,223,223)"/>
           <stop offset="0.265625" style="stop-color:rgb(221,221,221)"/>
           <stop offset="0.28125" style="stop-color:rgb(221,221,221)"/>
           <stop offset="0.28125" style="stop-color:rgb(219,219,219)"/>
           <stop offset="0.296875" style="stop-color:rgb(219,219,219)"/>
           <stop offset="0.296875" style="stop-color:rgb(217,217,217)"/>
           <stop offset="0.3125" style="stop-color:rgb(217,217,217)"/>
           <stop offset="0.3125" style="stop-color:rgb(215,215,215)"/>
           <stop offset="0.328125" style="stop-color:rgb(215,215,215)"/>
           <stop offset="0.328125" style="stop-color:rgb(213,213,213)"/>
           <stop offset="0.34375" style="stop-color:rgb(213,213,213)"/>
           <stop offset="0.34375" style="stop-color:rgb(211,211,211)"/>
           <stop offset="0.359375" style="stop-color:rgb(211,211,211)"/>
           <stop offset="0.359375" style="stop-color:rgb(209,209,209)"/>
           <stop offset="0.375" style="stop-color:rgb(209,209,209)"/>
           <stop offset="0.375" style="stop-color:rgb(207,207,207)"/>
           <stop offset="0.390625" style="stop-color:rgb(207,207,207)"/>
           <stop offset="0.390625" style="stop-color:rgb(205,205,205)"/>
           <stop offset="0.40625" style="stop-color:rgb(205,205,205)"/>
           <stop offset="0.40625" style="stop-color:rgb(203,203,203)"/>
           <stop offset="0.421875" style="stop-color:rgb(203,203,203)"/>
           <stop offset="0.421875" style="stop-color:rgb(201,201,201)"/>
           <stop offset="0.4375" style="stop-color:rgb(201,201,201)"/>
           <stop offset="0.4375" style="stop-color:rgb(199,199,199)"/>
           <stop offset="0.453125" style="stop-color:rgb(199,199,199)"/>
           <stop offset="0.453125" style="stop-color:rgb(197,197,197)"/>
           <stop offset="0.46875" style="stop-color:rgb(197,197,197)"/>
           <stop offset="0.46875" style="stop-color:rgb(195,195,195)"/>
           <stop offset="0.484375" style="stop-color:rgb(195,195,195)"/>
           <stop offset="0.484375" style="stop-color:rgb(193,193,193)"/>
           <stop offset="0.5" style="stop-color:rgb(193,193,193)"/>
           <stop offset="0.5" style="stop-color:rgb(191,191,191)"/>
           <stop offset="0.515625" style="stop-color:rgb(191,191,191)"/>
           <stop offset="0.515625" style="stop-color:rgb(189,189,189)"/>
           <stop offset="0.53125" style="stop-color:rgb(189,189,189)"/>
           <stop offset="0.53125" style="stop-color:rgb(187,187,187)"/>
           <stop offset="0.546875" style="stop-color:rgb(187,187,187)"/>
           <stop offset="0.546875" style="stop-color:rgb(185,185,185)"/>
           <stop offset="0.5625" style="stop-color:rgb(185,185,185)"/>
           <stop offset="0.5625" style="stop-color:rgb(183,183,183)"/>
           <stop offset="0.578125" style="stop-color:rgb(183,183,183)"/>
           <stop offset="0.578125" style="stop-color:rgb(181,181,181)"/>
           <stop offset="0.59375" style="stop-color:rgb(181,181,181)"/>
           <stop offset="0.59375" style="stop-color:rgb(179,179,179)"/>
           <stop offset="0.609375" style="stop-color:rgb(179,179,179)"/>
           <stop offset="0.609375" style="stop-color:rgb(177,177,177)"/>
           <stop offset="0.625" style="stop-color:rgb(177,177,177)"/>
           <stop offset="0.625" style="stop-color:rgb(175,175,175)"/>
           <stop offset="0.640625" style="stop-color:rgb(175,175,175)"/>
           <stop offset="0.640625" style="stop-color:rgb(173,173,173)"/>
           <stop offset="0.65625" style="stop-color:rgb(173,173,173)"/>
           <stop offset="0.65625" style="stop-color:rgb(171,171,171)"/>
           <stop offset="0.671875" style="stop-color:rgb(171,171,171)"/>
           <stop offset="0.671875" style="stop-color:rgb(169,169,169)"/>
           <stop offset="0.6875" style="stop-color:rgb(169,169,169)"/>
           <stop offset="0.6875" style="stop-color:rgb(167,167,167)"/>
           <stop offset="0.703125" style="stop-color:rgb(167,167,167)"/>
           <stop offset="0.703125" style="stop-color:rgb(165,165,165)"/>
           <stop offset="0.71875" style="stop-color:rgb(165,165,165)"/>
           <stop offset="0.71875" style="stop-color:rgb(163,163,163)"/>
           <stop offset="0.734375" style="stop-color:rgb(163,163,163)"/>
           <stop offset="0.734375" style="stop-color:rgb(161,161,161)"/>
           <stop offset="0.75" style="stop-color:rgb(161,161,161)"/>
           <stop offset="0.75" style="stop-color:rgb(159,159,159)"/>
           <stop offset="0.765625" style="stop-color:rgb(159,159,159)"/>
           <stop offset="0.765625" style="stop-color:rgb(157,157,157)"/>
           <stop offset="0.78125" style="stop-color:rgb(157,157,157)"/>
           <stop offset="0.78125" style="stop-color:rgb(155,155,155)"/>
           <stop offset="0.796875" style="stop-color:rgb(155,155,155)"/>
           <stop offset="0.796875" style="stop-color:rgb(153,153,153)"/>
           <stop offset="0.8125" style="stop-color:rgb(153,153,153)"/>
           <stop offset="0.8125" style="stop-color:rgb(151,151,151)"/>
           <stop offset="0.828125" style="stop-color:rgb(151,151,151)"/>
           <stop offset="0.828125" style="stop-color:rgb(149,149,149)"/>
           <stop offset="0.84375" style="stop-color:rgb(149,149,149)"/>
           <stop offset="0.84375" style="stop-color:rgb(147,147,147)"/>
           <stop offset="0.859375" style="stop-color:rgb(147,147,147)"/>
           <stop offset="0.859375" style="stop-color:rgb(145,145,145)"/>
           <stop offset="0.875" style="stop-color:rgb(145,145,145)"/>
           <stop offset="0.875" style="stop-color:rgb(143,143,143)"/>
           <stop offset="0.890625" style="stop-color:rgb(143,143,143)"/>
           <stop offset="0.890625" style="stop-color:rgb(141,141,141)"/>
           <stop offset="0.90625" style="stop-color:rgb(141,141,141)"/>
           <stop offset="0.90625" style="stop-color:rgb(139,139,139)"/>
           <stop offset="0.921875" style="stop-color:rgb(139,139,139)"/>
           <stop offset="0.921875" style="stop-color:rgb(137,137,137)"/>
           <stop offset="0.9375" style="stop-color:rgb(137,137,137)"/>
           <stop offset="0.9375" style="stop-color:rgb(135,135,135)"/>
           <stop offset="0.953125" style="stop-color:rgb(135,135,135)"/>
           <stop offset="0.953125" style="stop-color:rgb(133,133,133)"/>
           <stop offset="0.96875" style="stop-color:rgb(133,133,133)"/>
           <stop offset="0.96875" style="stop-color:rgb(131,131,131)"/>
           <stop offset="0.984375" style="stop-color:rgb(131,131,131)"/>
           <stop offset="0.984375" style="stop-color:rgb(129,129,129)"/>
           <stop offset="1" style="stop-color:rgb(129,129,129)"/>
           <stop offset="1" style="stop-color:rgb(127,127,127)"/>
          </linearGradient>
         </defs>
         <path style="fill:url(#gradient4)" d="M 1485,701 L 1485,686 1483,671 1481,657 1478,643 1474,630 1469,618 1464,606 1457,595 1451,586 1444,577 1436,569 1428,563 1419,558 1410,554 1401,552 1396,551 1391,551 919,551 914,551 909,552 900,554 891,558 882,563 874,569 866,577 859,586 852,595 846,606 840,618 836,630 832,643 828,657 826,671 824,686 824,701 824,716 826,731 828,745 832,759 836,772 840,785 846,796 852,807 859,817 866,826 874,833 882,840 891,845 900,849 909,851 914,852 919,852 1391,852 1396,852 1401,851 1410,849 1419,845 1428,840 1436,833 1444,826 1451,817 1458,807 1464,796 1469,785 1474,772 1478,759 1481,745 1483,731 1485,716 1485,701 Z"/>
        </g>
        <path fill="none" stroke="rgb(0,0,0)" stroke-width="28" stroke-linejoin="round" d="M 1485,701 C 1485,619 1443,551 1391,551 L 919,551 C 867,551 824,619 824,701 824,783 867,852 919,852 L 1391,852 C 1443,852 1485,783 1485,701 L 1485,701 Z"/>
        <g>
         <defs>
          <linearGradient id="gradient5" x1="1390" y1="551" x2="1390" y2="852" gradientUnits="userSpaceOnUse">
           <stop offset="0.015625" style="stop-color:rgb(255,255,255)"/>
           <stop offset="0.015625" style="stop-color:rgb(254,254,254)"/>
           <stop offset="0.03125" style="stop-color:rgb(254,254,254)"/>
           <stop offset="0.03125" style="stop-color:rgb(253,253,253)"/>
           <stop offset="0.046875" style="stop-color:rgb(253,253,253)"/>
           <stop offset="0.046875" style="stop-color:rgb(252,252,252)"/>
           <stop offset="0.0625" style="stop-color:rgb(252,252,252)"/>
           <stop offset="0.0625" style="stop-color:rgb(251,251,251)"/>
           <stop offset="0.078125" style="stop-color:rgb(251,251,251)"/>
           <stop offset="0.078125" style="stop-color:rgb(249,249,249)"/>
           <stop offset="0.09375" style="stop-color:rgb(249,249,249)"/>
           <stop offset="0.09375" style="stop-color:rgb(248,248,248)"/>
           <stop offset="0.109375" style="stop-color:rgb(248,248,248)"/>
           <stop offset="0.109375" style="stop-color:rgb(247,247,247)"/>
           <stop offset="0.125" style="stop-color:rgb(247,247,247)"/>
           <stop offset="0.125" style="stop-color:rgb(246,246,246)"/>
           <stop offset="0.140625" style="stop-color:rgb(246,246,246)"/>
           <stop offset="0.140625" style="stop-color:rgb(245,245,245)"/>
           <stop offset="0.15625" style="stop-color:rgb(245,245,245)"/>
           <stop offset="0.15625" style="stop-color:rgb(243,243,243)"/>
           <stop offset="0.171875" style="stop-color:rgb(243,243,243)"/>
           <stop offset="0.171875" style="stop-color:rgb(242,242,242)"/>
           <stop offset="0.1875" style="stop-color:rgb(242,242,242)"/>
           <stop offset="0.1875" style="stop-color:rgb(241,241,241)"/>
           <stop offset="0.203125" style="stop-color:rgb(241,241,241)"/>
           <stop offset="0.203125" style="stop-color:rgb(240,240,240)"/>
           <stop offset="0.21875" style="stop-color:rgb(240,240,240)"/>
           <stop offset="0.21875" style="stop-color:rgb(239,239,239)"/>
           <stop offset="0.234375" style="stop-color:rgb(239,239,239)"/>
           <stop offset="0.234375" style="stop-color:rgb(237,237,237)"/>
           <stop offset="0.25" style="stop-color:rgb(237,237,237)"/>
           <stop offset="0.25" style="stop-color:rgb(236,236,236)"/>
           <stop offset="0.265625" style="stop-color:rgb(236,236,236)"/>
           <stop offset="0.265625" style="stop-color:rgb(235,235,235)"/>
           <stop offset="0.28125" style="stop-color:rgb(235,235,235)"/>
           <stop offset="0.28125" style="stop-color:rgb(234,234,234)"/>
           <stop offset="0.296875" style="stop-color:rgb(234,234,234)"/>
           <stop offset="0.296875" style="stop-color:rgb(233,233,233)"/>
           <stop offset="0.3125" style="stop-color:rgb(233,233,233)"/>
           <stop offset="0.3125" style="stop-color:rgb(231,231,231)"/>
           <stop offset="0.328125" style="stop-color:rgb(231,231,231)"/>
           <stop offset="0.328125" style="stop-color:rgb(230,230,230)"/>
           <stop offset="0.34375" style="stop-color:rgb(230,230,230)"/>
           <stop offset="0.34375" style="stop-color:rgb(229,229,229)"/>
           <stop offset="0.359375" style="stop-color:rgb(229,229,229)"/>
           <stop offset="0.359375" style="stop-color:rgb(228,228,228)"/>
           <stop offset="0.375" style="stop-color:rgb(228,228,228)"/>
           <stop offset="0.375" style="stop-color:rgb(227,227,227)"/>
           <stop offset="0.390625" style="stop-color:rgb(227,227,227)"/>
           <stop offset="0.390625" style="stop-color:rgb(225,225,225)"/>
           <stop offset="0.40625" style="stop-color:rgb(225,225,225)"/>
           <stop offset="0.40625" style="stop-color:rgb(224,224,224)"/>
           <stop offset="0.421875" style="stop-color:rgb(224,224,224)"/>
           <stop offset="0.421875" style="stop-color:rgb(223,223,223)"/>
           <stop offset="0.4375" style="stop-color:rgb(223,223,223)"/>
           <stop offset="0.4375" style="stop-color:rgb(222,222,222)"/>
           <stop offset="0.453125" style="stop-color:rgb(222,222,222)"/>
           <stop offset="0.453125" style="stop-color:rgb(221,221,221)"/>
           <stop offset="0.46875" style="stop-color:rgb(221,221,221)"/>
           <stop offset="0.46875" style="stop-color:rgb(219,219,219)"/>
           <stop offset="0.484375" style="stop-color:rgb(219,219,219)"/>
           <stop offset="0.484375" style="stop-color:rgb(218,218,218)"/>
           <stop offset="0.5" style="stop-color:rgb(218,218,218)"/>
           <stop offset="0.5" style="stop-color:rgb(217,217,217)"/>
           <stop offset="0.515625" style="stop-color:rgb(217,217,217)"/>
           <stop offset="0.515625" style="stop-color:rgb(216,216,216)"/>
           <stop offset="0.53125" style="stop-color:rgb(216,216,216)"/>
           <stop offset="0.53125" style="stop-color:rgb(215,215,215)"/>
           <stop offset="0.546875" style="stop-color:rgb(215,215,215)"/>
           <stop offset="0.546875" style="stop-color:rgb(213,213,213)"/>
           <stop offset="0.5625" style="stop-color:rgb(213,213,213)"/>
           <stop offset="0.5625" style="stop-color:rgb(212,212,212)"/>
           <stop offset="0.578125" style="stop-color:rgb(212,212,212)"/>
           <stop offset="0.578125" style="stop-color:rgb(211,211,211)"/>
           <stop offset="0.59375" style="stop-color:rgb(211,211,211)"/>
           <stop offset="0.59375" style="stop-color:rgb(210,210,210)"/>
           <stop offset="0.609375" style="stop-color:rgb(210,210,210)"/>
           <stop offset="0.609375" style="stop-color:rgb(209,209,209)"/>
           <stop offset="0.625" style="stop-color:rgb(209,209,209)"/>
           <stop offset="0.625" style="stop-color:rgb(207,207,207)"/>
           <stop offset="0.640625" style="stop-color:rgb(207,207,207)"/>
           <stop offset="0.640625" style="stop-color:rgb(206,206,206)"/>
           <stop offset="0.65625" style="stop-color:rgb(206,206,206)"/>
           <stop offset="0.65625" style="stop-color:rgb(205,205,205)"/>
           <stop offset="0.671875" style="stop-color:rgb(205,205,205)"/>
           <stop offset="0.671875" style="stop-color:rgb(204,204,204)"/>
           <stop offset="0.6875" style="stop-color:rgb(204,204,204)"/>
           <stop offset="0.6875" style="stop-color:rgb(203,203,203)"/>
           <stop offset="0.703125" style="stop-color:rgb(203,203,203)"/>
           <stop offset="0.703125" style="stop-color:rgb(201,201,201)"/>
           <stop offset="0.71875" style="stop-color:rgb(201,201,201)"/>
           <stop offset="0.71875" style="stop-color:rgb(200,200,200)"/>
           <stop offset="0.734375" style="stop-color:rgb(200,200,200)"/>
           <stop offset="0.734375" style="stop-color:rgb(199,199,199)"/>
           <stop offset="0.75" style="stop-color:rgb(199,199,199)"/>
           <stop offset="0.75" style="stop-color:rgb(198,198,198)"/>
           <stop offset="0.765625" style="stop-color:rgb(198,198,198)"/>
           <stop offset="0.765625" style="stop-color:rgb(197,197,197)"/>
           <stop offset="0.78125" style="stop-color:rgb(197,197,197)"/>
           <stop offset="0.78125" style="stop-color:rgb(195,195,195)"/>
           <stop offset="0.796875" style="stop-color:rgb(195,195,195)"/>
           <stop offset="0.796875" style="stop-color:rgb(194,194,194)"/>
           <stop offset="0.8125" style="stop-color:rgb(194,194,194)"/>
           <stop offset="0.8125" style="stop-color:rgb(193,193,193)"/>
           <stop offset="0.828125" style="stop-color:rgb(193,193,193)"/>
           <stop offset="0.828125" style="stop-color:rgb(192,192,192)"/>
           <stop offset="0.84375" style="stop-color:rgb(192,192,192)"/>
           <stop offset="0.84375" style="stop-color:rgb(191,191,191)"/>
           <stop offset="0.859375" style="stop-color:rgb(191,191,191)"/>
           <stop offset="0.859375" style="stop-color:rgb(189,189,189)"/>
           <stop offset="0.875" style="stop-color:rgb(189,189,189)"/>
           <stop offset="0.875" style="stop-color:rgb(188,188,188)"/>
           <stop offset="0.890625" style="stop-color:rgb(188,188,188)"/>
           <stop offset="0.890625" style="stop-color:rgb(187,187,187)"/>
           <stop offset="0.90625" style="stop-color:rgb(187,187,187)"/>
           <stop offset="0.90625" style="stop-color:rgb(186,186,186)"/>
           <stop offset="0.921875" style="stop-color:rgb(186,186,186)"/>
           <stop offset="0.921875" style="stop-color:rgb(185,185,185)"/>
           <stop offset="0.9375" style="stop-color:rgb(185,185,185)"/>
           <stop offset="0.9375" style="stop-color:rgb(183,183,183)"/>
           <stop offset="0.953125" style="stop-color:rgb(183,183,183)"/>
           <stop offset="0.953125" style="stop-color:rgb(182,182,182)"/>
           <stop offset="0.96875" style="stop-color:rgb(182,182,182)"/>
           <stop offset="0.96875" style="stop-color:rgb(181,181,181)"/>
           <stop offset="0.984375" style="stop-color:rgb(181,181,181)"/>
           <stop offset="0.984375" style="stop-color:rgb(180,180,180)"/>
           <stop offset="1" style="stop-color:rgb(180,180,180)"/>
           <stop offset="1" style="stop-color:rgb(178,178,178)"/>
          </linearGradient>
         </defs>
         <path style="fill:url(#gradient5)" d="M 1485,701 L 1485,686 1483,671 1481,657 1478,643 1474,630 1469,618 1464,606 1457,595 1451,586 1444,577 1436,569 1428,563 1419,558 1410,554 1401,552 1396,551 1391,551 1386,551 1381,552 1372,554 1363,558 1354,563 1346,569 1338,577 1331,586 1324,595 1318,606 1312,618 1308,630 1304,643 1300,657 1298,671 1296,686 1296,701 1296,716 1298,731 1300,745 1304,759 1308,772 1312,785 1318,796 1324,807 1331,817 1338,826 1346,833 1354,840 1363,845 1372,849 1381,851 1386,852 1391,852 1396,852 1401,851 1410,849 1419,845 1428,840 1436,833 1444,826 1451,817 1458,807 1464,796 1469,785 1474,772 1478,759 1481,745 1483,731 1485,716 1485,701 Z"/>
        </g>
        <path fill="none" stroke="rgb(0,0,0)" stroke-width="28" stroke-linejoin="round" d="M 1485,701 C 1485,619 1443,551 1391,551 1339,551 1296,619 1296,701 1296,783 1339,852 1391,852 1443,852 1485,783 1485,701 L 1485,701 Z"/>
       </g>
      </g>
     </g>
    </g>
   </g>
  </g>
 </g>
</svg>