<?xml version="1.0" encoding="UTF-8"?>
<svg id="SVGRoot" width="64px" height="64px" version="1.1" viewBox="0 0 64 64" xmlns="http://www.w3.org/2000/svg" xmlns:xlink="http://www.w3.org/1999/xlink">
 <defs>
  <linearGradient id="linearGradient8027" x1="14" x2="52" y1="41" y2="41" gradientTransform="matrix(1.1818 0 0 1.1818 -5.9091 -7.5455)" gradientUnits="userSpaceOnUse">
   <stop stop-color="#d45500" offset="0"/>
   <stop stop-color="#ffa76c" offset=".48969"/>
   <stop stop-color="#d45500" offset="1"/>
  </linearGradient>
 </defs>
 <g fill-rule="evenodd">
  <path d="m32.768 3.5527c-9.9056 0-18 8.0944-18 18a3 3 0 0 0 3 3 3 3 0 0 0 3-3c0-6.663 5.337-12 12-12s12 5.337 12 12a3 3 0 0 0 3 3 3 3 0 0 0 3-3c0-9.9056-8.0944-18-18-18z" color="#000000" color-rendering="auto" dominant-baseline="auto" fill="#d45500" image-rendering="auto" shape-rendering="auto" solid-color="#000000" stop-color="#000000" style="font-feature-settings:normal;font-variant-alternates:normal;font-variant-caps:normal;font-variant-east-asian:normal;font-variant-ligatures:normal;font-variant-numeric:normal;font-variant-position:normal;font-variation-settings:normal;inline-size:0;isolation:auto;mix-blend-mode:normal;paint-order:fill markers stroke;shape-margin:0;shape-padding:0;text-decoration-color:#000000;text-decoration-line:none;text-decoration-style:solid;text-indent:0;text-orientation:mixed;text-transform:none;white-space:normal"/>
  <rect x="5.9091" y="22" width="53.182" height="39" rx="4.7273" ry="4.7273" fill="url(#linearGradient8027)" style="paint-order:fill markers stroke"/>
 </g>
</svg>
