<?xml version="1.0" encoding="UTF-8"?>
<svg id="SVGRoot" width="64px" height="64px" version="1.1" viewBox="0 0 64 64" xmlns="http://www.w3.org/2000/svg">
 <g transform="translate(.019682 -1.4412)" stroke="#000" style="paint-order:stroke fill markers">
  <rect x="1.9803" y="3.4412" width="60" height="60" fill="#fff" stop-color="#000000" stroke-linecap="square" stroke-width="3"/>
  <path d="m32.019 8.4412c-3.9072-0.14888-8.1559 3.0476-7.7349 7.2292 0.14514 3.0084 3.0164 5.0012 5.3721 5.9541l-0.26363 4.3458h-5.135v4.175h4.8797l-1.3961 17.721c-1.0317 2.7968-4.4403 3.8948-7.1297 2.8602-3.5601-1.0366-5.2559-4.1882-5.9408-7.0667 1.3767-0.25534 2.7535-0.51078 4.1302-0.76603l-7.1562-3.9727-4.6177 6.1547c1.0799-0.20008 2.16-0.4 3.2399-0.60022 0.49576 3.3907 0.92254 4.42 2.1936 6.7865 1.8548 4.1614 3.3957 5.9425 9.3382 6.7914 3.3957 0 5.9425 0 10.187-2.5468 4.1946 2.7636 6.1987 3.3465 11.036 2.5468 3.326-0.55958 6.8918-4.174 8.4893-6.7914 1.5975-2.6174 2.0073-4.7596 2.0577-6.8246l3.4421 0.63836c-1.5394-2.052-3.0784-4.1027-4.6177-6.1547l-7.1545 3.9727 4.2811 0.79421c-1.1712 3.7818-3.5489 6.7913-7.2889 7.2706-2.5953 0.75678-5.0942-1.0779-6.0237-3.3841l-1.421-17.43h4.9941v-4.175h-5.2378l-0.25866-4.4668c3.591-0.7849 6.5722-4.7056 5.1466-8.3633-1.0932-2.9852-4.3349-4.7287-7.4115-4.699zm0.46758 3.3294c2.3269 0.12645 4.3884 2.7921 2.9497 4.9493-1.726 2.9063-7.2299 2.0026-7.2971-1.6-0.02175-2.0138 2.0073-3.395 3.8799-3.3393 0.15653-0.01504 0.31245-0.01838 0.46758-0.0099z" color="#000000" color-rendering="auto" dominant-baseline="auto" image-rendering="auto" shape-rendering="auto" solid-color="#000000" stop-color="#000000" stroke-linecap="round" stroke-linejoin="round" stroke-width="2" style="font-feature-settings:normal;font-variant-alternates:normal;font-variant-caps:normal;font-variant-east-asian:normal;font-variant-ligatures:normal;font-variant-numeric:normal;font-variant-position:normal;font-variation-settings:normal;inline-size:0;isolation:auto;mix-blend-mode:normal;paint-order:stroke fill markers;shape-margin:0;shape-padding:0;text-decoration-color:#000000;text-decoration-line:none;text-decoration-style:solid;text-indent:0;text-orientation:mixed;text-transform:none;white-space:normal"/>
 </g>
</svg>
