<?xml version="1.0" encoding="UTF-8"?>
<!DOCTYPE svg PUBLIC "-//W3C//DTD SVG 1.1//EN" "http://www.w3.org/Graphics/SVG/1.1/DTD/svg11.dtd">
<svg version="1.2" width="16mm" height="16mm" viewBox="0 0 1600 1600" preserveAspectRatio="xMidYMid" fill-rule="evenodd" stroke-width="28.222" stroke-linejoin="round" xmlns="http://www.w3.org/2000/svg" xmlns:ooo="http://xml.openoffice.org/svg/export" xmlns:xlink="http://www.w3.org/1999/xlink" xmlns:presentation="http://sun.com/xmlns/staroffice/presentation" xmlns:smil="http://www.w3.org/2001/SMIL20/" xmlns:anim="urn:oasis:names:tc:opendocument:xmlns:animation:1.0" xml:space="preserve">
 <defs class="ClipPathGroup">
  <clipPath id="presentation_clip_path" clipPathUnits="userSpaceOnUse">
   <rect x="0" y="0" width="1600" height="1600"/>
  </clipPath>
 </defs>
 <defs class="TextShapeIndex">
  <g ooo:slide="id1" ooo:id-list="id3"/>
 </defs>
 <defs class="EmbeddedBulletChars">
  <g id="bullet-char-template(57356)" transform="scale(0.00048828125,-0.00048828125)">
   <path d="M 580,1141 L 1163,571 580,0 -4,571 580,1141 Z"/>
  </g>
  <g id="bullet-char-template(57354)" transform="scale(0.00048828125,-0.00048828125)">
   <path d="M 8,1128 L 1137,1128 1137,0 8,0 8,1128 Z"/>
  </g>
  <g id="bullet-char-template(10146)" transform="scale(0.00048828125,-0.00048828125)">
   <path d="M 174,0 L 602,739 174,1481 1456,739 174,0 Z M 1358,739 L 309,1346 659,739 1358,739 Z"/>
  </g>
  <g id="bullet-char-template(10132)" transform="scale(0.00048828125,-0.00048828125)">
   <path d="M 2015,739 L 1276,0 717,0 1260,543 174,543 174,936 1260,936 717,1481 1274,1481 2015,739 Z"/>
  </g>
  <g id="bullet-char-template(10007)" transform="scale(0.00048828125,-0.00048828125)">
   <path d="M 0,-2 C -7,14 -16,27 -25,37 L 356,567 C 262,823 215,952 215,954 215,979 228,992 255,992 264,992 276,990 289,987 310,991 331,999 354,1012 L 381,999 492,748 772,1049 836,1024 860,1049 C 881,1039 901,1025 922,1006 886,937 835,863 770,784 769,783 710,716 594,584 L 774,223 C 774,196 753,168 711,139 L 727,119 C 717,90 699,76 672,76 641,76 570,178 457,381 L 164,-76 C 142,-110 111,-127 72,-127 30,-127 9,-110 8,-76 1,-67 -2,-52 -2,-32 -2,-23 -1,-13 0,-2 Z"/>
  </g>
  <g id="bullet-char-template(10004)" transform="scale(0.00048828125,-0.00048828125)">
   <path d="M 285,-33 C 182,-33 111,30 74,156 52,228 41,333 41,471 41,549 55,616 82,672 116,743 169,778 240,778 293,778 328,747 346,684 L 369,508 C 377,444 397,411 428,410 L 1163,1116 C 1174,1127 1196,1133 1229,1133 1271,1133 1292,1118 1292,1087 L 1292,965 C 1292,929 1282,901 1262,881 L 442,47 C 390,-6 338,-33 285,-33 Z"/>
  </g>
  <g id="bullet-char-template(9679)" transform="scale(0.00048828125,-0.00048828125)">
   <path d="M 813,0 C 632,0 489,54 383,161 276,268 223,411 223,592 223,773 276,916 383,1023 489,1130 632,1184 813,1184 992,1184 1136,1130 1245,1023 1353,916 1407,772 1407,592 1407,412 1353,268 1245,161 1136,54 992,0 813,0 Z"/>
  </g>
  <g id="bullet-char-template(8226)" transform="scale(0.00048828125,-0.00048828125)">
   <path d="M 346,457 C 273,457 209,483 155,535 101,586 74,649 74,723 74,796 101,859 155,911 209,963 273,989 346,989 419,989 480,963 531,910 582,859 608,796 608,723 608,648 583,586 532,535 482,483 420,457 346,457 Z"/>
  </g>
  <g id="bullet-char-template(8211)" transform="scale(0.00048828125,-0.00048828125)">
   <path d="M -4,459 L 1135,459 1135,606 -4,606 -4,459 Z"/>
  </g>
 </defs>
 <defs class="TextEmbeddedBitmaps"/>
 <g>
  <g id="id2" class="Master_Slide">
   <g id="bg-id2" class="Background"/>
   <g id="bo-id2" class="BackgroundObjects"/>
  </g>
 </g>
 <g class="SlideGroup">
  <g>
   <g id="id1" class="Slide" clip-path="url(#presentation_clip_path)">
    <g class="Page">
     <g class="com.sun.star.drawing.CustomShape">
      <g id="id3">
       <rect class="BoundingBox" stroke="none" fill="none" x="82" y="82" width="1438" height="1438"/>
       <g>
        <defs>
         <linearGradient id="gradient1" x1="321" y1="-28" x2="1277" y2="1627" gradientUnits="userSpaceOnUse">
          <stop offset="0" style="stop-color:rgb(153,255,102)"/>
          <stop offset="1" style="stop-color:rgb(102,255,102)"/>
         </linearGradient>
        </defs>
        <path style="fill:url(#gradient1)" d="M 799,100 L 872,103 943,114 1011,131 1075,154 1137,182 1195,217 1248,256 1298,301 1342,350 1382,404 1416,461 1445,523 1468,587 1485,655 1495,726 1499,799 1495,872 1485,943 1468,1011 1445,1075 1416,1137 1382,1195 1342,1248 1298,1298 1248,1342 1195,1382 1137,1416 1075,1445 1011,1468 943,1485 872,1495 799,1499 726,1495 655,1485 587,1468 523,1445 461,1416 404,1382 350,1342 301,1298 256,1248 217,1195 182,1137 154,1075 131,1011 114,943 103,872 100,799 103,726 114,655 131,587 154,523 182,461 217,404 256,350 301,301 350,256 404,217 461,182 523,154 587,131 655,114 726,103 799,100 Z M 798,534 L 826,535 852,539 878,546 903,554 926,565 948,578 968,593 987,610 1004,628 1019,649 1032,670 1043,693 1051,718 1058,744 1062,770 1063,798 1062,826 1058,852 1051,878 1043,903 1032,926 1019,948 1004,968 987,987 968,1004 948,1019 926,1032 903,1043 878,1051 852,1058 826,1062 798,1063 770,1062 744,1058 718,1051 693,1043 670,1032 649,1019 628,1004 610,987 593,968 578,948 565,926 554,903 546,878 539,852 535,826 534,798 535,770 539,744 546,718 554,693 565,670 578,649 593,628 610,610 628,593 649,578 670,565 693,554 718,546 744,539 770,535 798,534 Z"/>
       </g>
       <path fill="none" stroke="rgb(0,0,0)" stroke-width="35" stroke-linejoin="round" d="M 799,100 C 1195,100 1499,403 1499,799 1499,1195 1195,1499 799,1499 403,1499 100,1195 100,799 100,403 403,100 799,100 Z"/>
       <path fill="none" stroke="rgb(0,0,0)" stroke-width="35" stroke-linejoin="round" d="M 798,534 C 948,534 1063,648 1063,798 1063,948 948,1063 798,1063 648,1063 534,948 534,798 534,648 648,534 798,534 Z"/>
      </g>
     </g>
    </g>
   </g>
  </g>
 </g>
</svg>