<?xml version="1.0" encoding="UTF-8"?>
<!DOCTYPE svg PUBLIC "-//W3C//DTD SVG 1.1//EN" "http://www.w3.org/Graphics/SVG/1.1/DTD/svg11.dtd">
<svg version="1.2" width="16mm" height="16mm" viewBox="0 0 1600 1600" preserveAspectRatio="xMidYMid" fill-rule="evenodd" stroke-width="28.222" stroke-linejoin="round" xmlns="http://www.w3.org/2000/svg" xmlns:ooo="http://xml.openoffice.org/svg/export" xmlns:xlink="http://www.w3.org/1999/xlink" xmlns:presentation="http://sun.com/xmlns/staroffice/presentation" xmlns:smil="http://www.w3.org/2001/SMIL20/" xmlns:anim="urn:oasis:names:tc:opendocument:xmlns:animation:1.0" xml:space="preserve">
 <defs class="ClipPathGroup">
  <clipPath id="presentation_clip_path" clipPathUnits="userSpaceOnUse">
   <rect x="0" y="0" width="1600" height="1600"/>
  </clipPath>
 </defs>
 <defs class="TextShapeIndex">
  <g ooo:slide="id1" ooo:id-list="id3 id4 id5 id6"/>
 </defs>
 <defs class="EmbeddedBulletChars">
  <g id="bullet-char-template(57356)" transform="scale(0.00048828125,-0.00048828125)">
   <path d="M 580,1141 L 1163,571 580,0 -4,571 580,1141 Z"/>
  </g>
  <g id="bullet-char-template(57354)" transform="scale(0.00048828125,-0.00048828125)">
   <path d="M 8,1128 L 1137,1128 1137,0 8,0 8,1128 Z"/>
  </g>
  <g id="bullet-char-template(10146)" transform="scale(0.00048828125,-0.00048828125)">
   <path d="M 174,0 L 602,739 174,1481 1456,739 174,0 Z M 1358,739 L 309,1346 659,739 1358,739 Z"/>
  </g>
  <g id="bullet-char-template(10132)" transform="scale(0.00048828125,-0.00048828125)">
   <path d="M 2015,739 L 1276,0 717,0 1260,543 174,543 174,936 1260,936 717,1481 1274,1481 2015,739 Z"/>
  </g>
  <g id="bullet-char-template(10007)" transform="scale(0.00048828125,-0.00048828125)">
   <path d="M 0,-2 C -7,14 -16,27 -25,37 L 356,567 C 262,823 215,952 215,954 215,979 228,992 255,992 264,992 276,990 289,987 310,991 331,999 354,1012 L 381,999 492,748 772,1049 836,1024 860,1049 C 881,1039 901,1025 922,1006 886,937 835,863 770,784 769,783 710,716 594,584 L 774,223 C 774,196 753,168 711,139 L 727,119 C 717,90 699,76 672,76 641,76 570,178 457,381 L 164,-76 C 142,-110 111,-127 72,-127 30,-127 9,-110 8,-76 1,-67 -2,-52 -2,-32 -2,-23 -1,-13 0,-2 Z"/>
  </g>
  <g id="bullet-char-template(10004)" transform="scale(0.00048828125,-0.00048828125)">
   <path d="M 285,-33 C 182,-33 111,30 74,156 52,228 41,333 41,471 41,549 55,616 82,672 116,743 169,778 240,778 293,778 328,747 346,684 L 369,508 C 377,444 397,411 428,410 L 1163,1116 C 1174,1127 1196,1133 1229,1133 1271,1133 1292,1118 1292,1087 L 1292,965 C 1292,929 1282,901 1262,881 L 442,47 C 390,-6 338,-33 285,-33 Z"/>
  </g>
  <g id="bullet-char-template(9679)" transform="scale(0.00048828125,-0.00048828125)">
   <path d="M 813,0 C 632,0 489,54 383,161 276,268 223,411 223,592 223,773 276,916 383,1023 489,1130 632,1184 813,1184 992,1184 1136,1130 1245,1023 1353,916 1407,772 1407,592 1407,412 1353,268 1245,161 1136,54 992,0 813,0 Z"/>
  </g>
  <g id="bullet-char-template(8226)" transform="scale(0.00048828125,-0.00048828125)">
   <path d="M 346,457 C 273,457 209,483 155,535 101,586 74,649 74,723 74,796 101,859 155,911 209,963 273,989 346,989 419,989 480,963 531,910 582,859 608,796 608,723 608,648 583,586 532,535 482,483 420,457 346,457 Z"/>
  </g>
  <g id="bullet-char-template(8211)" transform="scale(0.00048828125,-0.00048828125)">
   <path d="M -4,459 L 1135,459 1135,606 -4,606 -4,459 Z"/>
  </g>
 </defs>
 <defs class="TextEmbeddedBitmaps"/>
 <g>
  <g id="id2" class="Master_Slide">
   <g id="bg-id2" class="Background"/>
   <g id="bo-id2" class="BackgroundObjects"/>
  </g>
 </g>
 <g class="SlideGroup">
  <g>
   <g id="id1" class="Slide" clip-path="url(#presentation_clip_path)">
    <g class="Page">
     <g class="com.sun.star.drawing.PolyPolygonShape">
      <g id="id3">
       <rect class="BoundingBox" stroke="none" fill="none" x="182" y="132" width="637" height="1337"/>
       <path fill="rgb(114,159,207)" stroke="none" d="M 200,550 L 200,1050 500,1050 800,1450 800,150 500,550 200,550 Z"/>
       <path fill="none" stroke="rgb(0,0,0)" stroke-width="35" stroke-linejoin="round" d="M 200,550 L 200,1050 500,1050 800,1450 800,150 500,550 200,550 Z"/>
      </g>
     </g>
     <g class="com.sun.star.drawing.CustomShape">
      <g id="id4">
       <rect class="BoundingBox" stroke="none" fill="none" x="288" y="-8" width="1321" height="1620"/>
       <path fill="rgb(28,28,28)" stroke="none" d="M 1176,1551 L 1206,1536 1236,1519 1265,1500 1294,1479 1321,1457 1348,1433 1373,1407 1397,1380 1421,1351 1443,1321 1463,1290 1483,1257 1501,1224 1518,1189 1533,1153 1546,1116 1559,1078 1569,1040 1578,1001 1586,962 1592,922 1596,882 1598,841 1599,801 1598,761 1596,720 1592,680 1586,640 1578,601 1569,562 1559,524 1546,486 1533,449 1518,413 1501,378 1483,345 1463,312 1443,281 1421,251 1397,222 1373,195 1348,169 1321,145 1294,123 1265,102 1236,83 1206,66 1176,51 1138,178 1163,190 1188,204 1212,220 1236,237 1259,256 1281,276 1302,297 1322,319 1341,343 1360,368 1377,394 1393,422 1408,450 1422,479 1435,508 1446,539 1456,570 1465,602 1473,635 1479,667 1484,700 1487,734 1489,767 1490,801 1489,835 1487,868 1484,902 1479,935 1473,967 1465,1000 1456,1032 1446,1063 1435,1094 1422,1123 1408,1152 1393,1180 1377,1208 1360,1234 1341,1259 1322,1283 1302,1305 1281,1326 1259,1346 1236,1365 1212,1382 1188,1398 1163,1412 1138,1424 1176,1551 Z M 1599,1 L 1599,1 Z M 298,1602 L 298,1602 Z"/>
       <path fill="none" stroke="rgb(0,0,0)" stroke-width="18" stroke-linejoin="round" d="M 1176,1551 L 1206,1536 1236,1519 1265,1500 1294,1479 1321,1457 1348,1433 1373,1407 1397,1380 1421,1351 1443,1321 1463,1290 1483,1257 1501,1224 1518,1189 1533,1153 1546,1116 1559,1078 1569,1040 1578,1001 1586,962 1592,922 1596,882 1598,841 1599,801 1598,761 1596,720 1592,680 1586,640 1578,601 1569,562 1559,524 1546,486 1533,449 1518,413 1501,378 1483,345 1463,312 1443,281 1421,251 1397,222 1373,195 1348,169 1321,145 1294,123 1265,102 1236,83 1206,66 1176,51 1138,178 1163,190 1188,204 1212,220 1236,237 1259,256 1281,276 1302,297 1322,319 1341,343 1360,368 1377,394 1393,422 1408,450 1422,479 1435,508 1446,539 1456,570 1465,602 1473,635 1479,667 1484,700 1487,734 1489,767 1490,801 1489,835 1487,868 1484,902 1479,935 1473,967 1465,1000 1456,1032 1446,1063 1435,1094 1422,1123 1408,1152 1393,1180 1377,1208 1360,1234 1341,1259 1322,1283 1302,1305 1281,1326 1259,1346 1236,1365 1212,1382 1188,1398 1163,1412 1138,1424 1176,1551 Z"/>
      </g>
     </g>
     <g class="com.sun.star.drawing.CustomShape">
      <g id="id5">
       <rect class="BoundingBox" stroke="none" fill="none" x="589" y="292" width="720" height="1020"/>
       <path fill="rgb(28,28,28)" stroke="none" d="M 1032,1287 L 1049,1280 1066,1272 1082,1263 1098,1253 1114,1242 1129,1230 1144,1216 1158,1202 1172,1186 1185,1170 1198,1152 1210,1134 1222,1115 1232,1095 1242,1074 1251,1053 1260,1031 1268,1008 1274,985 1280,961 1286,937 1290,913 1294,888 1296,864 1298,839 1299,814 1299,788 1298,763 1296,738 1294,714 1290,689 1286,665 1280,641 1274,617 1268,594 1260,571 1251,549 1242,528 1232,507 1222,487 1210,468 1198,450 1185,432 1172,416 1158,400 1144,386 1129,372 1114,360 1098,349 1082,339 1066,330 1049,322 1032,315 1008,457 1020,462 1032,467 1043,474 1055,481 1066,489 1077,497 1087,507 1097,517 1107,528 1117,540 1125,552 1134,565 1142,579 1150,593 1157,608 1163,623 1169,638 1175,654 1180,671 1184,687 1188,704 1191,722 1193,739 1195,757 1196,774 1197,792 1197,810 1196,828 1195,845 1193,863 1191,880 1188,898 1184,915 1180,931 1175,948 1169,964 1163,979 1157,994 1150,1009 1142,1023 1134,1037 1125,1050 1117,1062 1107,1074 1097,1085 1087,1095 1077,1105 1066,1113 1055,1121 1043,1128 1032,1135 1020,1140 1008,1145 1032,1287 Z M 1299,301 L 1299,301 Z M 598,1302 L 598,1302 Z"/>
       <path fill="none" stroke="rgb(0,0,0)" stroke-width="18" stroke-linejoin="round" d="M 1032,1287 L 1049,1280 1066,1272 1082,1263 1098,1253 1114,1242 1129,1230 1144,1216 1158,1202 1172,1186 1185,1170 1198,1152 1210,1134 1222,1115 1232,1095 1242,1074 1251,1053 1260,1031 1268,1008 1274,985 1280,961 1286,937 1290,913 1294,888 1296,864 1298,839 1299,814 1299,788 1298,763 1296,738 1294,714 1290,689 1286,665 1280,641 1274,617 1268,594 1260,571 1251,549 1242,528 1232,507 1222,487 1210,468 1198,450 1185,432 1172,416 1158,400 1144,386 1129,372 1114,360 1098,349 1082,339 1066,330 1049,322 1032,315 1008,457 1020,462 1032,467 1043,474 1055,481 1066,489 1077,497 1087,507 1097,517 1107,528 1117,540 1125,552 1134,565 1142,579 1150,593 1157,608 1163,623 1169,638 1175,654 1180,671 1184,687 1188,704 1191,722 1193,739 1195,757 1196,774 1197,792 1197,810 1196,828 1195,845 1193,863 1191,880 1188,898 1184,915 1180,931 1175,948 1169,964 1163,979 1157,994 1150,1009 1142,1023 1134,1037 1125,1050 1117,1062 1107,1074 1097,1085 1087,1095 1077,1105 1066,1113 1055,1121 1043,1128 1032,1135 1020,1140 1008,1145 1032,1287 Z"/>
      </g>
     </g>
     <g class="com.sun.star.drawing.CustomShape">
      <g id="id6">
       <rect class="BoundingBox" stroke="none" fill="none" x="-18" y="82" width="1638" height="1438"/>
       <path fill="rgb(255,51,51)" stroke="none" d="M 1129,100 L 1600,100 471,1500 0,1500 1129,100 Z M 0,100 L 0,100 Z M 1601,1501 L 1601,1501 Z"/>
       <path fill="none" stroke="rgb(0,0,0)" stroke-width="35" stroke-linejoin="round" d="M 1129,100 L 1600,100 471,1500 0,1500 1129,100 Z"/>
      </g>
     </g>
    </g>
   </g>
  </g>
 </g>
</svg>