<?xml version="1.0" encoding="UTF-8"?>
<!DOCTYPE svg PUBLIC "-//W3C//DTD SVG 1.1//EN" "http://www.w3.org/Graphics/SVG/1.1/DTD/svg11.dtd">
<svg version="1.2" width="16mm" height="16mm" viewBox="0 0 1600 1600" preserveAspectRatio="xMidYMid" fill-rule="evenodd" stroke-width="28.222" stroke-linejoin="round" xmlns="http://www.w3.org/2000/svg" xmlns:ooo="http://xml.openoffice.org/svg/export" xmlns:xlink="http://www.w3.org/1999/xlink" xmlns:presentation="http://sun.com/xmlns/staroffice/presentation" xmlns:smil="http://www.w3.org/2001/SMIL20/" xmlns:anim="urn:oasis:names:tc:opendocument:xmlns:animation:1.0" xml:space="preserve">
 <defs class="ClipPathGroup">
  <clipPath id="presentation_clip_path" clipPathUnits="userSpaceOnUse">
   <rect x="0" y="0" width="1600" height="1600"/>
  </clipPath>
 </defs>
 <defs class="TextShapeIndex">
  <g ooo:slide="id1" ooo:id-list="id3 id4 id5"/>
 </defs>
 <defs class="EmbeddedBulletChars">
  <g id="bullet-char-template(57356)" transform="scale(0.00048828125,-0.00048828125)">
   <path d="M 580,1141 L 1163,571 580,0 -4,571 580,1141 Z"/>
  </g>
  <g id="bullet-char-template(57354)" transform="scale(0.00048828125,-0.00048828125)">
   <path d="M 8,1128 L 1137,1128 1137,0 8,0 8,1128 Z"/>
  </g>
  <g id="bullet-char-template(10146)" transform="scale(0.00048828125,-0.00048828125)">
   <path d="M 174,0 L 602,739 174,1481 1456,739 174,0 Z M 1358,739 L 309,1346 659,739 1358,739 Z"/>
  </g>
  <g id="bullet-char-template(10132)" transform="scale(0.00048828125,-0.00048828125)">
   <path d="M 2015,739 L 1276,0 717,0 1260,543 174,543 174,936 1260,936 717,1481 1274,1481 2015,739 Z"/>
  </g>
  <g id="bullet-char-template(10007)" transform="scale(0.00048828125,-0.00048828125)">
   <path d="M 0,-2 C -7,14 -16,27 -25,37 L 356,567 C 262,823 215,952 215,954 215,979 228,992 255,992 264,992 276,990 289,987 310,991 331,999 354,1012 L 381,999 492,748 772,1049 836,1024 860,1049 C 881,1039 901,1025 922,1006 886,937 835,863 770,784 769,783 710,716 594,584 L 774,223 C 774,196 753,168 711,139 L 727,119 C 717,90 699,76 672,76 641,76 570,178 457,381 L 164,-76 C 142,-110 111,-127 72,-127 30,-127 9,-110 8,-76 1,-67 -2,-52 -2,-32 -2,-23 -1,-13 0,-2 Z"/>
  </g>
  <g id="bullet-char-template(10004)" transform="scale(0.00048828125,-0.00048828125)">
   <path d="M 285,-33 C 182,-33 111,30 74,156 52,228 41,333 41,471 41,549 55,616 82,672 116,743 169,778 240,778 293,778 328,747 346,684 L 369,508 C 377,444 397,411 428,410 L 1163,1116 C 1174,1127 1196,1133 1229,1133 1271,1133 1292,1118 1292,1087 L 1292,965 C 1292,929 1282,901 1262,881 L 442,47 C 390,-6 338,-33 285,-33 Z"/>
  </g>
  <g id="bullet-char-template(9679)" transform="scale(0.00048828125,-0.00048828125)">
   <path d="M 813,0 C 632,0 489,54 383,161 276,268 223,411 223,592 223,773 276,916 383,1023 489,1130 632,1184 813,1184 992,1184 1136,1130 1245,1023 1353,916 1407,772 1407,592 1407,412 1353,268 1245,161 1136,54 992,0 813,0 Z"/>
  </g>
  <g id="bullet-char-template(8226)" transform="scale(0.00048828125,-0.00048828125)">
   <path d="M 346,457 C 273,457 209,483 155,535 101,586 74,649 74,723 74,796 101,859 155,911 209,963 273,989 346,989 419,989 480,963 531,910 582,859 608,796 608,723 608,648 583,586 532,535 482,483 420,457 346,457 Z"/>
  </g>
  <g id="bullet-char-template(8211)" transform="scale(0.00048828125,-0.00048828125)">
   <path d="M -4,459 L 1135,459 1135,606 -4,606 -4,459 Z"/>
  </g>
 </defs>
 <defs class="TextEmbeddedBitmaps"/>
 <g>
  <g id="id2" class="Master_Slide">
   <g id="bg-id2" class="Background"/>
   <g id="bo-id2" class="BackgroundObjects"/>
  </g>
 </g>
 <g class="SlideGroup">
  <g>
   <g id="id1" class="Slide" clip-path="url(#presentation_clip_path)">
    <g class="Page">
     <g class="com.sun.star.drawing.CustomShape">
      <g id="id3">
       <rect class="BoundingBox" stroke="none" fill="none" x="289" y="-9" width="1321" height="1620"/>
       <path fill="rgb(28,28,28)" stroke="none" d="M 1177,1550 L 1207,1535 1237,1518 1266,1499 1295,1478 1322,1456 1349,1432 1374,1406 1398,1379 1422,1350 1444,1320 1464,1289 1484,1256 1502,1223 1519,1188 1534,1152 1547,1115 1560,1077 1570,1039 1579,1000 1587,961 1593,921 1597,881 1599,840 1600,800 1599,760 1597,719 1593,679 1587,639 1579,600 1570,561 1560,523 1547,485 1534,448 1519,412 1502,377 1484,344 1464,311 1444,280 1422,250 1398,221 1374,194 1349,168 1322,144 1295,122 1266,101 1237,82 1207,65 1177,50 1139,177 1164,189 1189,203 1213,219 1237,236 1260,255 1282,275 1303,296 1323,318 1342,342 1361,367 1378,393 1394,421 1409,449 1423,478 1436,507 1447,538 1457,569 1466,601 1474,634 1480,666 1485,699 1488,733 1490,766 1491,800 1490,834 1488,867 1485,901 1480,934 1474,966 1466,999 1457,1031 1447,1062 1436,1093 1423,1122 1409,1151 1394,1179 1378,1207 1361,1233 1342,1258 1323,1282 1303,1304 1282,1325 1260,1345 1237,1364 1213,1381 1189,1397 1164,1411 1139,1423 1177,1550 Z M 1600,0 L 1600,0 Z M 299,1601 L 299,1601 Z"/>
       <path fill="none" stroke="rgb(0,0,0)" stroke-width="18" stroke-linejoin="round" d="M 1177,1550 L 1207,1535 1237,1518 1266,1499 1295,1478 1322,1456 1349,1432 1374,1406 1398,1379 1422,1350 1444,1320 1464,1289 1484,1256 1502,1223 1519,1188 1534,1152 1547,1115 1560,1077 1570,1039 1579,1000 1587,961 1593,921 1597,881 1599,840 1600,800 1599,760 1597,719 1593,679 1587,639 1579,600 1570,561 1560,523 1547,485 1534,448 1519,412 1502,377 1484,344 1464,311 1444,280 1422,250 1398,221 1374,194 1349,168 1322,144 1295,122 1266,101 1237,82 1207,65 1177,50 1139,177 1164,189 1189,203 1213,219 1237,236 1260,255 1282,275 1303,296 1323,318 1342,342 1361,367 1378,393 1394,421 1409,449 1423,478 1436,507 1447,538 1457,569 1466,601 1474,634 1480,666 1485,699 1488,733 1490,766 1491,800 1490,834 1488,867 1485,901 1480,934 1474,966 1466,999 1457,1031 1447,1062 1436,1093 1423,1122 1409,1151 1394,1179 1378,1207 1361,1233 1342,1258 1323,1282 1303,1304 1282,1325 1260,1345 1237,1364 1213,1381 1189,1397 1164,1411 1139,1423 1177,1550 Z"/>
      </g>
     </g>
     <g class="com.sun.star.drawing.CustomShape">
      <g id="id4">
       <rect class="BoundingBox" stroke="none" fill="none" x="590" y="291" width="720" height="1020"/>
       <path fill="rgb(28,28,28)" stroke="none" d="M 1033,1286 L 1050,1279 1067,1271 1083,1262 1099,1252 1115,1241 1130,1229 1145,1215 1159,1201 1173,1185 1186,1169 1199,1151 1211,1133 1223,1114 1233,1094 1243,1073 1252,1052 1261,1030 1269,1007 1275,984 1281,960 1287,936 1291,912 1295,887 1297,863 1299,838 1300,813 1300,787 1299,762 1297,737 1295,713 1291,688 1287,664 1281,640 1275,616 1269,593 1261,570 1252,548 1243,527 1233,506 1223,486 1211,467 1199,449 1186,431 1173,415 1159,399 1145,385 1130,371 1115,359 1099,348 1083,338 1067,329 1050,321 1033,314 1009,456 1021,461 1033,466 1044,473 1056,480 1067,488 1078,496 1088,506 1098,516 1108,527 1118,539 1126,551 1135,564 1143,578 1151,592 1158,607 1164,622 1170,637 1176,653 1181,670 1185,686 1189,703 1192,721 1194,738 1196,756 1197,773 1198,791 1198,809 1197,827 1196,844 1194,862 1192,879 1189,897 1185,914 1181,930 1176,947 1170,963 1164,978 1158,993 1151,1008 1143,1022 1135,1036 1126,1049 1118,1061 1108,1073 1098,1084 1088,1094 1078,1104 1067,1112 1056,1120 1044,1127 1033,1134 1021,1139 1009,1144 1033,1286 Z M 1300,300 L 1300,300 Z M 599,1301 L 599,1301 Z"/>
       <path fill="none" stroke="rgb(0,0,0)" stroke-width="18" stroke-linejoin="round" d="M 1033,1286 L 1050,1279 1067,1271 1083,1262 1099,1252 1115,1241 1130,1229 1145,1215 1159,1201 1173,1185 1186,1169 1199,1151 1211,1133 1223,1114 1233,1094 1243,1073 1252,1052 1261,1030 1269,1007 1275,984 1281,960 1287,936 1291,912 1295,887 1297,863 1299,838 1300,813 1300,787 1299,762 1297,737 1295,713 1291,688 1287,664 1281,640 1275,616 1269,593 1261,570 1252,548 1243,527 1233,506 1223,486 1211,467 1199,449 1186,431 1173,415 1159,399 1145,385 1130,371 1115,359 1099,348 1083,338 1067,329 1050,321 1033,314 1009,456 1021,461 1033,466 1044,473 1056,480 1067,488 1078,496 1088,506 1098,516 1108,527 1118,539 1126,551 1135,564 1143,578 1151,592 1158,607 1164,622 1170,637 1176,653 1181,670 1185,686 1189,703 1192,721 1194,738 1196,756 1197,773 1198,791 1198,809 1197,827 1196,844 1194,862 1192,879 1189,897 1185,914 1181,930 1176,947 1170,963 1164,978 1158,993 1151,1008 1143,1022 1135,1036 1126,1049 1118,1061 1108,1073 1098,1084 1088,1094 1078,1104 1067,1112 1056,1120 1044,1127 1033,1134 1021,1139 1009,1144 1033,1286 Z"/>
      </g>
     </g>
     <g class="com.sun.star.drawing.PolyPolygonShape">
      <g id="id5">
       <rect class="BoundingBox" stroke="none" fill="none" x="182" y="132" width="637" height="1337"/>
       <path fill="rgb(114,159,207)" stroke="none" d="M 200,550 L 200,1050 500,1050 800,1450 800,150 500,550 200,550 Z"/>
       <path fill="none" stroke="rgb(0,0,0)" stroke-width="35" stroke-linejoin="round" d="M 200,550 L 200,1050 500,1050 800,1450 800,150 500,550 200,550 Z"/>
      </g>
     </g>
    </g>
   </g>
  </g>
 </g>
</svg>