<?xml version="1.0" encoding="UTF-8"?>
<!-- Created with Inkscape (http://www.inkscape.org/) -->
<svg id="SVGRoot" width="64px" height="64px" version="1.1" viewBox="0 0 64 64" xmlns="http://www.w3.org/2000/svg" xmlns:cc="http://creativecommons.org/ns#" xmlns:dc="http://purl.org/dc/elements/1.1/" xmlns:rdf="http://www.w3.org/1999/02/22-rdf-syntax-ns#" xmlns:xlink="http://www.w3.org/1999/xlink">
 <defs>
  <linearGradient id="linearGradient4506" x1="15" x2="15" y1="40" y2="58" gradientTransform="matrix(1.0182 0 0 1 -1.0909 3)" gradientUnits="userSpaceOnUse">
   <stop stop-color="#ffec00" offset="0"/>
   <stop stop-color="#bc9700" offset="1"/>
  </linearGradient>
 </defs>
 <metadata>
  <rdf:RDF>
   <cc:Work rdf:about="">
    <dc:format>image/svg+xml</dc:format>
    <dc:type rdf:resource="http://purl.org/dc/dcmitype/StillImage"/>
    <dc:title/>
   </cc:Work>
  </rdf:RDF>
 </metadata>
 <rect x="4" y="42" width="56" height="20" fill="url(#linearGradient4506)" stroke="#000" stroke-linecap="square" stroke-width="2" style="paint-order:markers fill stroke"/>
 <g transform="translate(-.25 -.875)">
  <g transform="matrix(1 0 0 -.94886 0 39.861)">
   <path d="m26.741 31.471c-3.4037-2.3444-6.1886-4.2818-6.1886-4.3052 0-0.0234 1.977-0.04257 4.3933-0.04257h4.3933v-24.169h6.6608v24.169h4.4641c2.4553 0 4.4641 0.01582 4.4641 0.03517 0 0.07232-12.044 11.342-12.144 11.342-0.05752 0-2.6395-4.6846-6.0432-7.0291z" fill="#f00" stroke="#f00" stroke-linecap="square" stroke-width="2.0532" style="paint-order:markers fill stroke"/>
   <path d="m26.635 2.902 10.698 0.011756v23.33h9.6667l-14.075 13.249-14.925-13.249h9.6667v-23.057" fill="none" stroke="#000" stroke-width="2.0532"/>
  </g>
 </g>
</svg>
