<?xml version="1.0" encoding="UTF-8"?>
<svg width="16mm" height="16mm" fill-rule="evenodd" stroke-linejoin="round" stroke-width="28.222" preserveAspectRatio="xMidYMid" version="1.2" viewBox="0 0 1600 1600" xml:space="preserve" xmlns="http://www.w3.org/2000/svg" xmlns:ooo="http://xml.openoffice.org/svg/export">
 <defs class="TextShapeIndex">
 </defs>
 <defs class="EmbeddedBulletChars">
 </defs>
<g stroke="#008000" stroke-width="28.231"><path d="m297.82 304.37c-134.02 134.02-209.37 315.92-209.37 505.46-1.2e-5 189.54 75.344 371.44 209.37 505.46 134.02 134.02 315.92 209.37 505.46 209.37s371.44-75.344 505.46-209.37c134.02-134.02 209.37-315.92 209.37-505.46 0-196.26-95.541-345.91-196-489.52l-195.12 136.49c96.257 137.61 153 233.27 153 353.03 0 126.48-50.19 247.65-139.62 337.08-89.433 89.433-210.61 139.62-337.08 139.62s-247.65-50.192-337.08-139.62c-89.433-89.433-139.62-210.61-139.62-337.08 0-126.48 50.192-247.65 139.62-337.08z" color="#000000" color-rendering="auto" dominant-baseline="auto" fill="#008000" fill-rule="nonzero" image-rendering="auto" shape-rendering="auto" solid-color="#000000" stop-color="#000000" stroke-linejoin="miter" style="font-feature-settings:normal;font-variant-alternates:normal;font-variant-caps:normal;font-variant-east-asian:normal;font-variant-ligatures:normal;font-variant-numeric:normal;font-variant-position:normal;font-variation-settings:normal;inline-size:0;isolation:auto;mix-blend-mode:normal;shape-margin:0;shape-padding:0;text-decoration-color:#000000;text-decoration-line:none;text-decoration-style:solid;text-indent:0;text-orientation:mixed;text-transform:none;white-space:normal"/><g fill="#008000" fill-rule="evenodd" shape-rendering="auto" stroke="#008000" stroke-linejoin="miter" stroke-width="28.231"><path d="m1067 163.39 431.26 201.07-390.25 272.98z" color="#000000" color-rendering="auto" dominant-baseline="auto" image-rendering="auto" solid-color="#000000" stop-color="#000000" style="font-feature-settings:normal;font-variant-alternates:normal;font-variant-caps:normal;font-variant-east-asian:normal;font-variant-ligatures:normal;font-variant-numeric:normal;font-variant-position:normal;font-variation-settings:normal;inline-size:0;isolation:auto;mix-blend-mode:normal;shape-margin:0;shape-padding:0;text-decoration-color:#000000;text-decoration-line:none;text-decoration-style:solid;text-indent:0;text-orientation:mixed;text-transform:none;white-space:normal"/><path d="m1067.2 131.64a31.753 31.753 0 0 0-31.742 34.482l41.008 474.06a31.753 31.753 0 0 0 49.832 23.279l390.25-272.98a31.753 31.753 0 0 0-4.7813-54.793l-431.26-201.07a31.753 31.753 0 0 0-13.307-2.9707zm36.256 83.734 331.6 154.61-300.07 209.9z" color="#000000" color-rendering="auto" dominant-baseline="auto" image-rendering="auto" solid-color="#000000" stop-color="#000000" style="font-feature-settings:normal;font-variant-alternates:normal;font-variant-caps:normal;font-variant-east-asian:normal;font-variant-ligatures:normal;font-variant-numeric:normal;font-variant-position:normal;font-variation-settings:normal;inline-size:0;isolation:auto;mix-blend-mode:normal;shape-margin:0;shape-padding:0;text-decoration-color:#000000;text-decoration-line:none;text-decoration-style:solid;text-indent:0;text-orientation:mixed;text-transform:none;white-space:normal"/></g></g></svg>
