<?xml version="1.0" encoding="UTF-8"?>
<svg id="SVGRoot" width="64px" height="64px" version="1.1" viewBox="0 0 64 64" xmlns="http://www.w3.org/2000/svg">
 <g fill-rule="evenodd">
  <rect x="1" y="1" width="62" height="62" fill="#fff" stroke="#000" stroke-linejoin="round" style="paint-order:fill markers stroke"/>
  <g stroke-width="0">
   <path d="m47.42 9.0001c-5.8219-3.7744-13.079-5.3345-20.378-3.777-14.599 3.1148-23.955 17.546-20.84 32.145 3.1148 14.599 17.545 23.954 32.143 20.84l-1.1596-5.441c-11.658 2.4876-23.056-4.9014-25.544-16.561-2.4876-11.658 4.9014-23.056 16.561-25.544 11.658-2.4876 23.056 4.9014 25.544 16.561l5.4395-1.1605c-1.5574-7.2994-5.9434-13.288-11.765-17.063z" color="#000000" color-rendering="auto" dominant-baseline="auto" image-rendering="auto" shape-rendering="auto" solid-color="#000000" stop-color="#000000" style="font-feature-settings:normal;font-variant-alternates:normal;font-variant-caps:normal;font-variant-east-asian:normal;font-variant-ligatures:normal;font-variant-numeric:normal;font-variant-position:normal;font-variation-settings:normal;inline-size:0;isolation:auto;mix-blend-mode:normal;paint-order:fill markers stroke;shape-margin:0;shape-padding:0;text-decoration-color:#000000;text-decoration-line:none;text-decoration-style:solid;text-indent:0;text-orientation:mixed;text-transform:none;white-space:normal"/>
   <circle transform="scale(-1)" cx="-16.678" cy="-27.327" r="2.692" style="paint-order:fill markers stroke"/>
   <circle transform="scale(-1)" cx="-48.36" cy="-27.151" r="2.692" style="paint-order:fill markers stroke"/>
   <circle transform="scale(-1)" cx="-42.259" cy="-19.019" r="2.692" style="paint-order:fill markers stroke"/>
   <circle transform="scale(-1)" cx="-32.629" cy="-15.794" r="2.692" style="paint-order:fill markers stroke"/>
   <circle transform="scale(-1)" cx="-22.994" cy="-19.196" r="2.692" style="paint-order:fill markers stroke"/>
  </g>
 </g>
 <path d="m24 40h23.351v-7l12.649 11-12.649 11v-7h-23.351z" stroke="#000"/>
</svg>
