<?xml version="1.0" encoding="UTF-8"?>
<svg id="SVGRoot" width="64px" height="64px" version="1.1" viewBox="0 0 64 64" xmlns="http://www.w3.org/2000/svg">
 <g>
  <g>
   <rect x="1" y="1" width="62" height="62" fill="#fea" fill-rule="evenodd" stroke="#000" stroke-linecap="square" style="paint-order:fill markers stroke"/>
   <path d="m6 33.748h26.749v-4.3481l12.932 11.305-12.932 10.436v-4.3481h-26.749z" fill="#ff3000" stroke="#000"/>
   <path d="m22 6c6.947-2.2899 14.796-2.03 21.885 1.3276 14.179 6.7153 20.061 23.334 13.102 37.016s-24.177 19.358-38.356 12.643l2.5922-5.0999c11.323 5.3629 24.923 0.87999 30.48-10.047 5.5572-10.927 0.91188-24.051-10.411-29.414-11.323-5.3629-24.923-0.87999-30.48 10.047l-5.2829-2.5021c3.4793-6.8413 9.5235-11.681 16.47-13.971z" color="#000000" color-rendering="auto" dominant-baseline="auto" fill-rule="evenodd" image-rendering="auto" shape-rendering="auto" solid-color="#000000" stop-color="#000000" stroke-width="0" style="font-feature-settings:normal;font-variant-alternates:normal;font-variant-caps:normal;font-variant-east-asian:normal;font-variant-ligatures:normal;font-variant-numeric:normal;font-variant-position:normal;font-variation-settings:normal;inline-size:0;isolation:auto;mix-blend-mode:normal;paint-order:fill markers stroke;shape-margin:0;shape-padding:0;text-decoration-color:#000000;text-decoration-line:none;text-decoration-style:solid;text-indent:0;text-orientation:mixed;text-transform:none;white-space:normal"/>
  </g>
  <g transform="translate(-2.0327 -.13255)" fill-rule="evenodd" stroke-width="0">
   <ellipse transform="scale(1,-1)" cx="48.933" cy="-27.966" rx="2.692" ry="2.692" style="paint-order:fill markers stroke"/>
   <ellipse transform="scale(1,-1)" cx="17.251" cy="-27.79" rx="2.692" ry="2.692" style="paint-order:fill markers stroke"/>
   <ellipse transform="scale(1,-1)" cx="23.352" cy="-19.658" rx="2.692" ry="2.692" style="paint-order:fill markers stroke"/>
   <ellipse transform="scale(1,-1)" cx="32.982" cy="-16.433" rx="2.692" ry="2.692" style="paint-order:fill markers stroke"/>
   <ellipse transform="scale(1,-1)" cx="42.617" cy="-19.835" rx="2.692" ry="2.692" style="paint-order:fill markers stroke"/>
  </g>
 </g>
</svg>
