<?xml version="1.0" encoding="UTF-8"?>
<svg id="SVGRoot" width="64px" height="64px" version="1.1" viewBox="0 0 64 64" xmlns="http://www.w3.org/2000/svg">
 <g fill-rule="evenodd">
  <rect x="1" y="1" width="62" height="62" fill="#fff" stroke="#000" stroke-linecap="square" style="paint-order:fill markers stroke"/>
  <g stroke-width="0">
   <path d="m22 6c6.947-2.2899 14.796-2.03 21.885 1.3276 14.179 6.7153 20.061 23.334 13.102 37.016s-24.177 19.358-38.356 12.643l2.5922-5.0999c11.323 5.3629 24.923 0.87999 30.48-10.047 5.5572-10.927 0.91188-24.051-10.411-29.414-11.323-5.3629-24.923-0.87999-30.48 10.047l-5.2829-2.5021c3.4793-6.8413 9.5235-11.681 16.47-13.971z" color="#000000" color-rendering="auto" dominant-baseline="auto" image-rendering="auto" shape-rendering="auto" solid-color="#000000" stop-color="#000000" style="font-feature-settings:normal;font-variant-alternates:normal;font-variant-caps:normal;font-variant-east-asian:normal;font-variant-ligatures:normal;font-variant-numeric:normal;font-variant-position:normal;font-variation-settings:normal;inline-size:0;isolation:auto;mix-blend-mode:normal;paint-order:fill markers stroke;shape-margin:0;shape-padding:0;text-decoration-color:#000000;text-decoration-line:none;text-decoration-style:solid;text-indent:0;text-orientation:mixed;text-transform:none;white-space:normal"/>
   <circle transform="scale(1,-1)" cx="46.9" cy="-27.833" r="2.692" style="paint-order:fill markers stroke"/>
   <circle transform="scale(1,-1)" cx="15.218" cy="-27.657" r="2.692" style="paint-order:fill markers stroke"/>
   <circle transform="scale(1,-1)" cx="21.319" cy="-19.525" r="2.692" style="paint-order:fill markers stroke"/>
   <circle transform="scale(1,-1)" cx="30.949" cy="-16.3" r="2.692" style="paint-order:fill markers stroke"/>
   <circle transform="scale(1,-1)" cx="40.584" cy="-19.702" r="2.692" style="paint-order:fill markers stroke"/>
  </g>
 </g>
 <path d="m6 36h24v-7l13 11-13 11v-7h-24z" stroke="#000"/>
</svg>
