<?xml version="1.0" encoding="UTF-8"?>
<!DOCTYPE svg PUBLIC "-//W3C//DTD SVG 1.1//EN" "http://www.w3.org/Graphics/SVG/1.1/DTD/svg11.dtd">
<svg version="1.2" width="16mm" height="16mm" viewBox="0 0 1600 1600" preserveAspectRatio="xMidYMid" fill-rule="evenodd" stroke-width="28.222" stroke-linejoin="round" xmlns="http://www.w3.org/2000/svg" xmlns:ooo="http://xml.openoffice.org/svg/export" xmlns:xlink="http://www.w3.org/1999/xlink" xmlns:presentation="http://sun.com/xmlns/staroffice/presentation" xmlns:smil="http://www.w3.org/2001/SMIL20/" xmlns:anim="urn:oasis:names:tc:opendocument:xmlns:animation:1.0" xml:space="preserve">
 <defs class="ClipPathGroup">
  <clipPath id="presentation_clip_path" clipPathUnits="userSpaceOnUse">
   <rect x="0" y="0" width="1600" height="1600"/>
  </clipPath>
  <clipPath id="presentation_clip_path_shrink" clipPathUnits="userSpaceOnUse">
   <rect x="1" y="1" width="1597" height="1597"/>
  </clipPath>
 </defs>
 <defs class="TextShapeIndex">
  <g ooo:slide="id1" ooo:id-list="id3 id4 id5 id6 id7 id8 id9"/>
 </defs>
 <defs class="EmbeddedBulletChars">
  <g id="bullet-char-template-57356" transform="scale(0.00048828125,-0.00048828125)">
   <path d="M 580,1141 L 1163,571 580,0 -4,571 580,1141 Z"/>
  </g>
  <g id="bullet-char-template-57354" transform="scale(0.00048828125,-0.00048828125)">
   <path d="M 8,1128 L 1137,1128 1137,0 8,0 8,1128 Z"/>
  </g>
  <g id="bullet-char-template-10146" transform="scale(0.00048828125,-0.00048828125)">
   <path d="M 174,0 L 602,739 174,1481 1456,739 174,0 Z M 1358,739 L 309,1346 659,739 1358,739 Z"/>
  </g>
  <g id="bullet-char-template-10132" transform="scale(0.00048828125,-0.00048828125)">
   <path d="M 2015,739 L 1276,0 717,0 1260,543 174,543 174,936 1260,936 717,1481 1274,1481 2015,739 Z"/>
  </g>
  <g id="bullet-char-template-10007" transform="scale(0.00048828125,-0.00048828125)">
   <path d="M 0,-2 C -7,14 -16,27 -25,37 L 356,567 C 262,823 215,952 215,954 215,979 228,992 255,992 264,992 276,990 289,987 310,991 331,999 354,1012 L 381,999 492,748 772,1049 836,1024 860,1049 C 881,1039 901,1025 922,1006 886,937 835,863 770,784 769,783 710,716 594,584 L 774,223 C 774,196 753,168 711,139 L 727,119 C 717,90 699,76 672,76 641,76 570,178 457,381 L 164,-76 C 142,-110 111,-127 72,-127 30,-127 9,-110 8,-76 1,-67 -2,-52 -2,-32 -2,-23 -1,-13 0,-2 Z"/>
  </g>
  <g id="bullet-char-template-10004" transform="scale(0.00048828125,-0.00048828125)">
   <path d="M 285,-33 C 182,-33 111,30 74,156 52,228 41,333 41,471 41,549 55,616 82,672 116,743 169,778 240,778 293,778 328,747 346,684 L 369,508 C 377,444 397,411 428,410 L 1163,1116 C 1174,1127 1196,1133 1229,1133 1271,1133 1292,1118 1292,1087 L 1292,965 C 1292,929 1282,901 1262,881 L 442,47 C 390,-6 338,-33 285,-33 Z"/>
  </g>
  <g id="bullet-char-template-9679" transform="scale(0.00048828125,-0.00048828125)">
   <path d="M 813,0 C 632,0 489,54 383,161 276,268 223,411 223,592 223,773 276,916 383,1023 489,1130 632,1184 813,1184 992,1184 1136,1130 1245,1023 1353,916 1407,772 1407,592 1407,412 1353,268 1245,161 1136,54 992,0 813,0 Z"/>
  </g>
  <g id="bullet-char-template-8226" transform="scale(0.00048828125,-0.00048828125)">
   <path d="M 346,457 C 273,457 209,483 155,535 101,586 74,649 74,723 74,796 101,859 155,911 209,963 273,989 346,989 419,989 480,963 531,910 582,859 608,796 608,723 608,648 583,586 532,535 482,483 420,457 346,457 Z"/>
  </g>
  <g id="bullet-char-template-8211" transform="scale(0.00048828125,-0.00048828125)">
   <path d="M -4,459 L 1135,459 1135,606 -4,606 -4,459 Z"/>
  </g>
  <g id="bullet-char-template-61548" transform="scale(0.00048828125,-0.00048828125)">
   <path d="M 173,740 C 173,903 231,1043 346,1159 462,1274 601,1332 765,1332 928,1332 1067,1274 1183,1159 1299,1043 1357,903 1357,740 1357,577 1299,437 1183,322 1067,206 928,148 765,148 601,148 462,206 346,322 231,437 173,577 173,740 Z"/>
  </g>
 </defs>
 <g>
  <g id="id2" class="Master_Slide">
   <g id="bg-id2" class="Background"/>
   <g id="bo-id2" class="BackgroundObjects"/>
  </g>
 </g>
 <g class="SlideGroup">
  <g>
   <g id="container-id1">
    <g id="id1" class="Slide" clip-path="url(#presentation_clip_path)">
     <g class="Page">
      <g class="com.sun.star.drawing.CustomShape">
       <g id="id3">
        <rect class="BoundingBox" stroke="none" fill="none" x="224" y="224" width="1156" height="1156"/>
        <path fill="rgb(114,159,207)" stroke="none" d="M 1361,802 C 1361,900 1335,996 1286,1081 1237,1166 1166,1237 1081,1286 996,1335 900,1361 802,1361 703,1361 607,1335 522,1286 437,1237 366,1166 317,1081 268,996 242,900 242,802 242,703 268,607 317,522 366,437 437,366 522,317 607,268 703,242 801,242 900,242 996,268 1081,317 1166,366 1237,437 1286,522 1335,607 1361,703 1361,801 L 1361,802 Z"/>
        <path fill="none" stroke="rgb(0,0,0)" stroke-width="35" stroke-linejoin="round" d="M 1361,802 C 1361,900 1335,996 1286,1081 1237,1166 1166,1237 1081,1286 996,1335 900,1361 802,1361 703,1361 607,1335 522,1286 437,1237 366,1166 317,1081 268,996 242,900 242,802 242,703 268,607 317,522 366,437 437,366 522,317 607,268 703,242 801,242 900,242 996,268 1081,317 1166,366 1237,437 1286,522 1335,607 1361,703 1361,801 L 1361,802 Z"/>
       </g>
      </g>
      <g class="com.sun.star.drawing.CustomShape">
       <g id="id4">
        <rect class="BoundingBox" stroke="none" fill="none" x="757" y="288" width="89" height="140"/>
        <path fill="rgb(0,0,0)" stroke="none" d="M 783,306 L 784,306 C 782,306 781,306 779,307 778,308 777,309 776,310 775,312 775,313 775,315 L 775,400 775,400 C 775,402 775,403 776,405 777,406 778,407 779,408 781,409 782,409 784,409 L 818,408 818,409 C 820,409 821,409 823,408 824,407 825,406 826,405 827,403 827,402 827,400 L 827,314 827,315 827,315 C 827,313 827,312 826,310 825,309 824,308 823,307 821,306 820,306 818,306 L 783,306 Z"/>
        <path fill="none" stroke="rgb(0,0,0)" stroke-width="35" stroke-linejoin="round" d="M 783,306 L 784,306 C 782,306 781,306 779,307 778,308 777,309 776,310 775,312 775,313 775,315 L 775,400 775,400 C 775,402 775,403 776,405 777,406 778,407 779,408 781,409 782,409 784,409 L 818,408 818,409 C 820,409 821,409 823,408 824,407 825,406 826,405 827,403 827,402 827,400 L 827,314 827,315 827,315 C 827,313 827,312 826,310 825,309 824,308 823,307 821,306 820,306 818,306 L 783,306 Z"/>
       </g>
      </g>
      <g class="com.sun.star.drawing.CustomShape">
       <g id="id5">
        <rect class="BoundingBox" stroke="none" fill="none" x="1053" y="429" width="135" height="146"/>
        <path fill="rgb(0,0,0)" stroke="none" d="M 1073,520 L 1073,520 C 1072,521 1072,523 1072,525 1071,526 1072,528 1072,529 1073,531 1074,532 1075,533 L 1105,554 1106,554 C 1107,555 1109,556 1111,556 1112,556 1114,556 1115,555 1117,555 1118,554 1119,552 L 1167,484 1167,483 C 1168,482 1169,480 1169,479 1169,477 1169,475 1168,474 1168,472 1166,471 1165,470 L 1134,449 1135,449 1135,449 C 1133,448 1132,447 1130,447 1128,447 1127,447 1125,448 1124,449 1122,450 1122,451 L 1073,520 Z"/>
        <path fill="none" stroke="rgb(0,0,0)" stroke-width="35" stroke-linejoin="round" d="M 1073,520 L 1073,520 C 1072,521 1072,523 1072,525 1071,526 1072,528 1072,529 1073,531 1074,532 1075,533 L 1105,554 1106,554 C 1107,555 1109,556 1111,556 1112,556 1114,556 1115,555 1117,555 1118,554 1119,552 L 1167,484 1167,483 C 1168,482 1169,480 1169,479 1169,477 1169,475 1168,474 1168,472 1166,471 1165,470 L 1134,449 1135,449 1135,449 C 1133,448 1132,447 1130,447 1128,447 1127,447 1125,448 1124,449 1122,450 1122,451 L 1073,520 Z"/>
       </g>
      </g>
      <g class="com.sun.star.drawing.CustomShape">
       <g id="id6">
        <rect class="BoundingBox" stroke="none" fill="none" x="396" y="437" width="135" height="146"/>
        <path fill="rgb(0,0,0)" stroke="none" d="M 464,560 L 464,560 C 465,562 466,563 468,563 469,564 471,564 472,564 474,564 476,563 477,562 L 507,541 508,541 C 509,540 510,539 511,537 511,536 512,534 511,533 511,531 511,529 510,528 L 462,460 461,459 C 461,458 459,457 458,456 456,455 455,455 453,455 451,455 450,456 448,457 L 418,478 418,478 418,478 C 417,479 415,480 415,482 414,483 414,485 414,487 414,488 415,490 416,491 L 464,560 Z"/>
        <path fill="none" stroke="rgb(0,0,0)" stroke-width="35" stroke-linejoin="round" d="M 464,560 L 464,560 C 465,562 466,563 468,563 469,564 471,564 472,564 474,564 476,563 477,562 L 507,541 508,541 C 509,540 510,539 511,537 511,536 512,534 511,533 511,531 511,529 510,528 L 462,460 461,459 C 461,458 459,457 458,456 456,455 455,455 453,455 451,455 450,456 448,457 L 418,478 418,478 418,478 C 417,479 415,480 415,482 414,483 414,485 414,487 414,488 415,490 416,491 L 464,560 Z"/>
       </g>
      </g>
      <g class="com.sun.star.drawing.CustomShape">
       <g id="id7">
        <rect class="BoundingBox" stroke="none" fill="none" x="485" y="671" width="350" height="546"/>
        <path fill="rgb(0,0,0)" stroke="none" d="M 538,690 L 537,690 C 539,689 540,689 542,689 543,689 545,690 546,690 547,691 548,692 549,694 L 815,1168 815,1168 C 815,1169 816,1171 816,1172 816,1174 815,1175 815,1177 814,1178 813,1179 811,1180 L 781,1197 781,1197 C 780,1197 778,1198 777,1198 775,1198 774,1197 772,1197 771,1196 770,1195 769,1193 L 503,718 504,719 504,719 C 503,718 503,716 503,715 503,713 503,712 504,710 505,709 506,708 507,707 L 538,690 Z"/>
        <path fill="none" stroke="rgb(0,0,0)" stroke-width="35" stroke-linejoin="round" d="M 538,690 L 537,690 C 539,689 540,689 542,689 543,689 545,690 546,690 547,691 548,692 549,694 L 815,1168 815,1168 C 815,1169 816,1171 816,1172 816,1174 815,1175 815,1177 814,1178 813,1179 811,1180 L 781,1197 781,1197 C 780,1197 778,1198 777,1198 775,1198 774,1197 772,1197 771,1196 770,1195 769,1193 L 503,718 504,719 504,719 C 503,718 503,716 503,715 503,713 503,712 504,710 505,709 506,708 507,707 L 538,690 Z"/>
       </g>
      </g>
      <g class="com.sun.star.drawing.CustomShape">
       <g id="id8">
        <rect class="BoundingBox" stroke="none" fill="none" x="546" y="338" width="125" height="148"/>
        <path fill="rgb(0,0,0)" stroke="none" d="M 600,462 L 600,462 C 601,463 602,464 603,465 605,466 606,467 608,467 610,467 611,467 613,466 L 646,451 646,450 C 648,450 649,449 650,447 651,446 652,444 652,443 652,441 652,439 651,438 L 616,362 615,361 C 615,360 614,359 612,358 611,357 609,356 608,356 606,356 604,356 603,357 L 569,373 569,373 569,373 C 568,373 566,375 565,376 564,377 564,379 564,380 564,382 564,384 565,385 L 600,462 Z"/>
        <path fill="none" stroke="rgb(0,0,0)" stroke-width="35" stroke-linejoin="round" d="M 600,462 L 600,462 C 601,463 602,464 603,465 605,466 606,467 608,467 610,467 611,467 613,466 L 646,451 646,450 C 648,450 649,449 650,447 651,446 652,444 652,443 652,441 652,439 651,438 L 616,362 615,361 C 615,360 614,359 612,358 611,357 609,356 608,356 606,356 604,356 603,357 L 569,373 569,373 569,373 C 568,373 566,375 565,376 564,377 564,379 564,380 564,382 564,384 565,385 L 600,462 Z"/>
       </g>
      </g>
      <g class="com.sun.star.drawing.CustomShape">
       <g id="id9">
        <rect class="BoundingBox" stroke="none" fill="none" x="924" y="313" width="119" height="148"/>
        <path fill="rgb(0,0,0)" stroke="none" d="M 942,417 L 942,417 C 942,418 942,420 942,421 942,423 943,425 944,426 945,427 946,428 948,429 L 982,441 983,441 C 985,442 986,442 988,442 990,441 991,441 992,440 994,439 995,437 995,436 L 1024,357 1024,356 C 1024,355 1025,353 1024,352 1024,350 1023,349 1022,347 1021,346 1020,345 1018,345 L 983,332 983,332 983,332 C 982,331 980,331 978,331 977,332 975,332 974,333 973,334 972,336 971,337 L 942,417 Z"/>
        <path fill="none" stroke="rgb(0,0,0)" stroke-width="35" stroke-linejoin="round" d="M 942,417 L 942,417 C 942,418 942,420 942,421 942,423 943,425 944,426 945,427 946,428 948,429 L 982,441 983,441 C 985,442 986,442 988,442 990,441 991,441 992,440 994,439 995,437 995,436 L 1024,357 1024,356 C 1024,355 1025,353 1024,352 1024,350 1023,349 1022,347 1021,346 1020,345 1018,345 L 983,332 983,332 983,332 C 982,331 980,331 978,331 977,332 975,332 974,333 973,334 972,336 971,337 L 942,417 Z"/>
       </g>
      </g>
     </g>
    </g>
   </g>
  </g>
 </g>
</svg>