<?xml version="1.0" encoding="UTF-8"?>
<!DOCTYPE svg PUBLIC "-//W3C//DTD SVG 1.1//EN" "http://www.w3.org/Graphics/SVG/1.1/DTD/svg11.dtd">
<svg version="1.2" width="16mm" height="16mm" viewBox="0 0 1600 1600" preserveAspectRatio="xMidYMid" fill-rule="evenodd" stroke-width="28.222" stroke-linejoin="round" xmlns="http://www.w3.org/2000/svg" xmlns:ooo="http://xml.openoffice.org/svg/export" xmlns:xlink="http://www.w3.org/1999/xlink" xmlns:presentation="http://sun.com/xmlns/staroffice/presentation" xmlns:smil="http://www.w3.org/2001/SMIL20/" xmlns:anim="urn:oasis:names:tc:opendocument:xmlns:animation:1.0" xml:space="preserve">
 <defs class="ClipPathGroup">
  <clipPath id="presentation_clip_path" clipPathUnits="userSpaceOnUse">
   <rect x="0" y="0" width="1600" height="1600"/>
  </clipPath>
  <clipPath id="presentation_clip_path_shrink" clipPathUnits="userSpaceOnUse">
   <rect x="1" y="1" width="1597" height="1597"/>
  </clipPath>
 </defs>
 <defs class="TextShapeIndex">
  <g ooo:slide="id1" ooo:id-list="id3 id4 id5 id6 id7 id8 id9"/>
 </defs>
 <defs class="EmbeddedBulletChars">
  <g id="bullet-char-template-57356" transform="scale(0.00048828125,-0.00048828125)">
   <path d="M 580,1141 L 1163,571 580,0 -4,571 580,1141 Z"/>
  </g>
  <g id="bullet-char-template-57354" transform="scale(0.00048828125,-0.00048828125)">
   <path d="M 8,1128 L 1137,1128 1137,0 8,0 8,1128 Z"/>
  </g>
  <g id="bullet-char-template-10146" transform="scale(0.00048828125,-0.00048828125)">
   <path d="M 174,0 L 602,739 174,1481 1456,739 174,0 Z M 1358,739 L 309,1346 659,739 1358,739 Z"/>
  </g>
  <g id="bullet-char-template-10132" transform="scale(0.00048828125,-0.00048828125)">
   <path d="M 2015,739 L 1276,0 717,0 1260,543 174,543 174,936 1260,936 717,1481 1274,1481 2015,739 Z"/>
  </g>
  <g id="bullet-char-template-10007" transform="scale(0.00048828125,-0.00048828125)">
   <path d="M 0,-2 C -7,14 -16,27 -25,37 L 356,567 C 262,823 215,952 215,954 215,979 228,992 255,992 264,992 276,990 289,987 310,991 331,999 354,1012 L 381,999 492,748 772,1049 836,1024 860,1049 C 881,1039 901,1025 922,1006 886,937 835,863 770,784 769,783 710,716 594,584 L 774,223 C 774,196 753,168 711,139 L 727,119 C 717,90 699,76 672,76 641,76 570,178 457,381 L 164,-76 C 142,-110 111,-127 72,-127 30,-127 9,-110 8,-76 1,-67 -2,-52 -2,-32 -2,-23 -1,-13 0,-2 Z"/>
  </g>
  <g id="bullet-char-template-10004" transform="scale(0.00048828125,-0.00048828125)">
   <path d="M 285,-33 C 182,-33 111,30 74,156 52,228 41,333 41,471 41,549 55,616 82,672 116,743 169,778 240,778 293,778 328,747 346,684 L 369,508 C 377,444 397,411 428,410 L 1163,1116 C 1174,1127 1196,1133 1229,1133 1271,1133 1292,1118 1292,1087 L 1292,965 C 1292,929 1282,901 1262,881 L 442,47 C 390,-6 338,-33 285,-33 Z"/>
  </g>
  <g id="bullet-char-template-9679" transform="scale(0.00048828125,-0.00048828125)">
   <path d="M 813,0 C 632,0 489,54 383,161 276,268 223,411 223,592 223,773 276,916 383,1023 489,1130 632,1184 813,1184 992,1184 1136,1130 1245,1023 1353,916 1407,772 1407,592 1407,412 1353,268 1245,161 1136,54 992,0 813,0 Z"/>
  </g>
  <g id="bullet-char-template-8226" transform="scale(0.00048828125,-0.00048828125)">
   <path d="M 346,457 C 273,457 209,483 155,535 101,586 74,649 74,723 74,796 101,859 155,911 209,963 273,989 346,989 419,989 480,963 531,910 582,859 608,796 608,723 608,648 583,586 532,535 482,483 420,457 346,457 Z"/>
  </g>
  <g id="bullet-char-template-8211" transform="scale(0.00048828125,-0.00048828125)">
   <path d="M -4,459 L 1135,459 1135,606 -4,606 -4,459 Z"/>
  </g>
  <g id="bullet-char-template-61548" transform="scale(0.00048828125,-0.00048828125)">
   <path d="M 173,740 C 173,903 231,1043 346,1159 462,1274 601,1332 765,1332 928,1332 1067,1274 1183,1159 1299,1043 1357,903 1357,740 1357,577 1299,437 1183,322 1067,206 928,148 765,148 601,148 462,206 346,322 231,437 173,577 173,740 Z"/>
  </g>
 </defs>
 <g>
  <g id="id2" class="Master_Slide">
   <g id="bg-id2" class="Background"/>
   <g id="bo-id2" class="BackgroundObjects"/>
  </g>
 </g>
 <g class="SlideGroup">
  <g>
   <g id="container-id1">
    <g id="id1" class="Slide" clip-path="url(#presentation_clip_path)">
     <g class="Page">
      <g class="com.sun.star.drawing.CustomShape">
       <g id="id3">
        <rect class="BoundingBox" stroke="none" fill="none" x="223" y="223" width="1156" height="1156"/>
        <g>
         <defs>
          <linearGradient id="gradient1" x1="418" y1="138" x2="1183" y2="1463" gradientUnits="userSpaceOnUse">
           <stop offset="0" style="stop-color:rgb(0,255,0)"/>
           <stop offset="1" style="stop-color:rgb(0,179,0)"/>
          </linearGradient>
         </defs>
         <path style="fill:url(#gradient1)" d="M 1360,801 L 1359,837 1355,874 1349,910 1341,945 1330,980 1317,1014 1302,1048 1285,1080 1266,1111 1244,1141 1221,1169 1196,1196 1169,1221 1141,1244 1111,1266 1080,1285 1048,1302 1014,1317 980,1330 945,1341 910,1349 874,1355 837,1359 801,1360 764,1359 727,1355 691,1349 656,1341 621,1330 587,1317 553,1302 521,1285 490,1266 460,1244 432,1221 405,1196 380,1169 357,1141 335,1111 316,1080 299,1048 284,1014 271,980 260,945 252,910 246,874 242,837 241,801 242,764 246,727 252,691 260,656 271,621 284,587 299,553 316,521 335,490 357,460 380,432 405,405 432,380 460,357 490,335 521,316 553,299 587,284 621,271 656,260 691,252 727,246 764,242 800,241 837,242 874,246 910,252 945,260 980,271 1014,284 1048,299 1080,316 1111,335 1141,357 1169,380 1196,405 1221,432 1244,460 1266,490 1285,521 1302,553 1317,587 1330,621 1341,656 1349,691 1355,727 1359,764 1360,800 1360,801 Z"/>
        </g>
        <path fill="none" stroke="rgb(0,0,0)" stroke-width="35" stroke-linejoin="round" d="M 1360,801 C 1360,899 1334,995 1285,1080 1236,1165 1165,1236 1080,1285 995,1334 899,1360 801,1360 702,1360 606,1334 521,1285 436,1236 365,1165 316,1080 267,995 241,899 241,801 241,702 267,606 316,521 365,436 436,365 521,316 606,267 702,241 800,241 899,241 995,267 1080,316 1165,365 1236,436 1285,521 1334,606 1360,702 1360,800 L 1360,801 Z"/>
       </g>
      </g>
      <g class="com.sun.star.drawing.CustomShape">
       <g id="id4">
        <rect class="BoundingBox" stroke="none" fill="none" x="758" y="287" width="89" height="140"/>
        <path fill="rgb(0,0,0)" stroke="none" d="M 784,305 L 785,305 C 783,305 782,305 780,306 779,307 778,308 777,309 776,311 776,312 776,314 L 776,399 776,399 C 776,401 776,402 777,404 778,405 779,406 780,407 782,408 783,408 785,408 L 819,407 819,408 C 821,408 822,408 824,407 825,406 826,405 827,404 828,402 828,401 828,399 L 828,313 828,314 828,314 C 828,312 828,311 827,309 826,308 825,307 824,306 822,305 821,305 819,305 L 784,305 Z"/>
        <path fill="none" stroke="rgb(0,0,0)" stroke-width="35" stroke-linejoin="round" d="M 784,305 L 785,305 C 783,305 782,305 780,306 779,307 778,308 777,309 776,311 776,312 776,314 L 776,399 776,399 C 776,401 776,402 777,404 778,405 779,406 780,407 782,408 783,408 785,408 L 819,407 819,408 C 821,408 822,408 824,407 825,406 826,405 827,404 828,402 828,401 828,399 L 828,313 828,314 828,314 C 828,312 828,311 827,309 826,308 825,307 824,306 822,305 821,305 819,305 L 784,305 Z"/>
       </g>
      </g>
      <g class="com.sun.star.drawing.CustomShape">
       <g id="id5">
        <rect class="BoundingBox" stroke="none" fill="none" x="1054" y="428" width="135" height="146"/>
        <path fill="rgb(0,0,0)" stroke="none" d="M 1074,519 L 1074,519 C 1073,520 1073,522 1073,524 1072,525 1073,527 1073,528 1074,530 1075,531 1076,532 L 1106,553 1107,553 C 1108,554 1110,555 1112,555 1113,555 1115,555 1116,554 1118,554 1119,553 1120,551 L 1168,483 1168,482 C 1169,481 1170,479 1170,478 1170,476 1170,474 1169,473 1169,471 1167,470 1166,469 L 1135,448 1136,448 1136,448 C 1134,447 1133,446 1131,446 1129,446 1128,446 1126,447 1125,448 1123,449 1123,450 L 1074,519 Z"/>
        <path fill="none" stroke="rgb(0,0,0)" stroke-width="35" stroke-linejoin="round" d="M 1074,519 L 1074,519 C 1073,520 1073,522 1073,524 1072,525 1073,527 1073,528 1074,530 1075,531 1076,532 L 1106,553 1107,553 C 1108,554 1110,555 1112,555 1113,555 1115,555 1116,554 1118,554 1119,553 1120,551 L 1168,483 1168,482 C 1169,481 1170,479 1170,478 1170,476 1170,474 1169,473 1169,471 1167,470 1166,469 L 1135,448 1136,448 1136,448 C 1134,447 1133,446 1131,446 1129,446 1128,446 1126,447 1125,448 1123,449 1123,450 L 1074,519 Z"/>
       </g>
      </g>
      <g class="com.sun.star.drawing.CustomShape">
       <g id="id6">
        <rect class="BoundingBox" stroke="none" fill="none" x="397" y="436" width="135" height="146"/>
        <path fill="rgb(0,0,0)" stroke="none" d="M 465,559 L 465,559 C 466,561 467,562 469,562 470,563 472,563 473,563 475,563 477,562 478,561 L 508,540 509,540 C 510,539 511,538 512,536 512,535 513,533 512,532 512,530 512,528 511,527 L 463,459 462,458 C 462,457 460,456 459,455 457,454 456,454 454,454 452,454 451,455 449,456 L 419,477 419,477 419,477 C 418,478 416,479 416,481 415,482 415,484 415,486 415,487 416,489 417,490 L 465,559 Z"/>
        <path fill="none" stroke="rgb(0,0,0)" stroke-width="35" stroke-linejoin="round" d="M 465,559 L 465,559 C 466,561 467,562 469,562 470,563 472,563 473,563 475,563 477,562 478,561 L 508,540 509,540 C 510,539 511,538 512,536 512,535 513,533 512,532 512,530 512,528 511,527 L 463,459 462,458 C 462,457 460,456 459,455 457,454 456,454 454,454 452,454 451,455 449,456 L 419,477 419,477 419,477 C 418,478 416,479 416,481 415,482 415,484 415,486 415,487 416,489 417,490 L 465,559 Z"/>
       </g>
      </g>
      <g class="com.sun.star.drawing.CustomShape">
       <g id="id7">
        <rect class="BoundingBox" stroke="none" fill="none" x="694" y="670" width="350" height="546"/>
        <path fill="rgb(0,0,0)" stroke="none" d="M 990,689 L 991,689 C 989,688 988,688 986,688 985,688 983,689 982,689 981,690 980,691 979,693 L 713,1167 713,1167 C 713,1168 712,1170 712,1171 712,1173 713,1174 713,1176 714,1177 715,1178 717,1179 L 747,1196 747,1196 C 748,1196 750,1197 751,1197 753,1197 754,1196 756,1196 757,1195 758,1194 759,1192 L 1025,717 1024,718 1024,718 C 1025,717 1025,715 1025,714 1025,712 1025,711 1024,709 1023,708 1022,707 1021,706 L 990,689 Z"/>
        <path fill="none" stroke="rgb(0,0,0)" stroke-width="35" stroke-linejoin="round" d="M 990,689 L 991,689 C 989,688 988,688 986,688 985,688 983,689 982,689 981,690 980,691 979,693 L 713,1167 713,1167 C 713,1168 712,1170 712,1171 712,1173 713,1174 713,1176 714,1177 715,1178 717,1179 L 747,1196 747,1196 C 748,1196 750,1197 751,1197 753,1197 754,1196 756,1196 757,1195 758,1194 759,1192 L 1025,717 1024,718 1024,718 C 1025,717 1025,715 1025,714 1025,712 1025,711 1024,709 1023,708 1022,707 1021,706 L 990,689 Z"/>
       </g>
      </g>
      <g class="com.sun.star.drawing.CustomShape">
       <g id="id8">
        <rect class="BoundingBox" stroke="none" fill="none" x="547" y="337" width="125" height="148"/>
        <path fill="rgb(0,0,0)" stroke="none" d="M 601,461 L 601,461 C 602,462 603,463 604,464 606,465 607,466 609,466 611,466 612,466 614,465 L 647,450 647,449 C 649,449 650,448 651,446 652,445 653,443 653,442 653,440 653,438 652,437 L 617,361 616,360 C 616,359 615,358 613,357 612,356 610,355 609,355 607,355 605,355 604,356 L 570,372 570,372 570,372 C 569,372 567,374 566,375 565,376 565,378 565,379 565,381 565,383 566,384 L 601,461 Z"/>
        <path fill="none" stroke="rgb(0,0,0)" stroke-width="35" stroke-linejoin="round" d="M 601,461 L 601,461 C 602,462 603,463 604,464 606,465 607,466 609,466 611,466 612,466 614,465 L 647,450 647,449 C 649,449 650,448 651,446 652,445 653,443 653,442 653,440 653,438 652,437 L 617,361 616,360 C 616,359 615,358 613,357 612,356 610,355 609,355 607,355 605,355 604,356 L 570,372 570,372 570,372 C 569,372 567,374 566,375 565,376 565,378 565,379 565,381 565,383 566,384 L 601,461 Z"/>
       </g>
      </g>
      <g class="com.sun.star.drawing.CustomShape">
       <g id="id9">
        <rect class="BoundingBox" stroke="none" fill="none" x="925" y="312" width="119" height="148"/>
        <path fill="rgb(0,0,0)" stroke="none" d="M 943,416 L 943,416 C 943,417 943,419 943,420 943,422 944,424 945,425 946,426 947,427 949,428 L 983,440 984,440 C 986,441 987,441 989,441 991,440 992,440 993,439 995,438 996,436 996,435 L 1025,356 1025,355 C 1025,354 1026,352 1025,351 1025,349 1024,348 1023,346 1022,345 1021,344 1019,344 L 984,331 984,331 984,331 C 983,330 981,330 979,330 978,331 976,331 975,332 974,333 973,335 972,336 L 943,416 Z"/>
        <path fill="none" stroke="rgb(0,0,0)" stroke-width="35" stroke-linejoin="round" d="M 943,416 L 943,416 C 943,417 943,419 943,420 943,422 944,424 945,425 946,426 947,427 949,428 L 983,440 984,440 C 986,441 987,441 989,441 991,440 992,440 993,439 995,438 996,436 996,435 L 1025,356 1025,355 C 1025,354 1026,352 1025,351 1025,349 1024,348 1023,346 1022,345 1021,344 1019,344 L 984,331 984,331 984,331 C 983,330 981,330 979,330 978,331 976,331 975,332 974,333 973,335 972,336 L 943,416 Z"/>
       </g>
      </g>
     </g>
    </g>
   </g>
  </g>
 </g>
</svg>