<?xml version="1.0" encoding="UTF-8"?>
<svg id="SVGRoot" width="64px" height="64px" version="1.1" viewBox="0 0 64 64" xmlns="http://www.w3.org/2000/svg">
 <path id="original" d="m20.662 39.172c-0.49854 0.54218-11.779-3.8296-11.917-4.9082-1.6944-13.285 6.379-23.85 14.24-24.334 9.2179-0.56748 6.1751 20.001-2.3227 29.243zm-12.758 20.143c-3.5825-1.427-4.5385-7.5621-2.0958-15.534 0.4817-1.5722 12.748 2.8233 12.571 4.2095-1.3457 10.571-6.8928 12.752-10.475 11.325zm30.097-30.249c-0.0075 0.763 10.811 6.3286 11.619 5.6756 9.9631-8.0431 11.263-21.654 6.0555-28.015-6.1063-7.4585-17.548 9.3331-17.675 22.339zm-4.3299 23.933c3.4611 1.7403 8.184-1.8411 11.73-9.3171 0.69936-1.4743-10.827-7.7776-11.618-6.6679-6.0333 8.4627-3.5735 14.245-0.11241 15.985z" fill="#008000" stroke="#000" stroke-width="2.1205"/>
</svg>
