<?xml version="1.0" encoding="UTF-8"?>
<!DOCTYPE svg PUBLIC "-//W3C//DTD SVG 1.1//EN" "http://www.w3.org/Graphics/SVG/1.1/DTD/svg11.dtd">
<svg version="1.2" width="16mm" height="16mm" viewBox="0 0 1600 1600" preserveAspectRatio="xMidYMid" fill-rule="evenodd" stroke-width="28.222" stroke-linejoin="round" xmlns="http://www.w3.org/2000/svg" xmlns:ooo="http://xml.openoffice.org/svg/export" xmlns:xlink="http://www.w3.org/1999/xlink" xmlns:presentation="http://sun.com/xmlns/staroffice/presentation" xmlns:smil="http://www.w3.org/2001/SMIL20/" xmlns:anim="urn:oasis:names:tc:opendocument:xmlns:animation:1.0" xml:space="preserve">
 <defs class="ClipPathGroup">
  <clipPath id="presentation_clip_path" clipPathUnits="userSpaceOnUse">
   <rect x="0" y="0" width="1600" height="1600"/>
  </clipPath>
 </defs>
 <defs class="TextShapeIndex">
  <g ooo:slide="id1" ooo:id-list="id3"/>
 </defs>
 <defs class="EmbeddedBulletChars">
  <g id="bullet-char-template(57356)" transform="scale(0.00048828125,-0.00048828125)">
   <path d="M 580,1141 L 1163,571 580,0 -4,571 580,1141 Z"/>
  </g>
  <g id="bullet-char-template(57354)" transform="scale(0.00048828125,-0.00048828125)">
   <path d="M 8,1128 L 1137,1128 1137,0 8,0 8,1128 Z"/>
  </g>
  <g id="bullet-char-template(10146)" transform="scale(0.00048828125,-0.00048828125)">
   <path d="M 174,0 L 602,739 174,1481 1456,739 174,0 Z M 1358,739 L 309,1346 659,739 1358,739 Z"/>
  </g>
  <g id="bullet-char-template(10132)" transform="scale(0.00048828125,-0.00048828125)">
   <path d="M 2015,739 L 1276,0 717,0 1260,543 174,543 174,936 1260,936 717,1481 1274,1481 2015,739 Z"/>
  </g>
  <g id="bullet-char-template(10007)" transform="scale(0.00048828125,-0.00048828125)">
   <path d="M 0,-2 C -7,14 -16,27 -25,37 L 356,567 C 262,823 215,952 215,954 215,979 228,992 255,992 264,992 276,990 289,987 310,991 331,999 354,1012 L 381,999 492,748 772,1049 836,1024 860,1049 C 881,1039 901,1025 922,1006 886,937 835,863 770,784 769,783 710,716 594,584 L 774,223 C 774,196 753,168 711,139 L 727,119 C 717,90 699,76 672,76 641,76 570,178 457,381 L 164,-76 C 142,-110 111,-127 72,-127 30,-127 9,-110 8,-76 1,-67 -2,-52 -2,-32 -2,-23 -1,-13 0,-2 Z"/>
  </g>
  <g id="bullet-char-template(10004)" transform="scale(0.00048828125,-0.00048828125)">
   <path d="M 285,-33 C 182,-33 111,30 74,156 52,228 41,333 41,471 41,549 55,616 82,672 116,743 169,778 240,778 293,778 328,747 346,684 L 369,508 C 377,444 397,411 428,410 L 1163,1116 C 1174,1127 1196,1133 1229,1133 1271,1133 1292,1118 1292,1087 L 1292,965 C 1292,929 1282,901 1262,881 L 442,47 C 390,-6 338,-33 285,-33 Z"/>
  </g>
  <g id="bullet-char-template(9679)" transform="scale(0.00048828125,-0.00048828125)">
   <path d="M 813,0 C 632,0 489,54 383,161 276,268 223,411 223,592 223,773 276,916 383,1023 489,1130 632,1184 813,1184 992,1184 1136,1130 1245,1023 1353,916 1407,772 1407,592 1407,412 1353,268 1245,161 1136,54 992,0 813,0 Z"/>
  </g>
  <g id="bullet-char-template(8226)" transform="scale(0.00048828125,-0.00048828125)">
   <path d="M 346,457 C 273,457 209,483 155,535 101,586 74,649 74,723 74,796 101,859 155,911 209,963 273,989 346,989 419,989 480,963 531,910 582,859 608,796 608,723 608,648 583,586 532,535 482,483 420,457 346,457 Z"/>
  </g>
  <g id="bullet-char-template(8211)" transform="scale(0.00048828125,-0.00048828125)">
   <path d="M -4,459 L 1135,459 1135,606 -4,606 -4,459 Z"/>
  </g>
 </defs>
 <defs class="TextEmbeddedBitmaps"/>
 <g>
  <g id="id2" class="Master_Slide">
   <g id="bg-id2" class="Background"/>
   <g id="bo-id2" class="BackgroundObjects"/>
  </g>
 </g>
 <g class="SlideGroup">
  <g>
   <g id="id1" class="Slide" clip-path="url(#presentation_clip_path)">
    <g class="Page">
     <g class="com.sun.star.drawing.ClosedBezierShape">
      <g id="id3">
       <rect class="BoundingBox" stroke="none" fill="none" x="22" y="237" width="1557" height="1127"/>
       <g>
        <defs>
         <linearGradient id="gradient1" x1="374" y1="62" x2="1226" y2="1538" gradientUnits="userSpaceOnUse">
          <stop offset="0" style="stop-color:rgb(255,255,0)"/>
          <stop offset="1" style="stop-color:rgb(255,211,32)"/>
         </linearGradient>
        </defs>
        <path style="fill:url(#gradient1)" d="M 1110,255 L 1157,258 1203,266 1246,279 1288,297 1327,319 1364,346 1399,377 1431,412 1459,450 1485,492 1507,537 1526,584 1540,635 1551,688 1558,743 1560,800 1558,857 1551,912 1540,965 1526,1016 1507,1063 1485,1108 1459,1150 1431,1188 1399,1223 1364,1254 1327,1281 1288,1303 1246,1321 1203,1334 1157,1342 1110,1345 1087,1344 1065,1343 1043,1339 1021,1335 1000,1330 979,1323 959,1315 939,1307 920,1297 901,1286 883,1274 865,1261 831,1233 800,1201 769,1233 735,1261 717,1274 699,1286 680,1297 661,1307 641,1315 621,1323 600,1330 579,1335 557,1339 535,1343 513,1344 490,1345 443,1342 397,1334 354,1321 312,1303 273,1281 236,1254 201,1223 169,1188 141,1150 115,1108 93,1063 74,1016 60,965 49,912 42,857 40,800 42,743 49,688 60,635 74,584 93,537 115,492 141,450 169,412 201,377 236,346 273,319 312,297 354,279 397,266 443,258 490,255 513,256 535,257 557,261 579,265 600,270 621,277 641,285 661,293 680,303 699,314 717,326 735,339 769,367 800,399 831,367 865,339 883,326 901,314 920,303 939,293 959,285 979,277 1000,270 1021,265 1043,261 1065,257 1087,256 1110,255 Z M 1109,593 L 1092,594 1076,597 1060,601 1045,607 1031,615 1018,624 1005,634 993,646 982,659 973,673 964,689 957,705 950,722 945,741 942,759 940,779 940,800 940,818 942,838 946,857 951,875 957,892 964,908 973,924 983,938 994,951 1005,963 1018,973 1031,982 1046,990 1061,996 1076,1000 1092,1003 1109,1004 1127,1003 1144,1000 1160,995 1176,988 1191,980 1205,969 1218,958 1230,945 1241,930 1251,914 1259,897 1266,879 1272,860 1276,840 1278,819 1279,798 1278,777 1276,756 1272,736 1266,717 1259,699 1251,682 1241,666 1230,652 1218,639 1205,627 1191,617 1176,609 1160,602 1144,597 1127,594 1109,593 Z M 489,593 L 471,594 454,597 438,602 422,609 407,617 393,627 380,639 368,652 357,666 347,682 339,699 332,717 326,736 322,756 320,777 319,798 320,819 322,840 326,860 332,879 339,897 347,914 357,930 368,945 380,958 393,969 407,980 422,988 438,995 454,1000 471,1003 489,1004 507,1003 524,1000 540,995 556,988 571,980 585,969 598,958 610,945 621,930 631,914 639,897 646,879 652,860 656,840 658,819 659,798 658,777 656,756 652,736 646,717 639,699 631,682 621,666 610,652 598,639 585,627 571,617 556,609 540,602 524,597 507,594 489,593 Z"/>
       </g>
       <path fill="none" stroke="rgb(0,0,0)" stroke-width="35" stroke-linejoin="round" d="M 1110,255 C 1365,255 1560,491 1560,800 1560,1109 1365,1345 1110,1345 988,1345 880,1291 800,1201 720,1291 612,1345 490,1345 235,1345 40,1109 40,800 40,491 235,255 490,255 612,255 720,309 800,399 880,309 988,255 1110,255 Z"/>
       <path fill="none" stroke="rgb(0,0,0)" stroke-width="35" stroke-linejoin="round" d="M 1109,593 C 1018,593 947,672 940,779 940,786 940,793 940,800 940,806 940,812 940,818 948,924 1019,1004 1109,1004 1205,1004 1279,914 1279,798 1279,682 1205,593 1109,593 Z"/>
       <path fill="none" stroke="rgb(0,0,0)" stroke-width="35" stroke-linejoin="round" d="M 489,593 C 393,593 319,682 319,798 319,914 393,1004 489,1004 585,1004 659,914 659,798 659,682 585,593 489,593 Z"/>
      </g>
     </g>
    </g>
   </g>
  </g>
 </g>
</svg>