<?xml version="1.0" encoding="UTF-8"?>
<!DOCTYPE svg PUBLIC "-//W3C//DTD SVG 1.1//EN" "http://www.w3.org/Graphics/SVG/1.1/DTD/svg11.dtd">
<svg version="1.2" width="16mm" height="16mm" viewBox="0 0 1600 1600" preserveAspectRatio="xMidYMid" fill-rule="evenodd" stroke-width="28.222" stroke-linejoin="round" xmlns="http://www.w3.org/2000/svg" xmlns:ooo="http://xml.openoffice.org/svg/export" xmlns:xlink="http://www.w3.org/1999/xlink" xmlns:presentation="http://sun.com/xmlns/staroffice/presentation" xmlns:smil="http://www.w3.org/2001/SMIL20/" xmlns:anim="urn:oasis:names:tc:opendocument:xmlns:animation:1.0" xml:space="preserve">
 <defs class="ClipPathGroup">
  <clipPath id="presentation_clip_path" clipPathUnits="userSpaceOnUse">
   <rect x="0" y="0" width="1600" height="1600"/>
  </clipPath>
  <clipPath id="presentation_clip_path_shrink" clipPathUnits="userSpaceOnUse">
   <rect x="1" y="1" width="1597" height="1597"/>
  </clipPath>
 </defs>
 <defs class="TextShapeIndex">
  <g ooo:slide="id1" ooo:id-list="id3 id4 id5 id6 id7 id8 id9 id10 id11"/>
 </defs>
 <defs class="EmbeddedBulletChars">
  <g id="bullet-char-template-57356" transform="scale(0.00048828125,-0.00048828125)">
   <path d="M 580,1141 L 1163,571 580,0 -4,571 580,1141 Z"/>
  </g>
  <g id="bullet-char-template-57354" transform="scale(0.00048828125,-0.00048828125)">
   <path d="M 8,1128 L 1137,1128 1137,0 8,0 8,1128 Z"/>
  </g>
  <g id="bullet-char-template-10146" transform="scale(0.00048828125,-0.00048828125)">
   <path d="M 174,0 L 602,739 174,1481 1456,739 174,0 Z M 1358,739 L 309,1346 659,739 1358,739 Z"/>
  </g>
  <g id="bullet-char-template-10132" transform="scale(0.00048828125,-0.00048828125)">
   <path d="M 2015,739 L 1276,0 717,0 1260,543 174,543 174,936 1260,936 717,1481 1274,1481 2015,739 Z"/>
  </g>
  <g id="bullet-char-template-10007" transform="scale(0.00048828125,-0.00048828125)">
   <path d="M 0,-2 C -7,14 -16,27 -25,37 L 356,567 C 262,823 215,952 215,954 215,979 228,992 255,992 264,992 276,990 289,987 310,991 331,999 354,1012 L 381,999 492,748 772,1049 836,1024 860,1049 C 881,1039 901,1025 922,1006 886,937 835,863 770,784 769,783 710,716 594,584 L 774,223 C 774,196 753,168 711,139 L 727,119 C 717,90 699,76 672,76 641,76 570,178 457,381 L 164,-76 C 142,-110 111,-127 72,-127 30,-127 9,-110 8,-76 1,-67 -2,-52 -2,-32 -2,-23 -1,-13 0,-2 Z"/>
  </g>
  <g id="bullet-char-template-10004" transform="scale(0.00048828125,-0.00048828125)">
   <path d="M 285,-33 C 182,-33 111,30 74,156 52,228 41,333 41,471 41,549 55,616 82,672 116,743 169,778 240,778 293,778 328,747 346,684 L 369,508 C 377,444 397,411 428,410 L 1163,1116 C 1174,1127 1196,1133 1229,1133 1271,1133 1292,1118 1292,1087 L 1292,965 C 1292,929 1282,901 1262,881 L 442,47 C 390,-6 338,-33 285,-33 Z"/>
  </g>
  <g id="bullet-char-template-9679" transform="scale(0.00048828125,-0.00048828125)">
   <path d="M 813,0 C 632,0 489,54 383,161 276,268 223,411 223,592 223,773 276,916 383,1023 489,1130 632,1184 813,1184 992,1184 1136,1130 1245,1023 1353,916 1407,772 1407,592 1407,412 1353,268 1245,161 1136,54 992,0 813,0 Z"/>
  </g>
  <g id="bullet-char-template-8226" transform="scale(0.00048828125,-0.00048828125)">
   <path d="M 346,457 C 273,457 209,483 155,535 101,586 74,649 74,723 74,796 101,859 155,911 209,963 273,989 346,989 419,989 480,963 531,910 582,859 608,796 608,723 608,648 583,586 532,535 482,483 420,457 346,457 Z"/>
  </g>
  <g id="bullet-char-template-8211" transform="scale(0.00048828125,-0.00048828125)">
   <path d="M -4,459 L 1135,459 1135,606 -4,606 -4,459 Z"/>
  </g>
  <g id="bullet-char-template-61548" transform="scale(0.00048828125,-0.00048828125)">
   <path d="M 173,740 C 173,903 231,1043 346,1159 462,1274 601,1332 765,1332 928,1332 1067,1274 1183,1159 1299,1043 1357,903 1357,740 1357,577 1299,437 1183,322 1067,206 928,148 765,148 601,148 462,206 346,322 231,437 173,577 173,740 Z"/>
  </g>
 </defs>
 <g>
  <g id="id2" class="Master_Slide">
   <g id="bg-id2" class="Background"/>
   <g id="bo-id2" class="BackgroundObjects"/>
  </g>
 </g>
 <g class="SlideGroup">
  <g>
   <g id="container-id1">
    <g id="id1" class="Slide" clip-path="url(#presentation_clip_path)">
     <g class="Page">
      <g class="com.sun.star.drawing.CustomShape">
       <g id="id3">
        <rect class="BoundingBox" stroke="none" fill="none" x="415" y="9" width="1151" height="1151"/>
        <g>
         <defs>
          <linearGradient id="gradient1" x1="625" y1="-48" x2="1355" y2="1216" gradientUnits="userSpaceOnUse">
           <stop offset="0" style="stop-color:rgb(255,255,255)"/>
           <stop offset="1" style="stop-color:rgb(178,178,178)"/>
          </linearGradient>
         </defs>
         <path style="fill:url(#gradient1)" d="M 1524,584 L 1523,619 1519,654 1514,688 1506,722 1496,756 1483,788 1469,820 1452,851 1434,881 1414,909 1391,936 1368,962 1342,985 1315,1008 1287,1028 1257,1046 1226,1063 1194,1077 1162,1090 1128,1100 1094,1108 1060,1113 1025,1117 990,1118 955,1117 920,1113 886,1108 852,1100 818,1090 786,1077 754,1063 723,1046 693,1028 665,1008 638,985 612,962 589,936 566,909 546,881 528,851 511,820 497,788 484,756 474,722 466,688 461,654 457,619 456,584 457,549 461,514 466,480 474,446 484,412 497,380 511,348 528,317 546,287 566,259 589,232 612,206 638,183 665,160 693,140 723,122 754,105 786,91 818,78 852,68 886,60 920,55 955,51 990,50 1025,51 1060,55 1094,60 1128,68 1162,78 1194,91 1226,105 1257,122 1287,140 1315,160 1342,183 1368,206 1391,232 1414,259 1434,287 1452,317 1469,348 1483,380 1496,412 1506,446 1514,480 1519,514 1523,549 1524,584 1524,584 Z"/>
        </g>
        <path fill="none" stroke="rgb(0,0,0)" stroke-width="81" stroke-linejoin="round" d="M 1524,584 C 1524,678 1499,770 1452,851 1406,932 1338,1000 1257,1046 1176,1093 1084,1118 990,1118 896,1118 804,1093 723,1046 642,1000 574,932 528,851 481,770 456,678 456,584 456,490 481,398 528,317 574,236 642,168 723,122 804,75 896,50 990,50 1084,50 1176,75 1257,122 1338,168 1406,236 1452,317 1499,398 1524,490 1524,584 L 1524,584 Z"/>
       </g>
      </g>
      <g class="com.sun.star.drawing.CustomShape">
       <g id="id4">
        <rect class="BoundingBox" stroke="none" fill="none" x="949" y="93" width="86" height="135"/>
        <path fill="rgb(0,0,0)" stroke="none" d="M 975,111 L 975,111 C 974,111 972,111 971,112 970,113 969,114 968,115 967,116 967,118 967,119 L 967,200 967,201 C 967,202 967,204 968,205 969,206 970,207 971,208 972,209 974,209 975,209 L 1007,209 1008,209 C 1009,209 1011,209 1012,208 1013,207 1014,206 1015,205 1016,204 1016,202 1016,201 L 1016,119 1016,119 1016,119 C 1016,118 1016,116 1015,115 1014,114 1013,113 1012,112 1011,111 1009,111 1008,111 L 975,111 Z"/>
        <path fill="none" stroke="rgb(0,0,0)" stroke-width="35" stroke-linejoin="round" d="M 975,111 L 975,111 C 974,111 972,111 971,112 970,113 969,114 968,115 967,116 967,118 967,119 L 967,200 967,201 C 967,202 967,204 968,205 969,206 970,207 971,208 972,209 974,209 975,209 L 1007,209 1008,209 C 1009,209 1011,209 1012,208 1013,207 1014,206 1015,205 1016,204 1016,202 1016,201 L 1016,119 1016,119 1016,119 C 1016,118 1016,116 1015,115 1014,114 1013,113 1012,112 1011,111 1009,111 1008,111 L 975,111 Z"/>
       </g>
      </g>
      <g class="com.sun.star.drawing.CustomShape">
       <g id="id5">
        <rect class="BoundingBox" stroke="none" fill="none" x="1348" y="529" width="136" height="91"/>
        <path fill="rgb(0,0,0)" stroke="none" d="M 1375,547 L 1375,547 C 1373,547 1372,547 1371,548 1369,549 1368,550 1367,551 1366,553 1366,554 1366,556 L 1366,592 1366,592 C 1366,594 1366,595 1367,597 1368,598 1369,599 1371,600 1372,601 1373,601 1375,601 L 1456,601 1456,601 C 1458,601 1459,601 1461,600 1462,599 1463,598 1464,597 1465,595 1465,594 1465,592 L 1465,556 1465,556 1465,556 C 1465,554 1465,553 1464,551 1463,550 1462,549 1461,548 1459,547 1458,547 1456,547 L 1375,547 Z"/>
        <path fill="none" stroke="rgb(0,0,0)" stroke-width="35" stroke-linejoin="round" d="M 1375,547 L 1375,547 C 1373,547 1372,547 1371,548 1369,549 1368,550 1367,551 1366,553 1366,554 1366,556 L 1366,592 1366,592 C 1366,594 1366,595 1367,597 1368,598 1369,599 1371,600 1372,601 1373,601 1375,601 L 1456,601 1456,601 C 1458,601 1459,601 1461,600 1462,599 1463,598 1464,597 1465,595 1465,594 1465,592 L 1465,556 1465,556 1465,556 C 1465,554 1465,553 1464,551 1463,550 1462,549 1461,548 1459,547 1458,547 1456,547 L 1375,547 Z"/>
       </g>
      </g>
      <g class="com.sun.star.drawing.CustomShape">
       <g id="id6">
        <rect class="BoundingBox" stroke="none" fill="none" x="949" y="942" width="86" height="136"/>
        <path fill="rgb(0,0,0)" stroke="none" d="M 975,960 L 975,960 C 974,960 972,960 971,961 970,962 969,963 968,964 967,965 967,967 967,968 L 967,1050 967,1051 C 967,1052 967,1054 968,1055 969,1056 970,1057 971,1058 972,1059 974,1059 975,1059 L 1007,1059 1008,1059 C 1009,1059 1011,1059 1012,1058 1013,1057 1014,1056 1015,1055 1016,1054 1016,1052 1016,1051 L 1016,968 1016,968 1016,968 C 1016,967 1016,965 1015,964 1014,963 1013,962 1012,961 1011,960 1009,960 1008,960 L 975,960 Z"/>
        <path fill="none" stroke="rgb(0,0,0)" stroke-width="35" stroke-linejoin="round" d="M 975,960 L 975,960 C 974,960 972,960 971,961 970,962 969,963 968,964 967,965 967,967 967,968 L 967,1050 967,1051 C 967,1052 967,1054 968,1055 969,1056 970,1057 971,1058 972,1059 974,1059 975,1059 L 1007,1059 1008,1059 C 1009,1059 1011,1059 1012,1058 1013,1057 1014,1056 1015,1055 1016,1054 1016,1052 1016,1051 L 1016,968 1016,968 1016,968 C 1016,967 1016,965 1015,964 1014,963 1013,962 1012,961 1011,960 1009,960 1008,960 L 975,960 Z"/>
       </g>
      </g>
      <g class="com.sun.star.drawing.CustomShape">
       <g id="id7">
        <rect class="BoundingBox" stroke="none" fill="none" x="499" y="541" width="135" height="90"/>
        <path fill="rgb(0,0,0)" stroke="none" d="M 525,559 L 526,559 C 524,559 523,559 521,560 520,561 519,562 518,563 517,565 517,566 517,568 L 517,603 517,603 C 517,605 517,606 518,608 519,609 520,610 521,611 523,612 524,612 526,612 L 606,612 606,612 C 608,612 609,612 611,611 612,610 613,609 614,608 615,606 615,605 615,603 L 615,567 615,568 615,568 C 615,566 615,565 614,563 613,562 612,561 611,560 609,559 608,559 606,559 L 525,559 Z"/>
        <path fill="none" stroke="rgb(0,0,0)" stroke-width="35" stroke-linejoin="round" d="M 525,559 L 526,559 C 524,559 523,559 521,560 520,561 519,562 518,563 517,565 517,566 517,568 L 517,603 517,603 C 517,605 517,606 518,608 519,609 520,610 521,611 523,612 524,612 526,612 L 606,612 606,612 C 608,612 609,612 611,611 612,610 613,609 614,608 615,606 615,605 615,603 L 615,567 615,568 615,568 C 615,566 615,565 614,563 613,562 612,561 611,560 609,559 608,559 606,559 L 525,559 Z"/>
       </g>
      </g>
      <g class="com.sun.star.drawing.CustomShape">
       <g id="id8">
        <rect class="BoundingBox" stroke="none" fill="none" x="662" y="276" width="385" height="367"/>
        <path fill="rgb(0,0,0)" stroke="none" d="M 704,296 L 704,297 C 705,296 706,295 708,294 709,294 710,294 712,294 713,295 715,295 716,296 L 1025,584 1026,585 C 1027,586 1028,587 1028,588 1028,590 1029,591 1028,593 1028,594 1027,595 1026,596 L 1004,621 1004,621 C 1003,622 1002,623 1000,624 999,624 998,624 996,624 995,623 993,623 992,622 L 682,333 682,333 682,333 C 681,332 680,331 680,330 680,328 679,327 680,325 680,324 681,323 682,322 L 704,296 Z"/>
        <path fill="none" stroke="rgb(0,0,0)" stroke-width="35" stroke-linejoin="round" d="M 704,296 L 704,297 C 705,296 706,295 708,294 709,294 710,294 712,294 713,295 715,295 716,296 L 1025,584 1026,585 C 1027,586 1028,587 1028,588 1028,590 1029,591 1028,593 1028,594 1027,595 1026,596 L 1004,621 1004,621 C 1003,622 1002,623 1000,624 999,624 998,624 996,624 995,623 993,623 992,622 L 682,333 682,333 682,333 C 681,332 680,331 680,330 680,328 679,327 680,325 680,324 681,323 682,322 L 704,296 Z"/>
       </g>
      </g>
      <g class="com.sun.star.drawing.CustomShape">
       <g id="id9">
        <rect class="BoundingBox" stroke="none" fill="none" x="958" y="314" width="293" height="336"/>
        <path fill="rgb(0,0,0)" stroke="none" d="M 1204,334 L 1204,334 C 1203,333 1202,333 1200,333 1199,332 1197,332 1196,333 1195,333 1193,334 1192,335 L 978,597 978,597 C 977,598 976,600 976,601 976,602 976,604 976,605 977,607 978,608 979,609 L 1004,629 1004,629 C 1005,630 1007,631 1008,631 1009,631 1011,631 1012,630 1014,630 1015,629 1016,628 L 1231,366 1231,366 1231,366 C 1231,365 1232,364 1232,362 1233,361 1232,359 1232,358 1231,357 1230,356 1229,355 L 1204,334 Z"/>
        <path fill="none" stroke="rgb(0,0,0)" stroke-width="35" stroke-linejoin="round" d="M 1204,334 L 1204,334 C 1203,333 1202,333 1200,333 1199,332 1197,332 1196,333 1195,333 1193,334 1192,335 L 978,597 978,597 C 977,598 976,600 976,601 976,602 976,604 976,605 977,607 978,608 979,609 L 1004,629 1004,629 C 1005,630 1007,631 1008,631 1009,631 1011,631 1012,630 1014,630 1015,629 1016,628 L 1231,366 1231,366 1231,366 C 1231,365 1232,364 1232,362 1233,361 1232,359 1232,358 1231,357 1230,356 1229,355 L 1204,334 Z"/>
       </g>
      </g>
      <g class="com.sun.star.drawing.ClosedBezierShape">
       <g id="id10">
        <rect class="BoundingBox" stroke="none" fill="none" x="32" y="782" width="806" height="800"/>
        <g>
         <defs>
          <linearGradient id="gradient2" x1="173" y1="729" x2="695" y2="1633" gradientUnits="userSpaceOnUse">
           <stop offset="0" style="stop-color:rgb(255,212,40)"/>
           <stop offset="1" style="stop-color:rgb(174,122,2)"/>
          </linearGradient>
         </defs>
         <path style="fill:url(#gradient2)" d="M 111,1387 L 91,1353 76,1318 64,1282 56,1246 51,1209 50,1172 53,1136 59,1100 69,1064 82,1030 98,997 118,965 141,935 167,908 196,882 228,860 251,846 275,834 299,824 323,816 348,809 373,805 399,801 424,800 449,800 474,802 499,805 524,810 549,817 572,825 596,834 619,846 639,858 659,871 677,885 695,901 712,918 728,936 744,955 758,976 769,994 779,1013 788,1032 796,1052 802,1071 808,1091 812,1111 815,1131 817,1149 819,1167 819,1186 818,1204 817,1222 814,1240 811,1258 806,1276 796,1309 783,1341 767,1371 748,1401 726,1429 702,1455 674,1479 644,1501 644,1501 644,1501 643,1501 643,1501 643,1501 643,1501 643,1502 642,1502 642,1502 642,1502 642,1502 641,1502 641,1502 640,1503 638,1504 636,1505 636,1506 635,1506 635,1507 617,1517 600,1526 581,1534 563,1541 545,1547 526,1552 507,1556 488,1559 450,1562 412,1562 374,1558 337,1550 303,1540 271,1526 240,1510 210,1491 182,1469 156,1444 132,1417 111,1387 Z M 360,1127 L 354,1118 348,1111 340,1104 332,1098 324,1093 315,1088 306,1085 297,1082 287,1081 277,1080 268,1080 258,1081 248,1083 239,1086 229,1091 220,1096 212,1102 204,1108 197,1116 191,1124 186,1132 182,1141 178,1150 176,1159 174,1169 173,1179 174,1188 175,1198 177,1208 180,1217 184,1227 189,1236 195,1244 202,1252 210,1258 218,1264 226,1269 235,1274 244,1277 254,1280 263,1281 273,1282 283,1281 293,1280 302,1278 312,1275 321,1271 330,1266 339,1260 346,1253 353,1246 359,1238 364,1230 369,1221 372,1212 374,1203 376,1193 377,1183 376,1174 375,1164 373,1154 370,1145 366,1136 360,1127 Z"/>
        </g>
        <path fill="none" stroke="rgb(0,0,0)" stroke-width="35" stroke-linejoin="miter" d="M 111,1387 C -4,1210 49,974 228,860 350,783 499,782 619,846 674,876 722,920 758,976 789,1025 808,1078 815,1131 822,1180 819,1229 806,1276 784,1365 728,1446 644,1501 644,1501 643,1502 642,1502 640,1504 637,1505 635,1507 543,1563 435,1576 337,1550 247,1527 165,1471 111,1387 Z"/>
        <path fill="none" stroke="rgb(0,0,0)" stroke-width="35" stroke-linejoin="miter" d="M 360,1127 C 330,1080 267,1066 220,1096 173,1126 159,1189 189,1236 220,1283 283,1296 330,1266 377,1236 391,1174 360,1127 Z"/>
       </g>
      </g>
      <g class="com.sun.star.drawing.ClosedBezierShape">
       <g id="id11">
        <rect class="BoundingBox" stroke="none" fill="none" x="686" y="1018" width="933" height="330"/>
        <g>
         <defs>
          <linearGradient id="gradient3" x1="976" y1="878" x2="1328" y2="1487" gradientUnits="userSpaceOnUse">
           <stop offset="0" style="stop-color:rgb(255,212,40)"/>
           <stop offset="1" style="stop-color:rgb(174,122,2)"/>
          </linearGradient>
         </defs>
         <path style="fill:url(#gradient3)" d="M 752,1041 L 756,1036 1018,1036 1093,1130 1138,1083 1178,1129 1244,1056 1255,1069 1264,1079 1272,1088 1301,1069 1347,1116 1399,1059 1487,1059 1600,1180 1487,1329 757,1329 734,1296 726,1281 719,1265 714,1249 709,1233 706,1216 705,1199 704,1183 705,1166 706,1149 709,1132 713,1116 719,1100 725,1084 733,1069 742,1055 752,1041 Z"/>
        </g>
        <path fill="none" stroke="rgb(0,0,0)" stroke-width="35" stroke-linejoin="round" d="M 752,1041 L 756,1036 1018,1036 C 1018,1036 1080,1114 1093,1130 1104,1118 1138,1083 1138,1083 1138,1083 1167,1117 1178,1129 1190,1115 1244,1056 1244,1056 1244,1056 1265,1079 1272,1088 1281,1082 1301,1069 1301,1069 L 1347,1116 C 1358,1103 1399,1059 1399,1059 L 1487,1059 1600,1180 1487,1329 757,1329 734,1296 C 688,1217 695,1112 752,1041 Z"/>
       </g>
      </g>
     </g>
    </g>
   </g>
  </g>
 </g>
</svg>