<?xml version="1.0" encoding="UTF-8"?>
<!DOCTYPE svg PUBLIC "-//W3C//DTD SVG 1.1//EN" "http://www.w3.org/Graphics/SVG/1.1/DTD/svg11.dtd">
<svg version="1.2" width="16mm" height="16mm" viewBox="0 0 1600 1600" preserveAspectRatio="xMidYMid" fill-rule="evenodd" stroke-width="28.222" stroke-linejoin="round" xmlns="http://www.w3.org/2000/svg" xmlns:ooo="http://xml.openoffice.org/svg/export" xmlns:xlink="http://www.w3.org/1999/xlink" xmlns:presentation="http://sun.com/xmlns/staroffice/presentation" xmlns:smil="http://www.w3.org/2001/SMIL20/" xmlns:anim="urn:oasis:names:tc:opendocument:xmlns:animation:1.0" xml:space="preserve">
 <defs class="ClipPathGroup">
  <clipPath id="presentation_clip_path" clipPathUnits="userSpaceOnUse">
   <rect x="0" y="0" width="1600" height="1600"/>
  </clipPath>
  <clipPath id="presentation_clip_path_shrink" clipPathUnits="userSpaceOnUse">
   <rect x="1" y="1" width="1597" height="1597"/>
  </clipPath>
 </defs>
 <defs class="TextShapeIndex">
  <g ooo:slide="id1" ooo:id-list="id3 id4"/>
 </defs>
 <defs class="EmbeddedBulletChars">
  <g id="bullet-char-template-57356" transform="scale(0.00048828125,-0.00048828125)">
   <path d="M 580,1141 L 1163,571 580,0 -4,571 580,1141 Z"/>
  </g>
  <g id="bullet-char-template-57354" transform="scale(0.00048828125,-0.00048828125)">
   <path d="M 8,1128 L 1137,1128 1137,0 8,0 8,1128 Z"/>
  </g>
  <g id="bullet-char-template-10146" transform="scale(0.00048828125,-0.00048828125)">
   <path d="M 174,0 L 602,739 174,1481 1456,739 174,0 Z M 1358,739 L 309,1346 659,739 1358,739 Z"/>
  </g>
  <g id="bullet-char-template-10132" transform="scale(0.00048828125,-0.00048828125)">
   <path d="M 2015,739 L 1276,0 717,0 1260,543 174,543 174,936 1260,936 717,1481 1274,1481 2015,739 Z"/>
  </g>
  <g id="bullet-char-template-10007" transform="scale(0.00048828125,-0.00048828125)">
   <path d="M 0,-2 C -7,14 -16,27 -25,37 L 356,567 C 262,823 215,952 215,954 215,979 228,992 255,992 264,992 276,990 289,987 310,991 331,999 354,1012 L 381,999 492,748 772,1049 836,1024 860,1049 C 881,1039 901,1025 922,1006 886,937 835,863 770,784 769,783 710,716 594,584 L 774,223 C 774,196 753,168 711,139 L 727,119 C 717,90 699,76 672,76 641,76 570,178 457,381 L 164,-76 C 142,-110 111,-127 72,-127 30,-127 9,-110 8,-76 1,-67 -2,-52 -2,-32 -2,-23 -1,-13 0,-2 Z"/>
  </g>
  <g id="bullet-char-template-10004" transform="scale(0.00048828125,-0.00048828125)">
   <path d="M 285,-33 C 182,-33 111,30 74,156 52,228 41,333 41,471 41,549 55,616 82,672 116,743 169,778 240,778 293,778 328,747 346,684 L 369,508 C 377,444 397,411 428,410 L 1163,1116 C 1174,1127 1196,1133 1229,1133 1271,1133 1292,1118 1292,1087 L 1292,965 C 1292,929 1282,901 1262,881 L 442,47 C 390,-6 338,-33 285,-33 Z"/>
  </g>
  <g id="bullet-char-template-9679" transform="scale(0.00048828125,-0.00048828125)">
   <path d="M 813,0 C 632,0 489,54 383,161 276,268 223,411 223,592 223,773 276,916 383,1023 489,1130 632,1184 813,1184 992,1184 1136,1130 1245,1023 1353,916 1407,772 1407,592 1407,412 1353,268 1245,161 1136,54 992,0 813,0 Z"/>
  </g>
  <g id="bullet-char-template-8226" transform="scale(0.00048828125,-0.00048828125)">
   <path d="M 346,457 C 273,457 209,483 155,535 101,586 74,649 74,723 74,796 101,859 155,911 209,963 273,989 346,989 419,989 480,963 531,910 582,859 608,796 608,723 608,648 583,586 532,535 482,483 420,457 346,457 Z"/>
  </g>
  <g id="bullet-char-template-8211" transform="scale(0.00048828125,-0.00048828125)">
   <path d="M -4,459 L 1135,459 1135,606 -4,606 -4,459 Z"/>
  </g>
  <g id="bullet-char-template-61548" transform="scale(0.00048828125,-0.00048828125)">
   <path d="M 173,740 C 173,903 231,1043 346,1159 462,1274 601,1332 765,1332 928,1332 1067,1274 1183,1159 1299,1043 1357,903 1357,740 1357,577 1299,437 1183,322 1067,206 928,148 765,148 601,148 462,206 346,322 231,437 173,577 173,740 Z"/>
  </g>
 </defs>
 <g>
  <g id="id2" class="Master_Slide">
   <g id="bg-id2" class="Background"/>
   <g id="bo-id2" class="BackgroundObjects"/>
  </g>
 </g>
 <g class="SlideGroup">
  <g>
   <g id="container-id1">
    <g id="id1" class="Slide" clip-path="url(#presentation_clip_path)">
     <g class="Page">
      <g class="com.sun.star.drawing.CustomShape">
       <g id="id3">
        <rect class="BoundingBox" stroke="none" fill="none" x="658" y="83" width="288" height="748"/>
        <path fill="rgb(204,0,0)" stroke="none" d="M 717,101 L 718,101 C 710,101 703,103 697,107 691,110 685,116 682,122 678,128 676,135 676,143 L 676,770 676,770 C 676,778 678,785 682,791 685,797 691,803 697,806 703,810 710,812 718,812 L 885,812 885,812 C 893,812 900,810 906,806 912,803 918,797 921,791 925,785 927,778 927,770 L 927,142 927,143 927,143 C 927,135 925,128 921,122 918,116 912,110 906,107 900,103 893,101 885,101 L 717,101 Z"/>
        <path fill="none" stroke="rgb(0,0,0)" stroke-width="35" stroke-linejoin="round" d="M 717,101 L 718,101 C 710,101 703,103 697,107 691,110 685,116 682,122 678,128 676,135 676,143 L 676,770 676,770 C 676,778 678,785 682,791 685,797 691,803 697,806 703,810 710,812 718,812 L 885,812 885,812 C 893,812 900,810 906,806 912,803 918,797 921,791 925,785 927,778 927,770 L 927,142 927,143 927,143 C 927,135 925,128 921,122 918,116 912,110 906,107 900,103 893,101 885,101 L 717,101 Z"/>
       </g>
      </g>
      <g class="com.sun.star.drawing.CustomShape">
       <g id="id4">
        <rect class="BoundingBox" stroke="none" fill="none" x="82" y="313" width="1437" height="1207"/>
        <path fill="rgb(204,0,0)" stroke="none" d="M 1319,331 L 1342,358 1363,385 1383,414 1402,444 1419,475 1435,506 1449,538 1461,571 1472,604 1481,638 1488,673 1494,707 1498,742 1500,777 1500,812 1498,847 1495,882 1490,917 1484,952 1475,986 1465,1019 1453,1052 1440,1085 1425,1117 1408,1147 1390,1177 1371,1207 1349,1235 1327,1262 1303,1288 1278,1312 1252,1335 1225,1357 1196,1378 1167,1397 1136,1415 1105,1431 1073,1445 1041,1458 1007,1470 974,1479 939,1487 905,1493 870,1497 835,1500 800,1501 765,1500 730,1497 695,1493 661,1487 626,1479 593,1470 559,1458 527,1445 495,1431 464,1415 433,1397 404,1378 375,1357 348,1335 322,1312 297,1288 273,1262 251,1235 229,1207 210,1177 192,1147 175,1117 160,1085 147,1052 135,1019 125,986 116,952 110,917 105,882 102,847 100,812 100,777 102,742 106,707 112,673 119,638 128,604 139,571 151,538 165,506 181,475 198,444 217,414 237,385 258,358 281,331 490,520 476,536 464,553 452,570 440,588 430,606 421,625 413,644 405,664 399,684 393,704 389,724 386,745 383,766 382,787 382,808 383,829 385,850 388,870 392,891 397,911 403,931 410,951 418,970 427,989 437,1008 448,1026 459,1043 472,1060 485,1076 499,1092 514,1106 530,1120 546,1133 563,1146 581,1157 599,1168 618,1177 637,1186 656,1194 676,1200 696,1206 717,1211 737,1214 758,1217 779,1218 800,1219 821,1218 842,1217 863,1214 883,1211 904,1206 924,1200 944,1194 963,1186 982,1177 1001,1168 1019,1157 1037,1146 1054,1133 1070,1120 1086,1106 1101,1092 1115,1076 1128,1060 1141,1043 1152,1026 1163,1008 1173,989 1182,970 1190,951 1197,931 1203,911 1208,891 1212,870 1215,850 1217,829 1218,808 1218,787 1217,766 1214,745 1211,724 1207,704 1201,684 1195,664 1187,644 1179,625 1170,606 1160,588 1148,570 1136,553 1124,536 1110,520 1319,331 Z"/>
        <path fill="none" stroke="rgb(0,0,0)" stroke-width="35" stroke-linejoin="round" d="M 1319,331 L 1342,358 1363,385 1383,414 1402,444 1419,475 1435,506 1449,538 1461,571 1472,604 1481,638 1488,673 1494,707 1498,742 1500,777 1500,812 1498,847 1495,882 1490,917 1484,952 1475,986 1465,1019 1453,1052 1440,1085 1425,1117 1408,1147 1390,1177 1371,1207 1349,1235 1327,1262 1303,1288 1278,1312 1252,1335 1225,1357 1196,1378 1167,1397 1136,1415 1105,1431 1073,1445 1041,1458 1007,1470 974,1479 939,1487 905,1493 870,1497 835,1500 800,1501 765,1500 730,1497 695,1493 661,1487 626,1479 593,1470 559,1458 527,1445 495,1431 464,1415 433,1397 404,1378 375,1357 348,1335 322,1312 297,1288 273,1262 251,1235 229,1207 210,1177 192,1147 175,1117 160,1085 147,1052 135,1019 125,986 116,952 110,917 105,882 102,847 100,812 100,777 102,742 106,707 112,673 119,638 128,604 139,571 151,538 165,506 181,475 198,444 217,414 237,385 258,358 281,331 490,520 476,536 464,553 452,570 440,588 430,606 421,625 413,644 405,664 399,684 393,704 389,724 386,745 383,766 382,787 382,808 383,829 385,850 388,870 392,891 397,911 403,931 410,951 418,970 427,989 437,1008 448,1026 459,1043 472,1060 485,1076 499,1092 514,1106 530,1120 546,1133 563,1146 581,1157 599,1168 618,1177 637,1186 656,1194 676,1200 696,1206 717,1211 737,1214 758,1217 779,1218 800,1219 821,1218 842,1217 863,1214 883,1211 904,1206 924,1200 944,1194 963,1186 982,1177 1001,1168 1019,1157 1037,1146 1054,1133 1070,1120 1086,1106 1101,1092 1115,1076 1128,1060 1141,1043 1152,1026 1163,1008 1173,989 1182,970 1190,951 1197,931 1203,911 1208,891 1212,870 1215,850 1217,829 1218,808 1218,787 1217,766 1214,745 1211,724 1207,704 1201,684 1195,664 1187,644 1179,625 1170,606 1160,588 1148,570 1136,553 1124,536 1110,520 1319,331 Z"/>
       </g>
      </g>
     </g>
    </g>
   </g>
  </g>
 </g>
</svg>