<?xml version="1.0" encoding="UTF-8"?>
<!DOCTYPE svg PUBLIC "-//W3C//DTD SVG 1.1//EN" "http://www.w3.org/Graphics/SVG/1.1/DTD/svg11.dtd">
<svg version="1.2" width="16mm" height="16mm" viewBox="0 0 1600 1600" preserveAspectRatio="xMidYMid" fill-rule="evenodd" stroke-width="28.222" stroke-linejoin="round" xmlns="http://www.w3.org/2000/svg" xmlns:ooo="http://xml.openoffice.org/svg/export" xmlns:xlink="http://www.w3.org/1999/xlink" xmlns:presentation="http://sun.com/xmlns/staroffice/presentation" xmlns:smil="http://www.w3.org/2001/SMIL20/" xmlns:anim="urn:oasis:names:tc:opendocument:xmlns:animation:1.0" xml:space="preserve">
 <defs class="ClipPathGroup">
  <clipPath id="presentation_clip_path" clipPathUnits="userSpaceOnUse">
   <rect x="0" y="0" width="1600" height="1600"/>
  </clipPath>
 </defs>
 <defs class="TextShapeIndex">
  <g ooo:slide="id1" ooo:id-list="id3 id4"/>
 </defs>
 <defs class="EmbeddedBulletChars">
  <g id="bullet-char-template(57356)" transform="scale(0.00048828125,-0.00048828125)">
   <path d="M 580,1141 L 1163,571 580,0 -4,571 580,1141 Z"/>
  </g>
  <g id="bullet-char-template(57354)" transform="scale(0.00048828125,-0.00048828125)">
   <path d="M 8,1128 L 1137,1128 1137,0 8,0 8,1128 Z"/>
  </g>
  <g id="bullet-char-template(10146)" transform="scale(0.00048828125,-0.00048828125)">
   <path d="M 174,0 L 602,739 174,1481 1456,739 174,0 Z M 1358,739 L 309,1346 659,739 1358,739 Z"/>
  </g>
  <g id="bullet-char-template(10132)" transform="scale(0.00048828125,-0.00048828125)">
   <path d="M 2015,739 L 1276,0 717,0 1260,543 174,543 174,936 1260,936 717,1481 1274,1481 2015,739 Z"/>
  </g>
  <g id="bullet-char-template(10007)" transform="scale(0.00048828125,-0.00048828125)">
   <path d="M 0,-2 C -7,14 -16,27 -25,37 L 356,567 C 262,823 215,952 215,954 215,979 228,992 255,992 264,992 276,990 289,987 310,991 331,999 354,1012 L 381,999 492,748 772,1049 836,1024 860,1049 C 881,1039 901,1025 922,1006 886,937 835,863 770,784 769,783 710,716 594,584 L 774,223 C 774,196 753,168 711,139 L 727,119 C 717,90 699,76 672,76 641,76 570,178 457,381 L 164,-76 C 142,-110 111,-127 72,-127 30,-127 9,-110 8,-76 1,-67 -2,-52 -2,-32 -2,-23 -1,-13 0,-2 Z"/>
  </g>
  <g id="bullet-char-template(10004)" transform="scale(0.00048828125,-0.00048828125)">
   <path d="M 285,-33 C 182,-33 111,30 74,156 52,228 41,333 41,471 41,549 55,616 82,672 116,743 169,778 240,778 293,778 328,747 346,684 L 369,508 C 377,444 397,411 428,410 L 1163,1116 C 1174,1127 1196,1133 1229,1133 1271,1133 1292,1118 1292,1087 L 1292,965 C 1292,929 1282,901 1262,881 L 442,47 C 390,-6 338,-33 285,-33 Z"/>
  </g>
  <g id="bullet-char-template(9679)" transform="scale(0.00048828125,-0.00048828125)">
   <path d="M 813,0 C 632,0 489,54 383,161 276,268 223,411 223,592 223,773 276,916 383,1023 489,1130 632,1184 813,1184 992,1184 1136,1130 1245,1023 1353,916 1407,772 1407,592 1407,412 1353,268 1245,161 1136,54 992,0 813,0 Z"/>
  </g>
  <g id="bullet-char-template(8226)" transform="scale(0.00048828125,-0.00048828125)">
   <path d="M 346,457 C 273,457 209,483 155,535 101,586 74,649 74,723 74,796 101,859 155,911 209,963 273,989 346,989 419,989 480,963 531,910 582,859 608,796 608,723 608,648 583,586 532,535 482,483 420,457 346,457 Z"/>
  </g>
  <g id="bullet-char-template(8211)" transform="scale(0.00048828125,-0.00048828125)">
   <path d="M -4,459 L 1135,459 1135,606 -4,606 -4,459 Z"/>
  </g>
 </defs>
 <defs class="TextEmbeddedBitmaps"/>
 <g>
  <g id="id2" class="Master_Slide">
   <g id="bg-id2" class="Background"/>
   <g id="bo-id2" class="BackgroundObjects"/>
  </g>
 </g>
 <g class="SlideGroup">
  <g>
   <g id="id1" class="Slide" clip-path="url(#presentation_clip_path)">
    <g class="Page">
     <g class="com.sun.star.drawing.CustomShape">
      <g id="id3">
       <rect class="BoundingBox" stroke="none" fill="none" x="657" y="82" width="288" height="748"/>
       <path fill="rgb(114,159,207)" stroke="none" d="M 716,100 C 695,100 675,120 675,141 L 675,769 C 675,790 695,811 716,811 L 884,811 C 905,811 926,790 926,769 L 926,141 C 926,120 905,100 884,100 L 716,100 Z M 675,100 L 675,100 Z M 926,811 L 926,811 Z"/>
       <path fill="none" stroke="rgb(0,0,0)" stroke-width="35" stroke-linejoin="round" d="M 716,100 C 695,100 675,120 675,141 L 675,769 C 675,790 695,811 716,811 L 884,811 C 905,811 926,790 926,769 L 926,141 C 926,120 905,100 884,100 L 716,100 Z"/>
      </g>
     </g>
     <g class="com.sun.star.drawing.CustomShape">
      <g id="id4">
       <rect class="BoundingBox" stroke="none" fill="none" x="82" y="81" width="1438" height="1438"/>
       <path fill="rgb(114,159,207)" stroke="none" d="M 1319,330 L 1342,357 1363,384 1383,413 1402,443 1419,474 1435,505 1449,537 1461,570 1472,603 1481,637 1488,672 1494,706 1498,741 1500,776 1500,811 1498,846 1495,881 1490,916 1484,951 1475,985 1465,1018 1453,1051 1440,1084 1425,1116 1408,1146 1390,1176 1371,1206 1349,1234 1327,1261 1303,1287 1278,1311 1252,1334 1225,1356 1196,1377 1167,1396 1136,1414 1105,1430 1073,1444 1041,1457 1007,1469 974,1478 939,1486 905,1492 870,1496 835,1499 800,1500 765,1499 730,1496 695,1492 661,1486 626,1478 593,1469 559,1457 527,1444 495,1430 464,1414 433,1396 404,1377 375,1356 348,1334 322,1311 297,1287 273,1261 251,1234 229,1206 210,1176 192,1146 175,1116 160,1084 147,1051 135,1018 125,985 116,951 110,916 105,881 102,846 100,811 100,776 102,741 106,706 112,672 119,637 128,603 139,570 151,537 165,505 181,474 198,443 217,413 237,384 258,357 281,330 490,519 476,535 464,552 452,569 440,587 430,605 421,624 413,643 405,663 399,683 393,703 389,723 386,744 383,765 382,786 382,807 383,828 385,849 388,869 392,890 397,910 403,930 410,950 418,969 427,988 437,1007 448,1025 459,1042 472,1059 485,1075 499,1091 514,1105 530,1119 546,1132 563,1145 581,1156 599,1167 618,1176 637,1185 656,1193 676,1199 696,1205 717,1210 737,1213 758,1216 779,1217 800,1218 821,1217 842,1216 863,1213 883,1210 904,1205 924,1199 944,1193 963,1185 982,1176 1001,1167 1019,1156 1037,1145 1054,1132 1070,1119 1086,1105 1101,1091 1115,1075 1128,1059 1141,1042 1152,1025 1163,1007 1173,988 1182,969 1190,950 1197,930 1203,910 1208,890 1212,869 1215,849 1217,828 1218,807 1218,786 1217,765 1214,744 1211,723 1207,703 1201,683 1195,663 1187,643 1179,624 1170,605 1160,587 1148,569 1136,552 1124,535 1110,519 1319,330 Z M 100,1500 L 100,1500 Z M 1501,99 L 1501,99 Z"/>
       <path fill="none" stroke="rgb(0,0,0)" stroke-width="35" stroke-linejoin="round" d="M 1319,330 L 1342,357 1363,384 1383,413 1402,443 1419,474 1435,505 1449,537 1461,570 1472,603 1481,637 1488,672 1494,706 1498,741 1500,776 1500,811 1498,846 1495,881 1490,916 1484,951 1475,985 1465,1018 1453,1051 1440,1084 1425,1116 1408,1146 1390,1176 1371,1206 1349,1234 1327,1261 1303,1287 1278,1311 1252,1334 1225,1356 1196,1377 1167,1396 1136,1414 1105,1430 1073,1444 1041,1457 1007,1469 974,1478 939,1486 905,1492 870,1496 835,1499 800,1500 765,1499 730,1496 695,1492 661,1486 626,1478 593,1469 559,1457 527,1444 495,1430 464,1414 433,1396 404,1377 375,1356 348,1334 322,1311 297,1287 273,1261 251,1234 229,1206 210,1176 192,1146 175,1116 160,1084 147,1051 135,1018 125,985 116,951 110,916 105,881 102,846 100,811 100,776 102,741 106,706 112,672 119,637 128,603 139,570 151,537 165,505 181,474 198,443 217,413 237,384 258,357 281,330 490,519 476,535 464,552 452,569 440,587 430,605 421,624 413,643 405,663 399,683 393,703 389,723 386,744 383,765 382,786 382,807 383,828 385,849 388,869 392,890 397,910 403,930 410,950 418,969 427,988 437,1007 448,1025 459,1042 472,1059 485,1075 499,1091 514,1105 530,1119 546,1132 563,1145 581,1156 599,1167 618,1176 637,1185 656,1193 676,1199 696,1205 717,1210 737,1213 758,1216 779,1217 800,1218 821,1217 842,1216 863,1213 883,1210 904,1205 924,1199 944,1193 963,1185 982,1176 1001,1167 1019,1156 1037,1145 1054,1132 1070,1119 1086,1105 1101,1091 1115,1075 1128,1059 1141,1042 1152,1025 1163,1007 1173,988 1182,969 1190,950 1197,930 1203,910 1208,890 1212,869 1215,849 1217,828 1218,807 1218,786 1217,765 1214,744 1211,723 1207,703 1201,683 1195,663 1187,643 1179,624 1170,605 1160,587 1148,569 1136,552 1124,535 1110,519 1319,330 Z"/>
      </g>
     </g>
    </g>
   </g>
  </g>
 </g>
</svg>