/* XPM */
static const char * addtrack_audiogroup_xpm[] = {
"16 16 16 1",
" 	c None",
".	c #800000",
"+	c #C20000",
"@	c #FFFFFF",
"#	c #363736",
"$	c #000100",
"%	c #616161",
"&	c #DBDDDA",
"*	c #828282",
"=	c #313231",
"-	c #222322",
";	c #545454",
">	c #4E4F4E",
",	c #323332",
"'	c #454645",
")	c #2E2F2E",
"................",
".++@@##$$$#@@++.",
".+@@#%@@@@#$&@+.",
".@@##@@@@@@##@@.",
"&&@$@@&@&@@@$@&&",
"@@***@@&@&@***@@",
"@*%$%@&&&@@%$$*@",
"*=-$*@@&&@@;$$$%",
">$#$#@&@&@@,$#$#",
"'$#$#@@&@@@#$#$#",
"*)$$%@@@&@@%$$$*",
"@*%$%@&&&@@*$$*@",
".@***@&&@&@***@.",
".+@@@@@@&&@@@@+.",
".++++++++++++++.",
"................"};
