/* XPM */
static const char * addtrack_drumtrack_xpm[] = {
"16 16 22 1",
" 	c None",
".	c #800000",
"+	c #000100",
"@	c #C20000",
"#	c #9FA19E",
"$	c #F8FEFF",
"%	c #A29FA3",
"&	c #FDF7F6",
"*	c #FEFFFC",
"=	c #2F312E",
"-	c #797D7C",
";	c #FBF5F4",
">	c #C2C4C0",
",	c #DBDDDA",
"'	c #ACA5B1",
")	c #DDE2E5",
"!	c #D3D8DA",
"~	c #7F817E",
"{	c #E0CEC3",
"]	c #F0F5F8",
"^	c #DEE0DD",
"/	c #CED7DF",
"...........+....",
".@@@@@@@@@++#@@.",
".@$$$$$$$++%%$+.",
".@&&&&&&++##*++.",
".@*****++%%$++#.",
".$*==+++==*++#%.",
"&*+-&++;;+++%#@.",
"*=>&,*--+++##$@.",
"&==->>>-++=%&$@.",
"&='=====++=%**$*",
"&=%))&)),%+++++*",
".=%-;);!%++>#>~+",
".&=){]^,~=+->>++",
".@/======%++++++",
".@@&'%%%%%+%~~+*",
"........**&+++**"};
