/* XPM */
static const char * audio_bounce_to_track_xpm[] = {
"16 16 8 1",
" 	c None",
".	c #CECECE",
"+	c #FB0000",
"@	c #8A5C04",
"#	c #9E772E",
"$	c #000000",
"%	c #AE8E51",
"&	c #2B2B2B",
"      .++       ",
"      .++       ",
"    ...++       ",
"    .++++++     ",
"    ..++++ .    ",
"     ..++ .     ",
"      ....      ",
"                ",
"                ",
" @#  @#  @#  @# ",
"$$$$$$$$$$$$$$$$",
"@#. @%..@#..@#. ",
"#. @%..@#..@#. @",
". ##. @#. @#. @#",
"$$$$$$$&$$$$$$$$",
" @#. @#. @#. @# "};
