/* XPM */
static const char * mixerS_xpm[] = {
"16 16 2 1",
" 	c None",
".	c #000000",
"                ",
"                ",
"                ",
"   .  .  .  .   ",
"  ... . ... .   ",
"  ... . ... .   ",
"   .  .  .  .   ",
"   .  .  . ...  ",
"   .  .  . ...  ",
"   .  .  .  .   ",
"   .  .  .  .   ",
"   . ... .  .   ",
"   . ... .  .   ",
"                ",
"                ",
"                "};
