/* XPM */
static const char * muse_icon_xpm[] = {
"32 32 376 2",
"  	c None",
". 	c #616161",
"+ 	c #626262",
"@ 	c #8E4B33",
"# 	c #7C7B65",
"$ 	c #C6C4A3",
"% 	c #9F984E",
"& 	c #B46C17",
"* 	c #E6A34D",
"= 	c #EBB268",
"- 	c #E59F3C",
"; 	c #BC7A1B",
"> 	c #AB741E",
", 	c #B6AB8B",
"' 	c #E5E3B8",
") 	c #C4C07B",
"! 	c #BAAC17",
"~ 	c #778E33",
"{ 	c #87877C",
"] 	c #DA9235",
"^ 	c #E9B168",
"/ 	c #E9B97A",
"( 	c #E9AD5E",
"_ 	c #E8A855",
": 	c #E08B1D",
"< 	c #75584E",
"[ 	c #636363",
"} 	c #BF8E48",
"| 	c #EBDEB6",
"1 	c #ECE9BB",
"2 	c #C4BC75",
"3 	c #D2981B",
"4 	c #B57614",
"5 	c #6C6C6C",
"6 	c #6B6B6B",
"7 	c #979560",
"8 	c #FAFADD",
"9 	c #F7F6E4",
"0 	c #E3DAC2",
"a 	c #CEBC9F",
"b 	c #D59E56",
"c 	c #E69E41",
"d 	c #E0A045",
"e 	c #9D794A",
"f 	c #6A6A6A",
"g 	c #696969",
"h 	c #666666",
"i 	c #646464",
"j 	c #BE791F",
"k 	c #D2BF9B",
"l 	c #FDF9CE",
"m 	c #E2E0B1",
"n 	c #C2BC5D",
"o 	c #C6941B",
"p 	c #D1821C",
"q 	c #B76F1A",
"r 	c #6D6D6D",
"s 	c #A7A164",
"t 	c #C7C38F",
"u 	c #C5C074",
"v 	c #C5C06E",
"w 	c #C5C380",
"x 	c #CDCAA2",
"y 	c #C9C09E",
"z 	c #C5A772",
"A 	c #E29A3D",
"B 	c #E1AA5C",
"C 	c #C89347",
"D 	c #6F6A68",
"E 	c #957548",
"F 	c #C4A471",
"G 	c #F6EBC1",
"H 	c #F3F1C2",
"I 	c #CDCB9C",
"J 	c #C6BE3B",
"K 	c #B8C300",
"L 	c #CA8119",
"M 	c #D4831B",
"N 	c #BC7315",
"O 	c #6E6E6E",
"P 	c #6F6F6F",
"Q 	c #717171",
"R 	c #B7B342",
"S 	c #E5DD18",
"T 	c #EBE30C",
"U 	c #E2DA11",
"V 	c #E3DB0E",
"W 	c #E0D521",
"X 	c #CBC650",
"Y 	c #C6C38D",
"Z 	c #C7C19F",
"` 	c #C29B63",
" .	c #E0A44F",
"..	c #DEAA5F",
"+.	c #D8953F",
"@.	c #CEA25D",
"#.	c #E7D7AC",
"$.	c #F7F4C8",
"%.	c #DDDAAA",
"&.	c #B5AE36",
"*.	c #6A6D62",
"=.	c #8C643D",
"-.	c #DA8B1B",
";.	c #727272",
">.	c #737373",
",.	c #A69F55",
"'.	c #BDB53E",
").	c #EAE30F",
"!.	c #C1BB16",
"~.	c #7C784F",
"{.	c #ABA13C",
"].	c #CEC533",
"^.	c #DDDBB0",
"/.	c #E0DBBD",
"(.	c #E6DBBB",
"_.	c #F2E9C5",
":.	c #FAFACF",
"<.	c #E3E0B0",
"[.	c #C5C180",
"}.	c #CCC333",
"|.	c #8F8B4E",
"1.	c #686868",
"2.	c #A8702D",
"3.	c #D7861E",
"4.	c #CC7F1B",
"5.	c #B77813",
"6.	c #747474",
"7.	c #AEAA3F",
"8.	c #B7AA10",
"9.	c #9F9C48",
"0.	c #C3BC4C",
"a.	c #D0CD9D",
"b.	c #CDCA9A",
"c.	c #CFC634",
"d.	c #A8A23D",
"e.	c #B17126",
"f.	c #CE7C1B",
"g.	c #C07719",
"h.	c #AF5A16",
"i.	c #BFB730",
"j.	c #D5CF28",
"k.	c #A6411D",
"l.	c #777664",
"m.	c #7C7C7C",
"n.	c #7B7B7B",
"o.	c #797979",
"p.	c #777777",
"q.	c #8A8761",
"r.	c #A39E4A",
"s.	c #A5A148",
"t.	c #91915A",
"u.	c #73746F",
"v.	c #9F692A",
"w.	c #B77210",
"x.	c #C13200",
"y.	c #C9C430",
"z.	c #C4BB31",
"A.	c #A7621E",
"B.	c #8D8A5C",
"C.	c #7A7A7A",
"D.	c #787878",
"E.	c #757575",
"F.	c #C6801D",
"G.	c #CCC337",
"H.	c #BDAF34",
"I.	c #B2771B",
"J.	c #928E63",
"K.	c #767676",
"L.	c #707070",
"M.	c #8D734E",
"N.	c #C2B669",
"O.	c #BDB048",
"P.	c #A29B45",
"Q.	c #968E3B",
"R.	c #7F7248",
"S.	c #CCC43B",
"T.	c #C2B635",
"U.	c #BF971E",
"V.	c #81826D",
"W.	c #BC9E4D",
"X.	c #C8C25D",
"Y.	c #CFC746",
"Z.	c #DFD424",
"`.	c #D6CB1F",
" +	c #6B754E",
".+	c #CDC538",
"++	c #C9BA36",
"@+	c #BF9D28",
"#+	c #997448",
"$+	c #C0B65F",
"%+	c #CEC949",
"&+	c #D9CF30",
"*+	c #EADD0B",
"=+	c #A49D2B",
"-+	c #CFC632",
";+	c #CDC13C",
">+	c #BF9B2C",
",+	c #B29743",
"'+	c #CAC355",
")+	c #D4CE3B",
"!+	c #E7E016",
"~+	c #EEE609",
"{+	c #C2BC19",
"]+	c #CDC42E",
"^+	c #CEC343",
"/+	c #C09B2B",
"(+	c #95764A",
"_+	c #C6B44F",
":+	c #D1C840",
"<+	c #DDD328",
"[+	c #D9D110",
"}+	c #656565",
"|+	c #C5BC2E",
"1+	c #D3CA3C",
"2+	c #C6A32B",
"3+	c #7C7B5F",
"4+	c #BA9337",
"5+	c #CDC54A",
"6+	c #D8CE31",
"7+	c #E7DF0A",
"8+	c #867C47",
"9+	c #B7AC34",
"0+	c #D8D231",
"a+	c #C8AA2F",
"b+	c #8B8754",
"c+	c #676767",
"d+	c #9D7940",
"e+	c #C6B949",
"f+	c #D6CC35",
"g+	c #E5D918",
"h+	c #ABA32C",
"i+	c #9E9945",
"j+	c #CFBB34",
"k+	c #977F46",
"l+	c #837056",
"m+	c #B99A3C",
"n+	c #D2C93F",
"o+	c #DFD824",
"p+	c #CCC617",
"q+	c #7C7C5B",
"r+	c #E4D819",
"s+	c #D4CB37",
"t+	c #B27A2B",
"u+	c #A47A39",
"v+	c #CCC441",
"w+	c #DAD02D",
"x+	c #DED20F",
"y+	c #756E58",
"z+	c #D8CD17",
"A+	c #DCD629",
"B+	c #C99F2C",
"C+	c #80744D",
"D+	c #976E3E",
"E+	c #C0AF3B",
"F+	c #E8DB15",
"G+	c #EAE20B",
"H+	c #989B34",
"I+	c #BFB622",
"J+	c #E5D91A",
"K+	c #D4BE2D",
"L+	c #BC7C21",
"M+	c #73625C",
"N+	c #AF8E36",
"O+	c #D3CA3A",
"P+	c #BFBA1E",
"Q+	c #847C4B",
"R+	c #E7DB10",
"S+	c #DCD129",
"T+	c #C89025",
"U+	c #AB742C",
"V+	c #A1793A",
"W+	c #E0D523",
"X+	c #EADD0F",
"Y+	c #D3CD16",
"Z+	c #D3C812",
"`+	c #E8DB13",
" @	c #CD7F1A",
".@	c #A78034",
"+@	c #6A6D60",
"@@	c #8A7451",
"#@	c #C4B941",
"$@	c #E8E013",
"%@	c #77755E",
"&@	c #89864A",
"*@	c #E9DC0E",
"=@	c #C4AC57",
"-@	c #DD8E28",
";@	c #C3A358",
">@	c #ADA86E",
",@	c #8F8E78",
"'@	c #8C7E69",
")@	c #BEB591",
"!@	c #DBD8A8",
"~@	c #DCD127",
"{@	c #95944A",
"]@	c #B7AF30",
"^@	c #DDD728",
"/@	c #C6C06B",
"(@	c #C7B17C",
"_@	c #DC963B",
":@	c #D99A38",
"<@	c #B6AC75",
"[@	c #BDB592",
"}@	c #E8E6B5",
"|@	c #D8D6A7",
"1@	c #C6C367",
"2@	c #AFA946",
"3@	c #6F716A",
"4@	c #CCC625",
"5@	c #D5CF38",
"6@	c #C5C384",
"7@	c #DBD0A4",
"8@	c #D3A966",
"9@	c #C3AF7A",
"0@	c #DCD9AB",
"a@	c #C3BB3E",
"b@	c #757671",
"c@	c #7E7E7E",
"d@	c #7F7F7F",
"e@	c #7D7D7D",
"f@	c #717467",
"g@	c #D4C521",
"h@	c #C5C288",
"i@	c #EFECC6",
"j@	c #EFEED0",
"k@	c #C2C0A1",
"l@	c #B4AE6F",
"m@	c #C4A92F",
"n@	c #A77D3A",
"o@	c #837766",
"p@	c #818181",
"q@	c #838383",
"r@	c #707366",
"s@	c #D0C621",
"t@	c #C5C078",
"u@	c #E1DEB2",
"v@	c #C6BBA1",
"w@	c #DA9945",
"x@	c #DE9639",
"y@	c #E19426",
"z@	c #D4881B",
"A@	c #937C5E",
"B@	c #808080",
"C@	c #858585",
"D@	c #888888",
"E@	c #696D5C",
"F@	c #D0C50B",
"G@	c #D8D21F",
"H@	c #B2A945",
"I@	c #AB7622",
"J@	c #A57536",
"K@	c #746863",
"L@	c #848484",
"M@	c #828282",
"N@	c #8B8B8B",
"O@	c #8E8E8E",
"P@	c #919191",
"Q@	c #959595",
"R@	c #979797",
"S@	c #898989",
"T@	c #878787",
"U@	c #868686",
"V@	c #8C8C8C",
"W@	c #9A9A9A",
"X@	c #9E9E9E",
"Y@	c #A3A3A3",
"Z@	c #A8A8A8",
"`@	c #ABABAB",
" #	c #A0A0A0",
".#	c #989898",
"+#	c #9C9C9C",
"@#	c #969696",
"##	c #949494",
"$#	c #939393",
"%#	c #9B9B9B",
"&#	c #8F8F8F",
". . . . . . . . . . . . . . . . . . . . . . . . . . + + . . . . ",
". . . . . . . . @ . . . . . . . . . . . . . . . . # $ % . . . . ",
". . . . . . & * = - ; . . . . . . . . . . . . > , ' ) ! . . . . ",
". . . . ~ { ] ^ / ( _ : < [ [ + . . . . . . } | 1 2 3 4 . . . . ",
"5 5 5 6 7 8 9 0 a b c * d e 5 6 f g h i j k l m n o p q . . . . ",
"r r r 5 s t u v w x y z A B C D 5 f E F G H I J K L M N . . . . ",
"O O P Q R S T U V W X Y Z `  ...+.@.#.$.%.v &.*.=.-.p q . . . . ",
"P ;.;.>.,.'.).!.. ~.{.].u ^./.(._.:.<.[.}.|.1.5 2.3.4.5.. . . . ",
"Q ;.;.>.6.7.S 8.i ;.Q Q 9.0.[.a.b.u c.d.*.r r 5 e.f.g.h.. . . . ",
"Q ;.;.>.6.i.j.k.l.m.n.n.o.p.q.r.s.t.u.P r O 5 6 v.N w.x.+ + . . ",
"Q ;.;.>.6.y.z.A.B.m.m.C.n.o.D.p.E.6.;.;.Q P r 6 F.A.. + + + + + ",
"Q Q ;.;.>.G.H.I.J.C.o.n.o.D.p.K.E.6.;.Q L.P r M.N.O.P.Q.R.+ + + ",
"Q Q Q ;.;.S.T.U.V.D.o.p.o.p.K.E.6.>.;.Q P 5 5 W.X.Y.Z.S `. ++ + ",
"L.L.Q Q Q .+++@+>.>.;.>.>.K.K.6.>.;.Q P O 5 #+$+%+&+T *+=+[ + + ",
"P P L.Q Q -+;+>+Q 5 Q Q ;.Q ;.>.;.Q L.P O r ,+'+)+!+~+{+i i [ + ",
"P P P P L.]+^+/+O g 5 L.P Q L.L.Q L.P O r (+_+:+<+~+[+}+i i [ [ ",
"P O O P P |+1+2+3+1.g O P P P O O P O r D 4+5+6+).7+8+}+i i i [ ",
"O r O O O 9+0+a+b+c+1.f 5 O O r 5 5 r 5 d+e+f+g+~+h+}+}+i i [ [ ",
"O 5 r r r i+<+j+k+c+c+g f f 5 5 5 6 6 l+m+n+o+~+p+h }+}+i i [ [ ",
"r 5 5 5 5 q+r+s+t+c+c+c+g g g g f f f u+v+w+).x+y+}+}+i i [ [ [ ",
"r 6 6 6 5 g z+A+B+C+h h 1.1.g 1.c+c+D+E+6+F+G+H+i i i [ i i i i ",
"5 f f f 6 1.I+J+K+L+}+}+h 1.c+c+c+M+N+O+W ~+P+h c+c+c+c+c+h h }+",
"5 g f f f 1.Q+R+S+T+U+}+}+c+c+h c+V+;+W+X+Y+g f f f f g g 1.c+c+",
"5 g g g f c+c+Z+`+K+ @.@+@g f 5 @@#@S+$@V %@f f g f 6 6 f g g 1.",
"6 1.1.g g c+h &@*@6+=@-@;@>@,@'@)@!@[.~@{@r 5 r 5 5 O O 6 6 f f ",
"6 f 5 P Q O 5 5 ]@^@/@(@_@:@<@[@}@|@1@2@>.;.;.Q ;.O O f f f f f ",
"K.D.p.p.D.K.5 O 3@4@5@6@7@8@9@m 0@[.a@b@K.6.6.;.;.L.O 5 6 f f g ",
"D.n.c@d@c@e@K.O 5 f@g@:+h@i@j@k@l@m@n@o@>.6.6.6.6.;.Q L.P P 6 f ",
"p.o.n.c@p@q@p@n.E.P r@s@5@t@u@v@w@x@y@z@A@B@d@n.D.K.6.;.Q L.O r ",
"C.m.c@B@q@C@D@D@q@o.Q E@F@G@H@I@L J@K@;.6.o.L@d@d@m.m.n.o.o.p.K.",
"e@d@M@L@D@N@O@P@Q@R@P@S@m.5 + g [ h ;.m.p@T@N@S@D@U@L@p@d@m.n.o.",
"B@q@U@S@V@P@Q@W@X@Y@Z@`@Z@ #.#+#.#@###$#W@%#.#$#&#N@D@L@M@d@e@n."};
