/* XPM */
static const char *resetS_xpm[]={
"16 16 3 1",
"a c #000000",
". c #c00000",
"# c #ffffff",
"................",
"................",
"..############..",
"..####aa######..",
"..###aaa######..",
"..##aaaaaaaa##..",
"..##aaaaaaaaa#..",
"..###aaa##aaa#..",
"..####aa###aa#..",
"..#########aa#..",
"..########aaa#..",
"..##aaaaaaaaa#..",
"..##aaaaaaaa##..",
"..############..",
"................",
"................"};
