/* XPM */
static const char *addtrack_addmiditrack_xpm[]={
"16 16 7 1",
"a c #000000",
"e c #404000",
". c #800000",
"c c #808080",
"b c #c00000",
"d c #dcdcdc",
"# c #ffffff",
".......##aa###..",
".bbbbb###aaa#bb.",
".b#######aaaa#b.",
".b#######a#aa#b.",
".bc#c#c#dad#a#b.",
".eeeeeeedadeeee.",
".bc#c#c#dad#c#b.",
".bc#c#c#dad#c#b.",
".bc#c#d#dad#c#b.",
".bc#c#aaaad#c#b.",
".eeedaaaaadeeee.",
".bc#caaaaa##c#b.",
".b####aaa#####b.",
".b############b.",
".bbbbbbbbbbbbbb.",
"................"};
