/* XPM */
static const char * addtrack_audioinput_xpm[] = {
"16 16 14 1",
" 	c None",
".	c #800000",
"+	c #DBDDDA",
"@	c #555652",
"#	c #FEFFFC",
"$	c #8D8E88",
"%	c #9FA19E",
"&	c #FCFCF5",
"*	c #C2C4C0",
"=	c #C20000",
"-	c #313230",
";	c #BEBFBA",
">	c #000100",
",	c #565856",
".+@##....###@+#.",
".#$%+#####+%$##.",
".+#@%@&##*%@+#=.",
".####++##+####=.",
".######-######=.",
"###+$$+-#+$%+##.",
"#+#$;##-##%$%##.",
"##$;+##-###+$%#.",
".#@###>>>######.",
".#####>>>#+####.",
".=####>>>##+##+#",
".=##+#>>>#######",
".=#+###,###+#,,,",
".=###+#,####,,##",
".==####,,##,,#=.",
"......##,,,,#..."};
