/* XPM */
static const char * exit_xpm[] = {
"22 22 4 1",
" 	c None",
".	c #000000",
"+	c #757575",
"@	c #303030",
"                      ",
"                      ",
"          ..          ",
"          ..          ",
"      .   ..   .      ",
"     ...  ..  ...     ",
"    +..+  ..  +..+    ",
"    ..@   ..   @..    ",
"   +..+   ..   +..+   ",
"   ...    ..    ...   ",
"   ..+    ..    +..   ",
"   ..+    ..    +..   ",
"   ...    ..    ...   ",
"   +..+        +..+   ",
"    ..@        @..    ",
"    +..@+    +@..+    ",
"     +....++....+     ",
"      +........+      ",
"        +....+        ",
"                      ",
"                      ",
"                      "};
