/* XPM */
static const char * filesaveS_xpm[] = {
"16 16 9 1",
" 	c None",
".	c #000000",
"+	c #303030",
"@	c #800080",
"#	c #0000C0",
"$	c #FFFFFF",
"%	c #DCDCDC",
"&	c #C3C3C3",
"*	c #585858",
"................",
".+.@#@#@#@#@#.+.",
".$.$$$$$$$$$$...",
".+.$$$$$$$$$$.+.",
".+.$@#@#@#@#$.+.",
".+.$$$$$$$$$$.+.",
".+.$@#@#@#@#$.+.",
".+.$$$$$$$$$$.+.",
".++..........++.",
".++++++++++++++.",
".+++........+++.",
".++.$%$%%%&%.++.",
".++.%+*&%&%&.++.",
".++.$+*%&%&&.++.",
"..+.%&%&%&&&.++.",
" ..............."};
