/* XPM */
static const char* lmark_xpm[]={
"18 18 2 1",
"# c #0000ff",
". c None",
"..................",
"..................",
"..................",
"..................",
"..................",
"..................",
"..................",
"##########........",
".#########........",
"..########........",
"...#######........",
"....######........",
".....#####........",
"......####........",
".......###........",
"........##........",
"........##........",
"........##........"};
