/* XPM */
static const char * midi_inputplugins_xpm[] = {
"16 16 14 1",
" 	c None",
".	c #58A8FF",
"+	c #A8DCFF",
"@	c #FFFFFF",
"#	c #000000",
"$	c #88B2CE",
"%	c #CECECE",
"&	c #396EA6",
"*	c #4788CE",
"=	c #B7D9F0",
"-	c #B1CFE5",
";	c #99AEBE",
">	c #94AFC2",
",	c #2E5986",
"................",
".++++++++++++++.",
".+@@@@@@@@@@@@+.",
".+@#####@@@@@@#.",
".##########@@#+#",
"#$%#####%%%%@@#&",
"*+@@%%%%%@@@@@+&",
".+@#####@@@@@@#.",
"###########@@#+#",
".+@#####%%%%@@#&",
".+@@%%%%%@@@@@+&",
"#+@#####@@@@@@#.",
"*##########@@#+#",
".$%#####%%%%@@#&",
".+=-;;;;>++++++,",
"................"};
