/* XPM */
static const char * mutebutton_off_xpm[] = {
"22 22 140 2",
"  	c #000000",
". 	c #720000",
"+ 	c #7B0000",
"@ 	c #810000",
"# 	c #840000",
"$ 	c #870000",
"% 	c #8D0000",
"& 	c #930000",
"* 	c #980000",
"= 	c #9C0000",
"- 	c #9B0000",
"; 	c #970000",
"> 	c #900000",
", 	c #8C0000",
"' 	c #850000",
") 	c #800000",
"! 	c #760000",
"~ 	c #730000",
"{ 	c #710000",
"] 	c #770000",
"^ 	c #A10000",
"/ 	c #A90000",
"( 	c #AE0000",
"_ 	c #B10000",
": 	c #B60000",
"< 	c #B50000",
"[ 	c #B30000",
"} 	c #AC0000",
"| 	c #A70000",
"1 	c #9E0000",
"2 	c #8F0000",
"3 	c #890000",
"4 	c #7F0000",
"5 	c #7A0000",
"6 	c #7C0000",
"7 	c #8E0000",
"8 	c #A00000",
"9 	c #AD0000",
"0 	c #B80000",
"a 	c #C00000",
"b 	c #C60000",
"c 	c #C80000",
"d 	c #CB0000",
"e 	c #C70000",
"f 	c #BB0000",
"g 	c #B20000",
"h 	c #A30000",
"i 	c #960000",
"j 	c #860000",
"k 	c #920000",
"l 	c #BA0000",
"m 	c #C50000",
"n 	c #CE0000",
"o 	c #D40000",
"p 	c #D80000",
"q 	c #D70000",
"r 	c #DA0000",
"s 	c #D10000",
"t 	c #C90000",
"u 	c #C30000",
"v 	c #B40000",
"w 	c #A40000",
"x 	c #910000",
"y 	c #7D0000",
"z 	c #950000",
"A 	c #AB0000",
"B 	c #BD0000",
"C 	c #CC0000",
"D 	c #D60000",
"E 	c #DF0000",
"F 	c #E30000",
"G 	c #E10000",
"H 	c #DC0000",
"I 	c #D00000",
"J 	c #C20000",
"K 	c #BC0000",
"L 	c #A50000",
"M 	c #AF0000",
"N 	c #E40000",
"O 	c #E70000",
"P 	c #E60000",
"Q 	c #3F3F3F",
"R 	c #DD0200",
"S 	c #D90300",
"T 	c #D40200",
"U 	c #CD0000",
"V 	c #B90000",
"W 	c #AA0000",
"X 	c #9A0000",
"Y 	c #D20000",
"Z 	c #D90000",
"` 	c #DE0000",
" .	c #E20000",
"..	c #3B3B3B",
"+.	c #313131",
"@.	c #E00300",
"#.	c #DD0300",
"$.	c #D10100",
"%.	c #A80000",
"&.	c #880000",
"*.	c #C40000",
"=.	c #454545",
"-.	c #E40200",
";.	c #E10300",
">.	c #DC0100",
",.	c #D50100",
"'.	c #D50000",
").	c #121212",
"!.	c #E90000",
"~.	c #CA0000",
"{.	c #4C4C4C",
"].	c #525252",
"^.	c #1E0700",
"/.	c #E80000",
"(.	c #BE0000",
"_.	c #030A1D",
":.	c #000F00",
"<.	c #7E0000",
"[.	c #CF0000",
"}.	c #DB0000",
"|.	c #0B0017",
"1.	c #000700",
"2.	c #BF0000",
"3.	c #DD0000",
"4.	c #D30000",
"5.	c #990000",
"6.	c #B00000",
"7.	c #C10000",
"8.	c #E00000",
"9.	c #940000",
"0.	c #7A0100",
"a.	c #A60000",
"b.	c #9D0000",
"c.	c #9D0101",
"d.	c #7B0200",
"e.	c #8C0100",
"f.	c #9E0101",
"g.	c #8F0101",
"h.	c #7F0101",
"i.	c #720101",
"                                            ",
"  . + @ # $ % & & * = - ; > , ' ) + ! ~ {   ",
"  ] $ & - ^ / ( _ : < [ } | 1 * 2 3 # 4 5   ",
"  6 7 8 9 0 a b b c d e a f g / h - i 7 j   ",
"  6 k | l m n o p q r q s t u f v 9 w - x   ",
"  y z A B C D r E F F G H q I d J K g L z   ",
"  ) * M J n D H E N O P Q R S T U m V W i   ",
"  # X _ u C Y Z `  .P ..+.@.#.S $.t f %.&   ",
"  &.8 : *.n Y p r E Q =.  -.;.>.,.C f L %   ",
"  % L l c n '.Z r Q Q ).  !.P F q d 0 ^ 3   ",
"  > / K ~.s p Q {.].).^.  /./.F p ~.< - @   ",
"  > / (.U q H Q +.  _.:.  P /. .Z t g X <.  ",
"  x %.(.[.q }.+.    |.1.  E F ` p t [ i 6   ",
"  2 %.2.U '.}.            3.3.}.q c _ i y   ",
"  % w f d 4.p }.D         r H 3.q t g i <.  ",
"  &.8 : c I 4.D 4.s       H E ` D e g ; <.  ",
"  # 5.6.7.~.U n n U n     H 8.3.o e 6.; <.  ",
"  4 & / l a J m e t c n   r }.Z n J 9 9.y   ",
"  0.x h g l f 2.(.a m t U 4.4.I c f a.> +   ",
"  0.% b.W M [ [ v 0 f 2.u e b u l 6.c.$ !   ",
"  d.e.5.8 a.L L a.W A 6.[ < v M %.f.g.h.i.  ",
"                                            "};
