/* XPM */
static const char * settings_metronome_xpm[] = {
"16 16 80 1",
" 	c None",
".	c #C4B71A",
"+	c #BAAE17",
"@	c #B4AA40",
"#	c #D1C440",
"$	c #E0D123",
"%	c #87824B",
"&	c #E9D926",
"*	c #F8E407",
"=	c #F9E60D",
"-	c #752D08",
";	c #9D3D0B",
">	c #82330A",
",	c #6D2B08",
"'	c #FCEE4E",
")	c #612607",
"!	c #813308",
"~	c #DCD05F",
"{	c #EADC49",
"]	c #933A09",
"^	c #712D07",
"/	c #6F5E58",
"(	c #2A1006",
"_	c #C04B0C",
":	c #FCEB2D",
"<	c #6D2B07",
"[	c #4E3826",
"}	c #FCEF5D",
"|	c #F7EA49",
"1	c #470A31",
"2	c #7A3108",
"3	c #752F07",
"4	c #704517",
"5	c #F1E132",
"6	c #FBED4A",
"7	c #F1E141",
"8	c #7C3B3A",
"9	c #BC6130",
"0	c #7F3F0A",
"a	c #482B0E",
"b	c #F5E537",
"c	c #ECDB33",
"d	c #51142E",
"e	c #8E5C41",
"f	c #A8420A",
"g	c #612D07",
"h	c #43260A",
"i	c #50350F",
"j	c #673013",
"k	c #A95A2E",
"l	c #693208",
"m	c #281003",
"n	c #341403",
"o	c #C1500D",
"p	c #B9541A",
"q	c #B85C29",
"r	c #706914",
"s	c #120803",
"t	c #331608",
"u	c #774A33",
"v	c #62290A",
"w	c #B6AA20",
"x	c #131307",
"y	c #2C1103",
"z	c #662F12",
"A	c #743008",
"B	c #7D3E1B",
"C	c #251309",
"D	c #331809",
"E	c #BA6334",
"F	c #B75D2C",
"G	c #73300B",
"H	c #793A17",
"I	c #7F3208",
"J	c #903909",
"K	c #883609",
"L	c #622809",
"M	c #371908",
"N	c #4D2108",
"O	c #722E07",
"       .+       ",
"      @#$%      ",
"      &*=&      ",
"      -;;>      ",
"      ,'')      ",
"     !,~{]^  /( ",
"     ^_:~_< [}|1",
"    2^_{~_345678",
"    ^]9{{_0abcd ",
"   e;_f'{_ghid  ",
"   jf_k{:lmno   ",
"  j_pq_{rstq_u  ",
"  vf_f_wxy]f_z  ",
" AApqpBCDEFpqGA ",
" HHIJKLMNOOO^HH ",
"  aaaaaaaaaaaaaa"};
